M48
; DRILL file {KiCad 9.0.4} date 2025-09-20T14:10:58+0530
; FORMAT={-:-/ absolute / metric / decimal}
; #@! TF.CreationDate,2025-09-20T14:10:58+05:30
; #@! TF.GenerationSoftware,Kicad,Pcbnew,9.0.4
; #@! TF.FileFunction,Plated,1,2,PTH
FMAT,2
METRIC
; #@! TA.AperFunction,Plated,PTH,ViaDrill
T1C0.300
; #@! TA.AperFunction,Plated,PTH,ComponentDrill
T2C0.700
; #@! TA.AperFunction,Plated,PTH,ComponentDrill
T3C0.762
; #@! TA.AperFunction,Plated,PTH,ComponentDrill
T4C0.900
; #@! TA.AperFunction,Plated,PTH,ComponentDrill
T5C1.000
; #@! TA.AperFunction,Plated,PTH,ComponentDrill
T6C1.016
; #@! TA.AperFunction,Plated,PTH,ComponentDrill
T7C1.520
; #@! TA.AperFunction,Plated,PTH,ComponentDrill
T8C1.600
; #@! TA.AperFunction,Plated,PTH,ComponentDrill
T9C4.300
; #@! TA.AperFunction,Plated,PTH,ComponentDrill
T10C4.550
%
G90
G05
T1
X87.5Y-32.823
X88.286Y-50.464
X95.75Y-32.823
X97.5Y-44.75
X100.942Y-54.942
X106.288Y-61.788
X106.547Y-64.703
X106.95Y-44.25
X109.539Y-44.461
X117.368Y-47.7
X131.1Y-59.85
X133.25Y-71.0
X133.442Y-67.558
T2
X138.05Y-107.271
X138.05Y-112.351
T3
X115.75Y-123.0
X118.29Y-123.0
X120.83Y-123.0
X123.37Y-123.0
X125.91Y-123.0
X128.45Y-123.0
T4
X79.0Y-80.18
X79.0Y-85.18
X79.0Y-90.18
X79.0Y-97.84
X79.0Y-102.84
X79.0Y-107.84
X79.0Y-115.5
X79.0Y-120.5
X79.0Y-125.5
X106.5Y-83.18
X106.5Y-87.18
X106.5Y-100.84
X106.5Y-104.84
X106.5Y-118.5
X106.5Y-122.5
T5
X87.5Y-34.959
X87.5Y-37.499
X91.0Y-60.34
X91.0Y-62.88
X91.0Y-65.42
X91.0Y-67.96
X91.0Y-70.5
X95.75Y-34.96
X95.75Y-37.5
X120.5Y-36.725
X120.5Y-39.265
X122.75Y-54.0
X122.75Y-56.5
X128.5Y-36.725
X128.5Y-39.265
X138.353Y-71.781
X138.353Y-77.781
X138.353Y-83.781
X138.353Y-89.781
X138.353Y-95.781
X138.353Y-101.781
X140.853Y-71.781
X140.853Y-77.781
X140.853Y-83.781
X140.853Y-89.781
X140.853Y-95.781
X140.853Y-101.781
T6
X114.75Y-75.5
X114.75Y-78.04
X114.75Y-80.58
X114.75Y-83.12
X114.75Y-85.66
X114.75Y-88.2
X114.75Y-90.74
X114.75Y-93.28
X114.75Y-95.82
X114.75Y-98.36
X114.75Y-100.9
X114.75Y-103.44
X114.75Y-105.98
X114.75Y-108.52
X114.75Y-111.06
X129.99Y-75.5
X129.99Y-78.04
X129.99Y-80.58
X129.99Y-83.12
X129.99Y-85.66
X129.99Y-88.2
X129.99Y-90.74
X129.99Y-93.28
X129.99Y-95.82
X129.99Y-98.36
X129.99Y-100.9
X129.99Y-103.44
X129.99Y-105.98
X129.99Y-108.52
X129.99Y-111.06
T7
X81.75Y-44.17
X81.75Y-49.25
X81.75Y-54.33
X138.478Y-53.304
X138.478Y-58.384
X138.478Y-63.464
X139.0Y-121.17
X139.0Y-126.25
T8
X95.25Y-41.75
X133.75Y-48.0
T9
X80.05Y-135.101
X80.25Y-36.25
X139.0Y-36.25
X139.75Y-135.5
T10
X104.0Y-38.312
X111.2Y-38.312
M30
