%TF.GenerationSoftware,KiCad,Pcbnew,9.0.4*%
%TF.CreationDate,2025-09-20T14:11:16+05:30*%
%TF.ProjectId,FireSide v2.0,46697265-5369-4646-9520-76322e302e6b,rev?*%
%TF.SameCoordinates,Original*%
%TF.FileFunction,Copper,L1,Top*%
%TF.FilePolarity,Positive*%
%FSLAX46Y46*%
G04 Gerber Fmt 4.6, Leading zero omitted, Abs format (unit mm)*
G04 Created by KiCad (PCBNEW 9.0.4) date 2025-09-20 14:11:16*
%MOMM*%
%LPD*%
G01*
G04 APERTURE LIST*
G04 Aperture macros list*
%AMRoundRect*
0 Rectangle with rounded corners*
0 $1 Rounding radius*
0 $2 $3 $4 $5 $6 $7 $8 $9 X,Y pos of 4 corners*
0 Add a 4 corners polygon primitive as box body*
4,1,4,$2,$3,$4,$5,$6,$7,$8,$9,$2,$3,0*
0 Add four circle primitives for the rounded corners*
1,1,$1+$1,$2,$3*
1,1,$1+$1,$4,$5*
1,1,$1+$1,$6,$7*
1,1,$1+$1,$8,$9*
0 Add four rect primitives between the rounded corners*
20,1,$1+$1,$2,$3,$4,$5,0*
20,1,$1+$1,$4,$5,$6,$7,0*
20,1,$1+$1,$6,$7,$8,$9,0*
20,1,$1+$1,$8,$9,$2,$3,0*%
G04 Aperture macros list end*
%TA.AperFunction,ComponentPad*%
%ADD10C,1.800000*%
%TD*%
%TA.AperFunction,SMDPad,CuDef*%
%ADD11RoundRect,0.250000X0.250000X0.475000X-0.250000X0.475000X-0.250000X-0.475000X0.250000X-0.475000X0*%
%TD*%
%TA.AperFunction,ComponentPad*%
%ADD12C,7.500000*%
%TD*%
%TA.AperFunction,SMDPad,CuDef*%
%ADD13RoundRect,0.250000X0.475000X-0.250000X0.475000X0.250000X-0.475000X0.250000X-0.475000X-0.250000X0*%
%TD*%
%TA.AperFunction,SMDPad,CuDef*%
%ADD14RoundRect,0.375000X-0.375000X0.625000X-0.375000X-0.625000X0.375000X-0.625000X0.375000X0.625000X0*%
%TD*%
%TA.AperFunction,SMDPad,CuDef*%
%ADD15RoundRect,0.500000X-1.400000X0.500000X-1.400000X-0.500000X1.400000X-0.500000X1.400000X0.500000X0*%
%TD*%
%TA.AperFunction,ComponentPad*%
%ADD16RoundRect,0.250000X-0.600000X-0.750000X0.600000X-0.750000X0.600000X0.750000X-0.600000X0.750000X0*%
%TD*%
%TA.AperFunction,ComponentPad*%
%ADD17O,1.700000X2.000000*%
%TD*%
%TA.AperFunction,ComponentPad*%
%ADD18R,1.700000X1.700000*%
%TD*%
%TA.AperFunction,ComponentPad*%
%ADD19C,1.700000*%
%TD*%
%TA.AperFunction,ComponentPad*%
%ADD20RoundRect,0.250000X-0.750000X0.600000X-0.750000X-0.600000X0.750000X-0.600000X0.750000X0.600000X0*%
%TD*%
%TA.AperFunction,ComponentPad*%
%ADD21O,2.000000X1.700000*%
%TD*%
%TA.AperFunction,SMDPad,CuDef*%
%ADD22RoundRect,0.375000X0.625000X0.375000X-0.625000X0.375000X-0.625000X-0.375000X0.625000X-0.375000X0*%
%TD*%
%TA.AperFunction,SMDPad,CuDef*%
%ADD23RoundRect,0.500000X0.500000X1.400000X-0.500000X1.400000X-0.500000X-1.400000X0.500000X-1.400000X0*%
%TD*%
%TA.AperFunction,SMDPad,CuDef*%
%ADD24RoundRect,0.250000X-0.250000X-0.475000X0.250000X-0.475000X0.250000X0.475000X-0.250000X0.475000X0*%
%TD*%
%TA.AperFunction,SMDPad,CuDef*%
%ADD25RoundRect,0.243750X-0.243750X-0.456250X0.243750X-0.456250X0.243750X0.456250X-0.243750X0.456250X0*%
%TD*%
%TA.AperFunction,SMDPad,CuDef*%
%ADD26RoundRect,0.250000X0.262500X0.450000X-0.262500X0.450000X-0.262500X-0.450000X0.262500X-0.450000X0*%
%TD*%
%TA.AperFunction,ComponentPad*%
%ADD27C,1.524000*%
%TD*%
%TA.AperFunction,SMDPad,CuDef*%
%ADD28RoundRect,0.250000X-0.262500X-0.450000X0.262500X-0.450000X0.262500X0.450000X-0.262500X0.450000X0*%
%TD*%
%TA.AperFunction,ComponentPad*%
%ADD29C,1.400000*%
%TD*%
%TA.AperFunction,ComponentPad*%
%ADD30R,1.524000X1.524000*%
%TD*%
%TA.AperFunction,ComponentPad*%
%ADD31R,3.000000X3.000000*%
%TD*%
%TA.AperFunction,ComponentPad*%
%ADD32C,3.000000*%
%TD*%
%TA.AperFunction,ComponentPad*%
%ADD33C,6.000000*%
%TD*%
%TA.AperFunction,ComponentPad*%
%ADD34R,6.000000X6.000000*%
%TD*%
%TA.AperFunction,SMDPad,CuDef*%
%ADD35RoundRect,0.150000X0.150000X-0.587500X0.150000X0.587500X-0.150000X0.587500X-0.150000X-0.587500X0*%
%TD*%
%TA.AperFunction,ComponentPad*%
%ADD36O,1.700000X1.700000*%
%TD*%
%TA.AperFunction,ViaPad*%
%ADD37C,0.600000*%
%TD*%
%TA.AperFunction,Conductor*%
%ADD38C,0.800000*%
%TD*%
%TA.AperFunction,Conductor*%
%ADD39C,0.200000*%
%TD*%
G04 APERTURE END LIST*
D10*
%TO.P,U5,1,GND*%
%TO.N,GND*%
X106500000Y-87180000D03*
%TO.P,U5,2,PWM*%
%TO.N,PWM_D4184-1*%
X106500000Y-83180000D03*
%TO.P,U5,3,-*%
%TO.N,unconnected-(U5---Pad3)*%
X79000000Y-90180000D03*
%TO.P,U5,4,LOAD*%
%TO.N,unconnected-(U5-LOAD-Pad4)*%
X79000000Y-85180000D03*
%TO.P,U5,5,+*%
%TO.N,unconnected-(U5-+-Pad5)*%
X79000000Y-80180000D03*
%TD*%
D11*
%TO.P,C2,1*%
%TO.N,VI*%
X100950000Y-44750000D03*
%TO.P,C2,2*%
%TO.N,GND*%
X99050000Y-44750000D03*
%TD*%
D12*
%TO.P,H2,1,1*%
%TO.N,GND*%
X80050400Y-135100800D03*
%TD*%
%TO.P,H3,1,1*%
%TO.N,GND*%
X80250000Y-36250000D03*
%TD*%
D13*
%TO.P,C3,1*%
%TO.N,VI*%
X106950000Y-47700000D03*
%TO.P,C3,2*%
%TO.N,GND*%
X106950000Y-45800000D03*
%TD*%
D14*
%TO.P,U4,1,GND*%
%TO.N,GND*%
X115350000Y-47700000D03*
%TO.P,U4,2,VO*%
%TO.N,5V*%
X113050000Y-47700000D03*
D15*
X113050000Y-54000000D03*
D14*
%TO.P,U4,3,VI*%
%TO.N,VI*%
X110750000Y-47700000D03*
%TD*%
D16*
%TO.P,J4,1,Pin_1*%
%TO.N,A4*%
X138352799Y-83781199D03*
D17*
%TO.P,J4,2,Pin_2*%
%TO.N,GND*%
X140852799Y-83781199D03*
%TD*%
D18*
%TO.P,J12,1,Pin_1*%
%TO.N,GND*%
X87500000Y-34958563D03*
D19*
%TO.P,J12,2,Pin_2*%
%TO.N,3.3V*%
X87500000Y-37498563D03*
%TD*%
D20*
%TO.P,J10,1,Pin_1*%
%TO.N,Net-(J10-Pin_1)*%
X122750000Y-54000000D03*
D21*
%TO.P,J10,2,Pin_2*%
%TO.N,VI*%
X122750000Y-56500000D03*
%TD*%
D22*
%TO.P,U1,1,GND*%
%TO.N,GND*%
X100941768Y-52760400D03*
%TO.P,U1,2,VO*%
%TO.N,3.3V*%
X100941768Y-50460400D03*
D23*
X94641768Y-50460400D03*
D22*
%TO.P,U1,3,VI*%
%TO.N,VI*%
X100941768Y-48160400D03*
%TD*%
D18*
%TO.P,J8,1,Pin_1*%
%TO.N,GND*%
X120500000Y-36725000D03*
D19*
%TO.P,J8,2,Pin_2*%
%TO.N,5V*%
X120500000Y-39265000D03*
%TD*%
D24*
%TO.P,C6,1*%
%TO.N,5Vin*%
X129989181Y-70987836D03*
%TO.P,C6,2*%
%TO.N,GND*%
X131889181Y-70987836D03*
%TD*%
D25*
%TO.P,D1,1,K*%
%TO.N,GND*%
X107984100Y-61787676D03*
%TO.P,D1,2,A*%
%TO.N,Net-(D1-A)*%
X109859100Y-61787676D03*
%TD*%
D26*
%TO.P,R4,1*%
%TO.N,Net-(Q1-C)*%
X129075000Y-54000000D03*
%TO.P,R4,2*%
%TO.N,Net-(J10-Pin_1)*%
X127250000Y-54000000D03*
%TD*%
D11*
%TO.P,C4,1*%
%TO.N,3.3V*%
X91791212Y-50463737D03*
%TO.P,C4,2*%
%TO.N,GND*%
X89891212Y-50463737D03*
%TD*%
D12*
%TO.P,H1,1,1*%
%TO.N,GND*%
X139750000Y-135500000D03*
%TD*%
D16*
%TO.P,J5,1,Pin_1*%
%TO.N,A5*%
X138352799Y-77781199D03*
D17*
%TO.P,J5,2,Pin_2*%
%TO.N,GND*%
X140852799Y-77781199D03*
%TD*%
D27*
%TO.P,U8,1,CS*%
%TO.N,CS_SD*%
X128450000Y-123000000D03*
%TO.P,U8,2,SCK*%
%TO.N,SCK_SD*%
X125910000Y-123000000D03*
%TO.P,U8,3,MOSI*%
%TO.N,MOSI_SD*%
X123370000Y-123000000D03*
%TO.P,U8,4,MISO*%
%TO.N,MISO_SD*%
X120830000Y-123000000D03*
%TO.P,U8,5,VCC*%
%TO.N,3.3V_STM*%
X118290000Y-123000000D03*
%TO.P,U8,6,GND*%
%TO.N,GND*%
X115750000Y-123000000D03*
%TD*%
D28*
%TO.P,R3,1*%
%TO.N,Net-(D2-A)*%
X112750000Y-64750000D03*
%TO.P,R3,2*%
%TO.N,LAUNCH_LED*%
X114575000Y-64750000D03*
%TD*%
D25*
%TO.P,D2,1,K*%
%TO.N,GND*%
X108021777Y-64703033D03*
%TO.P,D2,2,A*%
%TO.N,Net-(D2-A)*%
X109896777Y-64703033D03*
%TD*%
D10*
%TO.P,U7,1,GND*%
%TO.N,GND*%
X106500000Y-122500000D03*
%TO.P,U7,2,PWM*%
%TO.N,PWM_D4184-3*%
X106500000Y-118500000D03*
%TO.P,U7,3,-*%
%TO.N,unconnected-(U7---Pad3)*%
X79000000Y-125500000D03*
%TO.P,U7,4,LOAD*%
%TO.N,unconnected-(U7-LOAD-Pad4)*%
X79000000Y-120500000D03*
%TO.P,U7,5,+*%
%TO.N,unconnected-(U7-+-Pad5)*%
X79000000Y-115500000D03*
%TD*%
D29*
%TO.P,R2,1*%
%TO.N,3.3V_STM*%
X138050400Y-112350800D03*
%TO.P,R2,2*%
%TO.N,A_THERM*%
X138050400Y-107270800D03*
%TD*%
D11*
%TO.P,C1,1*%
%TO.N,5V*%
X113046508Y-44460665D03*
%TO.P,C1,2*%
%TO.N,GND*%
X111146508Y-44460665D03*
%TD*%
D30*
%TO.P,U9,CN3_1,PA9/D1*%
%TO.N,RX_RYLR*%
X114750000Y-75500000D03*
D27*
%TO.P,U9,CN3_2,PA10/D0*%
%TO.N,TX_RYLR*%
X114750000Y-78040000D03*
%TO.P,U9,CN3_3,~{RST}_CN3*%
%TO.N,unconnected-(U9-~{RST}_CN3-PadCN3_3)*%
X114750000Y-80580000D03*
%TO.P,U9,CN3_4,GND_CN3*%
%TO.N,GND*%
X114750000Y-83120000D03*
%TO.P,U9,CN3_5,PA12/D2*%
%TO.N,LAUNCH_LED*%
X114750000Y-85660000D03*
%TO.P,U9,CN3_6,PB0/D3*%
%TO.N,PWM_D4184-1*%
X114750000Y-88200000D03*
%TO.P,U9,CN3_7,PB7/D4*%
%TO.N,ARM_LED*%
X114750000Y-90740000D03*
%TO.P,U9,CN3_8,PB6/D5*%
%TO.N,STATUS_PIN*%
X114750000Y-93280000D03*
%TO.P,U9,CN3_9,PB1/D6*%
%TO.N,PWM_D4184-2*%
X114750000Y-95820000D03*
%TO.P,U9,CN3_10,PC14/D7*%
%TO.N,unconnected-(U9-PC14{slash}D7-PadCN3_10)*%
X114750000Y-98360000D03*
%TO.P,U9,CN3_11,PC15/D8*%
%TO.N,unconnected-(U9-PC15{slash}D8-PadCN3_11)*%
X114750000Y-100900000D03*
%TO.P,U9,CN3_12,PA8/D9*%
%TO.N,PWM_D4184-3*%
X114750000Y-103440000D03*
%TO.P,U9,CN3_13,PA11/D10*%
%TO.N,CS_SD*%
X114750000Y-105980000D03*
%TO.P,U9,CN3_14,PB5/D11*%
%TO.N,MOSI_SD*%
X114750000Y-108520000D03*
%TO.P,U9,CN3_15,PB4/D12*%
%TO.N,MISO_SD*%
X114750000Y-111060000D03*
%TO.P,U9,CN4_1,VIN*%
%TO.N,5Vin*%
X129990000Y-75500000D03*
%TO.P,U9,CN4_2,GND_CN4*%
%TO.N,unconnected-(U9-GND_CN4-PadCN4_2)*%
X129990000Y-78040000D03*
%TO.P,U9,CN4_3,~{RST}_CN4*%
%TO.N,unconnected-(U9-~{RST}_CN4-PadCN4_3)*%
X129990000Y-80580000D03*
%TO.P,U9,CN4_4,+5V*%
%TO.N,unconnected-(U9-+5V-PadCN4_4)*%
X129990000Y-83120000D03*
%TO.P,U9,CN4_5,PA2/A7*%
%TO.N,A6*%
X129990000Y-85660000D03*
%TO.P,U9,CN4_6,PA7/A6*%
%TO.N,A5*%
X129990000Y-88200000D03*
%TO.P,U9,CN4_7,PA6/A5*%
%TO.N,A4*%
X129990000Y-90740000D03*
%TO.P,U9,CN4_8,PA5/A4*%
%TO.N,A3*%
X129990000Y-93280000D03*
%TO.P,U9,CN4_9,PA4/A3*%
%TO.N,A2*%
X129990000Y-95820000D03*
%TO.P,U9,CN4_10,PA3/A2*%
%TO.N,A1*%
X129990000Y-98360000D03*
%TO.P,U9,CN4_11,PA1/A1*%
%TO.N,unconnected-(U9-PA1{slash}A1-PadCN4_11)*%
X129990000Y-100900000D03*
%TO.P,U9,CN4_12,PA0/A0*%
%TO.N,A_THERM*%
X129990000Y-103440000D03*
%TO.P,U9,CN4_13,AREF*%
%TO.N,unconnected-(U9-AREF-PadCN4_13)*%
X129990000Y-105980000D03*
%TO.P,U9,CN4_14,+3V3*%
%TO.N,3.3V_STM*%
X129990000Y-108520000D03*
%TO.P,U9,CN4_15,PB3/D13*%
%TO.N,SCK_SD*%
X129990000Y-111060000D03*
%TD*%
D31*
%TO.P,J14,1,Pin_1*%
%TO.N,GND*%
X139000000Y-126250000D03*
D32*
%TO.P,J14,2,Pin_2*%
%TO.N,A_THERM*%
X139000000Y-121170000D03*
%TD*%
D18*
%TO.P,J7,1,Pin_1*%
%TO.N,GND*%
X128500000Y-36725000D03*
D19*
%TO.P,J7,2,Pin_2*%
%TO.N,5V*%
X128500000Y-39265000D03*
%TD*%
D10*
%TO.P,U6,1,GND*%
%TO.N,GND*%
X106500000Y-104840000D03*
%TO.P,U6,2,PWM*%
%TO.N,PWM_D4184-2*%
X106500000Y-100840000D03*
%TO.P,U6,3,-*%
%TO.N,unconnected-(U6---Pad3)*%
X79000000Y-107840000D03*
%TO.P,U6,4,LOAD*%
%TO.N,unconnected-(U6-LOAD-Pad4)*%
X79000000Y-102840000D03*
%TO.P,U6,5,+*%
%TO.N,unconnected-(U6-+-Pad5)*%
X79000000Y-97840000D03*
%TD*%
D18*
%TO.P,J11,1,Pin_1*%
%TO.N,GND*%
X95750000Y-34960000D03*
D19*
%TO.P,J11,2,Pin_2*%
%TO.N,3.3V*%
X95750000Y-37500000D03*
%TD*%
D24*
%TO.P,C5,1*%
%TO.N,5Vin*%
X129993152Y-67558421D03*
%TO.P,C5,2*%
%TO.N,GND*%
X131893152Y-67558421D03*
%TD*%
D16*
%TO.P,J2,1,Pin_1*%
%TO.N,A2*%
X138352799Y-95781199D03*
D17*
%TO.P,J2,2,Pin_2*%
%TO.N,GND*%
X140852799Y-95781199D03*
%TD*%
D33*
%TO.P,U3,N,NEG*%
%TO.N,GND*%
X111200000Y-38312500D03*
D34*
%TO.P,U3,P,POS*%
%TO.N,VI*%
X104000000Y-38312500D03*
%TD*%
D32*
%TO.P,TP2,1,1*%
%TO.N,3.3V*%
X95250000Y-41750000D03*
%TD*%
D28*
%TO.P,R1,1*%
%TO.N,Net-(D1-A)*%
X112675000Y-61750000D03*
%TO.P,R1,2*%
%TO.N,ARM_LED*%
X114500000Y-61750000D03*
%TD*%
D16*
%TO.P,J1,1,Pin_1*%
%TO.N,A1*%
X138352799Y-101781199D03*
D17*
%TO.P,J1,2,Pin_2*%
%TO.N,GND*%
X140852799Y-101781199D03*
%TD*%
D32*
%TO.P,TP1,1,1*%
%TO.N,5V*%
X133750000Y-48000000D03*
%TD*%
D12*
%TO.P,H4,1,1*%
%TO.N,GND*%
X139000000Y-36250000D03*
%TD*%
D16*
%TO.P,J6,1,Pin_1*%
%TO.N,A6*%
X138352799Y-71781199D03*
D17*
%TO.P,J6,2,Pin_2*%
%TO.N,GND*%
X140852799Y-71781199D03*
%TD*%
D31*
%TO.P,J13,1,Pin_1*%
%TO.N,5Vin*%
X138477718Y-63464391D03*
D32*
%TO.P,J13,2,Pin_2*%
%TO.N,GND*%
X138477718Y-58384391D03*
%TO.P,J13,3,Pin_3*%
%TO.N,5V*%
X138477718Y-53304391D03*
%TD*%
D16*
%TO.P,J3,1,Pin_1*%
%TO.N,A3*%
X138352799Y-89781199D03*
D17*
%TO.P,J3,2,Pin_2*%
%TO.N,GND*%
X140852799Y-89781199D03*
%TD*%
D31*
%TO.P,J9,1,Pin_1*%
%TO.N,3.3V*%
X81750000Y-44170000D03*
D32*
%TO.P,J9,2,Pin_2*%
%TO.N,GND*%
X81750000Y-49250000D03*
%TO.P,J9,3,Pin_3*%
%TO.N,3.3Vin*%
X81750000Y-54330000D03*
%TD*%
D35*
%TO.P,Q1,1,B*%
%TO.N,STATUS_PIN*%
X128134612Y-59850250D03*
%TO.P,Q1,2,E*%
%TO.N,GND*%
X130034612Y-59850250D03*
%TO.P,Q1,3,C*%
%TO.N,Net-(Q1-C)*%
X129084612Y-57975250D03*
%TD*%
D36*
%TO.P,U2,1,VDD*%
%TO.N,3.3Vin*%
X91000000Y-60340000D03*
%TO.P,U2,2,RST*%
%TO.N,unconnected-(U2-RST-Pad2)*%
X91000000Y-62880000D03*
%TO.P,U2,3,RXD*%
%TO.N,RX_RYLR*%
X91000000Y-65420000D03*
%TO.P,U2,4,TXD*%
%TO.N,TX_RYLR*%
X91000000Y-67960000D03*
D18*
%TO.P,U2,5,GND*%
%TO.N,GND*%
X91000000Y-70500000D03*
%TD*%
D37*
%TO.N,GND*%
X131100250Y-59850250D03*
X109539335Y-44460665D03*
X106287676Y-61787676D03*
X106546967Y-64703033D03*
X95750000Y-32823462D03*
X106950000Y-44250000D03*
X88286263Y-50463737D03*
X133250000Y-71000000D03*
X87500000Y-32823463D03*
X97500000Y-44750000D03*
X100941768Y-54941768D03*
X117367769Y-47700000D03*
X133441579Y-67558421D03*
%TD*%
D38*
%TO.N,GND*%
X87500000Y-34958563D02*
X87500000Y-32823463D01*
X115350000Y-47700000D02*
X117367769Y-47700000D01*
X89891212Y-50463737D02*
X88286263Y-50463737D01*
X106950000Y-45800000D02*
X106950000Y-44250000D01*
X130034612Y-59850250D02*
X131100250Y-59850250D01*
X99050000Y-44750000D02*
X97500000Y-44750000D01*
X131893152Y-67558421D02*
X133441579Y-67558421D01*
X108021777Y-64703033D02*
X106546967Y-64703033D01*
X95750000Y-34960000D02*
X95750000Y-32823462D01*
X107984100Y-61787676D02*
X106287676Y-61787676D01*
X111146508Y-44460665D02*
X109539335Y-44460665D01*
X131889181Y-70987836D02*
X133237836Y-70987836D01*
X100941768Y-52760400D02*
X100941768Y-54941768D01*
%TO.N,5V*%
X134500000Y-44460665D02*
X137710665Y-44460665D01*
X113050000Y-44464157D02*
X113046508Y-44460665D01*
X128500000Y-44460665D02*
X129250000Y-44460665D01*
X128500000Y-43750000D02*
X128460665Y-43750000D01*
X120539335Y-43750000D02*
X121250000Y-44460665D01*
X128460665Y-43750000D02*
X127750000Y-44460665D01*
X113046508Y-44460665D02*
X119750000Y-44460665D01*
X120460665Y-43750000D02*
X119750000Y-44460665D01*
X120500000Y-43750000D02*
X120500000Y-44460665D01*
X120500000Y-39265000D02*
X120500000Y-43750000D01*
X129250000Y-44460665D02*
X133250000Y-44460665D01*
X133250000Y-44460665D02*
X133250000Y-44500000D01*
X113050000Y-47700000D02*
X113050000Y-44464157D01*
X138477718Y-45227718D02*
X138477718Y-53304391D01*
X133250000Y-44460665D02*
X133750000Y-44460665D01*
X133250000Y-44500000D02*
X133750000Y-45000000D01*
X134289335Y-44460665D02*
X133750000Y-45000000D01*
X134500000Y-44460665D02*
X134289335Y-44460665D01*
X121250000Y-44460665D02*
X127750000Y-44460665D01*
X137710665Y-44460665D02*
X138477718Y-45227718D01*
X120500000Y-43750000D02*
X120539335Y-43750000D01*
X127750000Y-44460665D02*
X128500000Y-44460665D01*
X128500000Y-43750000D02*
X128539335Y-43750000D01*
X120500000Y-44460665D02*
X121250000Y-44460665D01*
X128500000Y-43750000D02*
X128500000Y-44460665D01*
X119750000Y-44460665D02*
X120500000Y-44460665D01*
X133750000Y-45000000D02*
X133750000Y-44460665D01*
X138475472Y-53306637D02*
X138477718Y-53304391D01*
X128500000Y-39265000D02*
X128500000Y-43750000D01*
X133750000Y-48000000D02*
X133750000Y-45000000D01*
X133750000Y-44460665D02*
X134500000Y-44460665D01*
X128539335Y-43750000D02*
X129250000Y-44460665D01*
X120500000Y-43750000D02*
X120460665Y-43750000D01*
%TO.N,VI*%
X104500000Y-47750000D02*
X104000000Y-48250000D01*
X103500000Y-44750000D02*
X100950000Y-44750000D01*
X104000000Y-44750000D02*
X104000000Y-45500000D01*
X104000000Y-47250000D02*
X104000000Y-47750000D01*
X104000000Y-44250000D02*
X103500000Y-44750000D01*
X104000000Y-38312500D02*
X104000000Y-44000000D01*
X106950000Y-47700000D02*
X104500000Y-47700000D01*
X104000000Y-47250000D02*
X104050000Y-47250000D01*
X100950000Y-48152168D02*
X100941768Y-48160400D01*
X104050000Y-47250000D02*
X104500000Y-47700000D01*
X100950000Y-44750000D02*
X100950000Y-48152168D01*
X122750000Y-56500000D02*
X107000000Y-56500000D01*
X104000000Y-47750000D02*
X104000000Y-48250000D01*
X104000000Y-44000000D02*
X104000000Y-44250000D01*
X104000000Y-46250000D02*
X104000000Y-46750000D01*
X104000000Y-44750000D02*
X103500000Y-44750000D01*
X104050000Y-47700000D02*
X104000000Y-47750000D01*
X103500000Y-44750000D02*
X104000000Y-45250000D01*
X104000000Y-44000000D02*
X104000000Y-44750000D01*
X104000000Y-45250000D02*
X104000000Y-45500000D01*
X107000000Y-56500000D02*
X104000000Y-53500000D01*
X104000000Y-45500000D02*
X104000000Y-46250000D01*
X104500000Y-47700000D02*
X104050000Y-47700000D01*
X104000000Y-46750000D02*
X104000000Y-47250000D01*
X104500000Y-47700000D02*
X104500000Y-47750000D01*
X104000000Y-53500000D02*
X104000000Y-48250000D01*
X106950000Y-47700000D02*
X110750000Y-47700000D01*
D39*
%TO.N,A1*%
X135781199Y-101781199D02*
X138352799Y-101781199D01*
X132360000Y-98360000D02*
X135781199Y-101781199D01*
X129990000Y-98360000D02*
X132360000Y-98360000D01*
%TO.N,A2*%
X138313998Y-95820000D02*
X138352799Y-95781199D01*
X129990000Y-95820000D02*
X138313998Y-95820000D01*
%TO.N,A3*%
X138352799Y-92147201D02*
X137220000Y-93280000D01*
X137220000Y-93280000D02*
X129990000Y-93280000D01*
X138352799Y-92147201D02*
X138352799Y-92000000D01*
X138352799Y-92000000D02*
X138352799Y-89781199D01*
%TO.N,A4*%
X138343198Y-83790800D02*
X138352799Y-83781199D01*
X138352799Y-86397201D02*
X138352799Y-83781199D01*
X134010000Y-90740000D02*
X129990000Y-90740000D01*
X138352799Y-86397201D02*
X134010000Y-90740000D01*
%TO.N,A5*%
X138352799Y-77781199D02*
X138352799Y-80147201D01*
X138352799Y-80147201D02*
X134500000Y-84000000D01*
X134500000Y-86000000D02*
X132300000Y-88200000D01*
X132300000Y-88200000D02*
X129990000Y-88200000D01*
X134500000Y-84000000D02*
X134500000Y-86000000D01*
D38*
%TO.N,3.3V*%
X95250000Y-41750000D02*
X92250000Y-41750000D01*
X91000000Y-37498563D02*
X91750000Y-37498563D01*
X92542649Y-37498563D02*
X91791212Y-38250000D01*
X91039775Y-37498563D02*
X91791212Y-38250000D01*
X91791212Y-50463737D02*
X94638431Y-50463737D01*
X91791212Y-41250000D02*
X91791212Y-38250000D01*
X87500000Y-37498563D02*
X91000000Y-37498563D01*
X92750000Y-37498563D02*
X92542649Y-37498563D01*
X92750000Y-37498563D02*
X95748563Y-37498563D01*
X92250000Y-41750000D02*
X92250000Y-41791212D01*
X91791212Y-45000000D02*
X91791212Y-44250000D01*
X90750000Y-44170000D02*
X91121212Y-44170000D01*
X91791212Y-41250000D02*
X91791212Y-41291212D01*
X91791212Y-37539775D02*
X91750000Y-37498563D01*
X92250000Y-41750000D02*
X91791212Y-41750000D01*
X91121212Y-44170000D02*
X91791212Y-43500000D01*
X91791212Y-43500000D02*
X91791212Y-42250000D01*
X91791212Y-41750000D02*
X91791212Y-41250000D01*
X92250000Y-41791212D02*
X91791212Y-42250000D01*
X81750000Y-44170000D02*
X90750000Y-44170000D01*
X91711212Y-44170000D02*
X91791212Y-44250000D01*
X90750000Y-44170000D02*
X90961212Y-44170000D01*
X91791212Y-38250000D02*
X91791212Y-37539775D01*
X91791212Y-42250000D02*
X91791212Y-41750000D01*
X91791212Y-41291212D02*
X92250000Y-41750000D01*
X91000000Y-37498563D02*
X91039775Y-37498563D01*
X91791212Y-50463737D02*
X91791212Y-45000000D01*
X95748563Y-37498563D02*
X95750000Y-37500000D01*
X90750000Y-44170000D02*
X91711212Y-44170000D01*
X91750000Y-37498563D02*
X92750000Y-37498563D01*
X90961212Y-44170000D02*
X91791212Y-45000000D01*
X94638431Y-50463737D02*
X94641768Y-50460400D01*
X91791212Y-44250000D02*
X91791212Y-43500000D01*
D39*
%TO.N,CS_SD*%
X117480000Y-105980000D02*
X114750000Y-105980000D01*
X128450000Y-123000000D02*
X128450000Y-116950000D01*
X128450000Y-116950000D02*
X117480000Y-105980000D01*
%TO.N,PWM_D4184-2*%
X106500000Y-98250000D02*
X108930000Y-95820000D01*
X108930000Y-95820000D02*
X114750000Y-95820000D01*
X106500000Y-100840000D02*
X106500000Y-98250000D01*
%TO.N,RX_RYLR*%
X112250000Y-75500000D02*
X114750000Y-75500000D01*
X91000000Y-65420000D02*
X102170000Y-65420000D01*
X102170000Y-65420000D02*
X112250000Y-75500000D01*
%TO.N,TX_RYLR*%
X111040000Y-78040000D02*
X114750000Y-78040000D01*
X91000000Y-67960000D02*
X100960000Y-67960000D01*
X100960000Y-67960000D02*
X111040000Y-78040000D01*
%TO.N,MOSI_SD*%
X114750000Y-108520000D02*
X117082075Y-108520000D01*
X123370000Y-114807925D02*
X123370000Y-123000000D01*
X117082075Y-108520000D02*
X123370000Y-114807925D01*
%TO.N,SCK_SD*%
X131125000Y-123875000D02*
X129500000Y-125500000D01*
X129990000Y-111060000D02*
X129990000Y-116990000D01*
X129500000Y-125500000D02*
X126500000Y-125500000D01*
X131125000Y-118125000D02*
X131125000Y-123875000D01*
X129990000Y-116990000D02*
X131125000Y-118125000D01*
X125910000Y-124910000D02*
X125910000Y-123000000D01*
X126500000Y-125500000D02*
X125910000Y-124910000D01*
%TO.N,MISO_SD*%
X114750000Y-111060000D02*
X112690000Y-111060000D01*
X112690000Y-111060000D02*
X111000000Y-112750000D01*
X119250000Y-119500000D02*
X120830000Y-121080000D01*
X113250000Y-119500000D02*
X119250000Y-119500000D01*
X111000000Y-117250000D02*
X113250000Y-119500000D01*
X111000000Y-112750000D02*
X111000000Y-117250000D01*
X120830000Y-121080000D02*
X120830000Y-123000000D01*
%TO.N,PWM_D4184-1*%
X106500000Y-83180000D02*
X108132924Y-83180000D01*
X113152924Y-88200000D02*
X114750000Y-88200000D01*
X108132924Y-83180000D02*
X113152924Y-88200000D01*
%TO.N,PWM_D4184-3*%
X106500000Y-109750000D02*
X112810000Y-103440000D01*
X112810000Y-103440000D02*
X114750000Y-103440000D01*
X106500000Y-118500000D02*
X106500000Y-109750000D01*
D38*
%TO.N,5Vin*%
X131785609Y-63464391D02*
X129993152Y-65256848D01*
X129993152Y-70983865D02*
X129989181Y-70987836D01*
X129993152Y-67558421D02*
X129993152Y-70983865D01*
X129989181Y-75499181D02*
X129990000Y-75500000D01*
X129993152Y-65256848D02*
X129993152Y-67558421D01*
X129989181Y-70987836D02*
X129989181Y-75499181D01*
X138477718Y-63464391D02*
X131785609Y-63464391D01*
D39*
%TO.N,A6*%
X132090000Y-85660000D02*
X129990000Y-85660000D01*
X136218801Y-71781199D02*
X132750000Y-75250000D01*
X138352799Y-71781199D02*
X136218801Y-71781199D01*
X132750000Y-75250000D02*
X132750000Y-85000000D01*
X132750000Y-85000000D02*
X132090000Y-85660000D01*
%TO.N,A_THERM*%
X139000000Y-121170000D02*
X139000000Y-117500000D01*
X139000000Y-117500000D02*
X143250000Y-113250000D01*
X136316800Y-107270800D02*
X138050400Y-107270800D01*
X143250000Y-113250000D02*
X143250000Y-108750000D01*
X132486000Y-103440000D02*
X136316800Y-107270800D01*
X143250000Y-108750000D02*
X141770800Y-107270800D01*
X141770800Y-107270800D02*
X138050400Y-107270800D01*
X129990000Y-103440000D02*
X132486000Y-103440000D01*
D38*
%TO.N,Net-(J10-Pin_1)*%
X122750000Y-54000000D02*
X127250000Y-54000000D01*
%TO.N,3.3V_STM*%
X135000000Y-110500000D02*
X135000000Y-111750000D01*
X135500000Y-112350800D02*
X135500000Y-112500000D01*
X135500000Y-112500000D02*
X135000000Y-113000000D01*
X135000000Y-113000000D02*
X135000000Y-125750000D01*
X135000000Y-112250000D02*
X135000000Y-113000000D01*
X118290000Y-125290000D02*
X118290000Y-123000000D01*
X133020000Y-108520000D02*
X135000000Y-110500000D01*
X132000000Y-128750000D02*
X121750000Y-128750000D01*
X138050400Y-112350800D02*
X135500000Y-112350800D01*
X129990000Y-108520000D02*
X133020000Y-108520000D01*
X135000000Y-111850800D02*
X135500000Y-112350800D01*
X121750000Y-128750000D02*
X118290000Y-125290000D01*
X135000000Y-111750000D02*
X135000000Y-112250000D01*
X135000000Y-111750000D02*
X135000000Y-111850800D01*
X135500000Y-112350800D02*
X135100800Y-112350800D01*
X135100800Y-112350800D02*
X135000000Y-112250000D01*
X135000000Y-125750000D02*
X132000000Y-128750000D01*
%TO.N,3.3Vin*%
X81750000Y-57000000D02*
X85090000Y-60340000D01*
X85090000Y-60340000D02*
X91000000Y-60340000D01*
X81750000Y-54330000D02*
X81750000Y-57000000D01*
D39*
%TO.N,Net-(D1-A)*%
X109859100Y-61787676D02*
X112637324Y-61787676D01*
X112637324Y-61787676D02*
X112675000Y-61750000D01*
X112412676Y-61787676D02*
X112425000Y-61800000D01*
%TO.N,Net-(D2-A)*%
X109896777Y-64703033D02*
X112703033Y-64703033D01*
X112402641Y-64703033D02*
X112414382Y-64691292D01*
X112703033Y-64703033D02*
X112750000Y-64750000D01*
%TO.N,ARM_LED*%
X119000000Y-89000000D02*
X117260000Y-90740000D01*
X119000000Y-63750000D02*
X119000000Y-89000000D01*
X114500000Y-61750000D02*
X117000000Y-61750000D01*
X117000000Y-61750000D02*
X119000000Y-63750000D01*
X117260000Y-90740000D02*
X114750000Y-90740000D01*
%TO.N,LAUNCH_LED*%
X117500000Y-85000000D02*
X116840000Y-85660000D01*
X117500000Y-65500000D02*
X117500000Y-85000000D01*
X114575000Y-64750000D02*
X116750000Y-64750000D01*
X116840000Y-85660000D02*
X114750000Y-85660000D01*
X116750000Y-64750000D02*
X117500000Y-65500000D01*
D38*
%TO.N,Net-(Q1-C)*%
X129075000Y-57965638D02*
X129084612Y-57975250D01*
X129075000Y-54000000D02*
X129075000Y-57965638D01*
D39*
%TO.N,STATUS_PIN*%
X117220000Y-93280000D02*
X114750000Y-93280000D01*
X126000000Y-84500000D02*
X117220000Y-93280000D01*
X126000000Y-67250000D02*
X126000000Y-84500000D01*
X128134612Y-59850250D02*
X128134612Y-65115388D01*
X128134612Y-65115388D02*
X126000000Y-67250000D01*
%TD*%
%TA.AperFunction,Conductor*%
%TO.N,A_THERM*%
G36*
X137667158Y-106697216D02*
G01*
X138047037Y-107264288D01*
X138048795Y-107273069D01*
X138047037Y-107277312D01*
X137667158Y-107844383D01*
X137659707Y-107849349D01*
X137652348Y-107848406D01*
X136670460Y-107373993D01*
X136664502Y-107367308D01*
X136663850Y-107363458D01*
X136663850Y-107178141D01*
X136667277Y-107169868D01*
X136670458Y-107167606D01*
X137652348Y-106693192D01*
X137661288Y-106692680D01*
X137667158Y-106697216D01*
G37*
%TD.AperFunction*%
%TD*%
%TA.AperFunction,Conductor*%
%TO.N,CS_SD*%
G36*
X115182527Y-105350931D02*
G01*
X116252817Y-105876786D01*
X116258732Y-105883510D01*
X116259358Y-105887287D01*
X116259358Y-106072712D01*
X116255931Y-106080985D01*
X116252817Y-106083213D01*
X115182530Y-106609067D01*
X115173594Y-106609640D01*
X115167650Y-106605077D01*
X114753359Y-105986509D01*
X114751603Y-105977730D01*
X114753358Y-105973492D01*
X115167651Y-105354921D01*
X115175101Y-105349955D01*
X115182527Y-105350931D01*
G37*
%TD.AperFunction*%
%TD*%
%TA.AperFunction,Conductor*%
%TO.N,PWM_D4184-2*%
G36*
X106601077Y-99060720D02*
G01*
X106603246Y-99063715D01*
X107243652Y-100330747D01*
X107244326Y-100339677D01*
X107239719Y-100345747D01*
X106506509Y-100836642D01*
X106497728Y-100838397D01*
X106493491Y-100836642D01*
X105760280Y-100345747D01*
X105755312Y-100338297D01*
X105756347Y-100330747D01*
X106396754Y-99063715D01*
X106403544Y-99057877D01*
X106407196Y-99057293D01*
X106592804Y-99057293D01*
X106601077Y-99060720D01*
G37*
%TD.AperFunction*%
%TD*%
%TA.AperFunction,Conductor*%
%TO.N,3.3V*%
G36*
X87678024Y-36668381D02*
G01*
X88070683Y-36780568D01*
X89175181Y-37096138D01*
X89182195Y-37101706D01*
X89183667Y-37107388D01*
X89183667Y-37889737D01*
X89180240Y-37898010D01*
X89175181Y-37900987D01*
X87678024Y-38328744D01*
X87669128Y-38327722D01*
X87663560Y-38320708D01*
X87663340Y-38319804D01*
X87499459Y-37500856D01*
X87499459Y-37496267D01*
X87663338Y-36677333D01*
X87668321Y-36669895D01*
X87677106Y-36668158D01*
X87678024Y-36668381D01*
G37*
%TD.AperFunction*%
%TD*%
%TA.AperFunction,Conductor*%
%TO.N,SCK_SD*%
G36*
X129996507Y-111063358D02*
G01*
X130615077Y-111477650D01*
X130620044Y-111485101D01*
X130619067Y-111492530D01*
X130093214Y-112562817D01*
X130086490Y-112568732D01*
X130082713Y-112569358D01*
X129897287Y-112569358D01*
X129889014Y-112565931D01*
X129886786Y-112562817D01*
X129360931Y-111492528D01*
X129360359Y-111483594D01*
X129364920Y-111477651D01*
X129983490Y-111063359D01*
X129992270Y-111061603D01*
X129996507Y-111063358D01*
G37*
%TD.AperFunction*%
%TD*%
%TA.AperFunction,Conductor*%
%TO.N,VI*%
G36*
X104010464Y-38343277D02*
G01*
X104011100Y-38344811D01*
X104998298Y-41307394D01*
X104997662Y-41316326D01*
X104997231Y-41317113D01*
X104403408Y-42306820D01*
X104396213Y-42312151D01*
X104393375Y-42312500D01*
X103606625Y-42312500D01*
X103598352Y-42309073D01*
X103596592Y-42306820D01*
X103002768Y-41317113D01*
X103001450Y-41308255D01*
X103001701Y-41307394D01*
X103988900Y-38344811D01*
X103994767Y-38338046D01*
X104003699Y-38337410D01*
X104010464Y-38343277D01*
G37*
%TD.AperFunction*%
%TD*%
%TA.AperFunction,Conductor*%
%TO.N,LAUNCH_LED*%
G36*
X115182527Y-85030931D02*
G01*
X116252817Y-85556786D01*
X116258732Y-85563510D01*
X116259358Y-85567287D01*
X116259358Y-85752712D01*
X116255931Y-85760985D01*
X116252817Y-85763213D01*
X115182530Y-86289067D01*
X115173594Y-86289640D01*
X115167650Y-86285077D01*
X114753359Y-85666509D01*
X114751603Y-85657730D01*
X114753358Y-85653492D01*
X115167651Y-85034921D01*
X115175101Y-85029955D01*
X115182527Y-85030931D01*
G37*
%TD.AperFunction*%
%TD*%
%TA.AperFunction,Conductor*%
%TO.N,A_THERM*%
G36*
X138448451Y-106693193D02*
G01*
X138670194Y-106800331D01*
X139430340Y-107167606D01*
X139436298Y-107174291D01*
X139436950Y-107178141D01*
X139436950Y-107363458D01*
X139433523Y-107371731D01*
X139430340Y-107373993D01*
X138448451Y-107848406D01*
X138439511Y-107848919D01*
X138433641Y-107844383D01*
X138053761Y-107277311D01*
X138052004Y-107268531D01*
X138053762Y-107264288D01*
X138433642Y-106697215D01*
X138441092Y-106692250D01*
X138448451Y-106693193D01*
G37*
%TD.AperFunction*%
%TD*%
%TA.AperFunction,Conductor*%
%TO.N,RX_RYLR*%
G36*
X91481457Y-64717869D02*
G01*
X92677207Y-65316764D01*
X92683069Y-65323533D01*
X92683667Y-65327225D01*
X92683667Y-65512774D01*
X92680240Y-65521047D01*
X92677207Y-65523235D01*
X91481458Y-66122129D01*
X91472526Y-66122770D01*
X91466496Y-66118178D01*
X91003359Y-65426510D01*
X91001604Y-65417729D01*
X91003359Y-65413490D01*
X91466497Y-64721820D01*
X91473947Y-64716854D01*
X91481457Y-64717869D01*
G37*
%TD.AperFunction*%
%TD*%
%TA.AperFunction,Conductor*%
%TO.N,A2*%
G36*
X137526746Y-94957787D02*
G01*
X138345743Y-95773179D01*
X138349188Y-95781444D01*
X138346014Y-95789482D01*
X137544825Y-96642049D01*
X137536662Y-96645731D01*
X137528851Y-96643060D01*
X136657051Y-95923509D01*
X136652852Y-95915600D01*
X136652799Y-95914486D01*
X136652799Y-95725253D01*
X136656226Y-95716980D01*
X136656726Y-95716509D01*
X137510720Y-94957333D01*
X137519178Y-94954398D01*
X137526746Y-94957787D01*
G37*
%TD.AperFunction*%
%TD*%
%TA.AperFunction,Conductor*%
%TO.N,3.3V_STM*%
G36*
X130150592Y-107775688D02*
G01*
X131490552Y-108117752D01*
X131497720Y-108123118D01*
X131499358Y-108129088D01*
X131499358Y-108910911D01*
X131495931Y-108919184D01*
X131490552Y-108922247D01*
X130150604Y-109264308D01*
X130141740Y-109263034D01*
X130136374Y-109255866D01*
X130136238Y-109255269D01*
X130069100Y-108920000D01*
X129989459Y-108522292D01*
X129989459Y-108517707D01*
X130136238Y-107784729D01*
X130141222Y-107777290D01*
X130150007Y-107775555D01*
X130150592Y-107775688D01*
G37*
%TD.AperFunction*%
%TD*%
%TA.AperFunction,Conductor*%
%TO.N,CS_SD*%
G36*
X128550986Y-121494069D02*
G01*
X128553214Y-121497183D01*
X129079067Y-122567469D01*
X129079640Y-122576405D01*
X129075077Y-122582349D01*
X128456511Y-122996639D01*
X128447730Y-122998396D01*
X128443489Y-122996639D01*
X127824922Y-122582349D01*
X127819955Y-122574898D01*
X127820931Y-122567472D01*
X128346786Y-121497182D01*
X128353510Y-121491268D01*
X128357287Y-121490642D01*
X128542713Y-121490642D01*
X128550986Y-121494069D01*
G37*
%TD.AperFunction*%
%TD*%
%TA.AperFunction,Conductor*%
%TO.N,5Vin*%
G36*
X130388371Y-73994069D02*
G01*
X130391433Y-73999442D01*
X130734300Y-75339391D01*
X130733031Y-75348255D01*
X130725865Y-75353626D01*
X130725262Y-75353763D01*
X129992297Y-75500540D01*
X129987703Y-75500540D01*
X129254723Y-75353760D01*
X129247283Y-75348776D01*
X129245548Y-75339991D01*
X129245673Y-75339439D01*
X129586937Y-73999454D01*
X129592300Y-73992283D01*
X129598275Y-73990642D01*
X130380098Y-73990642D01*
X130388371Y-73994069D01*
G37*
%TD.AperFunction*%
%TD*%
%TA.AperFunction,Conductor*%
%TO.N,PWM_D4184-3*%
G36*
X114332349Y-102814922D02*
G01*
X114746639Y-103433489D01*
X114748396Y-103442270D01*
X114746639Y-103446511D01*
X114332349Y-104065077D01*
X114324898Y-104070044D01*
X114317469Y-104069067D01*
X114029853Y-103927755D01*
X113247183Y-103543213D01*
X113241268Y-103536489D01*
X113240642Y-103532712D01*
X113240642Y-103347287D01*
X113244069Y-103339014D01*
X113247181Y-103336786D01*
X114317471Y-102810931D01*
X114326405Y-102810359D01*
X114332349Y-102814922D01*
G37*
%TD.AperFunction*%
%TD*%
%TA.AperFunction,Conductor*%
%TO.N,MOSI_SD*%
G36*
X123470986Y-121494069D02*
G01*
X123473214Y-121497183D01*
X123999067Y-122567469D01*
X123999640Y-122576405D01*
X123995077Y-122582349D01*
X123376511Y-122996639D01*
X123367730Y-122998396D01*
X123363489Y-122996639D01*
X122744922Y-122582349D01*
X122739955Y-122574898D01*
X122740931Y-122567472D01*
X123266786Y-121497182D01*
X123273510Y-121491268D01*
X123277287Y-121490642D01*
X123462713Y-121490642D01*
X123470986Y-121494069D01*
G37*
%TD.AperFunction*%
%TD*%
%TA.AperFunction,Conductor*%
%TO.N,3.3V*%
G36*
X95580878Y-36670834D02*
G01*
X95586440Y-36677853D01*
X95586660Y-36678761D01*
X95750540Y-37497704D01*
X95750540Y-37502296D01*
X95586664Y-38321217D01*
X95581680Y-38328657D01*
X95572895Y-38330394D01*
X95571967Y-38330168D01*
X94074809Y-37900992D01*
X94067800Y-37895418D01*
X94066333Y-37889745D01*
X94066333Y-37107396D01*
X94069760Y-37099123D01*
X94074826Y-37096144D01*
X95571983Y-36669804D01*
X95580878Y-36670834D01*
G37*
%TD.AperFunction*%
%TD*%
%TA.AperFunction,Conductor*%
%TO.N,A2*%
G36*
X130422527Y-95190931D02*
G01*
X131492817Y-95716786D01*
X131498732Y-95723510D01*
X131499358Y-95727287D01*
X131499358Y-95912712D01*
X131495931Y-95920985D01*
X131492817Y-95923213D01*
X130422530Y-96449067D01*
X130413594Y-96449640D01*
X130407650Y-96445077D01*
X129993359Y-95826509D01*
X129991603Y-95817730D01*
X129993358Y-95813492D01*
X130407651Y-95194921D01*
X130415101Y-95189955D01*
X130422527Y-95190931D01*
G37*
%TD.AperFunction*%
%TD*%
%TA.AperFunction,Conductor*%
%TO.N,MISO_SD*%
G36*
X120930986Y-121494069D02*
G01*
X120933214Y-121497183D01*
X121459067Y-122567469D01*
X121459640Y-122576405D01*
X121455077Y-122582349D01*
X120836511Y-122996639D01*
X120827730Y-122998396D01*
X120823489Y-122996639D01*
X120204922Y-122582349D01*
X120199955Y-122574898D01*
X120200931Y-122567472D01*
X120726786Y-121497182D01*
X120733510Y-121491268D01*
X120737287Y-121490642D01*
X120922713Y-121490642D01*
X120930986Y-121494069D01*
G37*
%TD.AperFunction*%
%TD*%
%TA.AperFunction,Conductor*%
%TO.N,A5*%
G36*
X130422527Y-87570931D02*
G01*
X131492817Y-88096786D01*
X131498732Y-88103510D01*
X131499358Y-88107287D01*
X131499358Y-88292712D01*
X131495931Y-88300985D01*
X131492817Y-88303213D01*
X130422530Y-88829067D01*
X130413594Y-88829640D01*
X130407650Y-88825077D01*
X129993359Y-88206509D01*
X129991603Y-88197730D01*
X129993358Y-88193492D01*
X130407651Y-87574921D01*
X130415101Y-87569955D01*
X130422527Y-87570931D01*
G37*
%TD.AperFunction*%
%TD*%
%TA.AperFunction,Conductor*%
%TO.N,SCK_SD*%
G36*
X125916507Y-123003358D02*
G01*
X126535077Y-123417650D01*
X126540044Y-123425101D01*
X126539067Y-123432530D01*
X126013214Y-124502817D01*
X126006490Y-124508732D01*
X126002713Y-124509358D01*
X125817287Y-124509358D01*
X125809014Y-124505931D01*
X125806786Y-124502817D01*
X125280931Y-123432528D01*
X125280359Y-123423594D01*
X125284920Y-123417651D01*
X125903490Y-123003359D01*
X125912270Y-123001603D01*
X125916507Y-123003358D01*
G37*
%TD.AperFunction*%
%TD*%
%TA.AperFunction,Conductor*%
%TO.N,ARM_LED*%
G36*
X115182527Y-90110931D02*
G01*
X116252817Y-90636786D01*
X116258732Y-90643510D01*
X116259358Y-90647287D01*
X116259358Y-90832712D01*
X116255931Y-90840985D01*
X116252817Y-90843213D01*
X115182530Y-91369067D01*
X115173594Y-91369640D01*
X115167650Y-91365077D01*
X114753359Y-90746509D01*
X114751603Y-90737730D01*
X114753358Y-90733492D01*
X115167651Y-90114921D01*
X115175101Y-90109955D01*
X115182527Y-90110931D01*
G37*
%TD.AperFunction*%
%TD*%
%TA.AperFunction,Conductor*%
%TO.N,PWM_D4184-1*%
G36*
X107009552Y-82437384D02*
G01*
X108238661Y-83172788D01*
X108296671Y-83207497D01*
X108302011Y-83214685D01*
X108300704Y-83223544D01*
X108298937Y-83225810D01*
X108169504Y-83355243D01*
X108166374Y-83357479D01*
X107009198Y-83923827D01*
X107000261Y-83924386D01*
X106994329Y-83919821D01*
X106503642Y-83185799D01*
X106501894Y-83177019D01*
X106503647Y-83172790D01*
X106993826Y-82440913D01*
X107001277Y-82435947D01*
X107009552Y-82437384D01*
G37*
%TD.AperFunction*%
%TD*%
%TA.AperFunction,Conductor*%
%TO.N,TX_RYLR*%
G36*
X91481457Y-67257869D02*
G01*
X92677207Y-67856764D01*
X92683069Y-67863533D01*
X92683667Y-67867225D01*
X92683667Y-68052774D01*
X92680240Y-68061047D01*
X92677207Y-68063235D01*
X91481458Y-68662129D01*
X91472526Y-68662770D01*
X91466496Y-68658178D01*
X91003359Y-67966510D01*
X91001604Y-67957729D01*
X91003359Y-67953490D01*
X91466497Y-67261820D01*
X91473947Y-67256854D01*
X91481457Y-67257869D01*
G37*
%TD.AperFunction*%
%TD*%
%TA.AperFunction,Conductor*%
%TO.N,MOSI_SD*%
G36*
X115182527Y-107890931D02*
G01*
X116252817Y-108416786D01*
X116258732Y-108423510D01*
X116259358Y-108427287D01*
X116259358Y-108612712D01*
X116255931Y-108620985D01*
X116252817Y-108623213D01*
X115182530Y-109149067D01*
X115173594Y-109149640D01*
X115167650Y-109145077D01*
X114753359Y-108526509D01*
X114751603Y-108517730D01*
X114753358Y-108513492D01*
X115167651Y-107894921D01*
X115175101Y-107889955D01*
X115182527Y-107890931D01*
G37*
%TD.AperFunction*%
%TD*%
%TA.AperFunction,Conductor*%
%TO.N,RX_RYLR*%
G36*
X113995710Y-74745700D02*
G01*
X114644571Y-75393710D01*
X114742710Y-75491721D01*
X114746142Y-75499992D01*
X114742721Y-75508268D01*
X114742710Y-75508279D01*
X113995712Y-76254298D01*
X113987436Y-76257719D01*
X113979771Y-76254851D01*
X113979134Y-76254298D01*
X113881551Y-76169520D01*
X113230027Y-75603498D01*
X113226029Y-75595486D01*
X113226000Y-75594666D01*
X113226000Y-75405333D01*
X113229427Y-75397060D01*
X113230019Y-75396508D01*
X113979773Y-74745147D01*
X113988264Y-74742309D01*
X113995710Y-74745700D01*
G37*
%TD.AperFunction*%
%TD*%
%TA.AperFunction,Conductor*%
%TO.N,A4*%
G36*
X138360310Y-83789453D02*
G01*
X138361765Y-83790908D01*
X138823152Y-84341986D01*
X139123688Y-84700944D01*
X139126371Y-84709487D01*
X139124153Y-84715372D01*
X138456305Y-85626416D01*
X138448650Y-85631063D01*
X138446869Y-85631199D01*
X138258729Y-85631199D01*
X138250456Y-85627772D01*
X138249293Y-85626416D01*
X137581444Y-84715372D01*
X137579316Y-84706674D01*
X137581908Y-84700945D01*
X138343829Y-83790912D01*
X138351767Y-83786770D01*
X138360310Y-83789453D01*
G37*
%TD.AperFunction*%
%TD*%
%TA.AperFunction,Conductor*%
%TO.N,3.3Vin*%
G36*
X90830871Y-59510840D02*
G01*
X90836439Y-59517854D01*
X90836662Y-59518772D01*
X91000540Y-60337704D01*
X91000540Y-60342296D01*
X90836662Y-61161227D01*
X90831678Y-61168667D01*
X90822893Y-61170404D01*
X90821975Y-61170181D01*
X89324819Y-60742424D01*
X89317805Y-60736856D01*
X89316333Y-60731174D01*
X89316333Y-59948825D01*
X89319760Y-59940552D01*
X89324817Y-59937575D01*
X90821975Y-59509818D01*
X90830871Y-59510840D01*
G37*
%TD.AperFunction*%
%TD*%
%TA.AperFunction,Conductor*%
%TO.N,PWM_D4184-3*%
G36*
X106601077Y-116720720D02*
G01*
X106603246Y-116723715D01*
X107243652Y-117990747D01*
X107244326Y-117999677D01*
X107239719Y-118005747D01*
X106506509Y-118496642D01*
X106497728Y-118498397D01*
X106493491Y-118496642D01*
X105760280Y-118005747D01*
X105755312Y-117998297D01*
X105756347Y-117990747D01*
X106396754Y-116723715D01*
X106403544Y-116717877D01*
X106407196Y-116717293D01*
X106592804Y-116717293D01*
X106601077Y-116720720D01*
G37*
%TD.AperFunction*%
%TD*%
%TA.AperFunction,Conductor*%
%TO.N,5Vin*%
G36*
X136983878Y-62468495D02*
G01*
X138464102Y-63454654D01*
X138469087Y-63462093D01*
X138467352Y-63470878D01*
X138464102Y-63474128D01*
X136983878Y-64460286D01*
X136975093Y-64462021D01*
X136971371Y-64460582D01*
X135983398Y-63867799D01*
X135978067Y-63860604D01*
X135977718Y-63857766D01*
X135977718Y-63071016D01*
X135981145Y-63062743D01*
X135983398Y-63060983D01*
X136971371Y-62468199D01*
X136980229Y-62466881D01*
X136983878Y-62468495D01*
G37*
%TD.AperFunction*%
%TD*%
%TA.AperFunction,Conductor*%
%TO.N,PWM_D4184-1*%
G36*
X114332349Y-87574922D02*
G01*
X114746639Y-88193489D01*
X114748396Y-88202270D01*
X114746639Y-88206511D01*
X114332349Y-88825077D01*
X114324898Y-88830044D01*
X114317469Y-88829067D01*
X114029853Y-88687755D01*
X113247183Y-88303213D01*
X113241268Y-88296489D01*
X113240642Y-88292712D01*
X113240642Y-88107287D01*
X113244069Y-88099014D01*
X113247181Y-88096786D01*
X114317471Y-87570931D01*
X114326405Y-87570359D01*
X114332349Y-87574922D01*
G37*
%TD.AperFunction*%
%TD*%
%TA.AperFunction,Conductor*%
%TO.N,5V*%
G36*
X121321228Y-39428337D02*
G01*
X121328667Y-39433321D01*
X121330404Y-39442106D01*
X121330181Y-39443024D01*
X120902425Y-40940181D01*
X120896857Y-40947195D01*
X120891175Y-40948667D01*
X120108825Y-40948667D01*
X120100552Y-40945240D01*
X120097575Y-40940181D01*
X119669818Y-39443024D01*
X119670840Y-39434128D01*
X119677854Y-39428560D01*
X119678753Y-39428341D01*
X120497706Y-39264459D01*
X120502294Y-39264459D01*
X121321228Y-39428337D01*
G37*
%TD.AperFunction*%
%TD*%
%TA.AperFunction,Conductor*%
%TO.N,3.3V*%
G36*
X83256346Y-43173808D02*
G01*
X84244320Y-43766592D01*
X84249651Y-43773787D01*
X84250000Y-43776625D01*
X84250000Y-44563375D01*
X84246573Y-44571648D01*
X84244320Y-44573408D01*
X83256346Y-45166191D01*
X83247488Y-45167509D01*
X83243839Y-45165895D01*
X81763615Y-44179737D01*
X81758630Y-44172298D01*
X81760365Y-44163513D01*
X81763615Y-44160263D01*
X83243840Y-43174103D01*
X83252624Y-43172369D01*
X83256346Y-43173808D01*
G37*
%TD.AperFunction*%
%TD*%
%TA.AperFunction,Conductor*%
%TO.N,5V*%
G36*
X138878311Y-50820651D02*
G01*
X138880773Y-50824270D01*
X139474718Y-52194300D01*
X139474864Y-52203254D01*
X139472655Y-52206808D01*
X138486390Y-53295815D01*
X138478297Y-53299647D01*
X138469864Y-53296633D01*
X138469046Y-53295815D01*
X137482780Y-52206808D01*
X137479766Y-52198375D01*
X137480716Y-52194302D01*
X138074663Y-50824269D01*
X138081098Y-50818043D01*
X138085398Y-50817224D01*
X138870038Y-50817224D01*
X138878311Y-50820651D01*
G37*
%TD.AperFunction*%
%TD*%
%TA.AperFunction,Conductor*%
%TO.N,A1*%
G36*
X130422527Y-97730931D02*
G01*
X131492817Y-98256786D01*
X131498732Y-98263510D01*
X131499358Y-98267287D01*
X131499358Y-98452712D01*
X131495931Y-98460985D01*
X131492817Y-98463213D01*
X130422530Y-98989067D01*
X130413594Y-98989640D01*
X130407650Y-98985077D01*
X129993359Y-98366509D01*
X129991603Y-98357730D01*
X129993358Y-98353492D01*
X130407651Y-97734921D01*
X130415101Y-97729955D01*
X130422527Y-97730931D01*
G37*
%TD.AperFunction*%
%TD*%
%TA.AperFunction,Conductor*%
%TO.N,3.3V_STM*%
G36*
X137910942Y-111668428D02*
G01*
X137916131Y-111675727D01*
X137916199Y-111676042D01*
X138050939Y-112348501D01*
X138050939Y-112353099D01*
X137916199Y-113025557D01*
X137911214Y-113032995D01*
X137902428Y-113034730D01*
X137902113Y-113034662D01*
X136672936Y-112752882D01*
X136665637Y-112747693D01*
X136663850Y-112741478D01*
X136663850Y-111960121D01*
X136667277Y-111951848D01*
X136672936Y-111948717D01*
X137902114Y-111666937D01*
X137910942Y-111668428D01*
G37*
%TD.AperFunction*%
%TD*%
%TA.AperFunction,Conductor*%
%TO.N,3.3V_STM*%
G36*
X119025269Y-123146238D02*
G01*
X119032709Y-123151222D01*
X119034444Y-123160007D01*
X119034308Y-123160604D01*
X118692248Y-124500552D01*
X118686882Y-124507720D01*
X118680912Y-124509358D01*
X117899088Y-124509358D01*
X117890815Y-124505931D01*
X117887752Y-124500552D01*
X117545691Y-123160604D01*
X117546965Y-123151740D01*
X117554133Y-123146374D01*
X117554716Y-123146241D01*
X118287708Y-122999459D01*
X118292292Y-122999459D01*
X119025269Y-123146238D01*
G37*
%TD.AperFunction*%
%TD*%
%TA.AperFunction,Conductor*%
%TO.N,A6*%
G36*
X137532394Y-70939065D02*
G01*
X138252846Y-71677698D01*
X138345831Y-71773030D01*
X138349154Y-71781345D01*
X138345831Y-71789368D01*
X137532396Y-72623331D01*
X137524166Y-72626861D01*
X137516390Y-72624032D01*
X136656869Y-71884699D01*
X136652832Y-71876706D01*
X136652799Y-71875829D01*
X136652799Y-71686568D01*
X136656226Y-71678295D01*
X136656869Y-71677698D01*
X137516391Y-70938364D01*
X137524897Y-70935568D01*
X137532394Y-70939065D01*
G37*
%TD.AperFunction*%
%TD*%
%TA.AperFunction,Conductor*%
%TO.N,A3*%
G36*
X138360310Y-89789453D02*
G01*
X138361765Y-89790908D01*
X138823152Y-90341986D01*
X139123688Y-90700944D01*
X139126371Y-90709487D01*
X139124153Y-90715372D01*
X138456305Y-91626416D01*
X138448650Y-91631063D01*
X138446869Y-91631199D01*
X138258729Y-91631199D01*
X138250456Y-91627772D01*
X138249293Y-91626416D01*
X137581444Y-90715372D01*
X137579316Y-90706674D01*
X137581908Y-90700945D01*
X138343829Y-89790912D01*
X138351767Y-89786770D01*
X138360310Y-89789453D01*
G37*
%TD.AperFunction*%
%TD*%
%TA.AperFunction,Conductor*%
%TO.N,5V*%
G36*
X129321228Y-39428337D02*
G01*
X129328667Y-39433321D01*
X129330404Y-39442106D01*
X129330181Y-39443024D01*
X128902425Y-40940181D01*
X128896857Y-40947195D01*
X128891175Y-40948667D01*
X128108825Y-40948667D01*
X128100552Y-40945240D01*
X128097575Y-40940181D01*
X127669818Y-39443024D01*
X127670840Y-39434128D01*
X127677854Y-39428560D01*
X127678753Y-39428341D01*
X128497706Y-39264459D01*
X128502294Y-39264459D01*
X129321228Y-39428337D01*
G37*
%TD.AperFunction*%
%TD*%
%TA.AperFunction,Conductor*%
%TO.N,3.3Vin*%
G36*
X81757854Y-54337757D02*
G01*
X81758672Y-54338575D01*
X82744937Y-55427582D01*
X82747951Y-55436015D01*
X82747000Y-55440090D01*
X82153055Y-56810121D01*
X82146620Y-56816348D01*
X82142320Y-56817167D01*
X81357680Y-56817167D01*
X81349407Y-56813740D01*
X81346945Y-56810121D01*
X80752999Y-55440090D01*
X80752853Y-55431136D01*
X80755060Y-55427584D01*
X81741328Y-54338574D01*
X81749421Y-54334743D01*
X81757854Y-54337757D01*
G37*
%TD.AperFunction*%
%TD*%
%TA.AperFunction,Conductor*%
%TO.N,A5*%
G36*
X138360310Y-77789453D02*
G01*
X138361765Y-77790908D01*
X138823152Y-78341986D01*
X139123688Y-78700944D01*
X139126371Y-78709487D01*
X139124153Y-78715372D01*
X138456305Y-79626416D01*
X138448650Y-79631063D01*
X138446869Y-79631199D01*
X138258729Y-79631199D01*
X138250456Y-79627772D01*
X138249293Y-79626416D01*
X137581444Y-78715372D01*
X137579316Y-78706674D01*
X137581908Y-78700945D01*
X138343829Y-77790912D01*
X138351767Y-77786770D01*
X138360310Y-77789453D01*
G37*
%TD.AperFunction*%
%TD*%
%TA.AperFunction,Conductor*%
%TO.N,PWM_D4184-2*%
G36*
X114332349Y-95194922D02*
G01*
X114746639Y-95813489D01*
X114748396Y-95822270D01*
X114746639Y-95826511D01*
X114332349Y-96445077D01*
X114324898Y-96450044D01*
X114317469Y-96449067D01*
X114029853Y-96307755D01*
X113247183Y-95923213D01*
X113241268Y-95916489D01*
X113240642Y-95912712D01*
X113240642Y-95727287D01*
X113244069Y-95719014D01*
X113247181Y-95716786D01*
X114317471Y-95190931D01*
X114326405Y-95190359D01*
X114332349Y-95194922D01*
G37*
%TD.AperFunction*%
%TD*%
%TA.AperFunction,Conductor*%
%TO.N,TX_RYLR*%
G36*
X114332349Y-77414922D02*
G01*
X114746639Y-78033489D01*
X114748396Y-78042270D01*
X114746639Y-78046511D01*
X114332349Y-78665077D01*
X114324898Y-78670044D01*
X114317469Y-78669067D01*
X114029853Y-78527755D01*
X113247183Y-78143213D01*
X113241268Y-78136489D01*
X113240642Y-78132712D01*
X113240642Y-77947287D01*
X113244069Y-77939014D01*
X113247181Y-77936786D01*
X114317471Y-77410931D01*
X114326405Y-77410359D01*
X114332349Y-77414922D01*
G37*
%TD.AperFunction*%
%TD*%
%TA.AperFunction,Conductor*%
%TO.N,MISO_SD*%
G36*
X114332349Y-110434922D02*
G01*
X114746639Y-111053489D01*
X114748396Y-111062270D01*
X114746639Y-111066511D01*
X114332349Y-111685077D01*
X114324898Y-111690044D01*
X114317469Y-111689067D01*
X114029853Y-111547755D01*
X113247183Y-111163213D01*
X113241268Y-111156489D01*
X113240642Y-111152712D01*
X113240642Y-110967287D01*
X113244069Y-110959014D01*
X113247181Y-110956786D01*
X114317471Y-110430931D01*
X114326405Y-110430359D01*
X114332349Y-110434922D01*
G37*
%TD.AperFunction*%
%TD*%
%TA.AperFunction,Conductor*%
%TO.N,A3*%
G36*
X130422527Y-92650931D02*
G01*
X131492817Y-93176786D01*
X131498732Y-93183510D01*
X131499358Y-93187287D01*
X131499358Y-93372712D01*
X131495931Y-93380985D01*
X131492817Y-93383213D01*
X130422530Y-93909067D01*
X130413594Y-93909640D01*
X130407650Y-93905077D01*
X129993359Y-93286509D01*
X129991603Y-93277730D01*
X129993358Y-93273492D01*
X130407651Y-92654921D01*
X130415101Y-92649955D01*
X130422527Y-92650931D01*
G37*
%TD.AperFunction*%
%TD*%
%TA.AperFunction,Conductor*%
%TO.N,5V*%
G36*
X134150593Y-45516260D02*
G01*
X134153055Y-45519879D01*
X134747000Y-46889909D01*
X134747146Y-46898863D01*
X134744937Y-46902417D01*
X133758672Y-47991424D01*
X133750579Y-47995256D01*
X133742146Y-47992242D01*
X133741328Y-47991424D01*
X132755062Y-46902417D01*
X132752048Y-46893984D01*
X132752998Y-46889911D01*
X133346945Y-45519878D01*
X133353380Y-45513652D01*
X133357680Y-45512833D01*
X134142320Y-45512833D01*
X134150593Y-45516260D01*
G37*
%TD.AperFunction*%
%TD*%
%TA.AperFunction,Conductor*%
%TO.N,A6*%
G36*
X130422527Y-85030931D02*
G01*
X131492817Y-85556786D01*
X131498732Y-85563510D01*
X131499358Y-85567287D01*
X131499358Y-85752712D01*
X131495931Y-85760985D01*
X131492817Y-85763213D01*
X130422530Y-86289067D01*
X130413594Y-86289640D01*
X130407650Y-86285077D01*
X129993359Y-85666509D01*
X129991603Y-85657730D01*
X129993358Y-85653492D01*
X130407651Y-85034921D01*
X130415101Y-85029955D01*
X130422527Y-85030931D01*
G37*
%TD.AperFunction*%
%TD*%
%TA.AperFunction,Conductor*%
%TO.N,A1*%
G36*
X137532394Y-100939065D02*
G01*
X138252846Y-101677698D01*
X138345831Y-101773030D01*
X138349154Y-101781345D01*
X138345831Y-101789368D01*
X137532396Y-102623331D01*
X137524166Y-102626861D01*
X137516390Y-102624032D01*
X136656869Y-101884699D01*
X136652832Y-101876706D01*
X136652799Y-101875829D01*
X136652799Y-101686568D01*
X136656226Y-101678295D01*
X136656869Y-101677698D01*
X137516391Y-100938364D01*
X137524897Y-100935568D01*
X137532394Y-100939065D01*
G37*
%TD.AperFunction*%
%TD*%
%TA.AperFunction,Conductor*%
%TO.N,A_THERM*%
G36*
X130422527Y-102810931D02*
G01*
X131492817Y-103336786D01*
X131498732Y-103343510D01*
X131499358Y-103347287D01*
X131499358Y-103532712D01*
X131495931Y-103540985D01*
X131492817Y-103543213D01*
X130422530Y-104069067D01*
X130413594Y-104069640D01*
X130407650Y-104065077D01*
X129993359Y-103446509D01*
X129991603Y-103437730D01*
X129993358Y-103433492D01*
X130407651Y-102814921D01*
X130415101Y-102809955D01*
X130422527Y-102810931D01*
G37*
%TD.AperFunction*%
%TD*%
%TA.AperFunction,Conductor*%
%TO.N,3.3V*%
G36*
X94152417Y-40755062D02*
G01*
X95241424Y-41741328D01*
X95245256Y-41749421D01*
X95242242Y-41757854D01*
X95241424Y-41758672D01*
X94152417Y-42744937D01*
X94143984Y-42747951D01*
X94139909Y-42747000D01*
X92769879Y-42153054D01*
X92763652Y-42146619D01*
X92762833Y-42142319D01*
X92762833Y-41357680D01*
X92766260Y-41349407D01*
X92769877Y-41346946D01*
X94139910Y-40752998D01*
X94148863Y-40752853D01*
X94152417Y-40755062D01*
G37*
%TD.AperFunction*%
%TD*%
%TA.AperFunction,Conductor*%
%TO.N,Net-(J10-Pin_1)*%
G36*
X123602877Y-53172122D02*
G01*
X124592914Y-53596959D01*
X124599165Y-53603371D01*
X124600000Y-53607711D01*
X124600000Y-54392288D01*
X124596573Y-54400561D01*
X124592914Y-54403040D01*
X123602880Y-54827876D01*
X123593926Y-54827989D01*
X123590071Y-54825474D01*
X123159655Y-54403040D01*
X122757506Y-54008348D01*
X122754003Y-54000109D01*
X122757352Y-53991805D01*
X122757466Y-53991690D01*
X123590072Y-53174524D01*
X123598375Y-53171176D01*
X123602877Y-53172122D01*
G37*
%TD.AperFunction*%
%TD*%
%TA.AperFunction,Conductor*%
%TO.N,A4*%
G36*
X130422527Y-90110931D02*
G01*
X131492817Y-90636786D01*
X131498732Y-90643510D01*
X131499358Y-90647287D01*
X131499358Y-90832712D01*
X131495931Y-90840985D01*
X131492817Y-90843213D01*
X130422530Y-91369067D01*
X130413594Y-91369640D01*
X130407650Y-91365077D01*
X129993359Y-90746509D01*
X129991603Y-90737730D01*
X129993358Y-90733492D01*
X130407651Y-90114921D01*
X130415101Y-90109955D01*
X130422527Y-90110931D01*
G37*
%TD.AperFunction*%
%TD*%
%TA.AperFunction,Conductor*%
%TO.N,A_THERM*%
G36*
X139101926Y-118686260D02*
G01*
X139103461Y-118688155D01*
X139995087Y-120059274D01*
X139996725Y-120068077D01*
X139993951Y-120073506D01*
X139008672Y-121161424D01*
X139000579Y-121165256D01*
X138992146Y-121162242D01*
X138991328Y-121161424D01*
X138006048Y-120073506D01*
X138003034Y-120065073D01*
X138004912Y-120059274D01*
X138896539Y-118688155D01*
X138903922Y-118683087D01*
X138906347Y-118682833D01*
X139093653Y-118682833D01*
X139101926Y-118686260D01*
G37*
%TD.AperFunction*%
%TD*%
%TA.AperFunction,Conductor*%
%TO.N,VI*%
G36*
X122432735Y-55670307D02*
G01*
X122437990Y-55676379D01*
X122749420Y-56495844D01*
X122749420Y-56504156D01*
X122437990Y-57323620D01*
X122431847Y-57330137D01*
X122423839Y-57330714D01*
X120924819Y-56902424D01*
X120917805Y-56896856D01*
X120916333Y-56891174D01*
X120916333Y-56108825D01*
X120919760Y-56100552D01*
X120924817Y-56097575D01*
X122423840Y-55669285D01*
X122432735Y-55670307D01*
G37*
%TD.AperFunction*%
%TD*%
M02*
