%TF.GenerationSoftware,KiCad,Pcbnew,9.0.4*%
%TF.CreationDate,2025-09-20T14:11:16+05:30*%
%TF.ProjectId,FireSide v2.0,46697265-5369-4646-9520-76322e302e6b,rev?*%
%TF.SameCoordinates,Original*%
%TF.FileFunction,Legend,Bot*%
%TF.FilePolarity,Positive*%
%FSLAX46Y46*%
G04 Gerber Fmt 4.6, Leading zero omitted, Abs format (unit mm)*
G04 Created by KiCad (PCBNEW 9.0.4) date 2025-09-20 14:11:16*
%MOMM*%
%LPD*%
G01*
G04 APERTURE LIST*
%ADD10C,0.200000*%
%ADD11C,0.150000*%
%ADD12C,0.300000*%
%ADD13C,0.120000*%
%ADD14C,0.100000*%
G04 APERTURE END LIST*
D10*
X112201755Y-33117219D02*
X112201755Y-32593409D01*
X112201755Y-32593409D02*
X112249374Y-32498171D01*
X112249374Y-32498171D02*
X112344612Y-32450552D01*
X112344612Y-32450552D02*
X112535088Y-32450552D01*
X112535088Y-32450552D02*
X112630326Y-32498171D01*
X112201755Y-33069600D02*
X112296993Y-33117219D01*
X112296993Y-33117219D02*
X112535088Y-33117219D01*
X112535088Y-33117219D02*
X112630326Y-33069600D01*
X112630326Y-33069600D02*
X112677945Y-32974361D01*
X112677945Y-32974361D02*
X112677945Y-32879123D01*
X112677945Y-32879123D02*
X112630326Y-32783885D01*
X112630326Y-32783885D02*
X112535088Y-32736266D01*
X112535088Y-32736266D02*
X112296993Y-32736266D01*
X112296993Y-32736266D02*
X112201755Y-32688647D01*
X111725564Y-33117219D02*
X111725564Y-32450552D01*
X111725564Y-32641028D02*
X111677945Y-32545790D01*
X111677945Y-32545790D02*
X111630326Y-32498171D01*
X111630326Y-32498171D02*
X111535088Y-32450552D01*
X111535088Y-32450552D02*
X111439850Y-32450552D01*
X110725564Y-33069600D02*
X110820802Y-33117219D01*
X110820802Y-33117219D02*
X111011278Y-33117219D01*
X111011278Y-33117219D02*
X111106516Y-33069600D01*
X111106516Y-33069600D02*
X111154135Y-32974361D01*
X111154135Y-32974361D02*
X111154135Y-32593409D01*
X111154135Y-32593409D02*
X111106516Y-32498171D01*
X111106516Y-32498171D02*
X111011278Y-32450552D01*
X111011278Y-32450552D02*
X110820802Y-32450552D01*
X110820802Y-32450552D02*
X110725564Y-32498171D01*
X110725564Y-32498171D02*
X110677945Y-32593409D01*
X110677945Y-32593409D02*
X110677945Y-32688647D01*
X110677945Y-32688647D02*
X111154135Y-32783885D01*
X109582706Y-32450552D02*
X109344611Y-33117219D01*
X109106516Y-32450552D02*
X109344611Y-33117219D01*
X109344611Y-33117219D02*
X109439849Y-33355314D01*
X109439849Y-33355314D02*
X109487468Y-33402933D01*
X109487468Y-33402933D02*
X109582706Y-33450552D01*
X108582706Y-33117219D02*
X108677944Y-33069600D01*
X108677944Y-33069600D02*
X108725563Y-33021980D01*
X108725563Y-33021980D02*
X108773182Y-32926742D01*
X108773182Y-32926742D02*
X108773182Y-32641028D01*
X108773182Y-32641028D02*
X108725563Y-32545790D01*
X108725563Y-32545790D02*
X108677944Y-32498171D01*
X108677944Y-32498171D02*
X108582706Y-32450552D01*
X108582706Y-32450552D02*
X108439849Y-32450552D01*
X108439849Y-32450552D02*
X108344611Y-32498171D01*
X108344611Y-32498171D02*
X108296992Y-32545790D01*
X108296992Y-32545790D02*
X108249373Y-32641028D01*
X108249373Y-32641028D02*
X108249373Y-32926742D01*
X108249373Y-32926742D02*
X108296992Y-33021980D01*
X108296992Y-33021980D02*
X108344611Y-33069600D01*
X108344611Y-33069600D02*
X108439849Y-33117219D01*
X108439849Y-33117219D02*
X108582706Y-33117219D01*
X107392230Y-32450552D02*
X107392230Y-33117219D01*
X107820801Y-32450552D02*
X107820801Y-32974361D01*
X107820801Y-32974361D02*
X107773182Y-33069600D01*
X107773182Y-33069600D02*
X107677944Y-33117219D01*
X107677944Y-33117219D02*
X107535087Y-33117219D01*
X107535087Y-33117219D02*
X107439849Y-33069600D01*
X107439849Y-33069600D02*
X107392230Y-33021980D01*
X106201753Y-33069600D02*
X106106515Y-33117219D01*
X106106515Y-33117219D02*
X105916039Y-33117219D01*
X105916039Y-33117219D02*
X105820801Y-33069600D01*
X105820801Y-33069600D02*
X105773182Y-32974361D01*
X105773182Y-32974361D02*
X105773182Y-32926742D01*
X105773182Y-32926742D02*
X105820801Y-32831504D01*
X105820801Y-32831504D02*
X105916039Y-32783885D01*
X105916039Y-32783885D02*
X106058896Y-32783885D01*
X106058896Y-32783885D02*
X106154134Y-32736266D01*
X106154134Y-32736266D02*
X106201753Y-32641028D01*
X106201753Y-32641028D02*
X106201753Y-32593409D01*
X106201753Y-32593409D02*
X106154134Y-32498171D01*
X106154134Y-32498171D02*
X106058896Y-32450552D01*
X106058896Y-32450552D02*
X105916039Y-32450552D01*
X105916039Y-32450552D02*
X105820801Y-32498171D01*
X104916039Y-32450552D02*
X104916039Y-33117219D01*
X105344610Y-32450552D02*
X105344610Y-32974361D01*
X105344610Y-32974361D02*
X105296991Y-33069600D01*
X105296991Y-33069600D02*
X105201753Y-33117219D01*
X105201753Y-33117219D02*
X105058896Y-33117219D01*
X105058896Y-33117219D02*
X104963658Y-33069600D01*
X104963658Y-33069600D02*
X104916039Y-33021980D01*
X104439848Y-33117219D02*
X104439848Y-32450552D01*
X104439848Y-32641028D02*
X104392229Y-32545790D01*
X104392229Y-32545790D02*
X104344610Y-32498171D01*
X104344610Y-32498171D02*
X104249372Y-32450552D01*
X104249372Y-32450552D02*
X104154134Y-32450552D01*
X103439848Y-33069600D02*
X103535086Y-33117219D01*
X103535086Y-33117219D02*
X103725562Y-33117219D01*
X103725562Y-33117219D02*
X103820800Y-33069600D01*
X103820800Y-33069600D02*
X103868419Y-32974361D01*
X103868419Y-32974361D02*
X103868419Y-32593409D01*
X103868419Y-32593409D02*
X103820800Y-32498171D01*
X103820800Y-32498171D02*
X103725562Y-32450552D01*
X103725562Y-32450552D02*
X103535086Y-32450552D01*
X103535086Y-32450552D02*
X103439848Y-32498171D01*
X103439848Y-32498171D02*
X103392229Y-32593409D01*
X103392229Y-32593409D02*
X103392229Y-32688647D01*
X103392229Y-32688647D02*
X103868419Y-32783885D01*
X102820800Y-33021980D02*
X102773181Y-33069600D01*
X102773181Y-33069600D02*
X102820800Y-33117219D01*
X102820800Y-33117219D02*
X102868419Y-33069600D01*
X102868419Y-33069600D02*
X102820800Y-33021980D01*
X102820800Y-33021980D02*
X102820800Y-33117219D01*
X103011276Y-32164838D02*
X102916038Y-32117219D01*
X102916038Y-32117219D02*
X102677943Y-32117219D01*
X102677943Y-32117219D02*
X102582705Y-32164838D01*
X102582705Y-32164838D02*
X102535086Y-32260076D01*
X102535086Y-32260076D02*
X102535086Y-32355314D01*
X102535086Y-32355314D02*
X102582705Y-32450552D01*
X102582705Y-32450552D02*
X102630324Y-32498171D01*
X102630324Y-32498171D02*
X102725562Y-32545790D01*
X102725562Y-32545790D02*
X102773181Y-32593409D01*
X102773181Y-32593409D02*
X102820800Y-32688647D01*
X102820800Y-32688647D02*
X102820800Y-32736266D01*
X101963657Y-33021980D02*
X101916038Y-33069600D01*
X101916038Y-33069600D02*
X101963657Y-33117219D01*
X101963657Y-33117219D02*
X102011276Y-33069600D01*
X102011276Y-33069600D02*
X101963657Y-33021980D01*
X101963657Y-33021980D02*
X101963657Y-33117219D01*
X102154133Y-32164838D02*
X102058895Y-32117219D01*
X102058895Y-32117219D02*
X101820800Y-32117219D01*
X101820800Y-32117219D02*
X101725562Y-32164838D01*
X101725562Y-32164838D02*
X101677943Y-32260076D01*
X101677943Y-32260076D02*
X101677943Y-32355314D01*
X101677943Y-32355314D02*
X101725562Y-32450552D01*
X101725562Y-32450552D02*
X101773181Y-32498171D01*
X101773181Y-32498171D02*
X101868419Y-32545790D01*
X101868419Y-32545790D02*
X101916038Y-32593409D01*
X101916038Y-32593409D02*
X101963657Y-32688647D01*
X101963657Y-32688647D02*
X101963657Y-32736266D01*
D11*
X101572438Y-70855588D02*
X101524819Y-70760350D01*
X101524819Y-70760350D02*
X101524819Y-70617493D01*
X101524819Y-70617493D02*
X101572438Y-70474636D01*
X101572438Y-70474636D02*
X101667676Y-70379398D01*
X101667676Y-70379398D02*
X101762914Y-70331779D01*
X101762914Y-70331779D02*
X101953390Y-70284160D01*
X101953390Y-70284160D02*
X102096247Y-70284160D01*
X102096247Y-70284160D02*
X102286723Y-70331779D01*
X102286723Y-70331779D02*
X102381961Y-70379398D01*
X102381961Y-70379398D02*
X102477200Y-70474636D01*
X102477200Y-70474636D02*
X102524819Y-70617493D01*
X102524819Y-70617493D02*
X102524819Y-70712731D01*
X102524819Y-70712731D02*
X102477200Y-70855588D01*
X102477200Y-70855588D02*
X102429580Y-70903207D01*
X102429580Y-70903207D02*
X102096247Y-70903207D01*
X102096247Y-70903207D02*
X102096247Y-70712731D01*
X102524819Y-71331779D02*
X101524819Y-71331779D01*
X101524819Y-71331779D02*
X102524819Y-71903207D01*
X102524819Y-71903207D02*
X101524819Y-71903207D01*
X102524819Y-72379398D02*
X101524819Y-72379398D01*
X101524819Y-72379398D02*
X101524819Y-72617493D01*
X101524819Y-72617493D02*
X101572438Y-72760350D01*
X101572438Y-72760350D02*
X101667676Y-72855588D01*
X101667676Y-72855588D02*
X101762914Y-72903207D01*
X101762914Y-72903207D02*
X101953390Y-72950826D01*
X101953390Y-72950826D02*
X102096247Y-72950826D01*
X102096247Y-72950826D02*
X102286723Y-72903207D01*
X102286723Y-72903207D02*
X102381961Y-72855588D01*
X102381961Y-72855588D02*
X102477200Y-72760350D01*
X102477200Y-72760350D02*
X102524819Y-72617493D01*
X102524819Y-72617493D02*
X102524819Y-72379398D01*
X102444819Y-65613207D02*
X101968628Y-65279874D01*
X102444819Y-65041779D02*
X101444819Y-65041779D01*
X101444819Y-65041779D02*
X101444819Y-65422731D01*
X101444819Y-65422731D02*
X101492438Y-65517969D01*
X101492438Y-65517969D02*
X101540057Y-65565588D01*
X101540057Y-65565588D02*
X101635295Y-65613207D01*
X101635295Y-65613207D02*
X101778152Y-65613207D01*
X101778152Y-65613207D02*
X101873390Y-65565588D01*
X101873390Y-65565588D02*
X101921009Y-65517969D01*
X101921009Y-65517969D02*
X101968628Y-65422731D01*
X101968628Y-65422731D02*
X101968628Y-65041779D01*
X101444819Y-65946541D02*
X102444819Y-66613207D01*
X101444819Y-66613207D02*
X102444819Y-65946541D01*
X102444819Y-66994160D02*
X101444819Y-66994160D01*
X101444819Y-66994160D02*
X101444819Y-67232255D01*
X101444819Y-67232255D02*
X101492438Y-67375112D01*
X101492438Y-67375112D02*
X101587676Y-67470350D01*
X101587676Y-67470350D02*
X101682914Y-67517969D01*
X101682914Y-67517969D02*
X101873390Y-67565588D01*
X101873390Y-67565588D02*
X102016247Y-67565588D01*
X102016247Y-67565588D02*
X102206723Y-67517969D01*
X102206723Y-67517969D02*
X102301961Y-67470350D01*
X102301961Y-67470350D02*
X102397200Y-67375112D01*
X102397200Y-67375112D02*
X102444819Y-67232255D01*
X102444819Y-67232255D02*
X102444819Y-66994160D01*
D10*
X134927945Y-139319600D02*
X134832707Y-139367219D01*
X134832707Y-139367219D02*
X134642231Y-139367219D01*
X134642231Y-139367219D02*
X134546993Y-139319600D01*
X134546993Y-139319600D02*
X134499374Y-139224361D01*
X134499374Y-139224361D02*
X134499374Y-139176742D01*
X134499374Y-139176742D02*
X134546993Y-139081504D01*
X134546993Y-139081504D02*
X134642231Y-139033885D01*
X134642231Y-139033885D02*
X134785088Y-139033885D01*
X134785088Y-139033885D02*
X134880326Y-138986266D01*
X134880326Y-138986266D02*
X134927945Y-138891028D01*
X134927945Y-138891028D02*
X134927945Y-138843409D01*
X134927945Y-138843409D02*
X134880326Y-138748171D01*
X134880326Y-138748171D02*
X134785088Y-138700552D01*
X134785088Y-138700552D02*
X134642231Y-138700552D01*
X134642231Y-138700552D02*
X134546993Y-138748171D01*
X134070802Y-138700552D02*
X134070802Y-139700552D01*
X134070802Y-138748171D02*
X133975564Y-138700552D01*
X133975564Y-138700552D02*
X133785088Y-138700552D01*
X133785088Y-138700552D02*
X133689850Y-138748171D01*
X133689850Y-138748171D02*
X133642231Y-138795790D01*
X133642231Y-138795790D02*
X133594612Y-138891028D01*
X133594612Y-138891028D02*
X133594612Y-139176742D01*
X133594612Y-139176742D02*
X133642231Y-139271980D01*
X133642231Y-139271980D02*
X133689850Y-139319600D01*
X133689850Y-139319600D02*
X133785088Y-139367219D01*
X133785088Y-139367219D02*
X133975564Y-139367219D01*
X133975564Y-139367219D02*
X134070802Y-139319600D01*
X132785088Y-139319600D02*
X132880326Y-139367219D01*
X132880326Y-139367219D02*
X133070802Y-139367219D01*
X133070802Y-139367219D02*
X133166040Y-139319600D01*
X133166040Y-139319600D02*
X133213659Y-139224361D01*
X133213659Y-139224361D02*
X133213659Y-138843409D01*
X133213659Y-138843409D02*
X133166040Y-138748171D01*
X133166040Y-138748171D02*
X133070802Y-138700552D01*
X133070802Y-138700552D02*
X132880326Y-138700552D01*
X132880326Y-138700552D02*
X132785088Y-138748171D01*
X132785088Y-138748171D02*
X132737469Y-138843409D01*
X132737469Y-138843409D02*
X132737469Y-138938647D01*
X132737469Y-138938647D02*
X133213659Y-139033885D01*
X131880326Y-139319600D02*
X131975564Y-139367219D01*
X131975564Y-139367219D02*
X132166040Y-139367219D01*
X132166040Y-139367219D02*
X132261278Y-139319600D01*
X132261278Y-139319600D02*
X132308897Y-139271980D01*
X132308897Y-139271980D02*
X132356516Y-139176742D01*
X132356516Y-139176742D02*
X132356516Y-138891028D01*
X132356516Y-138891028D02*
X132308897Y-138795790D01*
X132308897Y-138795790D02*
X132261278Y-138748171D01*
X132261278Y-138748171D02*
X132166040Y-138700552D01*
X132166040Y-138700552D02*
X131975564Y-138700552D01*
X131975564Y-138700552D02*
X131880326Y-138748171D01*
X131451754Y-139367219D02*
X131451754Y-138700552D01*
X131451754Y-138367219D02*
X131499373Y-138414838D01*
X131499373Y-138414838D02*
X131451754Y-138462457D01*
X131451754Y-138462457D02*
X131404135Y-138414838D01*
X131404135Y-138414838D02*
X131451754Y-138367219D01*
X131451754Y-138367219D02*
X131451754Y-138462457D01*
X130546993Y-139367219D02*
X130546993Y-138843409D01*
X130546993Y-138843409D02*
X130594612Y-138748171D01*
X130594612Y-138748171D02*
X130689850Y-138700552D01*
X130689850Y-138700552D02*
X130880326Y-138700552D01*
X130880326Y-138700552D02*
X130975564Y-138748171D01*
X130546993Y-139319600D02*
X130642231Y-139367219D01*
X130642231Y-139367219D02*
X130880326Y-139367219D01*
X130880326Y-139367219D02*
X130975564Y-139319600D01*
X130975564Y-139319600D02*
X131023183Y-139224361D01*
X131023183Y-139224361D02*
X131023183Y-139129123D01*
X131023183Y-139129123D02*
X130975564Y-139033885D01*
X130975564Y-139033885D02*
X130880326Y-138986266D01*
X130880326Y-138986266D02*
X130642231Y-138986266D01*
X130642231Y-138986266D02*
X130546993Y-138938647D01*
X129927945Y-139367219D02*
X130023183Y-139319600D01*
X130023183Y-139319600D02*
X130070802Y-139224361D01*
X130070802Y-139224361D02*
X130070802Y-138367219D01*
X128927944Y-138700552D02*
X128546992Y-138700552D01*
X128785087Y-138367219D02*
X128785087Y-139224361D01*
X128785087Y-139224361D02*
X128737468Y-139319600D01*
X128737468Y-139319600D02*
X128642230Y-139367219D01*
X128642230Y-139367219D02*
X128546992Y-139367219D01*
X128213658Y-139367219D02*
X128213658Y-138367219D01*
X127785087Y-139367219D02*
X127785087Y-138843409D01*
X127785087Y-138843409D02*
X127832706Y-138748171D01*
X127832706Y-138748171D02*
X127927944Y-138700552D01*
X127927944Y-138700552D02*
X128070801Y-138700552D01*
X128070801Y-138700552D02*
X128166039Y-138748171D01*
X128166039Y-138748171D02*
X128213658Y-138795790D01*
X126880325Y-139367219D02*
X126880325Y-138843409D01*
X126880325Y-138843409D02*
X126927944Y-138748171D01*
X126927944Y-138748171D02*
X127023182Y-138700552D01*
X127023182Y-138700552D02*
X127213658Y-138700552D01*
X127213658Y-138700552D02*
X127308896Y-138748171D01*
X126880325Y-139319600D02*
X126975563Y-139367219D01*
X126975563Y-139367219D02*
X127213658Y-139367219D01*
X127213658Y-139367219D02*
X127308896Y-139319600D01*
X127308896Y-139319600D02*
X127356515Y-139224361D01*
X127356515Y-139224361D02*
X127356515Y-139129123D01*
X127356515Y-139129123D02*
X127308896Y-139033885D01*
X127308896Y-139033885D02*
X127213658Y-138986266D01*
X127213658Y-138986266D02*
X126975563Y-138986266D01*
X126975563Y-138986266D02*
X126880325Y-138938647D01*
X126404134Y-138700552D02*
X126404134Y-139367219D01*
X126404134Y-138795790D02*
X126356515Y-138748171D01*
X126356515Y-138748171D02*
X126261277Y-138700552D01*
X126261277Y-138700552D02*
X126118420Y-138700552D01*
X126118420Y-138700552D02*
X126023182Y-138748171D01*
X126023182Y-138748171D02*
X125975563Y-138843409D01*
X125975563Y-138843409D02*
X125975563Y-139367219D01*
X125499372Y-139367219D02*
X125499372Y-138367219D01*
X125404134Y-138986266D02*
X125118420Y-139367219D01*
X125118420Y-138700552D02*
X125499372Y-139081504D01*
X124737467Y-139319600D02*
X124642229Y-139367219D01*
X124642229Y-139367219D02*
X124451753Y-139367219D01*
X124451753Y-139367219D02*
X124356515Y-139319600D01*
X124356515Y-139319600D02*
X124308896Y-139224361D01*
X124308896Y-139224361D02*
X124308896Y-139176742D01*
X124308896Y-139176742D02*
X124356515Y-139081504D01*
X124356515Y-139081504D02*
X124451753Y-139033885D01*
X124451753Y-139033885D02*
X124594610Y-139033885D01*
X124594610Y-139033885D02*
X124689848Y-138986266D01*
X124689848Y-138986266D02*
X124737467Y-138891028D01*
X124737467Y-138891028D02*
X124737467Y-138843409D01*
X124737467Y-138843409D02*
X124689848Y-138748171D01*
X124689848Y-138748171D02*
X124594610Y-138700552D01*
X124594610Y-138700552D02*
X124451753Y-138700552D01*
X124451753Y-138700552D02*
X124356515Y-138748171D01*
X123261276Y-138700552D02*
X122880324Y-138700552D01*
X123118419Y-138367219D02*
X123118419Y-139224361D01*
X123118419Y-139224361D02*
X123070800Y-139319600D01*
X123070800Y-139319600D02*
X122975562Y-139367219D01*
X122975562Y-139367219D02*
X122880324Y-139367219D01*
X122404133Y-139367219D02*
X122499371Y-139319600D01*
X122499371Y-139319600D02*
X122546990Y-139271980D01*
X122546990Y-139271980D02*
X122594609Y-139176742D01*
X122594609Y-139176742D02*
X122594609Y-138891028D01*
X122594609Y-138891028D02*
X122546990Y-138795790D01*
X122546990Y-138795790D02*
X122499371Y-138748171D01*
X122499371Y-138748171D02*
X122404133Y-138700552D01*
X122404133Y-138700552D02*
X122261276Y-138700552D01*
X122261276Y-138700552D02*
X122166038Y-138748171D01*
X122166038Y-138748171D02*
X122118419Y-138795790D01*
X122118419Y-138795790D02*
X122070800Y-138891028D01*
X122070800Y-138891028D02*
X122070800Y-139176742D01*
X122070800Y-139176742D02*
X122118419Y-139271980D01*
X122118419Y-139271980D02*
X122166038Y-139319600D01*
X122166038Y-139319600D02*
X122261276Y-139367219D01*
X122261276Y-139367219D02*
X122404133Y-139367219D01*
X120880323Y-139367219D02*
X120880323Y-138367219D01*
X120880323Y-138748171D02*
X120785085Y-138700552D01*
X120785085Y-138700552D02*
X120594609Y-138700552D01*
X120594609Y-138700552D02*
X120499371Y-138748171D01*
X120499371Y-138748171D02*
X120451752Y-138795790D01*
X120451752Y-138795790D02*
X120404133Y-138891028D01*
X120404133Y-138891028D02*
X120404133Y-139176742D01*
X120404133Y-139176742D02*
X120451752Y-139271980D01*
X120451752Y-139271980D02*
X120499371Y-139319600D01*
X120499371Y-139319600D02*
X120594609Y-139367219D01*
X120594609Y-139367219D02*
X120785085Y-139367219D01*
X120785085Y-139367219D02*
X120880323Y-139319600D01*
X119546990Y-138700552D02*
X119546990Y-139367219D01*
X119975561Y-138700552D02*
X119975561Y-139224361D01*
X119975561Y-139224361D02*
X119927942Y-139319600D01*
X119927942Y-139319600D02*
X119832704Y-139367219D01*
X119832704Y-139367219D02*
X119689847Y-139367219D01*
X119689847Y-139367219D02*
X119594609Y-139319600D01*
X119594609Y-139319600D02*
X119546990Y-139271980D01*
X119070799Y-138700552D02*
X119070799Y-139367219D01*
X119070799Y-138795790D02*
X119023180Y-138748171D01*
X119023180Y-138748171D02*
X118927942Y-138700552D01*
X118927942Y-138700552D02*
X118785085Y-138700552D01*
X118785085Y-138700552D02*
X118689847Y-138748171D01*
X118689847Y-138748171D02*
X118642228Y-138843409D01*
X118642228Y-138843409D02*
X118642228Y-139367219D01*
X118308894Y-138700552D02*
X117927942Y-138700552D01*
X118166037Y-138367219D02*
X118166037Y-139224361D01*
X118166037Y-139224361D02*
X118118418Y-139319600D01*
X118118418Y-139319600D02*
X118023180Y-139367219D01*
X118023180Y-139367219D02*
X117927942Y-139367219D01*
X117689846Y-138700552D02*
X117451751Y-139367219D01*
X117213656Y-138700552D02*
X117451751Y-139367219D01*
X117451751Y-139367219D02*
X117546989Y-139605314D01*
X117546989Y-139605314D02*
X117594608Y-139652933D01*
X117594608Y-139652933D02*
X117689846Y-139700552D01*
X128130326Y-77912120D02*
X128130326Y-76412120D01*
X128130326Y-76412120D02*
X127892231Y-76412120D01*
X127892231Y-76412120D02*
X127749374Y-76483549D01*
X127749374Y-76483549D02*
X127654136Y-76626406D01*
X127654136Y-76626406D02*
X127606517Y-76769263D01*
X127606517Y-76769263D02*
X127558898Y-77054977D01*
X127558898Y-77054977D02*
X127558898Y-77269263D01*
X127558898Y-77269263D02*
X127606517Y-77554977D01*
X127606517Y-77554977D02*
X127654136Y-77697834D01*
X127654136Y-77697834D02*
X127749374Y-77840692D01*
X127749374Y-77840692D02*
X127892231Y-77912120D01*
X127892231Y-77912120D02*
X128130326Y-77912120D01*
X126939850Y-76412120D02*
X126844612Y-76412120D01*
X126844612Y-76412120D02*
X126749374Y-76483549D01*
X126749374Y-76483549D02*
X126701755Y-76554977D01*
X126701755Y-76554977D02*
X126654136Y-76697834D01*
X126654136Y-76697834D02*
X126606517Y-76983549D01*
X126606517Y-76983549D02*
X126606517Y-77340692D01*
X126606517Y-77340692D02*
X126654136Y-77626406D01*
X126654136Y-77626406D02*
X126701755Y-77769263D01*
X126701755Y-77769263D02*
X126749374Y-77840692D01*
X126749374Y-77840692D02*
X126844612Y-77912120D01*
X126844612Y-77912120D02*
X126939850Y-77912120D01*
X126939850Y-77912120D02*
X127035088Y-77840692D01*
X127035088Y-77840692D02*
X127082707Y-77769263D01*
X127082707Y-77769263D02*
X127130326Y-77626406D01*
X127130326Y-77626406D02*
X127177945Y-77340692D01*
X127177945Y-77340692D02*
X127177945Y-76983549D01*
X127177945Y-76983549D02*
X127130326Y-76697834D01*
X127130326Y-76697834D02*
X127082707Y-76554977D01*
X127082707Y-76554977D02*
X127035088Y-76483549D01*
X127035088Y-76483549D02*
X126939850Y-76412120D01*
X126177945Y-77340692D02*
X125416041Y-77340692D01*
X125082707Y-76412120D02*
X124511279Y-76412120D01*
X124796993Y-77912120D02*
X124796993Y-76412120D01*
X124273183Y-76412120D02*
X123606517Y-77912120D01*
X123606517Y-76412120D02*
X124273183Y-77912120D01*
X123463660Y-78054977D02*
X122701755Y-78054977D01*
X121892231Y-77912120D02*
X122225564Y-77197834D01*
X122463659Y-77912120D02*
X122463659Y-76412120D01*
X122463659Y-76412120D02*
X122082707Y-76412120D01*
X122082707Y-76412120D02*
X121987469Y-76483549D01*
X121987469Y-76483549D02*
X121939850Y-76554977D01*
X121939850Y-76554977D02*
X121892231Y-76697834D01*
X121892231Y-76697834D02*
X121892231Y-76912120D01*
X121892231Y-76912120D02*
X121939850Y-77054977D01*
X121939850Y-77054977D02*
X121987469Y-77126406D01*
X121987469Y-77126406D02*
X122082707Y-77197834D01*
X122082707Y-77197834D02*
X122463659Y-77197834D01*
X121273183Y-77197834D02*
X121273183Y-77912120D01*
X121606516Y-76412120D02*
X121273183Y-77197834D01*
X121273183Y-77197834D02*
X120939850Y-76412120D01*
X120130326Y-77912120D02*
X120606516Y-77912120D01*
X120606516Y-77912120D02*
X120606516Y-76412120D01*
X119225564Y-77912120D02*
X119558897Y-77197834D01*
X119796992Y-77912120D02*
X119796992Y-76412120D01*
X119796992Y-76412120D02*
X119416040Y-76412120D01*
X119416040Y-76412120D02*
X119320802Y-76483549D01*
X119320802Y-76483549D02*
X119273183Y-76554977D01*
X119273183Y-76554977D02*
X119225564Y-76697834D01*
X119225564Y-76697834D02*
X119225564Y-76912120D01*
X119225564Y-76912120D02*
X119273183Y-77054977D01*
X119273183Y-77054977D02*
X119320802Y-77126406D01*
X119320802Y-77126406D02*
X119416040Y-77197834D01*
X119416040Y-77197834D02*
X119796992Y-77197834D01*
X128130326Y-80327036D02*
X128130326Y-78827036D01*
X128130326Y-78827036D02*
X127892231Y-78827036D01*
X127892231Y-78827036D02*
X127749374Y-78898465D01*
X127749374Y-78898465D02*
X127654136Y-79041322D01*
X127654136Y-79041322D02*
X127606517Y-79184179D01*
X127606517Y-79184179D02*
X127558898Y-79469893D01*
X127558898Y-79469893D02*
X127558898Y-79684179D01*
X127558898Y-79684179D02*
X127606517Y-79969893D01*
X127606517Y-79969893D02*
X127654136Y-80112750D01*
X127654136Y-80112750D02*
X127749374Y-80255608D01*
X127749374Y-80255608D02*
X127892231Y-80327036D01*
X127892231Y-80327036D02*
X128130326Y-80327036D01*
X126606517Y-80327036D02*
X127177945Y-80327036D01*
X126892231Y-80327036D02*
X126892231Y-78827036D01*
X126892231Y-78827036D02*
X126987469Y-79041322D01*
X126987469Y-79041322D02*
X127082707Y-79184179D01*
X127082707Y-79184179D02*
X127177945Y-79255608D01*
X126177945Y-79755608D02*
X125416041Y-79755608D01*
X124368422Y-80327036D02*
X124701755Y-79612750D01*
X124939850Y-80327036D02*
X124939850Y-78827036D01*
X124939850Y-78827036D02*
X124558898Y-78827036D01*
X124558898Y-78827036D02*
X124463660Y-78898465D01*
X124463660Y-78898465D02*
X124416041Y-78969893D01*
X124416041Y-78969893D02*
X124368422Y-79112750D01*
X124368422Y-79112750D02*
X124368422Y-79327036D01*
X124368422Y-79327036D02*
X124416041Y-79469893D01*
X124416041Y-79469893D02*
X124463660Y-79541322D01*
X124463660Y-79541322D02*
X124558898Y-79612750D01*
X124558898Y-79612750D02*
X124939850Y-79612750D01*
X124035088Y-78827036D02*
X123368422Y-80327036D01*
X123368422Y-78827036D02*
X124035088Y-80327036D01*
X123225565Y-80469893D02*
X122463660Y-80469893D01*
X121654136Y-80327036D02*
X121987469Y-79612750D01*
X122225564Y-80327036D02*
X122225564Y-78827036D01*
X122225564Y-78827036D02*
X121844612Y-78827036D01*
X121844612Y-78827036D02*
X121749374Y-78898465D01*
X121749374Y-78898465D02*
X121701755Y-78969893D01*
X121701755Y-78969893D02*
X121654136Y-79112750D01*
X121654136Y-79112750D02*
X121654136Y-79327036D01*
X121654136Y-79327036D02*
X121701755Y-79469893D01*
X121701755Y-79469893D02*
X121749374Y-79541322D01*
X121749374Y-79541322D02*
X121844612Y-79612750D01*
X121844612Y-79612750D02*
X122225564Y-79612750D01*
X121035088Y-79612750D02*
X121035088Y-80327036D01*
X121368421Y-78827036D02*
X121035088Y-79612750D01*
X121035088Y-79612750D02*
X120701755Y-78827036D01*
X119892231Y-80327036D02*
X120368421Y-80327036D01*
X120368421Y-80327036D02*
X120368421Y-78827036D01*
X118987469Y-80327036D02*
X119320802Y-79612750D01*
X119558897Y-80327036D02*
X119558897Y-78827036D01*
X119558897Y-78827036D02*
X119177945Y-78827036D01*
X119177945Y-78827036D02*
X119082707Y-78898465D01*
X119082707Y-78898465D02*
X119035088Y-78969893D01*
X119035088Y-78969893D02*
X118987469Y-79112750D01*
X118987469Y-79112750D02*
X118987469Y-79327036D01*
X118987469Y-79327036D02*
X119035088Y-79469893D01*
X119035088Y-79469893D02*
X119082707Y-79541322D01*
X119082707Y-79541322D02*
X119177945Y-79612750D01*
X119177945Y-79612750D02*
X119558897Y-79612750D01*
X128130326Y-82741952D02*
X128130326Y-81241952D01*
X128130326Y-81241952D02*
X127892231Y-81241952D01*
X127892231Y-81241952D02*
X127749374Y-81313381D01*
X127749374Y-81313381D02*
X127654136Y-81456238D01*
X127654136Y-81456238D02*
X127606517Y-81599095D01*
X127606517Y-81599095D02*
X127558898Y-81884809D01*
X127558898Y-81884809D02*
X127558898Y-82099095D01*
X127558898Y-82099095D02*
X127606517Y-82384809D01*
X127606517Y-82384809D02*
X127654136Y-82527666D01*
X127654136Y-82527666D02*
X127749374Y-82670524D01*
X127749374Y-82670524D02*
X127892231Y-82741952D01*
X127892231Y-82741952D02*
X128130326Y-82741952D01*
X127177945Y-81384809D02*
X127130326Y-81313381D01*
X127130326Y-81313381D02*
X127035088Y-81241952D01*
X127035088Y-81241952D02*
X126796993Y-81241952D01*
X126796993Y-81241952D02*
X126701755Y-81313381D01*
X126701755Y-81313381D02*
X126654136Y-81384809D01*
X126654136Y-81384809D02*
X126606517Y-81527666D01*
X126606517Y-81527666D02*
X126606517Y-81670524D01*
X126606517Y-81670524D02*
X126654136Y-81884809D01*
X126654136Y-81884809D02*
X127225564Y-82741952D01*
X127225564Y-82741952D02*
X126606517Y-82741952D01*
X126177945Y-82170524D02*
X125416041Y-82170524D01*
X124463660Y-82741952D02*
X124939850Y-82741952D01*
X124939850Y-82741952D02*
X124939850Y-81241952D01*
X124177945Y-82313381D02*
X123701755Y-82313381D01*
X124273183Y-82741952D02*
X123939850Y-81241952D01*
X123939850Y-81241952D02*
X123606517Y-82741952D01*
X123273183Y-81241952D02*
X123273183Y-82456238D01*
X123273183Y-82456238D02*
X123225564Y-82599095D01*
X123225564Y-82599095D02*
X123177945Y-82670524D01*
X123177945Y-82670524D02*
X123082707Y-82741952D01*
X123082707Y-82741952D02*
X122892231Y-82741952D01*
X122892231Y-82741952D02*
X122796993Y-82670524D01*
X122796993Y-82670524D02*
X122749374Y-82599095D01*
X122749374Y-82599095D02*
X122701755Y-82456238D01*
X122701755Y-82456238D02*
X122701755Y-81241952D01*
X122225564Y-82741952D02*
X122225564Y-81241952D01*
X122225564Y-81241952D02*
X121654136Y-82741952D01*
X121654136Y-82741952D02*
X121654136Y-81241952D01*
X120606517Y-82599095D02*
X120654136Y-82670524D01*
X120654136Y-82670524D02*
X120796993Y-82741952D01*
X120796993Y-82741952D02*
X120892231Y-82741952D01*
X120892231Y-82741952D02*
X121035088Y-82670524D01*
X121035088Y-82670524D02*
X121130326Y-82527666D01*
X121130326Y-82527666D02*
X121177945Y-82384809D01*
X121177945Y-82384809D02*
X121225564Y-82099095D01*
X121225564Y-82099095D02*
X121225564Y-81884809D01*
X121225564Y-81884809D02*
X121177945Y-81599095D01*
X121177945Y-81599095D02*
X121130326Y-81456238D01*
X121130326Y-81456238D02*
X121035088Y-81313381D01*
X121035088Y-81313381D02*
X120892231Y-81241952D01*
X120892231Y-81241952D02*
X120796993Y-81241952D01*
X120796993Y-81241952D02*
X120654136Y-81313381D01*
X120654136Y-81313381D02*
X120606517Y-81384809D01*
X120177945Y-82741952D02*
X120177945Y-81241952D01*
X120177945Y-81956238D02*
X119606517Y-81956238D01*
X119606517Y-82741952D02*
X119606517Y-81241952D01*
X119368422Y-82884809D02*
X118606517Y-82884809D01*
X117892231Y-82741952D02*
X118368421Y-82741952D01*
X118368421Y-82741952D02*
X118368421Y-81241952D01*
X117558897Y-81956238D02*
X117225564Y-81956238D01*
X117082707Y-82741952D02*
X117558897Y-82741952D01*
X117558897Y-82741952D02*
X117558897Y-81241952D01*
X117558897Y-81241952D02*
X117082707Y-81241952D01*
X116654135Y-82741952D02*
X116654135Y-81241952D01*
X116654135Y-81241952D02*
X116416040Y-81241952D01*
X116416040Y-81241952D02*
X116273183Y-81313381D01*
X116273183Y-81313381D02*
X116177945Y-81456238D01*
X116177945Y-81456238D02*
X116130326Y-81599095D01*
X116130326Y-81599095D02*
X116082707Y-81884809D01*
X116082707Y-81884809D02*
X116082707Y-82099095D01*
X116082707Y-82099095D02*
X116130326Y-82384809D01*
X116130326Y-82384809D02*
X116177945Y-82527666D01*
X116177945Y-82527666D02*
X116273183Y-82670524D01*
X116273183Y-82670524D02*
X116416040Y-82741952D01*
X116416040Y-82741952D02*
X116654135Y-82741952D01*
X128130326Y-85156868D02*
X128130326Y-83656868D01*
X128130326Y-83656868D02*
X127892231Y-83656868D01*
X127892231Y-83656868D02*
X127749374Y-83728297D01*
X127749374Y-83728297D02*
X127654136Y-83871154D01*
X127654136Y-83871154D02*
X127606517Y-84014011D01*
X127606517Y-84014011D02*
X127558898Y-84299725D01*
X127558898Y-84299725D02*
X127558898Y-84514011D01*
X127558898Y-84514011D02*
X127606517Y-84799725D01*
X127606517Y-84799725D02*
X127654136Y-84942582D01*
X127654136Y-84942582D02*
X127749374Y-85085440D01*
X127749374Y-85085440D02*
X127892231Y-85156868D01*
X127892231Y-85156868D02*
X128130326Y-85156868D01*
X126701755Y-84156868D02*
X126701755Y-85156868D01*
X126939850Y-83585440D02*
X127177945Y-84656868D01*
X127177945Y-84656868D02*
X126558898Y-84656868D01*
X126177945Y-84585440D02*
X125416041Y-84585440D01*
X124987469Y-84728297D02*
X124511279Y-84728297D01*
X125082707Y-85156868D02*
X124749374Y-83656868D01*
X124749374Y-83656868D02*
X124416041Y-85156868D01*
X123511279Y-85156868D02*
X123844612Y-84442582D01*
X124082707Y-85156868D02*
X124082707Y-83656868D01*
X124082707Y-83656868D02*
X123701755Y-83656868D01*
X123701755Y-83656868D02*
X123606517Y-83728297D01*
X123606517Y-83728297D02*
X123558898Y-83799725D01*
X123558898Y-83799725D02*
X123511279Y-83942582D01*
X123511279Y-83942582D02*
X123511279Y-84156868D01*
X123511279Y-84156868D02*
X123558898Y-84299725D01*
X123558898Y-84299725D02*
X123606517Y-84371154D01*
X123606517Y-84371154D02*
X123701755Y-84442582D01*
X123701755Y-84442582D02*
X124082707Y-84442582D01*
X123082707Y-85156868D02*
X123082707Y-83656868D01*
X123082707Y-83656868D02*
X122749374Y-84728297D01*
X122749374Y-84728297D02*
X122416041Y-83656868D01*
X122416041Y-83656868D02*
X122416041Y-85156868D01*
X122177946Y-85299725D02*
X121416041Y-85299725D01*
X120701755Y-85156868D02*
X121177945Y-85156868D01*
X121177945Y-85156868D02*
X121177945Y-83656868D01*
X120368421Y-84371154D02*
X120035088Y-84371154D01*
X119892231Y-85156868D02*
X120368421Y-85156868D01*
X120368421Y-85156868D02*
X120368421Y-83656868D01*
X120368421Y-83656868D02*
X119892231Y-83656868D01*
X119463659Y-85156868D02*
X119463659Y-83656868D01*
X119463659Y-83656868D02*
X119225564Y-83656868D01*
X119225564Y-83656868D02*
X119082707Y-83728297D01*
X119082707Y-83728297D02*
X118987469Y-83871154D01*
X118987469Y-83871154D02*
X118939850Y-84014011D01*
X118939850Y-84014011D02*
X118892231Y-84299725D01*
X118892231Y-84299725D02*
X118892231Y-84514011D01*
X118892231Y-84514011D02*
X118939850Y-84799725D01*
X118939850Y-84799725D02*
X118987469Y-84942582D01*
X118987469Y-84942582D02*
X119082707Y-85085440D01*
X119082707Y-85085440D02*
X119225564Y-85156868D01*
X119225564Y-85156868D02*
X119463659Y-85156868D01*
X128130326Y-87571784D02*
X128130326Y-86071784D01*
X128130326Y-86071784D02*
X127892231Y-86071784D01*
X127892231Y-86071784D02*
X127749374Y-86143213D01*
X127749374Y-86143213D02*
X127654136Y-86286070D01*
X127654136Y-86286070D02*
X127606517Y-86428927D01*
X127606517Y-86428927D02*
X127558898Y-86714641D01*
X127558898Y-86714641D02*
X127558898Y-86928927D01*
X127558898Y-86928927D02*
X127606517Y-87214641D01*
X127606517Y-87214641D02*
X127654136Y-87357498D01*
X127654136Y-87357498D02*
X127749374Y-87500356D01*
X127749374Y-87500356D02*
X127892231Y-87571784D01*
X127892231Y-87571784D02*
X128130326Y-87571784D01*
X127225564Y-86071784D02*
X126606517Y-86071784D01*
X126606517Y-86071784D02*
X126939850Y-86643213D01*
X126939850Y-86643213D02*
X126796993Y-86643213D01*
X126796993Y-86643213D02*
X126701755Y-86714641D01*
X126701755Y-86714641D02*
X126654136Y-86786070D01*
X126654136Y-86786070D02*
X126606517Y-86928927D01*
X126606517Y-86928927D02*
X126606517Y-87286070D01*
X126606517Y-87286070D02*
X126654136Y-87428927D01*
X126654136Y-87428927D02*
X126701755Y-87500356D01*
X126701755Y-87500356D02*
X126796993Y-87571784D01*
X126796993Y-87571784D02*
X127082707Y-87571784D01*
X127082707Y-87571784D02*
X127177945Y-87500356D01*
X127177945Y-87500356D02*
X127225564Y-87428927D01*
X126177945Y-87000356D02*
X125416041Y-87000356D01*
X124939850Y-87571784D02*
X124939850Y-86071784D01*
X124939850Y-86071784D02*
X124701755Y-86071784D01*
X124701755Y-86071784D02*
X124558898Y-86143213D01*
X124558898Y-86143213D02*
X124463660Y-86286070D01*
X124463660Y-86286070D02*
X124416041Y-86428927D01*
X124416041Y-86428927D02*
X124368422Y-86714641D01*
X124368422Y-86714641D02*
X124368422Y-86928927D01*
X124368422Y-86928927D02*
X124416041Y-87214641D01*
X124416041Y-87214641D02*
X124463660Y-87357498D01*
X124463660Y-87357498D02*
X124558898Y-87500356D01*
X124558898Y-87500356D02*
X124701755Y-87571784D01*
X124701755Y-87571784D02*
X124939850Y-87571784D01*
X123511279Y-86571784D02*
X123511279Y-87571784D01*
X123749374Y-86000356D02*
X123987469Y-87071784D01*
X123987469Y-87071784D02*
X123368422Y-87071784D01*
X122463660Y-87571784D02*
X123035088Y-87571784D01*
X122749374Y-87571784D02*
X122749374Y-86071784D01*
X122749374Y-86071784D02*
X122844612Y-86286070D01*
X122844612Y-86286070D02*
X122939850Y-86428927D01*
X122939850Y-86428927D02*
X123035088Y-86500356D01*
X121892231Y-86714641D02*
X121987469Y-86643213D01*
X121987469Y-86643213D02*
X122035088Y-86571784D01*
X122035088Y-86571784D02*
X122082707Y-86428927D01*
X122082707Y-86428927D02*
X122082707Y-86357498D01*
X122082707Y-86357498D02*
X122035088Y-86214641D01*
X122035088Y-86214641D02*
X121987469Y-86143213D01*
X121987469Y-86143213D02*
X121892231Y-86071784D01*
X121892231Y-86071784D02*
X121701755Y-86071784D01*
X121701755Y-86071784D02*
X121606517Y-86143213D01*
X121606517Y-86143213D02*
X121558898Y-86214641D01*
X121558898Y-86214641D02*
X121511279Y-86357498D01*
X121511279Y-86357498D02*
X121511279Y-86428927D01*
X121511279Y-86428927D02*
X121558898Y-86571784D01*
X121558898Y-86571784D02*
X121606517Y-86643213D01*
X121606517Y-86643213D02*
X121701755Y-86714641D01*
X121701755Y-86714641D02*
X121892231Y-86714641D01*
X121892231Y-86714641D02*
X121987469Y-86786070D01*
X121987469Y-86786070D02*
X122035088Y-86857498D01*
X122035088Y-86857498D02*
X122082707Y-87000356D01*
X122082707Y-87000356D02*
X122082707Y-87286070D01*
X122082707Y-87286070D02*
X122035088Y-87428927D01*
X122035088Y-87428927D02*
X121987469Y-87500356D01*
X121987469Y-87500356D02*
X121892231Y-87571784D01*
X121892231Y-87571784D02*
X121701755Y-87571784D01*
X121701755Y-87571784D02*
X121606517Y-87500356D01*
X121606517Y-87500356D02*
X121558898Y-87428927D01*
X121558898Y-87428927D02*
X121511279Y-87286070D01*
X121511279Y-87286070D02*
X121511279Y-87000356D01*
X121511279Y-87000356D02*
X121558898Y-86857498D01*
X121558898Y-86857498D02*
X121606517Y-86786070D01*
X121606517Y-86786070D02*
X121701755Y-86714641D01*
X120654136Y-86571784D02*
X120654136Y-87571784D01*
X120892231Y-86000356D02*
X121130326Y-87071784D01*
X121130326Y-87071784D02*
X120511279Y-87071784D01*
X119844612Y-88143213D02*
X119892231Y-88071784D01*
X119892231Y-88071784D02*
X119987469Y-87857498D01*
X119987469Y-87857498D02*
X120035088Y-87714641D01*
X120035088Y-87714641D02*
X120082707Y-87500356D01*
X120082707Y-87500356D02*
X120130326Y-87143213D01*
X120130326Y-87143213D02*
X120130326Y-86857498D01*
X120130326Y-86857498D02*
X120082707Y-86500356D01*
X120082707Y-86500356D02*
X120035088Y-86286070D01*
X120035088Y-86286070D02*
X119987469Y-86143213D01*
X119987469Y-86143213D02*
X119892231Y-85928927D01*
X119892231Y-85928927D02*
X119844612Y-85857498D01*
X118939850Y-87571784D02*
X119511278Y-87571784D01*
X119225564Y-87571784D02*
X119225564Y-86071784D01*
X119225564Y-86071784D02*
X119320802Y-86286070D01*
X119320802Y-86286070D02*
X119416040Y-86428927D01*
X119416040Y-86428927D02*
X119511278Y-86500356D01*
X118606516Y-88143213D02*
X118558897Y-88071784D01*
X118558897Y-88071784D02*
X118463659Y-87857498D01*
X118463659Y-87857498D02*
X118416040Y-87714641D01*
X118416040Y-87714641D02*
X118368421Y-87500356D01*
X118368421Y-87500356D02*
X118320802Y-87143213D01*
X118320802Y-87143213D02*
X118320802Y-86857498D01*
X118320802Y-86857498D02*
X118368421Y-86500356D01*
X118368421Y-86500356D02*
X118416040Y-86286070D01*
X118416040Y-86286070D02*
X118463659Y-86143213D01*
X118463659Y-86143213D02*
X118558897Y-85928927D01*
X118558897Y-85928927D02*
X118606516Y-85857498D01*
X128130326Y-89986700D02*
X128130326Y-88486700D01*
X128130326Y-88486700D02*
X127892231Y-88486700D01*
X127892231Y-88486700D02*
X127749374Y-88558129D01*
X127749374Y-88558129D02*
X127654136Y-88700986D01*
X127654136Y-88700986D02*
X127606517Y-88843843D01*
X127606517Y-88843843D02*
X127558898Y-89129557D01*
X127558898Y-89129557D02*
X127558898Y-89343843D01*
X127558898Y-89343843D02*
X127606517Y-89629557D01*
X127606517Y-89629557D02*
X127654136Y-89772414D01*
X127654136Y-89772414D02*
X127749374Y-89915272D01*
X127749374Y-89915272D02*
X127892231Y-89986700D01*
X127892231Y-89986700D02*
X128130326Y-89986700D01*
X126701755Y-88486700D02*
X126892231Y-88486700D01*
X126892231Y-88486700D02*
X126987469Y-88558129D01*
X126987469Y-88558129D02*
X127035088Y-88629557D01*
X127035088Y-88629557D02*
X127130326Y-88843843D01*
X127130326Y-88843843D02*
X127177945Y-89129557D01*
X127177945Y-89129557D02*
X127177945Y-89700986D01*
X127177945Y-89700986D02*
X127130326Y-89843843D01*
X127130326Y-89843843D02*
X127082707Y-89915272D01*
X127082707Y-89915272D02*
X126987469Y-89986700D01*
X126987469Y-89986700D02*
X126796993Y-89986700D01*
X126796993Y-89986700D02*
X126701755Y-89915272D01*
X126701755Y-89915272D02*
X126654136Y-89843843D01*
X126654136Y-89843843D02*
X126606517Y-89700986D01*
X126606517Y-89700986D02*
X126606517Y-89343843D01*
X126606517Y-89343843D02*
X126654136Y-89200986D01*
X126654136Y-89200986D02*
X126701755Y-89129557D01*
X126701755Y-89129557D02*
X126796993Y-89058129D01*
X126796993Y-89058129D02*
X126987469Y-89058129D01*
X126987469Y-89058129D02*
X127082707Y-89129557D01*
X127082707Y-89129557D02*
X127130326Y-89200986D01*
X127130326Y-89200986D02*
X127177945Y-89343843D01*
X126177945Y-89415272D02*
X125416041Y-89415272D01*
X124939850Y-89986700D02*
X124939850Y-88486700D01*
X124939850Y-88486700D02*
X124701755Y-88486700D01*
X124701755Y-88486700D02*
X124558898Y-88558129D01*
X124558898Y-88558129D02*
X124463660Y-88700986D01*
X124463660Y-88700986D02*
X124416041Y-88843843D01*
X124416041Y-88843843D02*
X124368422Y-89129557D01*
X124368422Y-89129557D02*
X124368422Y-89343843D01*
X124368422Y-89343843D02*
X124416041Y-89629557D01*
X124416041Y-89629557D02*
X124463660Y-89772414D01*
X124463660Y-89772414D02*
X124558898Y-89915272D01*
X124558898Y-89915272D02*
X124701755Y-89986700D01*
X124701755Y-89986700D02*
X124939850Y-89986700D01*
X123511279Y-88986700D02*
X123511279Y-89986700D01*
X123749374Y-88415272D02*
X123987469Y-89486700D01*
X123987469Y-89486700D02*
X123368422Y-89486700D01*
X122463660Y-89986700D02*
X123035088Y-89986700D01*
X122749374Y-89986700D02*
X122749374Y-88486700D01*
X122749374Y-88486700D02*
X122844612Y-88700986D01*
X122844612Y-88700986D02*
X122939850Y-88843843D01*
X122939850Y-88843843D02*
X123035088Y-88915272D01*
X121892231Y-89129557D02*
X121987469Y-89058129D01*
X121987469Y-89058129D02*
X122035088Y-88986700D01*
X122035088Y-88986700D02*
X122082707Y-88843843D01*
X122082707Y-88843843D02*
X122082707Y-88772414D01*
X122082707Y-88772414D02*
X122035088Y-88629557D01*
X122035088Y-88629557D02*
X121987469Y-88558129D01*
X121987469Y-88558129D02*
X121892231Y-88486700D01*
X121892231Y-88486700D02*
X121701755Y-88486700D01*
X121701755Y-88486700D02*
X121606517Y-88558129D01*
X121606517Y-88558129D02*
X121558898Y-88629557D01*
X121558898Y-88629557D02*
X121511279Y-88772414D01*
X121511279Y-88772414D02*
X121511279Y-88843843D01*
X121511279Y-88843843D02*
X121558898Y-88986700D01*
X121558898Y-88986700D02*
X121606517Y-89058129D01*
X121606517Y-89058129D02*
X121701755Y-89129557D01*
X121701755Y-89129557D02*
X121892231Y-89129557D01*
X121892231Y-89129557D02*
X121987469Y-89200986D01*
X121987469Y-89200986D02*
X122035088Y-89272414D01*
X122035088Y-89272414D02*
X122082707Y-89415272D01*
X122082707Y-89415272D02*
X122082707Y-89700986D01*
X122082707Y-89700986D02*
X122035088Y-89843843D01*
X122035088Y-89843843D02*
X121987469Y-89915272D01*
X121987469Y-89915272D02*
X121892231Y-89986700D01*
X121892231Y-89986700D02*
X121701755Y-89986700D01*
X121701755Y-89986700D02*
X121606517Y-89915272D01*
X121606517Y-89915272D02*
X121558898Y-89843843D01*
X121558898Y-89843843D02*
X121511279Y-89700986D01*
X121511279Y-89700986D02*
X121511279Y-89415272D01*
X121511279Y-89415272D02*
X121558898Y-89272414D01*
X121558898Y-89272414D02*
X121606517Y-89200986D01*
X121606517Y-89200986D02*
X121701755Y-89129557D01*
X120654136Y-88986700D02*
X120654136Y-89986700D01*
X120892231Y-88415272D02*
X121130326Y-89486700D01*
X121130326Y-89486700D02*
X120511279Y-89486700D01*
X119844612Y-90558129D02*
X119892231Y-90486700D01*
X119892231Y-90486700D02*
X119987469Y-90272414D01*
X119987469Y-90272414D02*
X120035088Y-90129557D01*
X120035088Y-90129557D02*
X120082707Y-89915272D01*
X120082707Y-89915272D02*
X120130326Y-89558129D01*
X120130326Y-89558129D02*
X120130326Y-89272414D01*
X120130326Y-89272414D02*
X120082707Y-88915272D01*
X120082707Y-88915272D02*
X120035088Y-88700986D01*
X120035088Y-88700986D02*
X119987469Y-88558129D01*
X119987469Y-88558129D02*
X119892231Y-88343843D01*
X119892231Y-88343843D02*
X119844612Y-88272414D01*
X119511278Y-88629557D02*
X119463659Y-88558129D01*
X119463659Y-88558129D02*
X119368421Y-88486700D01*
X119368421Y-88486700D02*
X119130326Y-88486700D01*
X119130326Y-88486700D02*
X119035088Y-88558129D01*
X119035088Y-88558129D02*
X118987469Y-88629557D01*
X118987469Y-88629557D02*
X118939850Y-88772414D01*
X118939850Y-88772414D02*
X118939850Y-88915272D01*
X118939850Y-88915272D02*
X118987469Y-89129557D01*
X118987469Y-89129557D02*
X119558897Y-89986700D01*
X119558897Y-89986700D02*
X118939850Y-89986700D01*
X118606516Y-90558129D02*
X118558897Y-90486700D01*
X118558897Y-90486700D02*
X118463659Y-90272414D01*
X118463659Y-90272414D02*
X118416040Y-90129557D01*
X118416040Y-90129557D02*
X118368421Y-89915272D01*
X118368421Y-89915272D02*
X118320802Y-89558129D01*
X118320802Y-89558129D02*
X118320802Y-89272414D01*
X118320802Y-89272414D02*
X118368421Y-88915272D01*
X118368421Y-88915272D02*
X118416040Y-88700986D01*
X118416040Y-88700986D02*
X118463659Y-88558129D01*
X118463659Y-88558129D02*
X118558897Y-88343843D01*
X118558897Y-88343843D02*
X118606516Y-88272414D01*
X128130326Y-92401616D02*
X128130326Y-90901616D01*
X128130326Y-90901616D02*
X127892231Y-90901616D01*
X127892231Y-90901616D02*
X127749374Y-90973045D01*
X127749374Y-90973045D02*
X127654136Y-91115902D01*
X127654136Y-91115902D02*
X127606517Y-91258759D01*
X127606517Y-91258759D02*
X127558898Y-91544473D01*
X127558898Y-91544473D02*
X127558898Y-91758759D01*
X127558898Y-91758759D02*
X127606517Y-92044473D01*
X127606517Y-92044473D02*
X127654136Y-92187330D01*
X127654136Y-92187330D02*
X127749374Y-92330188D01*
X127749374Y-92330188D02*
X127892231Y-92401616D01*
X127892231Y-92401616D02*
X128130326Y-92401616D01*
X127082707Y-92401616D02*
X126892231Y-92401616D01*
X126892231Y-92401616D02*
X126796993Y-92330188D01*
X126796993Y-92330188D02*
X126749374Y-92258759D01*
X126749374Y-92258759D02*
X126654136Y-92044473D01*
X126654136Y-92044473D02*
X126606517Y-91758759D01*
X126606517Y-91758759D02*
X126606517Y-91187330D01*
X126606517Y-91187330D02*
X126654136Y-91044473D01*
X126654136Y-91044473D02*
X126701755Y-90973045D01*
X126701755Y-90973045D02*
X126796993Y-90901616D01*
X126796993Y-90901616D02*
X126987469Y-90901616D01*
X126987469Y-90901616D02*
X127082707Y-90973045D01*
X127082707Y-90973045D02*
X127130326Y-91044473D01*
X127130326Y-91044473D02*
X127177945Y-91187330D01*
X127177945Y-91187330D02*
X127177945Y-91544473D01*
X127177945Y-91544473D02*
X127130326Y-91687330D01*
X127130326Y-91687330D02*
X127082707Y-91758759D01*
X127082707Y-91758759D02*
X126987469Y-91830188D01*
X126987469Y-91830188D02*
X126796993Y-91830188D01*
X126796993Y-91830188D02*
X126701755Y-91758759D01*
X126701755Y-91758759D02*
X126654136Y-91687330D01*
X126654136Y-91687330D02*
X126606517Y-91544473D01*
X126177945Y-91830188D02*
X125416041Y-91830188D01*
X124939850Y-92401616D02*
X124939850Y-90901616D01*
X124939850Y-90901616D02*
X124701755Y-90901616D01*
X124701755Y-90901616D02*
X124558898Y-90973045D01*
X124558898Y-90973045D02*
X124463660Y-91115902D01*
X124463660Y-91115902D02*
X124416041Y-91258759D01*
X124416041Y-91258759D02*
X124368422Y-91544473D01*
X124368422Y-91544473D02*
X124368422Y-91758759D01*
X124368422Y-91758759D02*
X124416041Y-92044473D01*
X124416041Y-92044473D02*
X124463660Y-92187330D01*
X124463660Y-92187330D02*
X124558898Y-92330188D01*
X124558898Y-92330188D02*
X124701755Y-92401616D01*
X124701755Y-92401616D02*
X124939850Y-92401616D01*
X123511279Y-91401616D02*
X123511279Y-92401616D01*
X123749374Y-90830188D02*
X123987469Y-91901616D01*
X123987469Y-91901616D02*
X123368422Y-91901616D01*
X122463660Y-92401616D02*
X123035088Y-92401616D01*
X122749374Y-92401616D02*
X122749374Y-90901616D01*
X122749374Y-90901616D02*
X122844612Y-91115902D01*
X122844612Y-91115902D02*
X122939850Y-91258759D01*
X122939850Y-91258759D02*
X123035088Y-91330188D01*
X121892231Y-91544473D02*
X121987469Y-91473045D01*
X121987469Y-91473045D02*
X122035088Y-91401616D01*
X122035088Y-91401616D02*
X122082707Y-91258759D01*
X122082707Y-91258759D02*
X122082707Y-91187330D01*
X122082707Y-91187330D02*
X122035088Y-91044473D01*
X122035088Y-91044473D02*
X121987469Y-90973045D01*
X121987469Y-90973045D02*
X121892231Y-90901616D01*
X121892231Y-90901616D02*
X121701755Y-90901616D01*
X121701755Y-90901616D02*
X121606517Y-90973045D01*
X121606517Y-90973045D02*
X121558898Y-91044473D01*
X121558898Y-91044473D02*
X121511279Y-91187330D01*
X121511279Y-91187330D02*
X121511279Y-91258759D01*
X121511279Y-91258759D02*
X121558898Y-91401616D01*
X121558898Y-91401616D02*
X121606517Y-91473045D01*
X121606517Y-91473045D02*
X121701755Y-91544473D01*
X121701755Y-91544473D02*
X121892231Y-91544473D01*
X121892231Y-91544473D02*
X121987469Y-91615902D01*
X121987469Y-91615902D02*
X122035088Y-91687330D01*
X122035088Y-91687330D02*
X122082707Y-91830188D01*
X122082707Y-91830188D02*
X122082707Y-92115902D01*
X122082707Y-92115902D02*
X122035088Y-92258759D01*
X122035088Y-92258759D02*
X121987469Y-92330188D01*
X121987469Y-92330188D02*
X121892231Y-92401616D01*
X121892231Y-92401616D02*
X121701755Y-92401616D01*
X121701755Y-92401616D02*
X121606517Y-92330188D01*
X121606517Y-92330188D02*
X121558898Y-92258759D01*
X121558898Y-92258759D02*
X121511279Y-92115902D01*
X121511279Y-92115902D02*
X121511279Y-91830188D01*
X121511279Y-91830188D02*
X121558898Y-91687330D01*
X121558898Y-91687330D02*
X121606517Y-91615902D01*
X121606517Y-91615902D02*
X121701755Y-91544473D01*
X120654136Y-91401616D02*
X120654136Y-92401616D01*
X120892231Y-90830188D02*
X121130326Y-91901616D01*
X121130326Y-91901616D02*
X120511279Y-91901616D01*
X119844612Y-92973045D02*
X119892231Y-92901616D01*
X119892231Y-92901616D02*
X119987469Y-92687330D01*
X119987469Y-92687330D02*
X120035088Y-92544473D01*
X120035088Y-92544473D02*
X120082707Y-92330188D01*
X120082707Y-92330188D02*
X120130326Y-91973045D01*
X120130326Y-91973045D02*
X120130326Y-91687330D01*
X120130326Y-91687330D02*
X120082707Y-91330188D01*
X120082707Y-91330188D02*
X120035088Y-91115902D01*
X120035088Y-91115902D02*
X119987469Y-90973045D01*
X119987469Y-90973045D02*
X119892231Y-90758759D01*
X119892231Y-90758759D02*
X119844612Y-90687330D01*
X119558897Y-90901616D02*
X118939850Y-90901616D01*
X118939850Y-90901616D02*
X119273183Y-91473045D01*
X119273183Y-91473045D02*
X119130326Y-91473045D01*
X119130326Y-91473045D02*
X119035088Y-91544473D01*
X119035088Y-91544473D02*
X118987469Y-91615902D01*
X118987469Y-91615902D02*
X118939850Y-91758759D01*
X118939850Y-91758759D02*
X118939850Y-92115902D01*
X118939850Y-92115902D02*
X118987469Y-92258759D01*
X118987469Y-92258759D02*
X119035088Y-92330188D01*
X119035088Y-92330188D02*
X119130326Y-92401616D01*
X119130326Y-92401616D02*
X119416040Y-92401616D01*
X119416040Y-92401616D02*
X119511278Y-92330188D01*
X119511278Y-92330188D02*
X119558897Y-92258759D01*
X118606516Y-92973045D02*
X118558897Y-92901616D01*
X118558897Y-92901616D02*
X118463659Y-92687330D01*
X118463659Y-92687330D02*
X118416040Y-92544473D01*
X118416040Y-92544473D02*
X118368421Y-92330188D01*
X118368421Y-92330188D02*
X118320802Y-91973045D01*
X118320802Y-91973045D02*
X118320802Y-91687330D01*
X118320802Y-91687330D02*
X118368421Y-91330188D01*
X118368421Y-91330188D02*
X118416040Y-91115902D01*
X118416040Y-91115902D02*
X118463659Y-90973045D01*
X118463659Y-90973045D02*
X118558897Y-90758759D01*
X118558897Y-90758759D02*
X118606516Y-90687330D01*
X128130326Y-94816532D02*
X128130326Y-93316532D01*
X128130326Y-93316532D02*
X127892231Y-93316532D01*
X127892231Y-93316532D02*
X127749374Y-93387961D01*
X127749374Y-93387961D02*
X127654136Y-93530818D01*
X127654136Y-93530818D02*
X127606517Y-93673675D01*
X127606517Y-93673675D02*
X127558898Y-93959389D01*
X127558898Y-93959389D02*
X127558898Y-94173675D01*
X127558898Y-94173675D02*
X127606517Y-94459389D01*
X127606517Y-94459389D02*
X127654136Y-94602246D01*
X127654136Y-94602246D02*
X127749374Y-94745104D01*
X127749374Y-94745104D02*
X127892231Y-94816532D01*
X127892231Y-94816532D02*
X128130326Y-94816532D01*
X126654136Y-93316532D02*
X127130326Y-93316532D01*
X127130326Y-93316532D02*
X127177945Y-94030818D01*
X127177945Y-94030818D02*
X127130326Y-93959389D01*
X127130326Y-93959389D02*
X127035088Y-93887961D01*
X127035088Y-93887961D02*
X126796993Y-93887961D01*
X126796993Y-93887961D02*
X126701755Y-93959389D01*
X126701755Y-93959389D02*
X126654136Y-94030818D01*
X126654136Y-94030818D02*
X126606517Y-94173675D01*
X126606517Y-94173675D02*
X126606517Y-94530818D01*
X126606517Y-94530818D02*
X126654136Y-94673675D01*
X126654136Y-94673675D02*
X126701755Y-94745104D01*
X126701755Y-94745104D02*
X126796993Y-94816532D01*
X126796993Y-94816532D02*
X127035088Y-94816532D01*
X127035088Y-94816532D02*
X127130326Y-94745104D01*
X127130326Y-94745104D02*
X127177945Y-94673675D01*
X126177945Y-94245104D02*
X125416041Y-94245104D01*
X124987469Y-94745104D02*
X124844612Y-94816532D01*
X124844612Y-94816532D02*
X124606517Y-94816532D01*
X124606517Y-94816532D02*
X124511279Y-94745104D01*
X124511279Y-94745104D02*
X124463660Y-94673675D01*
X124463660Y-94673675D02*
X124416041Y-94530818D01*
X124416041Y-94530818D02*
X124416041Y-94387961D01*
X124416041Y-94387961D02*
X124463660Y-94245104D01*
X124463660Y-94245104D02*
X124511279Y-94173675D01*
X124511279Y-94173675D02*
X124606517Y-94102246D01*
X124606517Y-94102246D02*
X124796993Y-94030818D01*
X124796993Y-94030818D02*
X124892231Y-93959389D01*
X124892231Y-93959389D02*
X124939850Y-93887961D01*
X124939850Y-93887961D02*
X124987469Y-93745104D01*
X124987469Y-93745104D02*
X124987469Y-93602246D01*
X124987469Y-93602246D02*
X124939850Y-93459389D01*
X124939850Y-93459389D02*
X124892231Y-93387961D01*
X124892231Y-93387961D02*
X124796993Y-93316532D01*
X124796993Y-93316532D02*
X124558898Y-93316532D01*
X124558898Y-93316532D02*
X124416041Y-93387961D01*
X124130326Y-93316532D02*
X123558898Y-93316532D01*
X123844612Y-94816532D02*
X123844612Y-93316532D01*
X123273183Y-94387961D02*
X122796993Y-94387961D01*
X123368421Y-94816532D02*
X123035088Y-93316532D01*
X123035088Y-93316532D02*
X122701755Y-94816532D01*
X122511278Y-93316532D02*
X121939850Y-93316532D01*
X122225564Y-94816532D02*
X122225564Y-93316532D01*
X121606516Y-93316532D02*
X121606516Y-94530818D01*
X121606516Y-94530818D02*
X121558897Y-94673675D01*
X121558897Y-94673675D02*
X121511278Y-94745104D01*
X121511278Y-94745104D02*
X121416040Y-94816532D01*
X121416040Y-94816532D02*
X121225564Y-94816532D01*
X121225564Y-94816532D02*
X121130326Y-94745104D01*
X121130326Y-94745104D02*
X121082707Y-94673675D01*
X121082707Y-94673675D02*
X121035088Y-94530818D01*
X121035088Y-94530818D02*
X121035088Y-93316532D01*
X120606516Y-94745104D02*
X120463659Y-94816532D01*
X120463659Y-94816532D02*
X120225564Y-94816532D01*
X120225564Y-94816532D02*
X120130326Y-94745104D01*
X120130326Y-94745104D02*
X120082707Y-94673675D01*
X120082707Y-94673675D02*
X120035088Y-94530818D01*
X120035088Y-94530818D02*
X120035088Y-94387961D01*
X120035088Y-94387961D02*
X120082707Y-94245104D01*
X120082707Y-94245104D02*
X120130326Y-94173675D01*
X120130326Y-94173675D02*
X120225564Y-94102246D01*
X120225564Y-94102246D02*
X120416040Y-94030818D01*
X120416040Y-94030818D02*
X120511278Y-93959389D01*
X120511278Y-93959389D02*
X120558897Y-93887961D01*
X120558897Y-93887961D02*
X120606516Y-93745104D01*
X120606516Y-93745104D02*
X120606516Y-93602246D01*
X120606516Y-93602246D02*
X120558897Y-93459389D01*
X120558897Y-93459389D02*
X120511278Y-93387961D01*
X120511278Y-93387961D02*
X120416040Y-93316532D01*
X120416040Y-93316532D02*
X120177945Y-93316532D01*
X120177945Y-93316532D02*
X120035088Y-93387961D01*
X128130326Y-97231448D02*
X128130326Y-95731448D01*
X128130326Y-95731448D02*
X127892231Y-95731448D01*
X127892231Y-95731448D02*
X127749374Y-95802877D01*
X127749374Y-95802877D02*
X127654136Y-95945734D01*
X127654136Y-95945734D02*
X127606517Y-96088591D01*
X127606517Y-96088591D02*
X127558898Y-96374305D01*
X127558898Y-96374305D02*
X127558898Y-96588591D01*
X127558898Y-96588591D02*
X127606517Y-96874305D01*
X127606517Y-96874305D02*
X127654136Y-97017162D01*
X127654136Y-97017162D02*
X127749374Y-97160020D01*
X127749374Y-97160020D02*
X127892231Y-97231448D01*
X127892231Y-97231448D02*
X128130326Y-97231448D01*
X126606517Y-97231448D02*
X127177945Y-97231448D01*
X126892231Y-97231448D02*
X126892231Y-95731448D01*
X126892231Y-95731448D02*
X126987469Y-95945734D01*
X126987469Y-95945734D02*
X127082707Y-96088591D01*
X127082707Y-96088591D02*
X127177945Y-96160020D01*
X125987469Y-95731448D02*
X125892231Y-95731448D01*
X125892231Y-95731448D02*
X125796993Y-95802877D01*
X125796993Y-95802877D02*
X125749374Y-95874305D01*
X125749374Y-95874305D02*
X125701755Y-96017162D01*
X125701755Y-96017162D02*
X125654136Y-96302877D01*
X125654136Y-96302877D02*
X125654136Y-96660020D01*
X125654136Y-96660020D02*
X125701755Y-96945734D01*
X125701755Y-96945734D02*
X125749374Y-97088591D01*
X125749374Y-97088591D02*
X125796993Y-97160020D01*
X125796993Y-97160020D02*
X125892231Y-97231448D01*
X125892231Y-97231448D02*
X125987469Y-97231448D01*
X125987469Y-97231448D02*
X126082707Y-97160020D01*
X126082707Y-97160020D02*
X126130326Y-97088591D01*
X126130326Y-97088591D02*
X126177945Y-96945734D01*
X126177945Y-96945734D02*
X126225564Y-96660020D01*
X126225564Y-96660020D02*
X126225564Y-96302877D01*
X126225564Y-96302877D02*
X126177945Y-96017162D01*
X126177945Y-96017162D02*
X126130326Y-95874305D01*
X126130326Y-95874305D02*
X126082707Y-95802877D01*
X126082707Y-95802877D02*
X125987469Y-95731448D01*
X125225564Y-96660020D02*
X124463660Y-96660020D01*
X123416041Y-97088591D02*
X123463660Y-97160020D01*
X123463660Y-97160020D02*
X123606517Y-97231448D01*
X123606517Y-97231448D02*
X123701755Y-97231448D01*
X123701755Y-97231448D02*
X123844612Y-97160020D01*
X123844612Y-97160020D02*
X123939850Y-97017162D01*
X123939850Y-97017162D02*
X123987469Y-96874305D01*
X123987469Y-96874305D02*
X124035088Y-96588591D01*
X124035088Y-96588591D02*
X124035088Y-96374305D01*
X124035088Y-96374305D02*
X123987469Y-96088591D01*
X123987469Y-96088591D02*
X123939850Y-95945734D01*
X123939850Y-95945734D02*
X123844612Y-95802877D01*
X123844612Y-95802877D02*
X123701755Y-95731448D01*
X123701755Y-95731448D02*
X123606517Y-95731448D01*
X123606517Y-95731448D02*
X123463660Y-95802877D01*
X123463660Y-95802877D02*
X123416041Y-95874305D01*
X123035088Y-97160020D02*
X122892231Y-97231448D01*
X122892231Y-97231448D02*
X122654136Y-97231448D01*
X122654136Y-97231448D02*
X122558898Y-97160020D01*
X122558898Y-97160020D02*
X122511279Y-97088591D01*
X122511279Y-97088591D02*
X122463660Y-96945734D01*
X122463660Y-96945734D02*
X122463660Y-96802877D01*
X122463660Y-96802877D02*
X122511279Y-96660020D01*
X122511279Y-96660020D02*
X122558898Y-96588591D01*
X122558898Y-96588591D02*
X122654136Y-96517162D01*
X122654136Y-96517162D02*
X122844612Y-96445734D01*
X122844612Y-96445734D02*
X122939850Y-96374305D01*
X122939850Y-96374305D02*
X122987469Y-96302877D01*
X122987469Y-96302877D02*
X123035088Y-96160020D01*
X123035088Y-96160020D02*
X123035088Y-96017162D01*
X123035088Y-96017162D02*
X122987469Y-95874305D01*
X122987469Y-95874305D02*
X122939850Y-95802877D01*
X122939850Y-95802877D02*
X122844612Y-95731448D01*
X122844612Y-95731448D02*
X122606517Y-95731448D01*
X122606517Y-95731448D02*
X122463660Y-95802877D01*
X128130326Y-99646364D02*
X128130326Y-98146364D01*
X128130326Y-98146364D02*
X127892231Y-98146364D01*
X127892231Y-98146364D02*
X127749374Y-98217793D01*
X127749374Y-98217793D02*
X127654136Y-98360650D01*
X127654136Y-98360650D02*
X127606517Y-98503507D01*
X127606517Y-98503507D02*
X127558898Y-98789221D01*
X127558898Y-98789221D02*
X127558898Y-99003507D01*
X127558898Y-99003507D02*
X127606517Y-99289221D01*
X127606517Y-99289221D02*
X127654136Y-99432078D01*
X127654136Y-99432078D02*
X127749374Y-99574936D01*
X127749374Y-99574936D02*
X127892231Y-99646364D01*
X127892231Y-99646364D02*
X128130326Y-99646364D01*
X126606517Y-99646364D02*
X127177945Y-99646364D01*
X126892231Y-99646364D02*
X126892231Y-98146364D01*
X126892231Y-98146364D02*
X126987469Y-98360650D01*
X126987469Y-98360650D02*
X127082707Y-98503507D01*
X127082707Y-98503507D02*
X127177945Y-98574936D01*
X125654136Y-99646364D02*
X126225564Y-99646364D01*
X125939850Y-99646364D02*
X125939850Y-98146364D01*
X125939850Y-98146364D02*
X126035088Y-98360650D01*
X126035088Y-98360650D02*
X126130326Y-98503507D01*
X126130326Y-98503507D02*
X126225564Y-98574936D01*
X125225564Y-99074936D02*
X124463660Y-99074936D01*
X123987469Y-99646364D02*
X123987469Y-98146364D01*
X123987469Y-98146364D02*
X123654136Y-99217793D01*
X123654136Y-99217793D02*
X123320803Y-98146364D01*
X123320803Y-98146364D02*
X123320803Y-99646364D01*
X122654136Y-98146364D02*
X122463660Y-98146364D01*
X122463660Y-98146364D02*
X122368422Y-98217793D01*
X122368422Y-98217793D02*
X122273184Y-98360650D01*
X122273184Y-98360650D02*
X122225565Y-98646364D01*
X122225565Y-98646364D02*
X122225565Y-99146364D01*
X122225565Y-99146364D02*
X122273184Y-99432078D01*
X122273184Y-99432078D02*
X122368422Y-99574936D01*
X122368422Y-99574936D02*
X122463660Y-99646364D01*
X122463660Y-99646364D02*
X122654136Y-99646364D01*
X122654136Y-99646364D02*
X122749374Y-99574936D01*
X122749374Y-99574936D02*
X122844612Y-99432078D01*
X122844612Y-99432078D02*
X122892231Y-99146364D01*
X122892231Y-99146364D02*
X122892231Y-98646364D01*
X122892231Y-98646364D02*
X122844612Y-98360650D01*
X122844612Y-98360650D02*
X122749374Y-98217793D01*
X122749374Y-98217793D02*
X122654136Y-98146364D01*
X121844612Y-99574936D02*
X121701755Y-99646364D01*
X121701755Y-99646364D02*
X121463660Y-99646364D01*
X121463660Y-99646364D02*
X121368422Y-99574936D01*
X121368422Y-99574936D02*
X121320803Y-99503507D01*
X121320803Y-99503507D02*
X121273184Y-99360650D01*
X121273184Y-99360650D02*
X121273184Y-99217793D01*
X121273184Y-99217793D02*
X121320803Y-99074936D01*
X121320803Y-99074936D02*
X121368422Y-99003507D01*
X121368422Y-99003507D02*
X121463660Y-98932078D01*
X121463660Y-98932078D02*
X121654136Y-98860650D01*
X121654136Y-98860650D02*
X121749374Y-98789221D01*
X121749374Y-98789221D02*
X121796993Y-98717793D01*
X121796993Y-98717793D02*
X121844612Y-98574936D01*
X121844612Y-98574936D02*
X121844612Y-98432078D01*
X121844612Y-98432078D02*
X121796993Y-98289221D01*
X121796993Y-98289221D02*
X121749374Y-98217793D01*
X121749374Y-98217793D02*
X121654136Y-98146364D01*
X121654136Y-98146364D02*
X121416041Y-98146364D01*
X121416041Y-98146364D02*
X121273184Y-98217793D01*
X120844612Y-99646364D02*
X120844612Y-98146364D01*
X128130326Y-102061280D02*
X128130326Y-100561280D01*
X128130326Y-100561280D02*
X127892231Y-100561280D01*
X127892231Y-100561280D02*
X127749374Y-100632709D01*
X127749374Y-100632709D02*
X127654136Y-100775566D01*
X127654136Y-100775566D02*
X127606517Y-100918423D01*
X127606517Y-100918423D02*
X127558898Y-101204137D01*
X127558898Y-101204137D02*
X127558898Y-101418423D01*
X127558898Y-101418423D02*
X127606517Y-101704137D01*
X127606517Y-101704137D02*
X127654136Y-101846994D01*
X127654136Y-101846994D02*
X127749374Y-101989852D01*
X127749374Y-101989852D02*
X127892231Y-102061280D01*
X127892231Y-102061280D02*
X128130326Y-102061280D01*
X126606517Y-102061280D02*
X127177945Y-102061280D01*
X126892231Y-102061280D02*
X126892231Y-100561280D01*
X126892231Y-100561280D02*
X126987469Y-100775566D01*
X126987469Y-100775566D02*
X127082707Y-100918423D01*
X127082707Y-100918423D02*
X127177945Y-100989852D01*
X126225564Y-100704137D02*
X126177945Y-100632709D01*
X126177945Y-100632709D02*
X126082707Y-100561280D01*
X126082707Y-100561280D02*
X125844612Y-100561280D01*
X125844612Y-100561280D02*
X125749374Y-100632709D01*
X125749374Y-100632709D02*
X125701755Y-100704137D01*
X125701755Y-100704137D02*
X125654136Y-100846994D01*
X125654136Y-100846994D02*
X125654136Y-100989852D01*
X125654136Y-100989852D02*
X125701755Y-101204137D01*
X125701755Y-101204137D02*
X126273183Y-102061280D01*
X126273183Y-102061280D02*
X125654136Y-102061280D01*
X125225564Y-101489852D02*
X124463660Y-101489852D01*
X123987469Y-102061280D02*
X123987469Y-100561280D01*
X123987469Y-100561280D02*
X123654136Y-101632709D01*
X123654136Y-101632709D02*
X123320803Y-100561280D01*
X123320803Y-100561280D02*
X123320803Y-102061280D01*
X122844612Y-102061280D02*
X122844612Y-100561280D01*
X122416041Y-101989852D02*
X122273184Y-102061280D01*
X122273184Y-102061280D02*
X122035089Y-102061280D01*
X122035089Y-102061280D02*
X121939851Y-101989852D01*
X121939851Y-101989852D02*
X121892232Y-101918423D01*
X121892232Y-101918423D02*
X121844613Y-101775566D01*
X121844613Y-101775566D02*
X121844613Y-101632709D01*
X121844613Y-101632709D02*
X121892232Y-101489852D01*
X121892232Y-101489852D02*
X121939851Y-101418423D01*
X121939851Y-101418423D02*
X122035089Y-101346994D01*
X122035089Y-101346994D02*
X122225565Y-101275566D01*
X122225565Y-101275566D02*
X122320803Y-101204137D01*
X122320803Y-101204137D02*
X122368422Y-101132709D01*
X122368422Y-101132709D02*
X122416041Y-100989852D01*
X122416041Y-100989852D02*
X122416041Y-100846994D01*
X122416041Y-100846994D02*
X122368422Y-100704137D01*
X122368422Y-100704137D02*
X122320803Y-100632709D01*
X122320803Y-100632709D02*
X122225565Y-100561280D01*
X122225565Y-100561280D02*
X121987470Y-100561280D01*
X121987470Y-100561280D02*
X121844613Y-100632709D01*
X121225565Y-100561280D02*
X121035089Y-100561280D01*
X121035089Y-100561280D02*
X120939851Y-100632709D01*
X120939851Y-100632709D02*
X120844613Y-100775566D01*
X120844613Y-100775566D02*
X120796994Y-101061280D01*
X120796994Y-101061280D02*
X120796994Y-101561280D01*
X120796994Y-101561280D02*
X120844613Y-101846994D01*
X120844613Y-101846994D02*
X120939851Y-101989852D01*
X120939851Y-101989852D02*
X121035089Y-102061280D01*
X121035089Y-102061280D02*
X121225565Y-102061280D01*
X121225565Y-102061280D02*
X121320803Y-101989852D01*
X121320803Y-101989852D02*
X121416041Y-101846994D01*
X121416041Y-101846994D02*
X121463660Y-101561280D01*
X121463660Y-101561280D02*
X121463660Y-101061280D01*
X121463660Y-101061280D02*
X121416041Y-100775566D01*
X121416041Y-100775566D02*
X121320803Y-100632709D01*
X121320803Y-100632709D02*
X121225565Y-100561280D01*
X128130326Y-104476196D02*
X128130326Y-102976196D01*
X128130326Y-102976196D02*
X127892231Y-102976196D01*
X127892231Y-102976196D02*
X127749374Y-103047625D01*
X127749374Y-103047625D02*
X127654136Y-103190482D01*
X127654136Y-103190482D02*
X127606517Y-103333339D01*
X127606517Y-103333339D02*
X127558898Y-103619053D01*
X127558898Y-103619053D02*
X127558898Y-103833339D01*
X127558898Y-103833339D02*
X127606517Y-104119053D01*
X127606517Y-104119053D02*
X127654136Y-104261910D01*
X127654136Y-104261910D02*
X127749374Y-104404768D01*
X127749374Y-104404768D02*
X127892231Y-104476196D01*
X127892231Y-104476196D02*
X128130326Y-104476196D01*
X126606517Y-104476196D02*
X127177945Y-104476196D01*
X126892231Y-104476196D02*
X126892231Y-102976196D01*
X126892231Y-102976196D02*
X126987469Y-103190482D01*
X126987469Y-103190482D02*
X127082707Y-103333339D01*
X127082707Y-103333339D02*
X127177945Y-103404768D01*
X126273183Y-102976196D02*
X125654136Y-102976196D01*
X125654136Y-102976196D02*
X125987469Y-103547625D01*
X125987469Y-103547625D02*
X125844612Y-103547625D01*
X125844612Y-103547625D02*
X125749374Y-103619053D01*
X125749374Y-103619053D02*
X125701755Y-103690482D01*
X125701755Y-103690482D02*
X125654136Y-103833339D01*
X125654136Y-103833339D02*
X125654136Y-104190482D01*
X125654136Y-104190482D02*
X125701755Y-104333339D01*
X125701755Y-104333339D02*
X125749374Y-104404768D01*
X125749374Y-104404768D02*
X125844612Y-104476196D01*
X125844612Y-104476196D02*
X126130326Y-104476196D01*
X126130326Y-104476196D02*
X126225564Y-104404768D01*
X126225564Y-104404768D02*
X126273183Y-104333339D01*
X125225564Y-103904768D02*
X124463660Y-103904768D01*
X124035088Y-104404768D02*
X123892231Y-104476196D01*
X123892231Y-104476196D02*
X123654136Y-104476196D01*
X123654136Y-104476196D02*
X123558898Y-104404768D01*
X123558898Y-104404768D02*
X123511279Y-104333339D01*
X123511279Y-104333339D02*
X123463660Y-104190482D01*
X123463660Y-104190482D02*
X123463660Y-104047625D01*
X123463660Y-104047625D02*
X123511279Y-103904768D01*
X123511279Y-103904768D02*
X123558898Y-103833339D01*
X123558898Y-103833339D02*
X123654136Y-103761910D01*
X123654136Y-103761910D02*
X123844612Y-103690482D01*
X123844612Y-103690482D02*
X123939850Y-103619053D01*
X123939850Y-103619053D02*
X123987469Y-103547625D01*
X123987469Y-103547625D02*
X124035088Y-103404768D01*
X124035088Y-103404768D02*
X124035088Y-103261910D01*
X124035088Y-103261910D02*
X123987469Y-103119053D01*
X123987469Y-103119053D02*
X123939850Y-103047625D01*
X123939850Y-103047625D02*
X123844612Y-102976196D01*
X123844612Y-102976196D02*
X123606517Y-102976196D01*
X123606517Y-102976196D02*
X123463660Y-103047625D01*
X122463660Y-104333339D02*
X122511279Y-104404768D01*
X122511279Y-104404768D02*
X122654136Y-104476196D01*
X122654136Y-104476196D02*
X122749374Y-104476196D01*
X122749374Y-104476196D02*
X122892231Y-104404768D01*
X122892231Y-104404768D02*
X122987469Y-104261910D01*
X122987469Y-104261910D02*
X123035088Y-104119053D01*
X123035088Y-104119053D02*
X123082707Y-103833339D01*
X123082707Y-103833339D02*
X123082707Y-103619053D01*
X123082707Y-103619053D02*
X123035088Y-103333339D01*
X123035088Y-103333339D02*
X122987469Y-103190482D01*
X122987469Y-103190482D02*
X122892231Y-103047625D01*
X122892231Y-103047625D02*
X122749374Y-102976196D01*
X122749374Y-102976196D02*
X122654136Y-102976196D01*
X122654136Y-102976196D02*
X122511279Y-103047625D01*
X122511279Y-103047625D02*
X122463660Y-103119053D01*
X122035088Y-104476196D02*
X122035088Y-102976196D01*
X121463660Y-104476196D02*
X121892231Y-103619053D01*
X121463660Y-102976196D02*
X122035088Y-103833339D01*
X128177945Y-106462541D02*
X127701755Y-106462541D01*
X128273183Y-106891112D02*
X127939850Y-105391112D01*
X127939850Y-105391112D02*
X127606517Y-106891112D01*
X127082707Y-105391112D02*
X126987469Y-105391112D01*
X126987469Y-105391112D02*
X126892231Y-105462541D01*
X126892231Y-105462541D02*
X126844612Y-105533969D01*
X126844612Y-105533969D02*
X126796993Y-105676826D01*
X126796993Y-105676826D02*
X126749374Y-105962541D01*
X126749374Y-105962541D02*
X126749374Y-106319684D01*
X126749374Y-106319684D02*
X126796993Y-106605398D01*
X126796993Y-106605398D02*
X126844612Y-106748255D01*
X126844612Y-106748255D02*
X126892231Y-106819684D01*
X126892231Y-106819684D02*
X126987469Y-106891112D01*
X126987469Y-106891112D02*
X127082707Y-106891112D01*
X127082707Y-106891112D02*
X127177945Y-106819684D01*
X127177945Y-106819684D02*
X127225564Y-106748255D01*
X127225564Y-106748255D02*
X127273183Y-106605398D01*
X127273183Y-106605398D02*
X127320802Y-106319684D01*
X127320802Y-106319684D02*
X127320802Y-105962541D01*
X127320802Y-105962541D02*
X127273183Y-105676826D01*
X127273183Y-105676826D02*
X127225564Y-105533969D01*
X127225564Y-105533969D02*
X127177945Y-105462541D01*
X127177945Y-105462541D02*
X127082707Y-105391112D01*
X126320802Y-106319684D02*
X125558898Y-106319684D01*
X125225564Y-105391112D02*
X124654136Y-105391112D01*
X124939850Y-106891112D02*
X124939850Y-105391112D01*
X124320802Y-106891112D02*
X124320802Y-105391112D01*
X124320802Y-106105398D02*
X123749374Y-106105398D01*
X123749374Y-106891112D02*
X123749374Y-105391112D01*
X123273183Y-106105398D02*
X122939850Y-106105398D01*
X122796993Y-106891112D02*
X123273183Y-106891112D01*
X123273183Y-106891112D02*
X123273183Y-105391112D01*
X123273183Y-105391112D02*
X122796993Y-105391112D01*
X121796993Y-106891112D02*
X122130326Y-106176826D01*
X122368421Y-106891112D02*
X122368421Y-105391112D01*
X122368421Y-105391112D02*
X121987469Y-105391112D01*
X121987469Y-105391112D02*
X121892231Y-105462541D01*
X121892231Y-105462541D02*
X121844612Y-105533969D01*
X121844612Y-105533969D02*
X121796993Y-105676826D01*
X121796993Y-105676826D02*
X121796993Y-105891112D01*
X121796993Y-105891112D02*
X121844612Y-106033969D01*
X121844612Y-106033969D02*
X121892231Y-106105398D01*
X121892231Y-106105398D02*
X121987469Y-106176826D01*
X121987469Y-106176826D02*
X122368421Y-106176826D01*
X121368421Y-106891112D02*
X121368421Y-105391112D01*
X121368421Y-105391112D02*
X121035088Y-106462541D01*
X121035088Y-106462541D02*
X120701755Y-105391112D01*
X120701755Y-105391112D02*
X120701755Y-106891112D01*
X120225564Y-106891112D02*
X120225564Y-105391112D01*
X119796993Y-106819684D02*
X119654136Y-106891112D01*
X119654136Y-106891112D02*
X119416041Y-106891112D01*
X119416041Y-106891112D02*
X119320803Y-106819684D01*
X119320803Y-106819684D02*
X119273184Y-106748255D01*
X119273184Y-106748255D02*
X119225565Y-106605398D01*
X119225565Y-106605398D02*
X119225565Y-106462541D01*
X119225565Y-106462541D02*
X119273184Y-106319684D01*
X119273184Y-106319684D02*
X119320803Y-106248255D01*
X119320803Y-106248255D02*
X119416041Y-106176826D01*
X119416041Y-106176826D02*
X119606517Y-106105398D01*
X119606517Y-106105398D02*
X119701755Y-106033969D01*
X119701755Y-106033969D02*
X119749374Y-105962541D01*
X119749374Y-105962541D02*
X119796993Y-105819684D01*
X119796993Y-105819684D02*
X119796993Y-105676826D01*
X119796993Y-105676826D02*
X119749374Y-105533969D01*
X119749374Y-105533969D02*
X119701755Y-105462541D01*
X119701755Y-105462541D02*
X119606517Y-105391112D01*
X119606517Y-105391112D02*
X119368422Y-105391112D01*
X119368422Y-105391112D02*
X119225565Y-105462541D01*
X118939850Y-105391112D02*
X118368422Y-105391112D01*
X118654136Y-106891112D02*
X118654136Y-105391112D01*
X117844612Y-105391112D02*
X117654136Y-105391112D01*
X117654136Y-105391112D02*
X117558898Y-105462541D01*
X117558898Y-105462541D02*
X117463660Y-105605398D01*
X117463660Y-105605398D02*
X117416041Y-105891112D01*
X117416041Y-105891112D02*
X117416041Y-106391112D01*
X117416041Y-106391112D02*
X117463660Y-106676826D01*
X117463660Y-106676826D02*
X117558898Y-106819684D01*
X117558898Y-106819684D02*
X117654136Y-106891112D01*
X117654136Y-106891112D02*
X117844612Y-106891112D01*
X117844612Y-106891112D02*
X117939850Y-106819684D01*
X117939850Y-106819684D02*
X118035088Y-106676826D01*
X118035088Y-106676826D02*
X118082707Y-106391112D01*
X118082707Y-106391112D02*
X118082707Y-105891112D01*
X118082707Y-105891112D02*
X118035088Y-105605398D01*
X118035088Y-105605398D02*
X117939850Y-105462541D01*
X117939850Y-105462541D02*
X117844612Y-105391112D01*
X116416041Y-106891112D02*
X116749374Y-106176826D01*
X116987469Y-106891112D02*
X116987469Y-105391112D01*
X116987469Y-105391112D02*
X116606517Y-105391112D01*
X116606517Y-105391112D02*
X116511279Y-105462541D01*
X116511279Y-105462541D02*
X116463660Y-105533969D01*
X116463660Y-105533969D02*
X116416041Y-105676826D01*
X116416041Y-105676826D02*
X116416041Y-105891112D01*
X116416041Y-105891112D02*
X116463660Y-106033969D01*
X116463660Y-106033969D02*
X116511279Y-106105398D01*
X116511279Y-106105398D02*
X116606517Y-106176826D01*
X116606517Y-106176826D02*
X116987469Y-106176826D01*
X128177945Y-108877457D02*
X127701755Y-108877457D01*
X128273183Y-109306028D02*
X127939850Y-107806028D01*
X127939850Y-107806028D02*
X127606517Y-109306028D01*
X127320802Y-107948885D02*
X127273183Y-107877457D01*
X127273183Y-107877457D02*
X127177945Y-107806028D01*
X127177945Y-107806028D02*
X126939850Y-107806028D01*
X126939850Y-107806028D02*
X126844612Y-107877457D01*
X126844612Y-107877457D02*
X126796993Y-107948885D01*
X126796993Y-107948885D02*
X126749374Y-108091742D01*
X126749374Y-108091742D02*
X126749374Y-108234600D01*
X126749374Y-108234600D02*
X126796993Y-108448885D01*
X126796993Y-108448885D02*
X127368421Y-109306028D01*
X127368421Y-109306028D02*
X126749374Y-109306028D01*
X126320802Y-109163171D02*
X126273183Y-109234600D01*
X126273183Y-109234600D02*
X126320802Y-109306028D01*
X126320802Y-109306028D02*
X126368421Y-109234600D01*
X126368421Y-109234600D02*
X126320802Y-109163171D01*
X126320802Y-109163171D02*
X126320802Y-109306028D01*
X126320802Y-108377457D02*
X126273183Y-108448885D01*
X126273183Y-108448885D02*
X126320802Y-108520314D01*
X126320802Y-108520314D02*
X126368421Y-108448885D01*
X126368421Y-108448885D02*
X126320802Y-108377457D01*
X126320802Y-108377457D02*
X126320802Y-108520314D01*
X125892231Y-108877457D02*
X125416041Y-108877457D01*
X125987469Y-109306028D02*
X125654136Y-107806028D01*
X125654136Y-107806028D02*
X125320803Y-109306028D01*
X125082707Y-107806028D02*
X124416041Y-107806028D01*
X124416041Y-107806028D02*
X124844612Y-109306028D01*
X124035088Y-108734600D02*
X123273184Y-108734600D01*
X122844612Y-108877457D02*
X122368422Y-108877457D01*
X122939850Y-109306028D02*
X122606517Y-107806028D01*
X122606517Y-107806028D02*
X122273184Y-109306028D01*
X121939850Y-109306028D02*
X121939850Y-107806028D01*
X121939850Y-107806028D02*
X121368422Y-109306028D01*
X121368422Y-109306028D02*
X121368422Y-107806028D01*
X120939850Y-108877457D02*
X120463660Y-108877457D01*
X121035088Y-109306028D02*
X120701755Y-107806028D01*
X120701755Y-107806028D02*
X120368422Y-109306028D01*
X119558898Y-109306028D02*
X120035088Y-109306028D01*
X120035088Y-109306028D02*
X120035088Y-107806028D01*
X119035088Y-107806028D02*
X118844612Y-107806028D01*
X118844612Y-107806028D02*
X118749374Y-107877457D01*
X118749374Y-107877457D02*
X118654136Y-108020314D01*
X118654136Y-108020314D02*
X118606517Y-108306028D01*
X118606517Y-108306028D02*
X118606517Y-108806028D01*
X118606517Y-108806028D02*
X118654136Y-109091742D01*
X118654136Y-109091742D02*
X118749374Y-109234600D01*
X118749374Y-109234600D02*
X118844612Y-109306028D01*
X118844612Y-109306028D02*
X119035088Y-109306028D01*
X119035088Y-109306028D02*
X119130326Y-109234600D01*
X119130326Y-109234600D02*
X119225564Y-109091742D01*
X119225564Y-109091742D02*
X119273183Y-108806028D01*
X119273183Y-108806028D02*
X119273183Y-108306028D01*
X119273183Y-108306028D02*
X119225564Y-108020314D01*
X119225564Y-108020314D02*
X119130326Y-107877457D01*
X119130326Y-107877457D02*
X119035088Y-107806028D01*
X117654136Y-107877457D02*
X117749374Y-107806028D01*
X117749374Y-107806028D02*
X117892231Y-107806028D01*
X117892231Y-107806028D02*
X118035088Y-107877457D01*
X118035088Y-107877457D02*
X118130326Y-108020314D01*
X118130326Y-108020314D02*
X118177945Y-108163171D01*
X118177945Y-108163171D02*
X118225564Y-108448885D01*
X118225564Y-108448885D02*
X118225564Y-108663171D01*
X118225564Y-108663171D02*
X118177945Y-108948885D01*
X118177945Y-108948885D02*
X118130326Y-109091742D01*
X118130326Y-109091742D02*
X118035088Y-109234600D01*
X118035088Y-109234600D02*
X117892231Y-109306028D01*
X117892231Y-109306028D02*
X117796993Y-109306028D01*
X117796993Y-109306028D02*
X117654136Y-109234600D01*
X117654136Y-109234600D02*
X117606517Y-109163171D01*
X117606517Y-109163171D02*
X117606517Y-108663171D01*
X117606517Y-108663171D02*
X117796993Y-108663171D01*
D11*
X103074819Y-67638922D02*
X103074819Y-68210350D01*
X104074819Y-67924636D02*
X103074819Y-67924636D01*
X103074819Y-68448446D02*
X104074819Y-69115112D01*
X103074819Y-69115112D02*
X104074819Y-68448446D01*
X104074819Y-69496065D02*
X103074819Y-69496065D01*
X103074819Y-69496065D02*
X103074819Y-69734160D01*
X103074819Y-69734160D02*
X103122438Y-69877017D01*
X103122438Y-69877017D02*
X103217676Y-69972255D01*
X103217676Y-69972255D02*
X103312914Y-70019874D01*
X103312914Y-70019874D02*
X103503390Y-70067493D01*
X103503390Y-70067493D02*
X103646247Y-70067493D01*
X103646247Y-70067493D02*
X103836723Y-70019874D01*
X103836723Y-70019874D02*
X103931961Y-69972255D01*
X103931961Y-69972255D02*
X104027200Y-69877017D01*
X104027200Y-69877017D02*
X104074819Y-69734160D01*
X104074819Y-69734160D02*
X104074819Y-69496065D01*
D12*
X83910072Y-87054510D02*
X83910072Y-88197368D01*
X83910072Y-88911653D02*
X83910072Y-90054511D01*
X83910072Y-90768796D02*
X83910072Y-91911654D01*
X83910072Y-92625939D02*
X83910072Y-93768797D01*
X83910072Y-94483082D02*
X83910072Y-95625940D01*
X83910072Y-96340225D02*
X83910072Y-97483083D01*
X83910072Y-98197368D02*
X83910072Y-99340226D01*
X83910072Y-100054511D02*
X83910072Y-101197369D01*
X83910072Y-101911654D02*
X83910072Y-103054512D01*
X83910072Y-103768797D02*
X83910072Y-104911655D01*
X83910072Y-105625940D02*
X83910072Y-106768798D01*
X83910072Y-107483083D02*
X83910072Y-108625941D01*
X83910072Y-109340226D02*
X83910072Y-110483084D01*
X83910072Y-111197369D02*
X83910072Y-112340227D01*
X86824988Y-86983082D02*
X86896416Y-87197368D01*
X86896416Y-87197368D02*
X86896416Y-87554510D01*
X86896416Y-87554510D02*
X86824988Y-87697368D01*
X86824988Y-87697368D02*
X86753559Y-87768796D01*
X86753559Y-87768796D02*
X86610702Y-87840225D01*
X86610702Y-87840225D02*
X86467845Y-87840225D01*
X86467845Y-87840225D02*
X86324988Y-87768796D01*
X86324988Y-87768796D02*
X86253559Y-87697368D01*
X86253559Y-87697368D02*
X86182130Y-87554510D01*
X86182130Y-87554510D02*
X86110702Y-87268796D01*
X86110702Y-87268796D02*
X86039273Y-87125939D01*
X86039273Y-87125939D02*
X85967845Y-87054510D01*
X85967845Y-87054510D02*
X85824988Y-86983082D01*
X85824988Y-86983082D02*
X85682130Y-86983082D01*
X85682130Y-86983082D02*
X85539273Y-87054510D01*
X85539273Y-87054510D02*
X85467845Y-87125939D01*
X85467845Y-87125939D02*
X85396416Y-87268796D01*
X85396416Y-87268796D02*
X85396416Y-87625939D01*
X85396416Y-87625939D02*
X85467845Y-87840225D01*
X86467845Y-88411653D02*
X86467845Y-89125939D01*
X86896416Y-88268796D02*
X85396416Y-88768796D01*
X85396416Y-88768796D02*
X86896416Y-89268796D01*
X86896416Y-89768795D02*
X85396416Y-89768795D01*
X85396416Y-89768795D02*
X86896416Y-90625938D01*
X86896416Y-90625938D02*
X85396416Y-90625938D01*
X86182130Y-91625939D02*
X86896416Y-91625939D01*
X85396416Y-91125939D02*
X86182130Y-91625939D01*
X86182130Y-91625939D02*
X85396416Y-92125939D01*
X85396416Y-92625938D02*
X86610702Y-92625938D01*
X86610702Y-92625938D02*
X86753559Y-92697367D01*
X86753559Y-92697367D02*
X86824988Y-92768796D01*
X86824988Y-92768796D02*
X86896416Y-92911653D01*
X86896416Y-92911653D02*
X86896416Y-93197367D01*
X86896416Y-93197367D02*
X86824988Y-93340224D01*
X86824988Y-93340224D02*
X86753559Y-93411653D01*
X86753559Y-93411653D02*
X86610702Y-93483081D01*
X86610702Y-93483081D02*
X85396416Y-93483081D01*
X86896416Y-94197367D02*
X85396416Y-94197367D01*
X86896416Y-95054510D02*
X86039273Y-94411653D01*
X85396416Y-95054510D02*
X86253559Y-94197367D01*
X85396416Y-95483082D02*
X85396416Y-96340225D01*
X86896416Y-95911653D02*
X85396416Y-95911653D01*
X86467845Y-96768796D02*
X86467845Y-97483082D01*
X86896416Y-96625939D02*
X85396416Y-97125939D01*
X85396416Y-97125939D02*
X86896416Y-97625939D01*
X86896416Y-99268795D02*
X85396416Y-99268795D01*
X85396416Y-99268795D02*
X85396416Y-99625938D01*
X85396416Y-99625938D02*
X85467845Y-99840224D01*
X85467845Y-99840224D02*
X85610702Y-99983081D01*
X85610702Y-99983081D02*
X85753559Y-100054510D01*
X85753559Y-100054510D02*
X86039273Y-100125938D01*
X86039273Y-100125938D02*
X86253559Y-100125938D01*
X86253559Y-100125938D02*
X86539273Y-100054510D01*
X86539273Y-100054510D02*
X86682130Y-99983081D01*
X86682130Y-99983081D02*
X86824988Y-99840224D01*
X86824988Y-99840224D02*
X86896416Y-99625938D01*
X86896416Y-99625938D02*
X86896416Y-99268795D01*
X85396416Y-100768795D02*
X86610702Y-100768795D01*
X86610702Y-100768795D02*
X86753559Y-100840224D01*
X86753559Y-100840224D02*
X86824988Y-100911653D01*
X86824988Y-100911653D02*
X86896416Y-101054510D01*
X86896416Y-101054510D02*
X86896416Y-101340224D01*
X86896416Y-101340224D02*
X86824988Y-101483081D01*
X86824988Y-101483081D02*
X86753559Y-101554510D01*
X86753559Y-101554510D02*
X86610702Y-101625938D01*
X86610702Y-101625938D02*
X85396416Y-101625938D01*
X85396416Y-102125939D02*
X85396416Y-102983082D01*
X86896416Y-102554510D02*
X85396416Y-102554510D01*
X85396416Y-103268796D02*
X85396416Y-104125939D01*
X86896416Y-103697367D02*
X85396416Y-103697367D01*
X86467845Y-104554510D02*
X86467845Y-105268796D01*
X86896416Y-104411653D02*
X85396416Y-104911653D01*
X85396416Y-104911653D02*
X86896416Y-105411653D01*
X87811332Y-86840225D02*
X87811332Y-87697368D01*
X89311332Y-87268796D02*
X87811332Y-87268796D01*
X88525618Y-88197367D02*
X88525618Y-88697367D01*
X89311332Y-88911653D02*
X89311332Y-88197367D01*
X89311332Y-88197367D02*
X87811332Y-88197367D01*
X87811332Y-88197367D02*
X87811332Y-88911653D01*
X87811332Y-89983082D02*
X88882761Y-89983082D01*
X88882761Y-89983082D02*
X89097046Y-89911653D01*
X89097046Y-89911653D02*
X89239904Y-89768796D01*
X89239904Y-89768796D02*
X89311332Y-89554510D01*
X89311332Y-89554510D02*
X89311332Y-89411653D01*
X88882761Y-90625939D02*
X88882761Y-91340225D01*
X89311332Y-90483082D02*
X87811332Y-90983082D01*
X87811332Y-90983082D02*
X89311332Y-91483082D01*
X89239904Y-91911653D02*
X89311332Y-92125939D01*
X89311332Y-92125939D02*
X89311332Y-92483081D01*
X89311332Y-92483081D02*
X89239904Y-92625939D01*
X89239904Y-92625939D02*
X89168475Y-92697367D01*
X89168475Y-92697367D02*
X89025618Y-92768796D01*
X89025618Y-92768796D02*
X88882761Y-92768796D01*
X88882761Y-92768796D02*
X88739904Y-92697367D01*
X88739904Y-92697367D02*
X88668475Y-92625939D01*
X88668475Y-92625939D02*
X88597046Y-92483081D01*
X88597046Y-92483081D02*
X88525618Y-92197367D01*
X88525618Y-92197367D02*
X88454189Y-92054510D01*
X88454189Y-92054510D02*
X88382761Y-91983081D01*
X88382761Y-91983081D02*
X88239904Y-91911653D01*
X88239904Y-91911653D02*
X88097046Y-91911653D01*
X88097046Y-91911653D02*
X87954189Y-91983081D01*
X87954189Y-91983081D02*
X87882761Y-92054510D01*
X87882761Y-92054510D02*
X87811332Y-92197367D01*
X87811332Y-92197367D02*
X87811332Y-92554510D01*
X87811332Y-92554510D02*
X87882761Y-92768796D01*
X87811332Y-93268795D02*
X89311332Y-93625938D01*
X89311332Y-93625938D02*
X88239904Y-93911652D01*
X88239904Y-93911652D02*
X89311332Y-94197367D01*
X89311332Y-94197367D02*
X87811332Y-94554510D01*
X89311332Y-95125938D02*
X87811332Y-95125938D01*
X89311332Y-95840224D02*
X87811332Y-95840224D01*
X87811332Y-95840224D02*
X89311332Y-96697367D01*
X89311332Y-96697367D02*
X87811332Y-96697367D01*
X88525618Y-97411653D02*
X88525618Y-97911653D01*
X89311332Y-98125939D02*
X89311332Y-97411653D01*
X89311332Y-97411653D02*
X87811332Y-97411653D01*
X87811332Y-97411653D02*
X87811332Y-98125939D01*
X88525618Y-98768796D02*
X88525618Y-99268796D01*
X89311332Y-99483082D02*
X89311332Y-98768796D01*
X89311332Y-98768796D02*
X87811332Y-98768796D01*
X87811332Y-98768796D02*
X87811332Y-99483082D01*
X87882761Y-102054511D02*
X87811332Y-101911654D01*
X87811332Y-101911654D02*
X87811332Y-101697368D01*
X87811332Y-101697368D02*
X87882761Y-101483082D01*
X87882761Y-101483082D02*
X88025618Y-101340225D01*
X88025618Y-101340225D02*
X88168475Y-101268796D01*
X88168475Y-101268796D02*
X88454189Y-101197368D01*
X88454189Y-101197368D02*
X88668475Y-101197368D01*
X88668475Y-101197368D02*
X88954189Y-101268796D01*
X88954189Y-101268796D02*
X89097046Y-101340225D01*
X89097046Y-101340225D02*
X89239904Y-101483082D01*
X89239904Y-101483082D02*
X89311332Y-101697368D01*
X89311332Y-101697368D02*
X89311332Y-101840225D01*
X89311332Y-101840225D02*
X89239904Y-102054511D01*
X89239904Y-102054511D02*
X89168475Y-102125939D01*
X89168475Y-102125939D02*
X88668475Y-102125939D01*
X88668475Y-102125939D02*
X88668475Y-101840225D01*
X87811332Y-102768796D02*
X89025618Y-102768796D01*
X89025618Y-102768796D02*
X89168475Y-102840225D01*
X89168475Y-102840225D02*
X89239904Y-102911654D01*
X89239904Y-102911654D02*
X89311332Y-103054511D01*
X89311332Y-103054511D02*
X89311332Y-103340225D01*
X89311332Y-103340225D02*
X89239904Y-103483082D01*
X89239904Y-103483082D02*
X89168475Y-103554511D01*
X89168475Y-103554511D02*
X89025618Y-103625939D01*
X89025618Y-103625939D02*
X87811332Y-103625939D01*
X89311332Y-104340225D02*
X87811332Y-104340225D01*
X87811332Y-104340225D02*
X89311332Y-105197368D01*
X89311332Y-105197368D02*
X87811332Y-105197368D01*
X87811332Y-106340226D02*
X88882761Y-106340226D01*
X88882761Y-106340226D02*
X89097046Y-106268797D01*
X89097046Y-106268797D02*
X89239904Y-106125940D01*
X89239904Y-106125940D02*
X89311332Y-105911654D01*
X89311332Y-105911654D02*
X89311332Y-105768797D01*
X88882761Y-106983083D02*
X88882761Y-107697369D01*
X89311332Y-106840226D02*
X87811332Y-107340226D01*
X87811332Y-107340226D02*
X89311332Y-107840226D01*
X89311332Y-109054511D02*
X89311332Y-108340225D01*
X89311332Y-108340225D02*
X87811332Y-108340225D01*
X91726248Y-87054510D02*
X90226248Y-87054510D01*
X91726248Y-87911653D02*
X90869105Y-87268796D01*
X90226248Y-87911653D02*
X91083391Y-87054510D01*
X91726248Y-89411653D02*
X91011962Y-88911653D01*
X91726248Y-88554510D02*
X90226248Y-88554510D01*
X90226248Y-88554510D02*
X90226248Y-89125939D01*
X90226248Y-89125939D02*
X90297677Y-89268796D01*
X90297677Y-89268796D02*
X90369105Y-89340225D01*
X90369105Y-89340225D02*
X90511962Y-89411653D01*
X90511962Y-89411653D02*
X90726248Y-89411653D01*
X90726248Y-89411653D02*
X90869105Y-89340225D01*
X90869105Y-89340225D02*
X90940534Y-89268796D01*
X90940534Y-89268796D02*
X91011962Y-89125939D01*
X91011962Y-89125939D02*
X91011962Y-88554510D01*
X91726248Y-90054510D02*
X90226248Y-90054510D01*
X91654820Y-90697368D02*
X91726248Y-90911654D01*
X91726248Y-90911654D02*
X91726248Y-91268796D01*
X91726248Y-91268796D02*
X91654820Y-91411654D01*
X91654820Y-91411654D02*
X91583391Y-91483082D01*
X91583391Y-91483082D02*
X91440534Y-91554511D01*
X91440534Y-91554511D02*
X91297677Y-91554511D01*
X91297677Y-91554511D02*
X91154820Y-91483082D01*
X91154820Y-91483082D02*
X91083391Y-91411654D01*
X91083391Y-91411654D02*
X91011962Y-91268796D01*
X91011962Y-91268796D02*
X90940534Y-90983082D01*
X90940534Y-90983082D02*
X90869105Y-90840225D01*
X90869105Y-90840225D02*
X90797677Y-90768796D01*
X90797677Y-90768796D02*
X90654820Y-90697368D01*
X90654820Y-90697368D02*
X90511962Y-90697368D01*
X90511962Y-90697368D02*
X90369105Y-90768796D01*
X90369105Y-90768796D02*
X90297677Y-90840225D01*
X90297677Y-90840225D02*
X90226248Y-90983082D01*
X90226248Y-90983082D02*
X90226248Y-91340225D01*
X90226248Y-91340225D02*
X90297677Y-91554511D01*
X91726248Y-92197367D02*
X90226248Y-92197367D01*
X90940534Y-92197367D02*
X90940534Y-93054510D01*
X91726248Y-93054510D02*
X90226248Y-93054510D01*
X91726248Y-93768796D02*
X90226248Y-93768796D01*
X90226248Y-93768796D02*
X91726248Y-94625939D01*
X91726248Y-94625939D02*
X90226248Y-94625939D01*
X91297677Y-95268797D02*
X91297677Y-95983083D01*
X91726248Y-95125940D02*
X90226248Y-95625940D01*
X90226248Y-95625940D02*
X91726248Y-96125940D01*
X90297677Y-98554511D02*
X90226248Y-98411654D01*
X90226248Y-98411654D02*
X90226248Y-98197368D01*
X90226248Y-98197368D02*
X90297677Y-97983082D01*
X90297677Y-97983082D02*
X90440534Y-97840225D01*
X90440534Y-97840225D02*
X90583391Y-97768796D01*
X90583391Y-97768796D02*
X90869105Y-97697368D01*
X90869105Y-97697368D02*
X91083391Y-97697368D01*
X91083391Y-97697368D02*
X91369105Y-97768796D01*
X91369105Y-97768796D02*
X91511962Y-97840225D01*
X91511962Y-97840225D02*
X91654820Y-97983082D01*
X91654820Y-97983082D02*
X91726248Y-98197368D01*
X91726248Y-98197368D02*
X91726248Y-98340225D01*
X91726248Y-98340225D02*
X91654820Y-98554511D01*
X91654820Y-98554511D02*
X91583391Y-98625939D01*
X91583391Y-98625939D02*
X91083391Y-98625939D01*
X91083391Y-98625939D02*
X91083391Y-98340225D01*
X90226248Y-99268796D02*
X91440534Y-99268796D01*
X91440534Y-99268796D02*
X91583391Y-99340225D01*
X91583391Y-99340225D02*
X91654820Y-99411654D01*
X91654820Y-99411654D02*
X91726248Y-99554511D01*
X91726248Y-99554511D02*
X91726248Y-99840225D01*
X91726248Y-99840225D02*
X91654820Y-99983082D01*
X91654820Y-99983082D02*
X91583391Y-100054511D01*
X91583391Y-100054511D02*
X91440534Y-100125939D01*
X91440534Y-100125939D02*
X90226248Y-100125939D01*
X91726248Y-100840225D02*
X90226248Y-100840225D01*
X90226248Y-100840225D02*
X91726248Y-101697368D01*
X91726248Y-101697368D02*
X90226248Y-101697368D01*
X91726248Y-102411654D02*
X90226248Y-102411654D01*
X90226248Y-102411654D02*
X90226248Y-102768797D01*
X90226248Y-102768797D02*
X90297677Y-102983083D01*
X90297677Y-102983083D02*
X90440534Y-103125940D01*
X90440534Y-103125940D02*
X90583391Y-103197369D01*
X90583391Y-103197369D02*
X90869105Y-103268797D01*
X90869105Y-103268797D02*
X91083391Y-103268797D01*
X91083391Y-103268797D02*
X91369105Y-103197369D01*
X91369105Y-103197369D02*
X91511962Y-103125940D01*
X91511962Y-103125940D02*
X91654820Y-102983083D01*
X91654820Y-102983083D02*
X91726248Y-102768797D01*
X91726248Y-102768797D02*
X91726248Y-102411654D01*
X94141164Y-87054510D02*
X92641164Y-87054510D01*
X92641164Y-87054510D02*
X93712593Y-87554510D01*
X93712593Y-87554510D02*
X92641164Y-88054510D01*
X92641164Y-88054510D02*
X94141164Y-88054510D01*
X93426878Y-89054511D02*
X94141164Y-89054511D01*
X92641164Y-88554511D02*
X93426878Y-89054511D01*
X93426878Y-89054511D02*
X92641164Y-89554511D01*
X92641164Y-89840225D02*
X92641164Y-90697368D01*
X94141164Y-90268796D02*
X92641164Y-90268796D01*
X94141164Y-92054510D02*
X93426878Y-91554510D01*
X94141164Y-91197367D02*
X92641164Y-91197367D01*
X92641164Y-91197367D02*
X92641164Y-91768796D01*
X92641164Y-91768796D02*
X92712593Y-91911653D01*
X92712593Y-91911653D02*
X92784021Y-91983082D01*
X92784021Y-91983082D02*
X92926878Y-92054510D01*
X92926878Y-92054510D02*
X93141164Y-92054510D01*
X93141164Y-92054510D02*
X93284021Y-91983082D01*
X93284021Y-91983082D02*
X93355450Y-91911653D01*
X93355450Y-91911653D02*
X93426878Y-91768796D01*
X93426878Y-91768796D02*
X93426878Y-91197367D01*
X93355450Y-92697367D02*
X93355450Y-93197367D01*
X94141164Y-93411653D02*
X94141164Y-92697367D01*
X94141164Y-92697367D02*
X92641164Y-92697367D01*
X92641164Y-92697367D02*
X92641164Y-93411653D01*
X93426878Y-94340225D02*
X94141164Y-94340225D01*
X92641164Y-93840225D02*
X93426878Y-94340225D01*
X93426878Y-94340225D02*
X92641164Y-94840225D01*
X93712593Y-95268796D02*
X93712593Y-95983082D01*
X94141164Y-95125939D02*
X92641164Y-95625939D01*
X92641164Y-95625939D02*
X94141164Y-96125939D01*
X93355450Y-98268795D02*
X93426878Y-98483081D01*
X93426878Y-98483081D02*
X93498307Y-98554510D01*
X93498307Y-98554510D02*
X93641164Y-98625938D01*
X93641164Y-98625938D02*
X93855450Y-98625938D01*
X93855450Y-98625938D02*
X93998307Y-98554510D01*
X93998307Y-98554510D02*
X94069736Y-98483081D01*
X94069736Y-98483081D02*
X94141164Y-98340224D01*
X94141164Y-98340224D02*
X94141164Y-97768795D01*
X94141164Y-97768795D02*
X92641164Y-97768795D01*
X92641164Y-97768795D02*
X92641164Y-98268795D01*
X92641164Y-98268795D02*
X92712593Y-98411653D01*
X92712593Y-98411653D02*
X92784021Y-98483081D01*
X92784021Y-98483081D02*
X92926878Y-98554510D01*
X92926878Y-98554510D02*
X93069736Y-98554510D01*
X93069736Y-98554510D02*
X93212593Y-98483081D01*
X93212593Y-98483081D02*
X93284021Y-98411653D01*
X93284021Y-98411653D02*
X93355450Y-98268795D01*
X93355450Y-98268795D02*
X93355450Y-97768795D01*
X93712593Y-99197367D02*
X93712593Y-99911653D01*
X94141164Y-99054510D02*
X92641164Y-99554510D01*
X92641164Y-99554510D02*
X94141164Y-100054510D01*
X94141164Y-100554509D02*
X92641164Y-100554509D01*
X92641164Y-100554509D02*
X92641164Y-100911652D01*
X92641164Y-100911652D02*
X92712593Y-101125938D01*
X92712593Y-101125938D02*
X92855450Y-101268795D01*
X92855450Y-101268795D02*
X92998307Y-101340224D01*
X92998307Y-101340224D02*
X93284021Y-101411652D01*
X93284021Y-101411652D02*
X93498307Y-101411652D01*
X93498307Y-101411652D02*
X93784021Y-101340224D01*
X93784021Y-101340224D02*
X93926878Y-101268795D01*
X93926878Y-101268795D02*
X94069736Y-101125938D01*
X94069736Y-101125938D02*
X94141164Y-100911652D01*
X94141164Y-100911652D02*
X94141164Y-100554509D01*
X93712593Y-101983081D02*
X93712593Y-102697367D01*
X94141164Y-101840224D02*
X92641164Y-102340224D01*
X92641164Y-102340224D02*
X94141164Y-102840224D01*
X94141164Y-103340223D02*
X92641164Y-103340223D01*
X92641164Y-103340223D02*
X93712593Y-103840223D01*
X93712593Y-103840223D02*
X92641164Y-104340223D01*
X92641164Y-104340223D02*
X94141164Y-104340223D01*
X94141164Y-105054509D02*
X92641164Y-105054509D01*
X92641164Y-105054509D02*
X92641164Y-105625938D01*
X92641164Y-105625938D02*
X92712593Y-105768795D01*
X92712593Y-105768795D02*
X92784021Y-105840224D01*
X92784021Y-105840224D02*
X92926878Y-105911652D01*
X92926878Y-105911652D02*
X93141164Y-105911652D01*
X93141164Y-105911652D02*
X93284021Y-105840224D01*
X93284021Y-105840224D02*
X93355450Y-105768795D01*
X93355450Y-105768795D02*
X93426878Y-105625938D01*
X93426878Y-105625938D02*
X93426878Y-105054509D01*
X92641164Y-106554509D02*
X93855450Y-106554509D01*
X93855450Y-106554509D02*
X93998307Y-106625938D01*
X93998307Y-106625938D02*
X94069736Y-106697367D01*
X94069736Y-106697367D02*
X94141164Y-106840224D01*
X94141164Y-106840224D02*
X94141164Y-107125938D01*
X94141164Y-107125938D02*
X94069736Y-107268795D01*
X94069736Y-107268795D02*
X93998307Y-107340224D01*
X93998307Y-107340224D02*
X93855450Y-107411652D01*
X93855450Y-107411652D02*
X92641164Y-107411652D01*
X94141164Y-108125938D02*
X92641164Y-108125938D01*
X92641164Y-108125938D02*
X92641164Y-108483081D01*
X92641164Y-108483081D02*
X92712593Y-108697367D01*
X92712593Y-108697367D02*
X92855450Y-108840224D01*
X92855450Y-108840224D02*
X92998307Y-108911653D01*
X92998307Y-108911653D02*
X93284021Y-108983081D01*
X93284021Y-108983081D02*
X93498307Y-108983081D01*
X93498307Y-108983081D02*
X93784021Y-108911653D01*
X93784021Y-108911653D02*
X93926878Y-108840224D01*
X93926878Y-108840224D02*
X94069736Y-108697367D01*
X94069736Y-108697367D02*
X94141164Y-108483081D01*
X94141164Y-108483081D02*
X94141164Y-108125938D01*
X94141164Y-109625938D02*
X92641164Y-109625938D01*
X95841794Y-87340225D02*
X96556080Y-87340225D01*
X95056080Y-86840225D02*
X95841794Y-87340225D01*
X95841794Y-87340225D02*
X95056080Y-87840225D01*
X96127509Y-88268796D02*
X96127509Y-88983082D01*
X96556080Y-88125939D02*
X95056080Y-88625939D01*
X95056080Y-88625939D02*
X96556080Y-89125939D01*
X96484652Y-89554510D02*
X96556080Y-89768796D01*
X96556080Y-89768796D02*
X96556080Y-90125938D01*
X96556080Y-90125938D02*
X96484652Y-90268796D01*
X96484652Y-90268796D02*
X96413223Y-90340224D01*
X96413223Y-90340224D02*
X96270366Y-90411653D01*
X96270366Y-90411653D02*
X96127509Y-90411653D01*
X96127509Y-90411653D02*
X95984652Y-90340224D01*
X95984652Y-90340224D02*
X95913223Y-90268796D01*
X95913223Y-90268796D02*
X95841794Y-90125938D01*
X95841794Y-90125938D02*
X95770366Y-89840224D01*
X95770366Y-89840224D02*
X95698937Y-89697367D01*
X95698937Y-89697367D02*
X95627509Y-89625938D01*
X95627509Y-89625938D02*
X95484652Y-89554510D01*
X95484652Y-89554510D02*
X95341794Y-89554510D01*
X95341794Y-89554510D02*
X95198937Y-89625938D01*
X95198937Y-89625938D02*
X95127509Y-89697367D01*
X95127509Y-89697367D02*
X95056080Y-89840224D01*
X95056080Y-89840224D02*
X95056080Y-90197367D01*
X95056080Y-90197367D02*
X95127509Y-90411653D01*
X96556080Y-91054509D02*
X95056080Y-91054509D01*
X95770366Y-91054509D02*
X95770366Y-91911652D01*
X96556080Y-91911652D02*
X95056080Y-91911652D01*
X96556080Y-93768795D02*
X95056080Y-93768795D01*
X95056080Y-93768795D02*
X95056080Y-94340224D01*
X95056080Y-94340224D02*
X95127509Y-94483081D01*
X95127509Y-94483081D02*
X95198937Y-94554510D01*
X95198937Y-94554510D02*
X95341794Y-94625938D01*
X95341794Y-94625938D02*
X95556080Y-94625938D01*
X95556080Y-94625938D02*
X95698937Y-94554510D01*
X95698937Y-94554510D02*
X95770366Y-94483081D01*
X95770366Y-94483081D02*
X95841794Y-94340224D01*
X95841794Y-94340224D02*
X95841794Y-93768795D01*
X96127509Y-95197367D02*
X96127509Y-95911653D01*
X96556080Y-95054510D02*
X95056080Y-95554510D01*
X95056080Y-95554510D02*
X96556080Y-96054510D01*
X95056080Y-96340224D02*
X95056080Y-97197367D01*
X96556080Y-96768795D02*
X95056080Y-96768795D01*
X96556080Y-97697366D02*
X95056080Y-97697366D01*
X96556080Y-98411652D02*
X95056080Y-98411652D01*
X95056080Y-98411652D02*
X95056080Y-98768795D01*
X95056080Y-98768795D02*
X95127509Y-98983081D01*
X95127509Y-98983081D02*
X95270366Y-99125938D01*
X95270366Y-99125938D02*
X95413223Y-99197367D01*
X95413223Y-99197367D02*
X95698937Y-99268795D01*
X95698937Y-99268795D02*
X95913223Y-99268795D01*
X95913223Y-99268795D02*
X96198937Y-99197367D01*
X96198937Y-99197367D02*
X96341794Y-99125938D01*
X96341794Y-99125938D02*
X96484652Y-98983081D01*
X96484652Y-98983081D02*
X96556080Y-98768795D01*
X96556080Y-98768795D02*
X96556080Y-98411652D01*
X96127509Y-99840224D02*
X96127509Y-100554510D01*
X96556080Y-99697367D02*
X95056080Y-100197367D01*
X95056080Y-100197367D02*
X96556080Y-100697367D01*
X96556080Y-102054509D02*
X95841794Y-101554509D01*
X96556080Y-101197366D02*
X95056080Y-101197366D01*
X95056080Y-101197366D02*
X95056080Y-101768795D01*
X95056080Y-101768795D02*
X95127509Y-101911652D01*
X95127509Y-101911652D02*
X95198937Y-101983081D01*
X95198937Y-101983081D02*
X95341794Y-102054509D01*
X95341794Y-102054509D02*
X95556080Y-102054509D01*
X95556080Y-102054509D02*
X95698937Y-101983081D01*
X95698937Y-101983081D02*
X95770366Y-101911652D01*
X95770366Y-101911652D02*
X95841794Y-101768795D01*
X95841794Y-101768795D02*
X95841794Y-101197366D01*
X98970996Y-87911653D02*
X98256710Y-87411653D01*
X98970996Y-87054510D02*
X97470996Y-87054510D01*
X97470996Y-87054510D02*
X97470996Y-87625939D01*
X97470996Y-87625939D02*
X97542425Y-87768796D01*
X97542425Y-87768796D02*
X97613853Y-87840225D01*
X97613853Y-87840225D02*
X97756710Y-87911653D01*
X97756710Y-87911653D02*
X97970996Y-87911653D01*
X97970996Y-87911653D02*
X98113853Y-87840225D01*
X98113853Y-87840225D02*
X98185282Y-87768796D01*
X98185282Y-87768796D02*
X98256710Y-87625939D01*
X98256710Y-87625939D02*
X98256710Y-87054510D01*
X98970996Y-88554510D02*
X97470996Y-88554510D01*
X98899568Y-89197368D02*
X98970996Y-89411654D01*
X98970996Y-89411654D02*
X98970996Y-89768796D01*
X98970996Y-89768796D02*
X98899568Y-89911654D01*
X98899568Y-89911654D02*
X98828139Y-89983082D01*
X98828139Y-89983082D02*
X98685282Y-90054511D01*
X98685282Y-90054511D02*
X98542425Y-90054511D01*
X98542425Y-90054511D02*
X98399568Y-89983082D01*
X98399568Y-89983082D02*
X98328139Y-89911654D01*
X98328139Y-89911654D02*
X98256710Y-89768796D01*
X98256710Y-89768796D02*
X98185282Y-89483082D01*
X98185282Y-89483082D02*
X98113853Y-89340225D01*
X98113853Y-89340225D02*
X98042425Y-89268796D01*
X98042425Y-89268796D02*
X97899568Y-89197368D01*
X97899568Y-89197368D02*
X97756710Y-89197368D01*
X97756710Y-89197368D02*
X97613853Y-89268796D01*
X97613853Y-89268796D02*
X97542425Y-89340225D01*
X97542425Y-89340225D02*
X97470996Y-89483082D01*
X97470996Y-89483082D02*
X97470996Y-89840225D01*
X97470996Y-89840225D02*
X97542425Y-90054511D01*
X98970996Y-90697367D02*
X97470996Y-90697367D01*
X98185282Y-90697367D02*
X98185282Y-91554510D01*
X98970996Y-91554510D02*
X97470996Y-91554510D01*
X98970996Y-92268796D02*
X97470996Y-92268796D01*
X97470996Y-92768797D02*
X97470996Y-93625940D01*
X98970996Y-93197368D02*
X97470996Y-93197368D01*
X98970996Y-95268796D02*
X97470996Y-95268796D01*
X98970996Y-96125939D02*
X98113853Y-95483082D01*
X97470996Y-96125939D02*
X98328139Y-95268796D01*
X97470996Y-96768796D02*
X98685282Y-96768796D01*
X98685282Y-96768796D02*
X98828139Y-96840225D01*
X98828139Y-96840225D02*
X98899568Y-96911654D01*
X98899568Y-96911654D02*
X98970996Y-97054511D01*
X98970996Y-97054511D02*
X98970996Y-97340225D01*
X98970996Y-97340225D02*
X98899568Y-97483082D01*
X98899568Y-97483082D02*
X98828139Y-97554511D01*
X98828139Y-97554511D02*
X98685282Y-97625939D01*
X98685282Y-97625939D02*
X97470996Y-97625939D01*
X98970996Y-99054511D02*
X98970996Y-98340225D01*
X98970996Y-98340225D02*
X97470996Y-98340225D01*
X98970996Y-99554511D02*
X97470996Y-99554511D01*
X98970996Y-100411654D02*
X98113853Y-99768797D01*
X97470996Y-100411654D02*
X98328139Y-99554511D01*
X98542425Y-100983083D02*
X98542425Y-101697369D01*
X98970996Y-100840226D02*
X97470996Y-101340226D01*
X97470996Y-101340226D02*
X98970996Y-101840226D01*
X98970996Y-103197368D02*
X98256710Y-102697368D01*
X98970996Y-102340225D02*
X97470996Y-102340225D01*
X97470996Y-102340225D02*
X97470996Y-102911654D01*
X97470996Y-102911654D02*
X97542425Y-103054511D01*
X97542425Y-103054511D02*
X97613853Y-103125940D01*
X97613853Y-103125940D02*
X97756710Y-103197368D01*
X97756710Y-103197368D02*
X97970996Y-103197368D01*
X97970996Y-103197368D02*
X98113853Y-103125940D01*
X98113853Y-103125940D02*
X98185282Y-103054511D01*
X98185282Y-103054511D02*
X98256710Y-102911654D01*
X98256710Y-102911654D02*
X98256710Y-102340225D01*
X98970996Y-103840225D02*
X97470996Y-103840225D01*
X97470996Y-103840225D02*
X98970996Y-104697368D01*
X98970996Y-104697368D02*
X97470996Y-104697368D01*
X98970996Y-105411654D02*
X97470996Y-105411654D01*
X101385912Y-87054510D02*
X99885912Y-87054510D01*
X99885912Y-87054510D02*
X99885912Y-87411653D01*
X99885912Y-87411653D02*
X99957341Y-87625939D01*
X99957341Y-87625939D02*
X100100198Y-87768796D01*
X100100198Y-87768796D02*
X100243055Y-87840225D01*
X100243055Y-87840225D02*
X100528769Y-87911653D01*
X100528769Y-87911653D02*
X100743055Y-87911653D01*
X100743055Y-87911653D02*
X101028769Y-87840225D01*
X101028769Y-87840225D02*
X101171626Y-87768796D01*
X101171626Y-87768796D02*
X101314484Y-87625939D01*
X101314484Y-87625939D02*
X101385912Y-87411653D01*
X101385912Y-87411653D02*
X101385912Y-87054510D01*
X100600198Y-88554510D02*
X100600198Y-89054510D01*
X101385912Y-89268796D02*
X101385912Y-88554510D01*
X101385912Y-88554510D02*
X99885912Y-88554510D01*
X99885912Y-88554510D02*
X99885912Y-89268796D01*
X100600198Y-89911653D02*
X100600198Y-90411653D01*
X101385912Y-90625939D02*
X101385912Y-89911653D01*
X101385912Y-89911653D02*
X99885912Y-89911653D01*
X99885912Y-89911653D02*
X99885912Y-90625939D01*
X101385912Y-91268796D02*
X99885912Y-91268796D01*
X99885912Y-91268796D02*
X99885912Y-91840225D01*
X99885912Y-91840225D02*
X99957341Y-91983082D01*
X99957341Y-91983082D02*
X100028769Y-92054511D01*
X100028769Y-92054511D02*
X100171626Y-92125939D01*
X100171626Y-92125939D02*
X100385912Y-92125939D01*
X100385912Y-92125939D02*
X100528769Y-92054511D01*
X100528769Y-92054511D02*
X100600198Y-91983082D01*
X100600198Y-91983082D02*
X100671626Y-91840225D01*
X100671626Y-91840225D02*
X100671626Y-91268796D01*
X101314484Y-92697368D02*
X101385912Y-92911654D01*
X101385912Y-92911654D02*
X101385912Y-93268796D01*
X101385912Y-93268796D02*
X101314484Y-93411654D01*
X101314484Y-93411654D02*
X101243055Y-93483082D01*
X101243055Y-93483082D02*
X101100198Y-93554511D01*
X101100198Y-93554511D02*
X100957341Y-93554511D01*
X100957341Y-93554511D02*
X100814484Y-93483082D01*
X100814484Y-93483082D02*
X100743055Y-93411654D01*
X100743055Y-93411654D02*
X100671626Y-93268796D01*
X100671626Y-93268796D02*
X100600198Y-92983082D01*
X100600198Y-92983082D02*
X100528769Y-92840225D01*
X100528769Y-92840225D02*
X100457341Y-92768796D01*
X100457341Y-92768796D02*
X100314484Y-92697368D01*
X100314484Y-92697368D02*
X100171626Y-92697368D01*
X100171626Y-92697368D02*
X100028769Y-92768796D01*
X100028769Y-92768796D02*
X99957341Y-92840225D01*
X99957341Y-92840225D02*
X99885912Y-92983082D01*
X99885912Y-92983082D02*
X99885912Y-93340225D01*
X99885912Y-93340225D02*
X99957341Y-93554511D01*
X101385912Y-94197367D02*
X99885912Y-94197367D01*
X100600198Y-94197367D02*
X100600198Y-95054510D01*
X101385912Y-95054510D02*
X99885912Y-95054510D01*
X101385912Y-95768796D02*
X99885912Y-95768796D01*
X101385912Y-96483082D02*
X99885912Y-96483082D01*
X101385912Y-97340225D02*
X100528769Y-96697368D01*
X99885912Y-97340225D02*
X100743055Y-96483082D01*
X101385912Y-97983082D02*
X99885912Y-97983082D01*
X100600198Y-97983082D02*
X100600198Y-98840225D01*
X101385912Y-98840225D02*
X99885912Y-98840225D01*
X100957341Y-99483083D02*
X100957341Y-100197369D01*
X101385912Y-99340226D02*
X99885912Y-99840226D01*
X99885912Y-99840226D02*
X101385912Y-100340226D01*
X101314484Y-101911654D02*
X101385912Y-102125940D01*
X101385912Y-102125940D02*
X101385912Y-102483082D01*
X101385912Y-102483082D02*
X101314484Y-102625940D01*
X101314484Y-102625940D02*
X101243055Y-102697368D01*
X101243055Y-102697368D02*
X101100198Y-102768797D01*
X101100198Y-102768797D02*
X100957341Y-102768797D01*
X100957341Y-102768797D02*
X100814484Y-102697368D01*
X100814484Y-102697368D02*
X100743055Y-102625940D01*
X100743055Y-102625940D02*
X100671626Y-102483082D01*
X100671626Y-102483082D02*
X100600198Y-102197368D01*
X100600198Y-102197368D02*
X100528769Y-102054511D01*
X100528769Y-102054511D02*
X100457341Y-101983082D01*
X100457341Y-101983082D02*
X100314484Y-101911654D01*
X100314484Y-101911654D02*
X100171626Y-101911654D01*
X100171626Y-101911654D02*
X100028769Y-101983082D01*
X100028769Y-101983082D02*
X99957341Y-102054511D01*
X99957341Y-102054511D02*
X99885912Y-102197368D01*
X99885912Y-102197368D02*
X99885912Y-102554511D01*
X99885912Y-102554511D02*
X99957341Y-102768797D01*
X100957341Y-103340225D02*
X100957341Y-104054511D01*
X101385912Y-103197368D02*
X99885912Y-103697368D01*
X99885912Y-103697368D02*
X101385912Y-104197368D01*
X101385912Y-105554510D02*
X100671626Y-105054510D01*
X101385912Y-104697367D02*
X99885912Y-104697367D01*
X99885912Y-104697367D02*
X99885912Y-105268796D01*
X99885912Y-105268796D02*
X99957341Y-105411653D01*
X99957341Y-105411653D02*
X100028769Y-105483082D01*
X100028769Y-105483082D02*
X100171626Y-105554510D01*
X100171626Y-105554510D02*
X100385912Y-105554510D01*
X100385912Y-105554510D02*
X100528769Y-105483082D01*
X100528769Y-105483082D02*
X100600198Y-105411653D01*
X100600198Y-105411653D02*
X100671626Y-105268796D01*
X100671626Y-105268796D02*
X100671626Y-104697367D01*
X100957341Y-106125939D02*
X100957341Y-106840225D01*
X101385912Y-105983082D02*
X99885912Y-106483082D01*
X99885912Y-106483082D02*
X101385912Y-106983082D01*
X101385912Y-107483081D02*
X99885912Y-107483081D01*
X99885912Y-107483081D02*
X101385912Y-108340224D01*
X101385912Y-108340224D02*
X99885912Y-108340224D01*
X99957341Y-109840225D02*
X99885912Y-109697368D01*
X99885912Y-109697368D02*
X99885912Y-109483082D01*
X99885912Y-109483082D02*
X99957341Y-109268796D01*
X99957341Y-109268796D02*
X100100198Y-109125939D01*
X100100198Y-109125939D02*
X100243055Y-109054510D01*
X100243055Y-109054510D02*
X100528769Y-108983082D01*
X100528769Y-108983082D02*
X100743055Y-108983082D01*
X100743055Y-108983082D02*
X101028769Y-109054510D01*
X101028769Y-109054510D02*
X101171626Y-109125939D01*
X101171626Y-109125939D02*
X101314484Y-109268796D01*
X101314484Y-109268796D02*
X101385912Y-109483082D01*
X101385912Y-109483082D02*
X101385912Y-109625939D01*
X101385912Y-109625939D02*
X101314484Y-109840225D01*
X101314484Y-109840225D02*
X101243055Y-109911653D01*
X101243055Y-109911653D02*
X100743055Y-109911653D01*
X100743055Y-109911653D02*
X100743055Y-109625939D01*
X101385912Y-110554510D02*
X99885912Y-110554510D01*
X103229400Y-87054510D02*
X103229400Y-88197368D01*
X103229400Y-88911653D02*
X103229400Y-90054511D01*
X103229400Y-90768796D02*
X103229400Y-91911654D01*
X103229400Y-92625939D02*
X103229400Y-93768797D01*
X103229400Y-94483082D02*
X103229400Y-95625940D01*
X103229400Y-96340225D02*
X103229400Y-97483083D01*
X103229400Y-98197368D02*
X103229400Y-99340226D01*
X103229400Y-100054511D02*
X103229400Y-101197369D01*
X103229400Y-101911654D02*
X103229400Y-103054512D01*
X103229400Y-103768797D02*
X103229400Y-104911655D01*
X103229400Y-105625940D02*
X103229400Y-106768798D01*
X103229400Y-107483083D02*
X103229400Y-108625941D01*
X103229400Y-109340226D02*
X103229400Y-110483084D01*
X103229400Y-111197369D02*
X103229400Y-112340227D01*
D11*
X101484819Y-59488922D02*
X102484819Y-59822255D01*
X102484819Y-59822255D02*
X101484819Y-60155588D01*
X102484819Y-60488922D02*
X101484819Y-60488922D01*
X101484819Y-60488922D02*
X101484819Y-60727017D01*
X101484819Y-60727017D02*
X101532438Y-60869874D01*
X101532438Y-60869874D02*
X101627676Y-60965112D01*
X101627676Y-60965112D02*
X101722914Y-61012731D01*
X101722914Y-61012731D02*
X101913390Y-61060350D01*
X101913390Y-61060350D02*
X102056247Y-61060350D01*
X102056247Y-61060350D02*
X102246723Y-61012731D01*
X102246723Y-61012731D02*
X102341961Y-60965112D01*
X102341961Y-60965112D02*
X102437200Y-60869874D01*
X102437200Y-60869874D02*
X102484819Y-60727017D01*
X102484819Y-60727017D02*
X102484819Y-60488922D01*
X102484819Y-61488922D02*
X101484819Y-61488922D01*
X101484819Y-61488922D02*
X101484819Y-61727017D01*
X101484819Y-61727017D02*
X101532438Y-61869874D01*
X101532438Y-61869874D02*
X101627676Y-61965112D01*
X101627676Y-61965112D02*
X101722914Y-62012731D01*
X101722914Y-62012731D02*
X101913390Y-62060350D01*
X101913390Y-62060350D02*
X102056247Y-62060350D01*
X102056247Y-62060350D02*
X102246723Y-62012731D01*
X102246723Y-62012731D02*
X102341961Y-61965112D01*
X102341961Y-61965112D02*
X102437200Y-61869874D01*
X102437200Y-61869874D02*
X102484819Y-61727017D01*
X102484819Y-61727017D02*
X102484819Y-61488922D01*
X103994819Y-63063207D02*
X103518628Y-62729874D01*
X103994819Y-62491779D02*
X102994819Y-62491779D01*
X102994819Y-62491779D02*
X102994819Y-62872731D01*
X102994819Y-62872731D02*
X103042438Y-62967969D01*
X103042438Y-62967969D02*
X103090057Y-63015588D01*
X103090057Y-63015588D02*
X103185295Y-63063207D01*
X103185295Y-63063207D02*
X103328152Y-63063207D01*
X103328152Y-63063207D02*
X103423390Y-63015588D01*
X103423390Y-63015588D02*
X103471009Y-62967969D01*
X103471009Y-62967969D02*
X103518628Y-62872731D01*
X103518628Y-62872731D02*
X103518628Y-62491779D01*
X103947200Y-63444160D02*
X103994819Y-63587017D01*
X103994819Y-63587017D02*
X103994819Y-63825112D01*
X103994819Y-63825112D02*
X103947200Y-63920350D01*
X103947200Y-63920350D02*
X103899580Y-63967969D01*
X103899580Y-63967969D02*
X103804342Y-64015588D01*
X103804342Y-64015588D02*
X103709104Y-64015588D01*
X103709104Y-64015588D02*
X103613866Y-63967969D01*
X103613866Y-63967969D02*
X103566247Y-63920350D01*
X103566247Y-63920350D02*
X103518628Y-63825112D01*
X103518628Y-63825112D02*
X103471009Y-63634636D01*
X103471009Y-63634636D02*
X103423390Y-63539398D01*
X103423390Y-63539398D02*
X103375771Y-63491779D01*
X103375771Y-63491779D02*
X103280533Y-63444160D01*
X103280533Y-63444160D02*
X103185295Y-63444160D01*
X103185295Y-63444160D02*
X103090057Y-63491779D01*
X103090057Y-63491779D02*
X103042438Y-63539398D01*
X103042438Y-63539398D02*
X102994819Y-63634636D01*
X102994819Y-63634636D02*
X102994819Y-63872731D01*
X102994819Y-63872731D02*
X103042438Y-64015588D01*
X102994819Y-64301303D02*
X102994819Y-64872731D01*
X103994819Y-64587017D02*
X102994819Y-64587017D01*
D13*
%TO.C,U2*%
X89235000Y-71175000D02*
X89235000Y-72445000D01*
X89235000Y-72445000D02*
X90505000Y-72445000D01*
X91945000Y-59685000D02*
X94605000Y-59685000D01*
X91945000Y-62285000D02*
X94605000Y-62285000D01*
X91945000Y-64825000D02*
X94605000Y-64825000D01*
X91945000Y-67365000D02*
X94605000Y-67365000D01*
X91945000Y-69905000D02*
X94605000Y-69905000D01*
X91945000Y-72505000D02*
X91945000Y-59685000D01*
X94605000Y-59685000D02*
X94605000Y-72505000D01*
X94605000Y-61395000D02*
X100605000Y-61395000D01*
X94605000Y-63935000D02*
X100605000Y-63935000D01*
X94605000Y-66475000D02*
X100605000Y-66475000D01*
X94605000Y-69015000D02*
X100605000Y-69015000D01*
X94605000Y-70895000D02*
X100605000Y-70895000D01*
X94605000Y-71015000D02*
X100605000Y-71015000D01*
X94605000Y-71135000D02*
X100605000Y-71135000D01*
X94605000Y-71255000D02*
X100605000Y-71255000D01*
X94605000Y-71375000D02*
X100605000Y-71375000D01*
X94605000Y-71495000D02*
X100605000Y-71495000D01*
X94605000Y-71555000D02*
X100605000Y-71555000D01*
X94605000Y-72505000D02*
X91945000Y-72505000D01*
X100605000Y-60635000D02*
X94605000Y-60635000D01*
D14*
X100605000Y-61015000D02*
X91945000Y-61015000D01*
D13*
X100605000Y-61395000D02*
X100605000Y-60635000D01*
X100605000Y-63175000D02*
X94605000Y-63175000D01*
X100605000Y-63935000D02*
X100605000Y-63175000D01*
X100605000Y-65715000D02*
X94605000Y-65715000D01*
X100605000Y-66475000D02*
X100605000Y-65715000D01*
X100605000Y-68255000D02*
X94605000Y-68255000D01*
X100605000Y-69015000D02*
X100605000Y-68255000D01*
X100605000Y-70795000D02*
X94605000Y-70795000D01*
X100605000Y-71555000D02*
X100605000Y-70795000D01*
D14*
X60905000Y-67615000D02*
X77175000Y-67615000D01*
X77175000Y-73175000D01*
X60905000Y-73175000D01*
X60905000Y-67615000D01*
X77125000Y-59055000D02*
X91945000Y-59055000D01*
X91945000Y-73205000D01*
X77125000Y-73205000D01*
X77125000Y-59055000D01*
X77425000Y-59305000D02*
X89065000Y-59305000D01*
X89065000Y-69635000D01*
X77425000Y-69635000D01*
X77425000Y-59305000D01*
X91945000Y-59055000D02*
X100895000Y-59055000D01*
X100895000Y-73205000D01*
X91945000Y-73205000D01*
X91945000Y-59055000D01*
%TD*%
M02*
