%TF.GenerationSoftware,KiCad,Pcbnew,9.0.4*%
%TF.CreationDate,2025-09-20T14:11:16+05:30*%
%TF.ProjectId,FireSide v2.0,46697265-5369-4646-9520-76322e302e6b,rev?*%
%TF.SameCoordinates,Original*%
%TF.FileFunction,Soldermask,Top*%
%TF.FilePolarity,Negative*%
%FSLAX46Y46*%
G04 Gerber Fmt 4.6, Leading zero omitted, Abs format (unit mm)*
G04 Created by KiCad (PCBNEW 9.0.4) date 2025-09-20 14:11:16*
%MOMM*%
%LPD*%
G01*
G04 APERTURE LIST*
G04 Aperture macros list*
%AMRoundRect*
0 Rectangle with rounded corners*
0 $1 Rounding radius*
0 $2 $3 $4 $5 $6 $7 $8 $9 X,Y pos of 4 corners*
0 Add a 4 corners polygon primitive as box body*
4,1,4,$2,$3,$4,$5,$6,$7,$8,$9,$2,$3,0*
0 Add four circle primitives for the rounded corners*
1,1,$1+$1,$2,$3*
1,1,$1+$1,$4,$5*
1,1,$1+$1,$6,$7*
1,1,$1+$1,$8,$9*
0 Add four rect primitives between the rounded corners*
20,1,$1+$1,$2,$3,$4,$5,0*
20,1,$1+$1,$4,$5,$6,$7,0*
20,1,$1+$1,$6,$7,$8,$9,0*
20,1,$1+$1,$8,$9,$2,$3,0*%
G04 Aperture macros list end*
%ADD10C,1.800000*%
%ADD11RoundRect,0.250000X0.250000X0.475000X-0.250000X0.475000X-0.250000X-0.475000X0.250000X-0.475000X0*%
%ADD12C,7.500000*%
%ADD13RoundRect,0.250000X0.475000X-0.250000X0.475000X0.250000X-0.475000X0.250000X-0.475000X-0.250000X0*%
%ADD14RoundRect,0.375000X-0.375000X0.625000X-0.375000X-0.625000X0.375000X-0.625000X0.375000X0.625000X0*%
%ADD15RoundRect,0.500000X-1.400000X0.500000X-1.400000X-0.500000X1.400000X-0.500000X1.400000X0.500000X0*%
%ADD16RoundRect,0.250000X-0.600000X-0.750000X0.600000X-0.750000X0.600000X0.750000X-0.600000X0.750000X0*%
%ADD17O,1.700000X2.000000*%
%ADD18R,1.700000X1.700000*%
%ADD19C,1.700000*%
%ADD20RoundRect,0.250000X-0.750000X0.600000X-0.750000X-0.600000X0.750000X-0.600000X0.750000X0.600000X0*%
%ADD21O,2.000000X1.700000*%
%ADD22RoundRect,0.375000X0.625000X0.375000X-0.625000X0.375000X-0.625000X-0.375000X0.625000X-0.375000X0*%
%ADD23RoundRect,0.500000X0.500000X1.400000X-0.500000X1.400000X-0.500000X-1.400000X0.500000X-1.400000X0*%
%ADD24RoundRect,0.250000X-0.250000X-0.475000X0.250000X-0.475000X0.250000X0.475000X-0.250000X0.475000X0*%
%ADD25RoundRect,0.243750X-0.243750X-0.456250X0.243750X-0.456250X0.243750X0.456250X-0.243750X0.456250X0*%
%ADD26RoundRect,0.250000X0.262500X0.450000X-0.262500X0.450000X-0.262500X-0.450000X0.262500X-0.450000X0*%
%ADD27C,1.524000*%
%ADD28RoundRect,0.250000X-0.262500X-0.450000X0.262500X-0.450000X0.262500X0.450000X-0.262500X0.450000X0*%
%ADD29C,1.400000*%
%ADD30RoundRect,0.102000X-0.762000X-0.762000X0.762000X-0.762000X0.762000X0.762000X-0.762000X0.762000X0*%
%ADD31C,1.728000*%
%ADD32R,3.000000X3.000000*%
%ADD33C,3.000000*%
%ADD34C,6.204000*%
%ADD35RoundRect,0.102000X-3.000000X-3.000000X3.000000X-3.000000X3.000000X3.000000X-3.000000X3.000000X0*%
%ADD36RoundRect,0.150000X0.150000X-0.587500X0.150000X0.587500X-0.150000X0.587500X-0.150000X-0.587500X0*%
%ADD37O,1.700000X1.700000*%
G04 APERTURE END LIST*
D10*
%TO.C,U5*%
X106500000Y-87180000D03*
X106500000Y-83180000D03*
X79000000Y-90180000D03*
X79000000Y-85180000D03*
X79000000Y-80180000D03*
%TD*%
D11*
%TO.C,C2*%
X100950000Y-44750000D03*
X99050000Y-44750000D03*
%TD*%
D12*
%TO.C,H2*%
X80050400Y-135100800D03*
%TD*%
%TO.C,H3*%
X80250000Y-36250000D03*
%TD*%
D13*
%TO.C,C3*%
X106950000Y-47700000D03*
X106950000Y-45800000D03*
%TD*%
D14*
%TO.C,U4*%
X115350000Y-47700000D03*
X113050000Y-47700000D03*
D15*
X113050000Y-54000000D03*
D14*
X110750000Y-47700000D03*
%TD*%
D16*
%TO.C,J4*%
X138352799Y-83781199D03*
D17*
X140852799Y-83781199D03*
%TD*%
D18*
%TO.C,J12*%
X87500000Y-34958563D03*
D19*
X87500000Y-37498563D03*
%TD*%
D20*
%TO.C,J10*%
X122750000Y-54000000D03*
D21*
X122750000Y-56500000D03*
%TD*%
D22*
%TO.C,U1*%
X100941768Y-52760400D03*
X100941768Y-50460400D03*
D23*
X94641768Y-50460400D03*
D22*
X100941768Y-48160400D03*
%TD*%
D18*
%TO.C,J8*%
X120500000Y-36725000D03*
D19*
X120500000Y-39265000D03*
%TD*%
D24*
%TO.C,C6*%
X129989181Y-70987836D03*
X131889181Y-70987836D03*
%TD*%
D25*
%TO.C,D1*%
X107984100Y-61787676D03*
X109859100Y-61787676D03*
%TD*%
D26*
%TO.C,R4*%
X129075000Y-54000000D03*
X127250000Y-54000000D03*
%TD*%
D11*
%TO.C,C4*%
X91791212Y-50463737D03*
X89891212Y-50463737D03*
%TD*%
D12*
%TO.C,H1*%
X139750000Y-135500000D03*
%TD*%
D16*
%TO.C,J5*%
X138352799Y-77781199D03*
D17*
X140852799Y-77781199D03*
%TD*%
D27*
%TO.C,U8*%
X128450000Y-123000000D03*
X125910000Y-123000000D03*
X123370000Y-123000000D03*
X120830000Y-123000000D03*
X118290000Y-123000000D03*
X115750000Y-123000000D03*
%TD*%
D28*
%TO.C,R3*%
X112750000Y-64750000D03*
X114575000Y-64750000D03*
%TD*%
D25*
%TO.C,D2*%
X108021777Y-64703033D03*
X109896777Y-64703033D03*
%TD*%
D10*
%TO.C,U7*%
X106500000Y-122500000D03*
X106500000Y-118500000D03*
X79000000Y-125500000D03*
X79000000Y-120500000D03*
X79000000Y-115500000D03*
%TD*%
D29*
%TO.C,R2*%
X138050400Y-112350800D03*
X138050400Y-107270800D03*
%TD*%
D11*
%TO.C,C1*%
X113046508Y-44460665D03*
X111146508Y-44460665D03*
%TD*%
D30*
%TO.C,U9*%
X114750000Y-75500000D03*
D31*
X114750000Y-78040000D03*
X114750000Y-80580000D03*
X114750000Y-83120000D03*
X114750000Y-85660000D03*
X114750000Y-88200000D03*
X114750000Y-90740000D03*
X114750000Y-93280000D03*
X114750000Y-95820000D03*
X114750000Y-98360000D03*
X114750000Y-100900000D03*
X114750000Y-103440000D03*
X114750000Y-105980000D03*
X114750000Y-108520000D03*
X114750000Y-111060000D03*
X129990000Y-75500000D03*
X129990000Y-78040000D03*
X129990000Y-80580000D03*
X129990000Y-83120000D03*
X129990000Y-85660000D03*
X129990000Y-88200000D03*
X129990000Y-90740000D03*
X129990000Y-93280000D03*
X129990000Y-95820000D03*
X129990000Y-98360000D03*
X129990000Y-100900000D03*
X129990000Y-103440000D03*
X129990000Y-105980000D03*
X129990000Y-108520000D03*
X129990000Y-111060000D03*
%TD*%
D32*
%TO.C,J14*%
X139000000Y-126250000D03*
D33*
X139000000Y-121170000D03*
%TD*%
D18*
%TO.C,J7*%
X128500000Y-36725000D03*
D19*
X128500000Y-39265000D03*
%TD*%
D10*
%TO.C,U6*%
X106500000Y-104840000D03*
X106500000Y-100840000D03*
X79000000Y-107840000D03*
X79000000Y-102840000D03*
X79000000Y-97840000D03*
%TD*%
D18*
%TO.C,J11*%
X95750000Y-34960000D03*
D19*
X95750000Y-37500000D03*
%TD*%
D24*
%TO.C,C5*%
X129993152Y-67558421D03*
X131893152Y-67558421D03*
%TD*%
D16*
%TO.C,J2*%
X138352799Y-95781199D03*
D17*
X140852799Y-95781199D03*
%TD*%
D34*
%TO.C,U3*%
X111200000Y-38312500D03*
D35*
X104000000Y-38312500D03*
%TD*%
D33*
%TO.C,TP2*%
X95250000Y-41750000D03*
%TD*%
D28*
%TO.C,R1*%
X112675000Y-61750000D03*
X114500000Y-61750000D03*
%TD*%
D16*
%TO.C,J1*%
X138352799Y-101781199D03*
D17*
X140852799Y-101781199D03*
%TD*%
D33*
%TO.C,TP1*%
X133750000Y-48000000D03*
%TD*%
D12*
%TO.C,H4*%
X139000000Y-36250000D03*
%TD*%
D16*
%TO.C,J6*%
X138352799Y-71781199D03*
D17*
X140852799Y-71781199D03*
%TD*%
D32*
%TO.C,J13*%
X138477718Y-63464391D03*
D33*
X138477718Y-58384391D03*
X138477718Y-53304391D03*
%TD*%
D16*
%TO.C,J3*%
X138352799Y-89781199D03*
D17*
X140852799Y-89781199D03*
%TD*%
D32*
%TO.C,J9*%
X81750000Y-44170000D03*
D33*
X81750000Y-49250000D03*
X81750000Y-54330000D03*
%TD*%
D36*
%TO.C,Q1*%
X128134612Y-59850250D03*
X130034612Y-59850250D03*
X129084612Y-57975250D03*
%TD*%
D37*
%TO.C,U2*%
X91000000Y-60340000D03*
X91000000Y-62880000D03*
X91000000Y-65420000D03*
X91000000Y-67960000D03*
D18*
X91000000Y-70500000D03*
%TD*%
M02*
