%TF.GenerationSoftware,KiCad,Pcbnew,9.0.4*%
%TF.CreationDate,2025-10-04T23:37:01+05:30*%
%TF.ProjectId,FireSide,46697265-5369-4646-952e-6b696361645f,rev?*%
%TF.SameCoordinates,Original*%
%TF.FileFunction,Legend,Bot*%
%TF.FilePolarity,Positive*%
%FSLAX46Y46*%
G04 Gerber Fmt 4.6, Leading zero omitted, Abs format (unit mm)*
G04 Created by KiCad (PCBNEW 9.0.4) date 2025-10-04 23:37:01*
%MOMM*%
%LPD*%
G01*
G04 APERTURE LIST*
%ADD10C,0.200000*%
%ADD11C,0.300000*%
G04 APERTURE END LIST*
D10*
X112201755Y-32617219D02*
X112201755Y-32093409D01*
X112201755Y-32093409D02*
X112249374Y-31998171D01*
X112249374Y-31998171D02*
X112344612Y-31950552D01*
X112344612Y-31950552D02*
X112535088Y-31950552D01*
X112535088Y-31950552D02*
X112630326Y-31998171D01*
X112201755Y-32569600D02*
X112296993Y-32617219D01*
X112296993Y-32617219D02*
X112535088Y-32617219D01*
X112535088Y-32617219D02*
X112630326Y-32569600D01*
X112630326Y-32569600D02*
X112677945Y-32474361D01*
X112677945Y-32474361D02*
X112677945Y-32379123D01*
X112677945Y-32379123D02*
X112630326Y-32283885D01*
X112630326Y-32283885D02*
X112535088Y-32236266D01*
X112535088Y-32236266D02*
X112296993Y-32236266D01*
X112296993Y-32236266D02*
X112201755Y-32188647D01*
X111725564Y-32617219D02*
X111725564Y-31950552D01*
X111725564Y-32141028D02*
X111677945Y-32045790D01*
X111677945Y-32045790D02*
X111630326Y-31998171D01*
X111630326Y-31998171D02*
X111535088Y-31950552D01*
X111535088Y-31950552D02*
X111439850Y-31950552D01*
X110725564Y-32569600D02*
X110820802Y-32617219D01*
X110820802Y-32617219D02*
X111011278Y-32617219D01*
X111011278Y-32617219D02*
X111106516Y-32569600D01*
X111106516Y-32569600D02*
X111154135Y-32474361D01*
X111154135Y-32474361D02*
X111154135Y-32093409D01*
X111154135Y-32093409D02*
X111106516Y-31998171D01*
X111106516Y-31998171D02*
X111011278Y-31950552D01*
X111011278Y-31950552D02*
X110820802Y-31950552D01*
X110820802Y-31950552D02*
X110725564Y-31998171D01*
X110725564Y-31998171D02*
X110677945Y-32093409D01*
X110677945Y-32093409D02*
X110677945Y-32188647D01*
X110677945Y-32188647D02*
X111154135Y-32283885D01*
X109582706Y-31950552D02*
X109344611Y-32617219D01*
X109106516Y-31950552D02*
X109344611Y-32617219D01*
X109344611Y-32617219D02*
X109439849Y-32855314D01*
X109439849Y-32855314D02*
X109487468Y-32902933D01*
X109487468Y-32902933D02*
X109582706Y-32950552D01*
X108582706Y-32617219D02*
X108677944Y-32569600D01*
X108677944Y-32569600D02*
X108725563Y-32521980D01*
X108725563Y-32521980D02*
X108773182Y-32426742D01*
X108773182Y-32426742D02*
X108773182Y-32141028D01*
X108773182Y-32141028D02*
X108725563Y-32045790D01*
X108725563Y-32045790D02*
X108677944Y-31998171D01*
X108677944Y-31998171D02*
X108582706Y-31950552D01*
X108582706Y-31950552D02*
X108439849Y-31950552D01*
X108439849Y-31950552D02*
X108344611Y-31998171D01*
X108344611Y-31998171D02*
X108296992Y-32045790D01*
X108296992Y-32045790D02*
X108249373Y-32141028D01*
X108249373Y-32141028D02*
X108249373Y-32426742D01*
X108249373Y-32426742D02*
X108296992Y-32521980D01*
X108296992Y-32521980D02*
X108344611Y-32569600D01*
X108344611Y-32569600D02*
X108439849Y-32617219D01*
X108439849Y-32617219D02*
X108582706Y-32617219D01*
X107392230Y-31950552D02*
X107392230Y-32617219D01*
X107820801Y-31950552D02*
X107820801Y-32474361D01*
X107820801Y-32474361D02*
X107773182Y-32569600D01*
X107773182Y-32569600D02*
X107677944Y-32617219D01*
X107677944Y-32617219D02*
X107535087Y-32617219D01*
X107535087Y-32617219D02*
X107439849Y-32569600D01*
X107439849Y-32569600D02*
X107392230Y-32521980D01*
X106201753Y-32569600D02*
X106106515Y-32617219D01*
X106106515Y-32617219D02*
X105916039Y-32617219D01*
X105916039Y-32617219D02*
X105820801Y-32569600D01*
X105820801Y-32569600D02*
X105773182Y-32474361D01*
X105773182Y-32474361D02*
X105773182Y-32426742D01*
X105773182Y-32426742D02*
X105820801Y-32331504D01*
X105820801Y-32331504D02*
X105916039Y-32283885D01*
X105916039Y-32283885D02*
X106058896Y-32283885D01*
X106058896Y-32283885D02*
X106154134Y-32236266D01*
X106154134Y-32236266D02*
X106201753Y-32141028D01*
X106201753Y-32141028D02*
X106201753Y-32093409D01*
X106201753Y-32093409D02*
X106154134Y-31998171D01*
X106154134Y-31998171D02*
X106058896Y-31950552D01*
X106058896Y-31950552D02*
X105916039Y-31950552D01*
X105916039Y-31950552D02*
X105820801Y-31998171D01*
X104916039Y-31950552D02*
X104916039Y-32617219D01*
X105344610Y-31950552D02*
X105344610Y-32474361D01*
X105344610Y-32474361D02*
X105296991Y-32569600D01*
X105296991Y-32569600D02*
X105201753Y-32617219D01*
X105201753Y-32617219D02*
X105058896Y-32617219D01*
X105058896Y-32617219D02*
X104963658Y-32569600D01*
X104963658Y-32569600D02*
X104916039Y-32521980D01*
X104439848Y-32617219D02*
X104439848Y-31950552D01*
X104439848Y-32141028D02*
X104392229Y-32045790D01*
X104392229Y-32045790D02*
X104344610Y-31998171D01*
X104344610Y-31998171D02*
X104249372Y-31950552D01*
X104249372Y-31950552D02*
X104154134Y-31950552D01*
X103439848Y-32569600D02*
X103535086Y-32617219D01*
X103535086Y-32617219D02*
X103725562Y-32617219D01*
X103725562Y-32617219D02*
X103820800Y-32569600D01*
X103820800Y-32569600D02*
X103868419Y-32474361D01*
X103868419Y-32474361D02*
X103868419Y-32093409D01*
X103868419Y-32093409D02*
X103820800Y-31998171D01*
X103820800Y-31998171D02*
X103725562Y-31950552D01*
X103725562Y-31950552D02*
X103535086Y-31950552D01*
X103535086Y-31950552D02*
X103439848Y-31998171D01*
X103439848Y-31998171D02*
X103392229Y-32093409D01*
X103392229Y-32093409D02*
X103392229Y-32188647D01*
X103392229Y-32188647D02*
X103868419Y-32283885D01*
X102820800Y-32521980D02*
X102773181Y-32569600D01*
X102773181Y-32569600D02*
X102820800Y-32617219D01*
X102820800Y-32617219D02*
X102868419Y-32569600D01*
X102868419Y-32569600D02*
X102820800Y-32521980D01*
X102820800Y-32521980D02*
X102820800Y-32617219D01*
X103011276Y-31664838D02*
X102916038Y-31617219D01*
X102916038Y-31617219D02*
X102677943Y-31617219D01*
X102677943Y-31617219D02*
X102582705Y-31664838D01*
X102582705Y-31664838D02*
X102535086Y-31760076D01*
X102535086Y-31760076D02*
X102535086Y-31855314D01*
X102535086Y-31855314D02*
X102582705Y-31950552D01*
X102582705Y-31950552D02*
X102630324Y-31998171D01*
X102630324Y-31998171D02*
X102725562Y-32045790D01*
X102725562Y-32045790D02*
X102773181Y-32093409D01*
X102773181Y-32093409D02*
X102820800Y-32188647D01*
X102820800Y-32188647D02*
X102820800Y-32236266D01*
X101963657Y-32521980D02*
X101916038Y-32569600D01*
X101916038Y-32569600D02*
X101963657Y-32617219D01*
X101963657Y-32617219D02*
X102011276Y-32569600D01*
X102011276Y-32569600D02*
X101963657Y-32521980D01*
X101963657Y-32521980D02*
X101963657Y-32617219D01*
X102154133Y-31664838D02*
X102058895Y-31617219D01*
X102058895Y-31617219D02*
X101820800Y-31617219D01*
X101820800Y-31617219D02*
X101725562Y-31664838D01*
X101725562Y-31664838D02*
X101677943Y-31760076D01*
X101677943Y-31760076D02*
X101677943Y-31855314D01*
X101677943Y-31855314D02*
X101725562Y-31950552D01*
X101725562Y-31950552D02*
X101773181Y-31998171D01*
X101773181Y-31998171D02*
X101868419Y-32045790D01*
X101868419Y-32045790D02*
X101916038Y-32093409D01*
X101916038Y-32093409D02*
X101963657Y-32188647D01*
X101963657Y-32188647D02*
X101963657Y-32236266D01*
X144927945Y-149169600D02*
X144832707Y-149217219D01*
X144832707Y-149217219D02*
X144642231Y-149217219D01*
X144642231Y-149217219D02*
X144546993Y-149169600D01*
X144546993Y-149169600D02*
X144499374Y-149074361D01*
X144499374Y-149074361D02*
X144499374Y-149026742D01*
X144499374Y-149026742D02*
X144546993Y-148931504D01*
X144546993Y-148931504D02*
X144642231Y-148883885D01*
X144642231Y-148883885D02*
X144785088Y-148883885D01*
X144785088Y-148883885D02*
X144880326Y-148836266D01*
X144880326Y-148836266D02*
X144927945Y-148741028D01*
X144927945Y-148741028D02*
X144927945Y-148693409D01*
X144927945Y-148693409D02*
X144880326Y-148598171D01*
X144880326Y-148598171D02*
X144785088Y-148550552D01*
X144785088Y-148550552D02*
X144642231Y-148550552D01*
X144642231Y-148550552D02*
X144546993Y-148598171D01*
X144070802Y-148550552D02*
X144070802Y-149550552D01*
X144070802Y-148598171D02*
X143975564Y-148550552D01*
X143975564Y-148550552D02*
X143785088Y-148550552D01*
X143785088Y-148550552D02*
X143689850Y-148598171D01*
X143689850Y-148598171D02*
X143642231Y-148645790D01*
X143642231Y-148645790D02*
X143594612Y-148741028D01*
X143594612Y-148741028D02*
X143594612Y-149026742D01*
X143594612Y-149026742D02*
X143642231Y-149121980D01*
X143642231Y-149121980D02*
X143689850Y-149169600D01*
X143689850Y-149169600D02*
X143785088Y-149217219D01*
X143785088Y-149217219D02*
X143975564Y-149217219D01*
X143975564Y-149217219D02*
X144070802Y-149169600D01*
X142785088Y-149169600D02*
X142880326Y-149217219D01*
X142880326Y-149217219D02*
X143070802Y-149217219D01*
X143070802Y-149217219D02*
X143166040Y-149169600D01*
X143166040Y-149169600D02*
X143213659Y-149074361D01*
X143213659Y-149074361D02*
X143213659Y-148693409D01*
X143213659Y-148693409D02*
X143166040Y-148598171D01*
X143166040Y-148598171D02*
X143070802Y-148550552D01*
X143070802Y-148550552D02*
X142880326Y-148550552D01*
X142880326Y-148550552D02*
X142785088Y-148598171D01*
X142785088Y-148598171D02*
X142737469Y-148693409D01*
X142737469Y-148693409D02*
X142737469Y-148788647D01*
X142737469Y-148788647D02*
X143213659Y-148883885D01*
X141880326Y-149169600D02*
X141975564Y-149217219D01*
X141975564Y-149217219D02*
X142166040Y-149217219D01*
X142166040Y-149217219D02*
X142261278Y-149169600D01*
X142261278Y-149169600D02*
X142308897Y-149121980D01*
X142308897Y-149121980D02*
X142356516Y-149026742D01*
X142356516Y-149026742D02*
X142356516Y-148741028D01*
X142356516Y-148741028D02*
X142308897Y-148645790D01*
X142308897Y-148645790D02*
X142261278Y-148598171D01*
X142261278Y-148598171D02*
X142166040Y-148550552D01*
X142166040Y-148550552D02*
X141975564Y-148550552D01*
X141975564Y-148550552D02*
X141880326Y-148598171D01*
X141451754Y-149217219D02*
X141451754Y-148550552D01*
X141451754Y-148217219D02*
X141499373Y-148264838D01*
X141499373Y-148264838D02*
X141451754Y-148312457D01*
X141451754Y-148312457D02*
X141404135Y-148264838D01*
X141404135Y-148264838D02*
X141451754Y-148217219D01*
X141451754Y-148217219D02*
X141451754Y-148312457D01*
X140546993Y-149217219D02*
X140546993Y-148693409D01*
X140546993Y-148693409D02*
X140594612Y-148598171D01*
X140594612Y-148598171D02*
X140689850Y-148550552D01*
X140689850Y-148550552D02*
X140880326Y-148550552D01*
X140880326Y-148550552D02*
X140975564Y-148598171D01*
X140546993Y-149169600D02*
X140642231Y-149217219D01*
X140642231Y-149217219D02*
X140880326Y-149217219D01*
X140880326Y-149217219D02*
X140975564Y-149169600D01*
X140975564Y-149169600D02*
X141023183Y-149074361D01*
X141023183Y-149074361D02*
X141023183Y-148979123D01*
X141023183Y-148979123D02*
X140975564Y-148883885D01*
X140975564Y-148883885D02*
X140880326Y-148836266D01*
X140880326Y-148836266D02*
X140642231Y-148836266D01*
X140642231Y-148836266D02*
X140546993Y-148788647D01*
X139927945Y-149217219D02*
X140023183Y-149169600D01*
X140023183Y-149169600D02*
X140070802Y-149074361D01*
X140070802Y-149074361D02*
X140070802Y-148217219D01*
X138927944Y-148550552D02*
X138546992Y-148550552D01*
X138785087Y-148217219D02*
X138785087Y-149074361D01*
X138785087Y-149074361D02*
X138737468Y-149169600D01*
X138737468Y-149169600D02*
X138642230Y-149217219D01*
X138642230Y-149217219D02*
X138546992Y-149217219D01*
X138213658Y-149217219D02*
X138213658Y-148217219D01*
X137785087Y-149217219D02*
X137785087Y-148693409D01*
X137785087Y-148693409D02*
X137832706Y-148598171D01*
X137832706Y-148598171D02*
X137927944Y-148550552D01*
X137927944Y-148550552D02*
X138070801Y-148550552D01*
X138070801Y-148550552D02*
X138166039Y-148598171D01*
X138166039Y-148598171D02*
X138213658Y-148645790D01*
X136880325Y-149217219D02*
X136880325Y-148693409D01*
X136880325Y-148693409D02*
X136927944Y-148598171D01*
X136927944Y-148598171D02*
X137023182Y-148550552D01*
X137023182Y-148550552D02*
X137213658Y-148550552D01*
X137213658Y-148550552D02*
X137308896Y-148598171D01*
X136880325Y-149169600D02*
X136975563Y-149217219D01*
X136975563Y-149217219D02*
X137213658Y-149217219D01*
X137213658Y-149217219D02*
X137308896Y-149169600D01*
X137308896Y-149169600D02*
X137356515Y-149074361D01*
X137356515Y-149074361D02*
X137356515Y-148979123D01*
X137356515Y-148979123D02*
X137308896Y-148883885D01*
X137308896Y-148883885D02*
X137213658Y-148836266D01*
X137213658Y-148836266D02*
X136975563Y-148836266D01*
X136975563Y-148836266D02*
X136880325Y-148788647D01*
X136404134Y-148550552D02*
X136404134Y-149217219D01*
X136404134Y-148645790D02*
X136356515Y-148598171D01*
X136356515Y-148598171D02*
X136261277Y-148550552D01*
X136261277Y-148550552D02*
X136118420Y-148550552D01*
X136118420Y-148550552D02*
X136023182Y-148598171D01*
X136023182Y-148598171D02*
X135975563Y-148693409D01*
X135975563Y-148693409D02*
X135975563Y-149217219D01*
X135499372Y-149217219D02*
X135499372Y-148217219D01*
X135404134Y-148836266D02*
X135118420Y-149217219D01*
X135118420Y-148550552D02*
X135499372Y-148931504D01*
X134737467Y-149169600D02*
X134642229Y-149217219D01*
X134642229Y-149217219D02*
X134451753Y-149217219D01*
X134451753Y-149217219D02*
X134356515Y-149169600D01*
X134356515Y-149169600D02*
X134308896Y-149074361D01*
X134308896Y-149074361D02*
X134308896Y-149026742D01*
X134308896Y-149026742D02*
X134356515Y-148931504D01*
X134356515Y-148931504D02*
X134451753Y-148883885D01*
X134451753Y-148883885D02*
X134594610Y-148883885D01*
X134594610Y-148883885D02*
X134689848Y-148836266D01*
X134689848Y-148836266D02*
X134737467Y-148741028D01*
X134737467Y-148741028D02*
X134737467Y-148693409D01*
X134737467Y-148693409D02*
X134689848Y-148598171D01*
X134689848Y-148598171D02*
X134594610Y-148550552D01*
X134594610Y-148550552D02*
X134451753Y-148550552D01*
X134451753Y-148550552D02*
X134356515Y-148598171D01*
X133261276Y-148550552D02*
X132880324Y-148550552D01*
X133118419Y-148217219D02*
X133118419Y-149074361D01*
X133118419Y-149074361D02*
X133070800Y-149169600D01*
X133070800Y-149169600D02*
X132975562Y-149217219D01*
X132975562Y-149217219D02*
X132880324Y-149217219D01*
X132404133Y-149217219D02*
X132499371Y-149169600D01*
X132499371Y-149169600D02*
X132546990Y-149121980D01*
X132546990Y-149121980D02*
X132594609Y-149026742D01*
X132594609Y-149026742D02*
X132594609Y-148741028D01*
X132594609Y-148741028D02*
X132546990Y-148645790D01*
X132546990Y-148645790D02*
X132499371Y-148598171D01*
X132499371Y-148598171D02*
X132404133Y-148550552D01*
X132404133Y-148550552D02*
X132261276Y-148550552D01*
X132261276Y-148550552D02*
X132166038Y-148598171D01*
X132166038Y-148598171D02*
X132118419Y-148645790D01*
X132118419Y-148645790D02*
X132070800Y-148741028D01*
X132070800Y-148741028D02*
X132070800Y-149026742D01*
X132070800Y-149026742D02*
X132118419Y-149121980D01*
X132118419Y-149121980D02*
X132166038Y-149169600D01*
X132166038Y-149169600D02*
X132261276Y-149217219D01*
X132261276Y-149217219D02*
X132404133Y-149217219D01*
X130880323Y-149217219D02*
X130880323Y-148217219D01*
X130880323Y-148598171D02*
X130785085Y-148550552D01*
X130785085Y-148550552D02*
X130594609Y-148550552D01*
X130594609Y-148550552D02*
X130499371Y-148598171D01*
X130499371Y-148598171D02*
X130451752Y-148645790D01*
X130451752Y-148645790D02*
X130404133Y-148741028D01*
X130404133Y-148741028D02*
X130404133Y-149026742D01*
X130404133Y-149026742D02*
X130451752Y-149121980D01*
X130451752Y-149121980D02*
X130499371Y-149169600D01*
X130499371Y-149169600D02*
X130594609Y-149217219D01*
X130594609Y-149217219D02*
X130785085Y-149217219D01*
X130785085Y-149217219D02*
X130880323Y-149169600D01*
X129546990Y-148550552D02*
X129546990Y-149217219D01*
X129975561Y-148550552D02*
X129975561Y-149074361D01*
X129975561Y-149074361D02*
X129927942Y-149169600D01*
X129927942Y-149169600D02*
X129832704Y-149217219D01*
X129832704Y-149217219D02*
X129689847Y-149217219D01*
X129689847Y-149217219D02*
X129594609Y-149169600D01*
X129594609Y-149169600D02*
X129546990Y-149121980D01*
X129070799Y-148550552D02*
X129070799Y-149217219D01*
X129070799Y-148645790D02*
X129023180Y-148598171D01*
X129023180Y-148598171D02*
X128927942Y-148550552D01*
X128927942Y-148550552D02*
X128785085Y-148550552D01*
X128785085Y-148550552D02*
X128689847Y-148598171D01*
X128689847Y-148598171D02*
X128642228Y-148693409D01*
X128642228Y-148693409D02*
X128642228Y-149217219D01*
X128308894Y-148550552D02*
X127927942Y-148550552D01*
X128166037Y-148217219D02*
X128166037Y-149074361D01*
X128166037Y-149074361D02*
X128118418Y-149169600D01*
X128118418Y-149169600D02*
X128023180Y-149217219D01*
X128023180Y-149217219D02*
X127927942Y-149217219D01*
X127689846Y-148550552D02*
X127451751Y-149217219D01*
X127213656Y-148550552D02*
X127451751Y-149217219D01*
X127451751Y-149217219D02*
X127546989Y-149455314D01*
X127546989Y-149455314D02*
X127594608Y-149502933D01*
X127594608Y-149502933D02*
X127689846Y-149550552D01*
X128380326Y-77912120D02*
X128380326Y-76412120D01*
X128380326Y-76412120D02*
X128142231Y-76412120D01*
X128142231Y-76412120D02*
X127999374Y-76483549D01*
X127999374Y-76483549D02*
X127904136Y-76626406D01*
X127904136Y-76626406D02*
X127856517Y-76769263D01*
X127856517Y-76769263D02*
X127808898Y-77054977D01*
X127808898Y-77054977D02*
X127808898Y-77269263D01*
X127808898Y-77269263D02*
X127856517Y-77554977D01*
X127856517Y-77554977D02*
X127904136Y-77697834D01*
X127904136Y-77697834D02*
X127999374Y-77840692D01*
X127999374Y-77840692D02*
X128142231Y-77912120D01*
X128142231Y-77912120D02*
X128380326Y-77912120D01*
X127189850Y-76412120D02*
X127094612Y-76412120D01*
X127094612Y-76412120D02*
X126999374Y-76483549D01*
X126999374Y-76483549D02*
X126951755Y-76554977D01*
X126951755Y-76554977D02*
X126904136Y-76697834D01*
X126904136Y-76697834D02*
X126856517Y-76983549D01*
X126856517Y-76983549D02*
X126856517Y-77340692D01*
X126856517Y-77340692D02*
X126904136Y-77626406D01*
X126904136Y-77626406D02*
X126951755Y-77769263D01*
X126951755Y-77769263D02*
X126999374Y-77840692D01*
X126999374Y-77840692D02*
X127094612Y-77912120D01*
X127094612Y-77912120D02*
X127189850Y-77912120D01*
X127189850Y-77912120D02*
X127285088Y-77840692D01*
X127285088Y-77840692D02*
X127332707Y-77769263D01*
X127332707Y-77769263D02*
X127380326Y-77626406D01*
X127380326Y-77626406D02*
X127427945Y-77340692D01*
X127427945Y-77340692D02*
X127427945Y-76983549D01*
X127427945Y-76983549D02*
X127380326Y-76697834D01*
X127380326Y-76697834D02*
X127332707Y-76554977D01*
X127332707Y-76554977D02*
X127285088Y-76483549D01*
X127285088Y-76483549D02*
X127189850Y-76412120D01*
X126427945Y-77340692D02*
X125666041Y-77340692D01*
X125332707Y-76412120D02*
X124761279Y-76412120D01*
X125046993Y-77912120D02*
X125046993Y-76412120D01*
X124523183Y-76412120D02*
X123856517Y-77912120D01*
X123856517Y-76412120D02*
X124523183Y-77912120D01*
X123713660Y-78054977D02*
X122951755Y-78054977D01*
X122142231Y-77912120D02*
X122475564Y-77197834D01*
X122713659Y-77912120D02*
X122713659Y-76412120D01*
X122713659Y-76412120D02*
X122332707Y-76412120D01*
X122332707Y-76412120D02*
X122237469Y-76483549D01*
X122237469Y-76483549D02*
X122189850Y-76554977D01*
X122189850Y-76554977D02*
X122142231Y-76697834D01*
X122142231Y-76697834D02*
X122142231Y-76912120D01*
X122142231Y-76912120D02*
X122189850Y-77054977D01*
X122189850Y-77054977D02*
X122237469Y-77126406D01*
X122237469Y-77126406D02*
X122332707Y-77197834D01*
X122332707Y-77197834D02*
X122713659Y-77197834D01*
X121523183Y-77197834D02*
X121523183Y-77912120D01*
X121856516Y-76412120D02*
X121523183Y-77197834D01*
X121523183Y-77197834D02*
X121189850Y-76412120D01*
X120380326Y-77912120D02*
X120856516Y-77912120D01*
X120856516Y-77912120D02*
X120856516Y-76412120D01*
X119475564Y-77912120D02*
X119808897Y-77197834D01*
X120046992Y-77912120D02*
X120046992Y-76412120D01*
X120046992Y-76412120D02*
X119666040Y-76412120D01*
X119666040Y-76412120D02*
X119570802Y-76483549D01*
X119570802Y-76483549D02*
X119523183Y-76554977D01*
X119523183Y-76554977D02*
X119475564Y-76697834D01*
X119475564Y-76697834D02*
X119475564Y-76912120D01*
X119475564Y-76912120D02*
X119523183Y-77054977D01*
X119523183Y-77054977D02*
X119570802Y-77126406D01*
X119570802Y-77126406D02*
X119666040Y-77197834D01*
X119666040Y-77197834D02*
X120046992Y-77197834D01*
X128380326Y-80327036D02*
X128380326Y-78827036D01*
X128380326Y-78827036D02*
X128142231Y-78827036D01*
X128142231Y-78827036D02*
X127999374Y-78898465D01*
X127999374Y-78898465D02*
X127904136Y-79041322D01*
X127904136Y-79041322D02*
X127856517Y-79184179D01*
X127856517Y-79184179D02*
X127808898Y-79469893D01*
X127808898Y-79469893D02*
X127808898Y-79684179D01*
X127808898Y-79684179D02*
X127856517Y-79969893D01*
X127856517Y-79969893D02*
X127904136Y-80112750D01*
X127904136Y-80112750D02*
X127999374Y-80255608D01*
X127999374Y-80255608D02*
X128142231Y-80327036D01*
X128142231Y-80327036D02*
X128380326Y-80327036D01*
X126856517Y-80327036D02*
X127427945Y-80327036D01*
X127142231Y-80327036D02*
X127142231Y-78827036D01*
X127142231Y-78827036D02*
X127237469Y-79041322D01*
X127237469Y-79041322D02*
X127332707Y-79184179D01*
X127332707Y-79184179D02*
X127427945Y-79255608D01*
X126427945Y-79755608D02*
X125666041Y-79755608D01*
X124618422Y-80327036D02*
X124951755Y-79612750D01*
X125189850Y-80327036D02*
X125189850Y-78827036D01*
X125189850Y-78827036D02*
X124808898Y-78827036D01*
X124808898Y-78827036D02*
X124713660Y-78898465D01*
X124713660Y-78898465D02*
X124666041Y-78969893D01*
X124666041Y-78969893D02*
X124618422Y-79112750D01*
X124618422Y-79112750D02*
X124618422Y-79327036D01*
X124618422Y-79327036D02*
X124666041Y-79469893D01*
X124666041Y-79469893D02*
X124713660Y-79541322D01*
X124713660Y-79541322D02*
X124808898Y-79612750D01*
X124808898Y-79612750D02*
X125189850Y-79612750D01*
X124285088Y-78827036D02*
X123618422Y-80327036D01*
X123618422Y-78827036D02*
X124285088Y-80327036D01*
X123475565Y-80469893D02*
X122713660Y-80469893D01*
X121904136Y-80327036D02*
X122237469Y-79612750D01*
X122475564Y-80327036D02*
X122475564Y-78827036D01*
X122475564Y-78827036D02*
X122094612Y-78827036D01*
X122094612Y-78827036D02*
X121999374Y-78898465D01*
X121999374Y-78898465D02*
X121951755Y-78969893D01*
X121951755Y-78969893D02*
X121904136Y-79112750D01*
X121904136Y-79112750D02*
X121904136Y-79327036D01*
X121904136Y-79327036D02*
X121951755Y-79469893D01*
X121951755Y-79469893D02*
X121999374Y-79541322D01*
X121999374Y-79541322D02*
X122094612Y-79612750D01*
X122094612Y-79612750D02*
X122475564Y-79612750D01*
X121285088Y-79612750D02*
X121285088Y-80327036D01*
X121618421Y-78827036D02*
X121285088Y-79612750D01*
X121285088Y-79612750D02*
X120951755Y-78827036D01*
X120142231Y-80327036D02*
X120618421Y-80327036D01*
X120618421Y-80327036D02*
X120618421Y-78827036D01*
X119237469Y-80327036D02*
X119570802Y-79612750D01*
X119808897Y-80327036D02*
X119808897Y-78827036D01*
X119808897Y-78827036D02*
X119427945Y-78827036D01*
X119427945Y-78827036D02*
X119332707Y-78898465D01*
X119332707Y-78898465D02*
X119285088Y-78969893D01*
X119285088Y-78969893D02*
X119237469Y-79112750D01*
X119237469Y-79112750D02*
X119237469Y-79327036D01*
X119237469Y-79327036D02*
X119285088Y-79469893D01*
X119285088Y-79469893D02*
X119332707Y-79541322D01*
X119332707Y-79541322D02*
X119427945Y-79612750D01*
X119427945Y-79612750D02*
X119808897Y-79612750D01*
X128380326Y-82741952D02*
X128380326Y-81241952D01*
X128380326Y-81241952D02*
X128142231Y-81241952D01*
X128142231Y-81241952D02*
X127999374Y-81313381D01*
X127999374Y-81313381D02*
X127904136Y-81456238D01*
X127904136Y-81456238D02*
X127856517Y-81599095D01*
X127856517Y-81599095D02*
X127808898Y-81884809D01*
X127808898Y-81884809D02*
X127808898Y-82099095D01*
X127808898Y-82099095D02*
X127856517Y-82384809D01*
X127856517Y-82384809D02*
X127904136Y-82527666D01*
X127904136Y-82527666D02*
X127999374Y-82670524D01*
X127999374Y-82670524D02*
X128142231Y-82741952D01*
X128142231Y-82741952D02*
X128380326Y-82741952D01*
X127427945Y-81384809D02*
X127380326Y-81313381D01*
X127380326Y-81313381D02*
X127285088Y-81241952D01*
X127285088Y-81241952D02*
X127046993Y-81241952D01*
X127046993Y-81241952D02*
X126951755Y-81313381D01*
X126951755Y-81313381D02*
X126904136Y-81384809D01*
X126904136Y-81384809D02*
X126856517Y-81527666D01*
X126856517Y-81527666D02*
X126856517Y-81670524D01*
X126856517Y-81670524D02*
X126904136Y-81884809D01*
X126904136Y-81884809D02*
X127475564Y-82741952D01*
X127475564Y-82741952D02*
X126856517Y-82741952D01*
X126427945Y-82170524D02*
X125666041Y-82170524D01*
X124713660Y-82741952D02*
X125189850Y-82741952D01*
X125189850Y-82741952D02*
X125189850Y-81241952D01*
X124427945Y-82313381D02*
X123951755Y-82313381D01*
X124523183Y-82741952D02*
X124189850Y-81241952D01*
X124189850Y-81241952D02*
X123856517Y-82741952D01*
X123523183Y-81241952D02*
X123523183Y-82456238D01*
X123523183Y-82456238D02*
X123475564Y-82599095D01*
X123475564Y-82599095D02*
X123427945Y-82670524D01*
X123427945Y-82670524D02*
X123332707Y-82741952D01*
X123332707Y-82741952D02*
X123142231Y-82741952D01*
X123142231Y-82741952D02*
X123046993Y-82670524D01*
X123046993Y-82670524D02*
X122999374Y-82599095D01*
X122999374Y-82599095D02*
X122951755Y-82456238D01*
X122951755Y-82456238D02*
X122951755Y-81241952D01*
X122475564Y-82741952D02*
X122475564Y-81241952D01*
X122475564Y-81241952D02*
X121904136Y-82741952D01*
X121904136Y-82741952D02*
X121904136Y-81241952D01*
X120856517Y-82599095D02*
X120904136Y-82670524D01*
X120904136Y-82670524D02*
X121046993Y-82741952D01*
X121046993Y-82741952D02*
X121142231Y-82741952D01*
X121142231Y-82741952D02*
X121285088Y-82670524D01*
X121285088Y-82670524D02*
X121380326Y-82527666D01*
X121380326Y-82527666D02*
X121427945Y-82384809D01*
X121427945Y-82384809D02*
X121475564Y-82099095D01*
X121475564Y-82099095D02*
X121475564Y-81884809D01*
X121475564Y-81884809D02*
X121427945Y-81599095D01*
X121427945Y-81599095D02*
X121380326Y-81456238D01*
X121380326Y-81456238D02*
X121285088Y-81313381D01*
X121285088Y-81313381D02*
X121142231Y-81241952D01*
X121142231Y-81241952D02*
X121046993Y-81241952D01*
X121046993Y-81241952D02*
X120904136Y-81313381D01*
X120904136Y-81313381D02*
X120856517Y-81384809D01*
X120427945Y-82741952D02*
X120427945Y-81241952D01*
X120427945Y-81956238D02*
X119856517Y-81956238D01*
X119856517Y-82741952D02*
X119856517Y-81241952D01*
X119618422Y-82884809D02*
X118856517Y-82884809D01*
X118142231Y-82741952D02*
X118618421Y-82741952D01*
X118618421Y-82741952D02*
X118618421Y-81241952D01*
X117808897Y-81956238D02*
X117475564Y-81956238D01*
X117332707Y-82741952D02*
X117808897Y-82741952D01*
X117808897Y-82741952D02*
X117808897Y-81241952D01*
X117808897Y-81241952D02*
X117332707Y-81241952D01*
X116904135Y-82741952D02*
X116904135Y-81241952D01*
X116904135Y-81241952D02*
X116666040Y-81241952D01*
X116666040Y-81241952D02*
X116523183Y-81313381D01*
X116523183Y-81313381D02*
X116427945Y-81456238D01*
X116427945Y-81456238D02*
X116380326Y-81599095D01*
X116380326Y-81599095D02*
X116332707Y-81884809D01*
X116332707Y-81884809D02*
X116332707Y-82099095D01*
X116332707Y-82099095D02*
X116380326Y-82384809D01*
X116380326Y-82384809D02*
X116427945Y-82527666D01*
X116427945Y-82527666D02*
X116523183Y-82670524D01*
X116523183Y-82670524D02*
X116666040Y-82741952D01*
X116666040Y-82741952D02*
X116904135Y-82741952D01*
X128380326Y-85156868D02*
X128380326Y-83656868D01*
X128380326Y-83656868D02*
X128142231Y-83656868D01*
X128142231Y-83656868D02*
X127999374Y-83728297D01*
X127999374Y-83728297D02*
X127904136Y-83871154D01*
X127904136Y-83871154D02*
X127856517Y-84014011D01*
X127856517Y-84014011D02*
X127808898Y-84299725D01*
X127808898Y-84299725D02*
X127808898Y-84514011D01*
X127808898Y-84514011D02*
X127856517Y-84799725D01*
X127856517Y-84799725D02*
X127904136Y-84942582D01*
X127904136Y-84942582D02*
X127999374Y-85085440D01*
X127999374Y-85085440D02*
X128142231Y-85156868D01*
X128142231Y-85156868D02*
X128380326Y-85156868D01*
X126951755Y-84156868D02*
X126951755Y-85156868D01*
X127189850Y-83585440D02*
X127427945Y-84656868D01*
X127427945Y-84656868D02*
X126808898Y-84656868D01*
X126427945Y-84585440D02*
X125666041Y-84585440D01*
X125237469Y-84728297D02*
X124761279Y-84728297D01*
X125332707Y-85156868D02*
X124999374Y-83656868D01*
X124999374Y-83656868D02*
X124666041Y-85156868D01*
X123761279Y-85156868D02*
X124094612Y-84442582D01*
X124332707Y-85156868D02*
X124332707Y-83656868D01*
X124332707Y-83656868D02*
X123951755Y-83656868D01*
X123951755Y-83656868D02*
X123856517Y-83728297D01*
X123856517Y-83728297D02*
X123808898Y-83799725D01*
X123808898Y-83799725D02*
X123761279Y-83942582D01*
X123761279Y-83942582D02*
X123761279Y-84156868D01*
X123761279Y-84156868D02*
X123808898Y-84299725D01*
X123808898Y-84299725D02*
X123856517Y-84371154D01*
X123856517Y-84371154D02*
X123951755Y-84442582D01*
X123951755Y-84442582D02*
X124332707Y-84442582D01*
X123332707Y-85156868D02*
X123332707Y-83656868D01*
X123332707Y-83656868D02*
X122999374Y-84728297D01*
X122999374Y-84728297D02*
X122666041Y-83656868D01*
X122666041Y-83656868D02*
X122666041Y-85156868D01*
X122427946Y-85299725D02*
X121666041Y-85299725D01*
X120951755Y-85156868D02*
X121427945Y-85156868D01*
X121427945Y-85156868D02*
X121427945Y-83656868D01*
X120618421Y-84371154D02*
X120285088Y-84371154D01*
X120142231Y-85156868D02*
X120618421Y-85156868D01*
X120618421Y-85156868D02*
X120618421Y-83656868D01*
X120618421Y-83656868D02*
X120142231Y-83656868D01*
X119713659Y-85156868D02*
X119713659Y-83656868D01*
X119713659Y-83656868D02*
X119475564Y-83656868D01*
X119475564Y-83656868D02*
X119332707Y-83728297D01*
X119332707Y-83728297D02*
X119237469Y-83871154D01*
X119237469Y-83871154D02*
X119189850Y-84014011D01*
X119189850Y-84014011D02*
X119142231Y-84299725D01*
X119142231Y-84299725D02*
X119142231Y-84514011D01*
X119142231Y-84514011D02*
X119189850Y-84799725D01*
X119189850Y-84799725D02*
X119237469Y-84942582D01*
X119237469Y-84942582D02*
X119332707Y-85085440D01*
X119332707Y-85085440D02*
X119475564Y-85156868D01*
X119475564Y-85156868D02*
X119713659Y-85156868D01*
X128380326Y-87571784D02*
X128380326Y-86071784D01*
X128380326Y-86071784D02*
X128142231Y-86071784D01*
X128142231Y-86071784D02*
X127999374Y-86143213D01*
X127999374Y-86143213D02*
X127904136Y-86286070D01*
X127904136Y-86286070D02*
X127856517Y-86428927D01*
X127856517Y-86428927D02*
X127808898Y-86714641D01*
X127808898Y-86714641D02*
X127808898Y-86928927D01*
X127808898Y-86928927D02*
X127856517Y-87214641D01*
X127856517Y-87214641D02*
X127904136Y-87357498D01*
X127904136Y-87357498D02*
X127999374Y-87500356D01*
X127999374Y-87500356D02*
X128142231Y-87571784D01*
X128142231Y-87571784D02*
X128380326Y-87571784D01*
X127475564Y-86071784D02*
X126856517Y-86071784D01*
X126856517Y-86071784D02*
X127189850Y-86643213D01*
X127189850Y-86643213D02*
X127046993Y-86643213D01*
X127046993Y-86643213D02*
X126951755Y-86714641D01*
X126951755Y-86714641D02*
X126904136Y-86786070D01*
X126904136Y-86786070D02*
X126856517Y-86928927D01*
X126856517Y-86928927D02*
X126856517Y-87286070D01*
X126856517Y-87286070D02*
X126904136Y-87428927D01*
X126904136Y-87428927D02*
X126951755Y-87500356D01*
X126951755Y-87500356D02*
X127046993Y-87571784D01*
X127046993Y-87571784D02*
X127332707Y-87571784D01*
X127332707Y-87571784D02*
X127427945Y-87500356D01*
X127427945Y-87500356D02*
X127475564Y-87428927D01*
X126427945Y-87000356D02*
X125666041Y-87000356D01*
X125189850Y-87571784D02*
X125189850Y-86071784D01*
X125189850Y-86071784D02*
X124951755Y-86071784D01*
X124951755Y-86071784D02*
X124808898Y-86143213D01*
X124808898Y-86143213D02*
X124713660Y-86286070D01*
X124713660Y-86286070D02*
X124666041Y-86428927D01*
X124666041Y-86428927D02*
X124618422Y-86714641D01*
X124618422Y-86714641D02*
X124618422Y-86928927D01*
X124618422Y-86928927D02*
X124666041Y-87214641D01*
X124666041Y-87214641D02*
X124713660Y-87357498D01*
X124713660Y-87357498D02*
X124808898Y-87500356D01*
X124808898Y-87500356D02*
X124951755Y-87571784D01*
X124951755Y-87571784D02*
X125189850Y-87571784D01*
X123761279Y-86571784D02*
X123761279Y-87571784D01*
X123999374Y-86000356D02*
X124237469Y-87071784D01*
X124237469Y-87071784D02*
X123618422Y-87071784D01*
X122713660Y-87571784D02*
X123285088Y-87571784D01*
X122999374Y-87571784D02*
X122999374Y-86071784D01*
X122999374Y-86071784D02*
X123094612Y-86286070D01*
X123094612Y-86286070D02*
X123189850Y-86428927D01*
X123189850Y-86428927D02*
X123285088Y-86500356D01*
X122142231Y-86714641D02*
X122237469Y-86643213D01*
X122237469Y-86643213D02*
X122285088Y-86571784D01*
X122285088Y-86571784D02*
X122332707Y-86428927D01*
X122332707Y-86428927D02*
X122332707Y-86357498D01*
X122332707Y-86357498D02*
X122285088Y-86214641D01*
X122285088Y-86214641D02*
X122237469Y-86143213D01*
X122237469Y-86143213D02*
X122142231Y-86071784D01*
X122142231Y-86071784D02*
X121951755Y-86071784D01*
X121951755Y-86071784D02*
X121856517Y-86143213D01*
X121856517Y-86143213D02*
X121808898Y-86214641D01*
X121808898Y-86214641D02*
X121761279Y-86357498D01*
X121761279Y-86357498D02*
X121761279Y-86428927D01*
X121761279Y-86428927D02*
X121808898Y-86571784D01*
X121808898Y-86571784D02*
X121856517Y-86643213D01*
X121856517Y-86643213D02*
X121951755Y-86714641D01*
X121951755Y-86714641D02*
X122142231Y-86714641D01*
X122142231Y-86714641D02*
X122237469Y-86786070D01*
X122237469Y-86786070D02*
X122285088Y-86857498D01*
X122285088Y-86857498D02*
X122332707Y-87000356D01*
X122332707Y-87000356D02*
X122332707Y-87286070D01*
X122332707Y-87286070D02*
X122285088Y-87428927D01*
X122285088Y-87428927D02*
X122237469Y-87500356D01*
X122237469Y-87500356D02*
X122142231Y-87571784D01*
X122142231Y-87571784D02*
X121951755Y-87571784D01*
X121951755Y-87571784D02*
X121856517Y-87500356D01*
X121856517Y-87500356D02*
X121808898Y-87428927D01*
X121808898Y-87428927D02*
X121761279Y-87286070D01*
X121761279Y-87286070D02*
X121761279Y-87000356D01*
X121761279Y-87000356D02*
X121808898Y-86857498D01*
X121808898Y-86857498D02*
X121856517Y-86786070D01*
X121856517Y-86786070D02*
X121951755Y-86714641D01*
X120904136Y-86571784D02*
X120904136Y-87571784D01*
X121142231Y-86000356D02*
X121380326Y-87071784D01*
X121380326Y-87071784D02*
X120761279Y-87071784D01*
X120094612Y-88143213D02*
X120142231Y-88071784D01*
X120142231Y-88071784D02*
X120237469Y-87857498D01*
X120237469Y-87857498D02*
X120285088Y-87714641D01*
X120285088Y-87714641D02*
X120332707Y-87500356D01*
X120332707Y-87500356D02*
X120380326Y-87143213D01*
X120380326Y-87143213D02*
X120380326Y-86857498D01*
X120380326Y-86857498D02*
X120332707Y-86500356D01*
X120332707Y-86500356D02*
X120285088Y-86286070D01*
X120285088Y-86286070D02*
X120237469Y-86143213D01*
X120237469Y-86143213D02*
X120142231Y-85928927D01*
X120142231Y-85928927D02*
X120094612Y-85857498D01*
X119189850Y-87571784D02*
X119761278Y-87571784D01*
X119475564Y-87571784D02*
X119475564Y-86071784D01*
X119475564Y-86071784D02*
X119570802Y-86286070D01*
X119570802Y-86286070D02*
X119666040Y-86428927D01*
X119666040Y-86428927D02*
X119761278Y-86500356D01*
X118856516Y-88143213D02*
X118808897Y-88071784D01*
X118808897Y-88071784D02*
X118713659Y-87857498D01*
X118713659Y-87857498D02*
X118666040Y-87714641D01*
X118666040Y-87714641D02*
X118618421Y-87500356D01*
X118618421Y-87500356D02*
X118570802Y-87143213D01*
X118570802Y-87143213D02*
X118570802Y-86857498D01*
X118570802Y-86857498D02*
X118618421Y-86500356D01*
X118618421Y-86500356D02*
X118666040Y-86286070D01*
X118666040Y-86286070D02*
X118713659Y-86143213D01*
X118713659Y-86143213D02*
X118808897Y-85928927D01*
X118808897Y-85928927D02*
X118856516Y-85857498D01*
X128380326Y-89986700D02*
X128380326Y-88486700D01*
X128380326Y-88486700D02*
X128142231Y-88486700D01*
X128142231Y-88486700D02*
X127999374Y-88558129D01*
X127999374Y-88558129D02*
X127904136Y-88700986D01*
X127904136Y-88700986D02*
X127856517Y-88843843D01*
X127856517Y-88843843D02*
X127808898Y-89129557D01*
X127808898Y-89129557D02*
X127808898Y-89343843D01*
X127808898Y-89343843D02*
X127856517Y-89629557D01*
X127856517Y-89629557D02*
X127904136Y-89772414D01*
X127904136Y-89772414D02*
X127999374Y-89915272D01*
X127999374Y-89915272D02*
X128142231Y-89986700D01*
X128142231Y-89986700D02*
X128380326Y-89986700D01*
X126951755Y-88486700D02*
X127142231Y-88486700D01*
X127142231Y-88486700D02*
X127237469Y-88558129D01*
X127237469Y-88558129D02*
X127285088Y-88629557D01*
X127285088Y-88629557D02*
X127380326Y-88843843D01*
X127380326Y-88843843D02*
X127427945Y-89129557D01*
X127427945Y-89129557D02*
X127427945Y-89700986D01*
X127427945Y-89700986D02*
X127380326Y-89843843D01*
X127380326Y-89843843D02*
X127332707Y-89915272D01*
X127332707Y-89915272D02*
X127237469Y-89986700D01*
X127237469Y-89986700D02*
X127046993Y-89986700D01*
X127046993Y-89986700D02*
X126951755Y-89915272D01*
X126951755Y-89915272D02*
X126904136Y-89843843D01*
X126904136Y-89843843D02*
X126856517Y-89700986D01*
X126856517Y-89700986D02*
X126856517Y-89343843D01*
X126856517Y-89343843D02*
X126904136Y-89200986D01*
X126904136Y-89200986D02*
X126951755Y-89129557D01*
X126951755Y-89129557D02*
X127046993Y-89058129D01*
X127046993Y-89058129D02*
X127237469Y-89058129D01*
X127237469Y-89058129D02*
X127332707Y-89129557D01*
X127332707Y-89129557D02*
X127380326Y-89200986D01*
X127380326Y-89200986D02*
X127427945Y-89343843D01*
X126427945Y-89415272D02*
X125666041Y-89415272D01*
X125189850Y-89986700D02*
X125189850Y-88486700D01*
X125189850Y-88486700D02*
X124951755Y-88486700D01*
X124951755Y-88486700D02*
X124808898Y-88558129D01*
X124808898Y-88558129D02*
X124713660Y-88700986D01*
X124713660Y-88700986D02*
X124666041Y-88843843D01*
X124666041Y-88843843D02*
X124618422Y-89129557D01*
X124618422Y-89129557D02*
X124618422Y-89343843D01*
X124618422Y-89343843D02*
X124666041Y-89629557D01*
X124666041Y-89629557D02*
X124713660Y-89772414D01*
X124713660Y-89772414D02*
X124808898Y-89915272D01*
X124808898Y-89915272D02*
X124951755Y-89986700D01*
X124951755Y-89986700D02*
X125189850Y-89986700D01*
X123761279Y-88986700D02*
X123761279Y-89986700D01*
X123999374Y-88415272D02*
X124237469Y-89486700D01*
X124237469Y-89486700D02*
X123618422Y-89486700D01*
X122713660Y-89986700D02*
X123285088Y-89986700D01*
X122999374Y-89986700D02*
X122999374Y-88486700D01*
X122999374Y-88486700D02*
X123094612Y-88700986D01*
X123094612Y-88700986D02*
X123189850Y-88843843D01*
X123189850Y-88843843D02*
X123285088Y-88915272D01*
X122142231Y-89129557D02*
X122237469Y-89058129D01*
X122237469Y-89058129D02*
X122285088Y-88986700D01*
X122285088Y-88986700D02*
X122332707Y-88843843D01*
X122332707Y-88843843D02*
X122332707Y-88772414D01*
X122332707Y-88772414D02*
X122285088Y-88629557D01*
X122285088Y-88629557D02*
X122237469Y-88558129D01*
X122237469Y-88558129D02*
X122142231Y-88486700D01*
X122142231Y-88486700D02*
X121951755Y-88486700D01*
X121951755Y-88486700D02*
X121856517Y-88558129D01*
X121856517Y-88558129D02*
X121808898Y-88629557D01*
X121808898Y-88629557D02*
X121761279Y-88772414D01*
X121761279Y-88772414D02*
X121761279Y-88843843D01*
X121761279Y-88843843D02*
X121808898Y-88986700D01*
X121808898Y-88986700D02*
X121856517Y-89058129D01*
X121856517Y-89058129D02*
X121951755Y-89129557D01*
X121951755Y-89129557D02*
X122142231Y-89129557D01*
X122142231Y-89129557D02*
X122237469Y-89200986D01*
X122237469Y-89200986D02*
X122285088Y-89272414D01*
X122285088Y-89272414D02*
X122332707Y-89415272D01*
X122332707Y-89415272D02*
X122332707Y-89700986D01*
X122332707Y-89700986D02*
X122285088Y-89843843D01*
X122285088Y-89843843D02*
X122237469Y-89915272D01*
X122237469Y-89915272D02*
X122142231Y-89986700D01*
X122142231Y-89986700D02*
X121951755Y-89986700D01*
X121951755Y-89986700D02*
X121856517Y-89915272D01*
X121856517Y-89915272D02*
X121808898Y-89843843D01*
X121808898Y-89843843D02*
X121761279Y-89700986D01*
X121761279Y-89700986D02*
X121761279Y-89415272D01*
X121761279Y-89415272D02*
X121808898Y-89272414D01*
X121808898Y-89272414D02*
X121856517Y-89200986D01*
X121856517Y-89200986D02*
X121951755Y-89129557D01*
X120904136Y-88986700D02*
X120904136Y-89986700D01*
X121142231Y-88415272D02*
X121380326Y-89486700D01*
X121380326Y-89486700D02*
X120761279Y-89486700D01*
X120094612Y-90558129D02*
X120142231Y-90486700D01*
X120142231Y-90486700D02*
X120237469Y-90272414D01*
X120237469Y-90272414D02*
X120285088Y-90129557D01*
X120285088Y-90129557D02*
X120332707Y-89915272D01*
X120332707Y-89915272D02*
X120380326Y-89558129D01*
X120380326Y-89558129D02*
X120380326Y-89272414D01*
X120380326Y-89272414D02*
X120332707Y-88915272D01*
X120332707Y-88915272D02*
X120285088Y-88700986D01*
X120285088Y-88700986D02*
X120237469Y-88558129D01*
X120237469Y-88558129D02*
X120142231Y-88343843D01*
X120142231Y-88343843D02*
X120094612Y-88272414D01*
X119761278Y-88629557D02*
X119713659Y-88558129D01*
X119713659Y-88558129D02*
X119618421Y-88486700D01*
X119618421Y-88486700D02*
X119380326Y-88486700D01*
X119380326Y-88486700D02*
X119285088Y-88558129D01*
X119285088Y-88558129D02*
X119237469Y-88629557D01*
X119237469Y-88629557D02*
X119189850Y-88772414D01*
X119189850Y-88772414D02*
X119189850Y-88915272D01*
X119189850Y-88915272D02*
X119237469Y-89129557D01*
X119237469Y-89129557D02*
X119808897Y-89986700D01*
X119808897Y-89986700D02*
X119189850Y-89986700D01*
X118856516Y-90558129D02*
X118808897Y-90486700D01*
X118808897Y-90486700D02*
X118713659Y-90272414D01*
X118713659Y-90272414D02*
X118666040Y-90129557D01*
X118666040Y-90129557D02*
X118618421Y-89915272D01*
X118618421Y-89915272D02*
X118570802Y-89558129D01*
X118570802Y-89558129D02*
X118570802Y-89272414D01*
X118570802Y-89272414D02*
X118618421Y-88915272D01*
X118618421Y-88915272D02*
X118666040Y-88700986D01*
X118666040Y-88700986D02*
X118713659Y-88558129D01*
X118713659Y-88558129D02*
X118808897Y-88343843D01*
X118808897Y-88343843D02*
X118856516Y-88272414D01*
X128380326Y-92401616D02*
X128380326Y-90901616D01*
X128380326Y-90901616D02*
X128142231Y-90901616D01*
X128142231Y-90901616D02*
X127999374Y-90973045D01*
X127999374Y-90973045D02*
X127904136Y-91115902D01*
X127904136Y-91115902D02*
X127856517Y-91258759D01*
X127856517Y-91258759D02*
X127808898Y-91544473D01*
X127808898Y-91544473D02*
X127808898Y-91758759D01*
X127808898Y-91758759D02*
X127856517Y-92044473D01*
X127856517Y-92044473D02*
X127904136Y-92187330D01*
X127904136Y-92187330D02*
X127999374Y-92330188D01*
X127999374Y-92330188D02*
X128142231Y-92401616D01*
X128142231Y-92401616D02*
X128380326Y-92401616D01*
X127332707Y-92401616D02*
X127142231Y-92401616D01*
X127142231Y-92401616D02*
X127046993Y-92330188D01*
X127046993Y-92330188D02*
X126999374Y-92258759D01*
X126999374Y-92258759D02*
X126904136Y-92044473D01*
X126904136Y-92044473D02*
X126856517Y-91758759D01*
X126856517Y-91758759D02*
X126856517Y-91187330D01*
X126856517Y-91187330D02*
X126904136Y-91044473D01*
X126904136Y-91044473D02*
X126951755Y-90973045D01*
X126951755Y-90973045D02*
X127046993Y-90901616D01*
X127046993Y-90901616D02*
X127237469Y-90901616D01*
X127237469Y-90901616D02*
X127332707Y-90973045D01*
X127332707Y-90973045D02*
X127380326Y-91044473D01*
X127380326Y-91044473D02*
X127427945Y-91187330D01*
X127427945Y-91187330D02*
X127427945Y-91544473D01*
X127427945Y-91544473D02*
X127380326Y-91687330D01*
X127380326Y-91687330D02*
X127332707Y-91758759D01*
X127332707Y-91758759D02*
X127237469Y-91830188D01*
X127237469Y-91830188D02*
X127046993Y-91830188D01*
X127046993Y-91830188D02*
X126951755Y-91758759D01*
X126951755Y-91758759D02*
X126904136Y-91687330D01*
X126904136Y-91687330D02*
X126856517Y-91544473D01*
X126427945Y-91830188D02*
X125666041Y-91830188D01*
X125189850Y-92401616D02*
X125189850Y-90901616D01*
X125189850Y-90901616D02*
X124951755Y-90901616D01*
X124951755Y-90901616D02*
X124808898Y-90973045D01*
X124808898Y-90973045D02*
X124713660Y-91115902D01*
X124713660Y-91115902D02*
X124666041Y-91258759D01*
X124666041Y-91258759D02*
X124618422Y-91544473D01*
X124618422Y-91544473D02*
X124618422Y-91758759D01*
X124618422Y-91758759D02*
X124666041Y-92044473D01*
X124666041Y-92044473D02*
X124713660Y-92187330D01*
X124713660Y-92187330D02*
X124808898Y-92330188D01*
X124808898Y-92330188D02*
X124951755Y-92401616D01*
X124951755Y-92401616D02*
X125189850Y-92401616D01*
X123761279Y-91401616D02*
X123761279Y-92401616D01*
X123999374Y-90830188D02*
X124237469Y-91901616D01*
X124237469Y-91901616D02*
X123618422Y-91901616D01*
X122713660Y-92401616D02*
X123285088Y-92401616D01*
X122999374Y-92401616D02*
X122999374Y-90901616D01*
X122999374Y-90901616D02*
X123094612Y-91115902D01*
X123094612Y-91115902D02*
X123189850Y-91258759D01*
X123189850Y-91258759D02*
X123285088Y-91330188D01*
X122142231Y-91544473D02*
X122237469Y-91473045D01*
X122237469Y-91473045D02*
X122285088Y-91401616D01*
X122285088Y-91401616D02*
X122332707Y-91258759D01*
X122332707Y-91258759D02*
X122332707Y-91187330D01*
X122332707Y-91187330D02*
X122285088Y-91044473D01*
X122285088Y-91044473D02*
X122237469Y-90973045D01*
X122237469Y-90973045D02*
X122142231Y-90901616D01*
X122142231Y-90901616D02*
X121951755Y-90901616D01*
X121951755Y-90901616D02*
X121856517Y-90973045D01*
X121856517Y-90973045D02*
X121808898Y-91044473D01*
X121808898Y-91044473D02*
X121761279Y-91187330D01*
X121761279Y-91187330D02*
X121761279Y-91258759D01*
X121761279Y-91258759D02*
X121808898Y-91401616D01*
X121808898Y-91401616D02*
X121856517Y-91473045D01*
X121856517Y-91473045D02*
X121951755Y-91544473D01*
X121951755Y-91544473D02*
X122142231Y-91544473D01*
X122142231Y-91544473D02*
X122237469Y-91615902D01*
X122237469Y-91615902D02*
X122285088Y-91687330D01*
X122285088Y-91687330D02*
X122332707Y-91830188D01*
X122332707Y-91830188D02*
X122332707Y-92115902D01*
X122332707Y-92115902D02*
X122285088Y-92258759D01*
X122285088Y-92258759D02*
X122237469Y-92330188D01*
X122237469Y-92330188D02*
X122142231Y-92401616D01*
X122142231Y-92401616D02*
X121951755Y-92401616D01*
X121951755Y-92401616D02*
X121856517Y-92330188D01*
X121856517Y-92330188D02*
X121808898Y-92258759D01*
X121808898Y-92258759D02*
X121761279Y-92115902D01*
X121761279Y-92115902D02*
X121761279Y-91830188D01*
X121761279Y-91830188D02*
X121808898Y-91687330D01*
X121808898Y-91687330D02*
X121856517Y-91615902D01*
X121856517Y-91615902D02*
X121951755Y-91544473D01*
X120904136Y-91401616D02*
X120904136Y-92401616D01*
X121142231Y-90830188D02*
X121380326Y-91901616D01*
X121380326Y-91901616D02*
X120761279Y-91901616D01*
X120094612Y-92973045D02*
X120142231Y-92901616D01*
X120142231Y-92901616D02*
X120237469Y-92687330D01*
X120237469Y-92687330D02*
X120285088Y-92544473D01*
X120285088Y-92544473D02*
X120332707Y-92330188D01*
X120332707Y-92330188D02*
X120380326Y-91973045D01*
X120380326Y-91973045D02*
X120380326Y-91687330D01*
X120380326Y-91687330D02*
X120332707Y-91330188D01*
X120332707Y-91330188D02*
X120285088Y-91115902D01*
X120285088Y-91115902D02*
X120237469Y-90973045D01*
X120237469Y-90973045D02*
X120142231Y-90758759D01*
X120142231Y-90758759D02*
X120094612Y-90687330D01*
X119808897Y-90901616D02*
X119189850Y-90901616D01*
X119189850Y-90901616D02*
X119523183Y-91473045D01*
X119523183Y-91473045D02*
X119380326Y-91473045D01*
X119380326Y-91473045D02*
X119285088Y-91544473D01*
X119285088Y-91544473D02*
X119237469Y-91615902D01*
X119237469Y-91615902D02*
X119189850Y-91758759D01*
X119189850Y-91758759D02*
X119189850Y-92115902D01*
X119189850Y-92115902D02*
X119237469Y-92258759D01*
X119237469Y-92258759D02*
X119285088Y-92330188D01*
X119285088Y-92330188D02*
X119380326Y-92401616D01*
X119380326Y-92401616D02*
X119666040Y-92401616D01*
X119666040Y-92401616D02*
X119761278Y-92330188D01*
X119761278Y-92330188D02*
X119808897Y-92258759D01*
X118856516Y-92973045D02*
X118808897Y-92901616D01*
X118808897Y-92901616D02*
X118713659Y-92687330D01*
X118713659Y-92687330D02*
X118666040Y-92544473D01*
X118666040Y-92544473D02*
X118618421Y-92330188D01*
X118618421Y-92330188D02*
X118570802Y-91973045D01*
X118570802Y-91973045D02*
X118570802Y-91687330D01*
X118570802Y-91687330D02*
X118618421Y-91330188D01*
X118618421Y-91330188D02*
X118666040Y-91115902D01*
X118666040Y-91115902D02*
X118713659Y-90973045D01*
X118713659Y-90973045D02*
X118808897Y-90758759D01*
X118808897Y-90758759D02*
X118856516Y-90687330D01*
X128380326Y-94816532D02*
X128380326Y-93316532D01*
X128380326Y-93316532D02*
X128142231Y-93316532D01*
X128142231Y-93316532D02*
X127999374Y-93387961D01*
X127999374Y-93387961D02*
X127904136Y-93530818D01*
X127904136Y-93530818D02*
X127856517Y-93673675D01*
X127856517Y-93673675D02*
X127808898Y-93959389D01*
X127808898Y-93959389D02*
X127808898Y-94173675D01*
X127808898Y-94173675D02*
X127856517Y-94459389D01*
X127856517Y-94459389D02*
X127904136Y-94602246D01*
X127904136Y-94602246D02*
X127999374Y-94745104D01*
X127999374Y-94745104D02*
X128142231Y-94816532D01*
X128142231Y-94816532D02*
X128380326Y-94816532D01*
X126904136Y-93316532D02*
X127380326Y-93316532D01*
X127380326Y-93316532D02*
X127427945Y-94030818D01*
X127427945Y-94030818D02*
X127380326Y-93959389D01*
X127380326Y-93959389D02*
X127285088Y-93887961D01*
X127285088Y-93887961D02*
X127046993Y-93887961D01*
X127046993Y-93887961D02*
X126951755Y-93959389D01*
X126951755Y-93959389D02*
X126904136Y-94030818D01*
X126904136Y-94030818D02*
X126856517Y-94173675D01*
X126856517Y-94173675D02*
X126856517Y-94530818D01*
X126856517Y-94530818D02*
X126904136Y-94673675D01*
X126904136Y-94673675D02*
X126951755Y-94745104D01*
X126951755Y-94745104D02*
X127046993Y-94816532D01*
X127046993Y-94816532D02*
X127285088Y-94816532D01*
X127285088Y-94816532D02*
X127380326Y-94745104D01*
X127380326Y-94745104D02*
X127427945Y-94673675D01*
X126427945Y-94245104D02*
X125666041Y-94245104D01*
X125237469Y-94745104D02*
X125094612Y-94816532D01*
X125094612Y-94816532D02*
X124856517Y-94816532D01*
X124856517Y-94816532D02*
X124761279Y-94745104D01*
X124761279Y-94745104D02*
X124713660Y-94673675D01*
X124713660Y-94673675D02*
X124666041Y-94530818D01*
X124666041Y-94530818D02*
X124666041Y-94387961D01*
X124666041Y-94387961D02*
X124713660Y-94245104D01*
X124713660Y-94245104D02*
X124761279Y-94173675D01*
X124761279Y-94173675D02*
X124856517Y-94102246D01*
X124856517Y-94102246D02*
X125046993Y-94030818D01*
X125046993Y-94030818D02*
X125142231Y-93959389D01*
X125142231Y-93959389D02*
X125189850Y-93887961D01*
X125189850Y-93887961D02*
X125237469Y-93745104D01*
X125237469Y-93745104D02*
X125237469Y-93602246D01*
X125237469Y-93602246D02*
X125189850Y-93459389D01*
X125189850Y-93459389D02*
X125142231Y-93387961D01*
X125142231Y-93387961D02*
X125046993Y-93316532D01*
X125046993Y-93316532D02*
X124808898Y-93316532D01*
X124808898Y-93316532D02*
X124666041Y-93387961D01*
X124380326Y-93316532D02*
X123808898Y-93316532D01*
X124094612Y-94816532D02*
X124094612Y-93316532D01*
X123523183Y-94387961D02*
X123046993Y-94387961D01*
X123618421Y-94816532D02*
X123285088Y-93316532D01*
X123285088Y-93316532D02*
X122951755Y-94816532D01*
X122761278Y-93316532D02*
X122189850Y-93316532D01*
X122475564Y-94816532D02*
X122475564Y-93316532D01*
X121856516Y-93316532D02*
X121856516Y-94530818D01*
X121856516Y-94530818D02*
X121808897Y-94673675D01*
X121808897Y-94673675D02*
X121761278Y-94745104D01*
X121761278Y-94745104D02*
X121666040Y-94816532D01*
X121666040Y-94816532D02*
X121475564Y-94816532D01*
X121475564Y-94816532D02*
X121380326Y-94745104D01*
X121380326Y-94745104D02*
X121332707Y-94673675D01*
X121332707Y-94673675D02*
X121285088Y-94530818D01*
X121285088Y-94530818D02*
X121285088Y-93316532D01*
X120856516Y-94745104D02*
X120713659Y-94816532D01*
X120713659Y-94816532D02*
X120475564Y-94816532D01*
X120475564Y-94816532D02*
X120380326Y-94745104D01*
X120380326Y-94745104D02*
X120332707Y-94673675D01*
X120332707Y-94673675D02*
X120285088Y-94530818D01*
X120285088Y-94530818D02*
X120285088Y-94387961D01*
X120285088Y-94387961D02*
X120332707Y-94245104D01*
X120332707Y-94245104D02*
X120380326Y-94173675D01*
X120380326Y-94173675D02*
X120475564Y-94102246D01*
X120475564Y-94102246D02*
X120666040Y-94030818D01*
X120666040Y-94030818D02*
X120761278Y-93959389D01*
X120761278Y-93959389D02*
X120808897Y-93887961D01*
X120808897Y-93887961D02*
X120856516Y-93745104D01*
X120856516Y-93745104D02*
X120856516Y-93602246D01*
X120856516Y-93602246D02*
X120808897Y-93459389D01*
X120808897Y-93459389D02*
X120761278Y-93387961D01*
X120761278Y-93387961D02*
X120666040Y-93316532D01*
X120666040Y-93316532D02*
X120427945Y-93316532D01*
X120427945Y-93316532D02*
X120285088Y-93387961D01*
X128380326Y-97231448D02*
X128380326Y-95731448D01*
X128380326Y-95731448D02*
X128142231Y-95731448D01*
X128142231Y-95731448D02*
X127999374Y-95802877D01*
X127999374Y-95802877D02*
X127904136Y-95945734D01*
X127904136Y-95945734D02*
X127856517Y-96088591D01*
X127856517Y-96088591D02*
X127808898Y-96374305D01*
X127808898Y-96374305D02*
X127808898Y-96588591D01*
X127808898Y-96588591D02*
X127856517Y-96874305D01*
X127856517Y-96874305D02*
X127904136Y-97017162D01*
X127904136Y-97017162D02*
X127999374Y-97160020D01*
X127999374Y-97160020D02*
X128142231Y-97231448D01*
X128142231Y-97231448D02*
X128380326Y-97231448D01*
X126856517Y-97231448D02*
X127427945Y-97231448D01*
X127142231Y-97231448D02*
X127142231Y-95731448D01*
X127142231Y-95731448D02*
X127237469Y-95945734D01*
X127237469Y-95945734D02*
X127332707Y-96088591D01*
X127332707Y-96088591D02*
X127427945Y-96160020D01*
X126237469Y-95731448D02*
X126142231Y-95731448D01*
X126142231Y-95731448D02*
X126046993Y-95802877D01*
X126046993Y-95802877D02*
X125999374Y-95874305D01*
X125999374Y-95874305D02*
X125951755Y-96017162D01*
X125951755Y-96017162D02*
X125904136Y-96302877D01*
X125904136Y-96302877D02*
X125904136Y-96660020D01*
X125904136Y-96660020D02*
X125951755Y-96945734D01*
X125951755Y-96945734D02*
X125999374Y-97088591D01*
X125999374Y-97088591D02*
X126046993Y-97160020D01*
X126046993Y-97160020D02*
X126142231Y-97231448D01*
X126142231Y-97231448D02*
X126237469Y-97231448D01*
X126237469Y-97231448D02*
X126332707Y-97160020D01*
X126332707Y-97160020D02*
X126380326Y-97088591D01*
X126380326Y-97088591D02*
X126427945Y-96945734D01*
X126427945Y-96945734D02*
X126475564Y-96660020D01*
X126475564Y-96660020D02*
X126475564Y-96302877D01*
X126475564Y-96302877D02*
X126427945Y-96017162D01*
X126427945Y-96017162D02*
X126380326Y-95874305D01*
X126380326Y-95874305D02*
X126332707Y-95802877D01*
X126332707Y-95802877D02*
X126237469Y-95731448D01*
X125475564Y-96660020D02*
X124713660Y-96660020D01*
X123666041Y-97088591D02*
X123713660Y-97160020D01*
X123713660Y-97160020D02*
X123856517Y-97231448D01*
X123856517Y-97231448D02*
X123951755Y-97231448D01*
X123951755Y-97231448D02*
X124094612Y-97160020D01*
X124094612Y-97160020D02*
X124189850Y-97017162D01*
X124189850Y-97017162D02*
X124237469Y-96874305D01*
X124237469Y-96874305D02*
X124285088Y-96588591D01*
X124285088Y-96588591D02*
X124285088Y-96374305D01*
X124285088Y-96374305D02*
X124237469Y-96088591D01*
X124237469Y-96088591D02*
X124189850Y-95945734D01*
X124189850Y-95945734D02*
X124094612Y-95802877D01*
X124094612Y-95802877D02*
X123951755Y-95731448D01*
X123951755Y-95731448D02*
X123856517Y-95731448D01*
X123856517Y-95731448D02*
X123713660Y-95802877D01*
X123713660Y-95802877D02*
X123666041Y-95874305D01*
X123285088Y-97160020D02*
X123142231Y-97231448D01*
X123142231Y-97231448D02*
X122904136Y-97231448D01*
X122904136Y-97231448D02*
X122808898Y-97160020D01*
X122808898Y-97160020D02*
X122761279Y-97088591D01*
X122761279Y-97088591D02*
X122713660Y-96945734D01*
X122713660Y-96945734D02*
X122713660Y-96802877D01*
X122713660Y-96802877D02*
X122761279Y-96660020D01*
X122761279Y-96660020D02*
X122808898Y-96588591D01*
X122808898Y-96588591D02*
X122904136Y-96517162D01*
X122904136Y-96517162D02*
X123094612Y-96445734D01*
X123094612Y-96445734D02*
X123189850Y-96374305D01*
X123189850Y-96374305D02*
X123237469Y-96302877D01*
X123237469Y-96302877D02*
X123285088Y-96160020D01*
X123285088Y-96160020D02*
X123285088Y-96017162D01*
X123285088Y-96017162D02*
X123237469Y-95874305D01*
X123237469Y-95874305D02*
X123189850Y-95802877D01*
X123189850Y-95802877D02*
X123094612Y-95731448D01*
X123094612Y-95731448D02*
X122856517Y-95731448D01*
X122856517Y-95731448D02*
X122713660Y-95802877D01*
X128380326Y-99646364D02*
X128380326Y-98146364D01*
X128380326Y-98146364D02*
X128142231Y-98146364D01*
X128142231Y-98146364D02*
X127999374Y-98217793D01*
X127999374Y-98217793D02*
X127904136Y-98360650D01*
X127904136Y-98360650D02*
X127856517Y-98503507D01*
X127856517Y-98503507D02*
X127808898Y-98789221D01*
X127808898Y-98789221D02*
X127808898Y-99003507D01*
X127808898Y-99003507D02*
X127856517Y-99289221D01*
X127856517Y-99289221D02*
X127904136Y-99432078D01*
X127904136Y-99432078D02*
X127999374Y-99574936D01*
X127999374Y-99574936D02*
X128142231Y-99646364D01*
X128142231Y-99646364D02*
X128380326Y-99646364D01*
X126856517Y-99646364D02*
X127427945Y-99646364D01*
X127142231Y-99646364D02*
X127142231Y-98146364D01*
X127142231Y-98146364D02*
X127237469Y-98360650D01*
X127237469Y-98360650D02*
X127332707Y-98503507D01*
X127332707Y-98503507D02*
X127427945Y-98574936D01*
X125904136Y-99646364D02*
X126475564Y-99646364D01*
X126189850Y-99646364D02*
X126189850Y-98146364D01*
X126189850Y-98146364D02*
X126285088Y-98360650D01*
X126285088Y-98360650D02*
X126380326Y-98503507D01*
X126380326Y-98503507D02*
X126475564Y-98574936D01*
X125475564Y-99074936D02*
X124713660Y-99074936D01*
X124237469Y-99646364D02*
X124237469Y-98146364D01*
X124237469Y-98146364D02*
X123904136Y-99217793D01*
X123904136Y-99217793D02*
X123570803Y-98146364D01*
X123570803Y-98146364D02*
X123570803Y-99646364D01*
X122904136Y-98146364D02*
X122713660Y-98146364D01*
X122713660Y-98146364D02*
X122618422Y-98217793D01*
X122618422Y-98217793D02*
X122523184Y-98360650D01*
X122523184Y-98360650D02*
X122475565Y-98646364D01*
X122475565Y-98646364D02*
X122475565Y-99146364D01*
X122475565Y-99146364D02*
X122523184Y-99432078D01*
X122523184Y-99432078D02*
X122618422Y-99574936D01*
X122618422Y-99574936D02*
X122713660Y-99646364D01*
X122713660Y-99646364D02*
X122904136Y-99646364D01*
X122904136Y-99646364D02*
X122999374Y-99574936D01*
X122999374Y-99574936D02*
X123094612Y-99432078D01*
X123094612Y-99432078D02*
X123142231Y-99146364D01*
X123142231Y-99146364D02*
X123142231Y-98646364D01*
X123142231Y-98646364D02*
X123094612Y-98360650D01*
X123094612Y-98360650D02*
X122999374Y-98217793D01*
X122999374Y-98217793D02*
X122904136Y-98146364D01*
X122094612Y-99574936D02*
X121951755Y-99646364D01*
X121951755Y-99646364D02*
X121713660Y-99646364D01*
X121713660Y-99646364D02*
X121618422Y-99574936D01*
X121618422Y-99574936D02*
X121570803Y-99503507D01*
X121570803Y-99503507D02*
X121523184Y-99360650D01*
X121523184Y-99360650D02*
X121523184Y-99217793D01*
X121523184Y-99217793D02*
X121570803Y-99074936D01*
X121570803Y-99074936D02*
X121618422Y-99003507D01*
X121618422Y-99003507D02*
X121713660Y-98932078D01*
X121713660Y-98932078D02*
X121904136Y-98860650D01*
X121904136Y-98860650D02*
X121999374Y-98789221D01*
X121999374Y-98789221D02*
X122046993Y-98717793D01*
X122046993Y-98717793D02*
X122094612Y-98574936D01*
X122094612Y-98574936D02*
X122094612Y-98432078D01*
X122094612Y-98432078D02*
X122046993Y-98289221D01*
X122046993Y-98289221D02*
X121999374Y-98217793D01*
X121999374Y-98217793D02*
X121904136Y-98146364D01*
X121904136Y-98146364D02*
X121666041Y-98146364D01*
X121666041Y-98146364D02*
X121523184Y-98217793D01*
X121094612Y-99646364D02*
X121094612Y-98146364D01*
X128380326Y-102061280D02*
X128380326Y-100561280D01*
X128380326Y-100561280D02*
X128142231Y-100561280D01*
X128142231Y-100561280D02*
X127999374Y-100632709D01*
X127999374Y-100632709D02*
X127904136Y-100775566D01*
X127904136Y-100775566D02*
X127856517Y-100918423D01*
X127856517Y-100918423D02*
X127808898Y-101204137D01*
X127808898Y-101204137D02*
X127808898Y-101418423D01*
X127808898Y-101418423D02*
X127856517Y-101704137D01*
X127856517Y-101704137D02*
X127904136Y-101846994D01*
X127904136Y-101846994D02*
X127999374Y-101989852D01*
X127999374Y-101989852D02*
X128142231Y-102061280D01*
X128142231Y-102061280D02*
X128380326Y-102061280D01*
X126856517Y-102061280D02*
X127427945Y-102061280D01*
X127142231Y-102061280D02*
X127142231Y-100561280D01*
X127142231Y-100561280D02*
X127237469Y-100775566D01*
X127237469Y-100775566D02*
X127332707Y-100918423D01*
X127332707Y-100918423D02*
X127427945Y-100989852D01*
X126475564Y-100704137D02*
X126427945Y-100632709D01*
X126427945Y-100632709D02*
X126332707Y-100561280D01*
X126332707Y-100561280D02*
X126094612Y-100561280D01*
X126094612Y-100561280D02*
X125999374Y-100632709D01*
X125999374Y-100632709D02*
X125951755Y-100704137D01*
X125951755Y-100704137D02*
X125904136Y-100846994D01*
X125904136Y-100846994D02*
X125904136Y-100989852D01*
X125904136Y-100989852D02*
X125951755Y-101204137D01*
X125951755Y-101204137D02*
X126523183Y-102061280D01*
X126523183Y-102061280D02*
X125904136Y-102061280D01*
X125475564Y-101489852D02*
X124713660Y-101489852D01*
X124237469Y-102061280D02*
X124237469Y-100561280D01*
X124237469Y-100561280D02*
X123904136Y-101632709D01*
X123904136Y-101632709D02*
X123570803Y-100561280D01*
X123570803Y-100561280D02*
X123570803Y-102061280D01*
X123094612Y-102061280D02*
X123094612Y-100561280D01*
X122666041Y-101989852D02*
X122523184Y-102061280D01*
X122523184Y-102061280D02*
X122285089Y-102061280D01*
X122285089Y-102061280D02*
X122189851Y-101989852D01*
X122189851Y-101989852D02*
X122142232Y-101918423D01*
X122142232Y-101918423D02*
X122094613Y-101775566D01*
X122094613Y-101775566D02*
X122094613Y-101632709D01*
X122094613Y-101632709D02*
X122142232Y-101489852D01*
X122142232Y-101489852D02*
X122189851Y-101418423D01*
X122189851Y-101418423D02*
X122285089Y-101346994D01*
X122285089Y-101346994D02*
X122475565Y-101275566D01*
X122475565Y-101275566D02*
X122570803Y-101204137D01*
X122570803Y-101204137D02*
X122618422Y-101132709D01*
X122618422Y-101132709D02*
X122666041Y-100989852D01*
X122666041Y-100989852D02*
X122666041Y-100846994D01*
X122666041Y-100846994D02*
X122618422Y-100704137D01*
X122618422Y-100704137D02*
X122570803Y-100632709D01*
X122570803Y-100632709D02*
X122475565Y-100561280D01*
X122475565Y-100561280D02*
X122237470Y-100561280D01*
X122237470Y-100561280D02*
X122094613Y-100632709D01*
X121475565Y-100561280D02*
X121285089Y-100561280D01*
X121285089Y-100561280D02*
X121189851Y-100632709D01*
X121189851Y-100632709D02*
X121094613Y-100775566D01*
X121094613Y-100775566D02*
X121046994Y-101061280D01*
X121046994Y-101061280D02*
X121046994Y-101561280D01*
X121046994Y-101561280D02*
X121094613Y-101846994D01*
X121094613Y-101846994D02*
X121189851Y-101989852D01*
X121189851Y-101989852D02*
X121285089Y-102061280D01*
X121285089Y-102061280D02*
X121475565Y-102061280D01*
X121475565Y-102061280D02*
X121570803Y-101989852D01*
X121570803Y-101989852D02*
X121666041Y-101846994D01*
X121666041Y-101846994D02*
X121713660Y-101561280D01*
X121713660Y-101561280D02*
X121713660Y-101061280D01*
X121713660Y-101061280D02*
X121666041Y-100775566D01*
X121666041Y-100775566D02*
X121570803Y-100632709D01*
X121570803Y-100632709D02*
X121475565Y-100561280D01*
X128380326Y-104476196D02*
X128380326Y-102976196D01*
X128380326Y-102976196D02*
X128142231Y-102976196D01*
X128142231Y-102976196D02*
X127999374Y-103047625D01*
X127999374Y-103047625D02*
X127904136Y-103190482D01*
X127904136Y-103190482D02*
X127856517Y-103333339D01*
X127856517Y-103333339D02*
X127808898Y-103619053D01*
X127808898Y-103619053D02*
X127808898Y-103833339D01*
X127808898Y-103833339D02*
X127856517Y-104119053D01*
X127856517Y-104119053D02*
X127904136Y-104261910D01*
X127904136Y-104261910D02*
X127999374Y-104404768D01*
X127999374Y-104404768D02*
X128142231Y-104476196D01*
X128142231Y-104476196D02*
X128380326Y-104476196D01*
X126856517Y-104476196D02*
X127427945Y-104476196D01*
X127142231Y-104476196D02*
X127142231Y-102976196D01*
X127142231Y-102976196D02*
X127237469Y-103190482D01*
X127237469Y-103190482D02*
X127332707Y-103333339D01*
X127332707Y-103333339D02*
X127427945Y-103404768D01*
X126523183Y-102976196D02*
X125904136Y-102976196D01*
X125904136Y-102976196D02*
X126237469Y-103547625D01*
X126237469Y-103547625D02*
X126094612Y-103547625D01*
X126094612Y-103547625D02*
X125999374Y-103619053D01*
X125999374Y-103619053D02*
X125951755Y-103690482D01*
X125951755Y-103690482D02*
X125904136Y-103833339D01*
X125904136Y-103833339D02*
X125904136Y-104190482D01*
X125904136Y-104190482D02*
X125951755Y-104333339D01*
X125951755Y-104333339D02*
X125999374Y-104404768D01*
X125999374Y-104404768D02*
X126094612Y-104476196D01*
X126094612Y-104476196D02*
X126380326Y-104476196D01*
X126380326Y-104476196D02*
X126475564Y-104404768D01*
X126475564Y-104404768D02*
X126523183Y-104333339D01*
X125475564Y-103904768D02*
X124713660Y-103904768D01*
X124285088Y-104404768D02*
X124142231Y-104476196D01*
X124142231Y-104476196D02*
X123904136Y-104476196D01*
X123904136Y-104476196D02*
X123808898Y-104404768D01*
X123808898Y-104404768D02*
X123761279Y-104333339D01*
X123761279Y-104333339D02*
X123713660Y-104190482D01*
X123713660Y-104190482D02*
X123713660Y-104047625D01*
X123713660Y-104047625D02*
X123761279Y-103904768D01*
X123761279Y-103904768D02*
X123808898Y-103833339D01*
X123808898Y-103833339D02*
X123904136Y-103761910D01*
X123904136Y-103761910D02*
X124094612Y-103690482D01*
X124094612Y-103690482D02*
X124189850Y-103619053D01*
X124189850Y-103619053D02*
X124237469Y-103547625D01*
X124237469Y-103547625D02*
X124285088Y-103404768D01*
X124285088Y-103404768D02*
X124285088Y-103261910D01*
X124285088Y-103261910D02*
X124237469Y-103119053D01*
X124237469Y-103119053D02*
X124189850Y-103047625D01*
X124189850Y-103047625D02*
X124094612Y-102976196D01*
X124094612Y-102976196D02*
X123856517Y-102976196D01*
X123856517Y-102976196D02*
X123713660Y-103047625D01*
X122713660Y-104333339D02*
X122761279Y-104404768D01*
X122761279Y-104404768D02*
X122904136Y-104476196D01*
X122904136Y-104476196D02*
X122999374Y-104476196D01*
X122999374Y-104476196D02*
X123142231Y-104404768D01*
X123142231Y-104404768D02*
X123237469Y-104261910D01*
X123237469Y-104261910D02*
X123285088Y-104119053D01*
X123285088Y-104119053D02*
X123332707Y-103833339D01*
X123332707Y-103833339D02*
X123332707Y-103619053D01*
X123332707Y-103619053D02*
X123285088Y-103333339D01*
X123285088Y-103333339D02*
X123237469Y-103190482D01*
X123237469Y-103190482D02*
X123142231Y-103047625D01*
X123142231Y-103047625D02*
X122999374Y-102976196D01*
X122999374Y-102976196D02*
X122904136Y-102976196D01*
X122904136Y-102976196D02*
X122761279Y-103047625D01*
X122761279Y-103047625D02*
X122713660Y-103119053D01*
X122285088Y-104476196D02*
X122285088Y-102976196D01*
X121713660Y-104476196D02*
X122142231Y-103619053D01*
X121713660Y-102976196D02*
X122285088Y-103833339D01*
X128427945Y-106462541D02*
X127951755Y-106462541D01*
X128523183Y-106891112D02*
X128189850Y-105391112D01*
X128189850Y-105391112D02*
X127856517Y-106891112D01*
X127332707Y-105391112D02*
X127237469Y-105391112D01*
X127237469Y-105391112D02*
X127142231Y-105462541D01*
X127142231Y-105462541D02*
X127094612Y-105533969D01*
X127094612Y-105533969D02*
X127046993Y-105676826D01*
X127046993Y-105676826D02*
X126999374Y-105962541D01*
X126999374Y-105962541D02*
X126999374Y-106319684D01*
X126999374Y-106319684D02*
X127046993Y-106605398D01*
X127046993Y-106605398D02*
X127094612Y-106748255D01*
X127094612Y-106748255D02*
X127142231Y-106819684D01*
X127142231Y-106819684D02*
X127237469Y-106891112D01*
X127237469Y-106891112D02*
X127332707Y-106891112D01*
X127332707Y-106891112D02*
X127427945Y-106819684D01*
X127427945Y-106819684D02*
X127475564Y-106748255D01*
X127475564Y-106748255D02*
X127523183Y-106605398D01*
X127523183Y-106605398D02*
X127570802Y-106319684D01*
X127570802Y-106319684D02*
X127570802Y-105962541D01*
X127570802Y-105962541D02*
X127523183Y-105676826D01*
X127523183Y-105676826D02*
X127475564Y-105533969D01*
X127475564Y-105533969D02*
X127427945Y-105462541D01*
X127427945Y-105462541D02*
X127332707Y-105391112D01*
X126570802Y-106748255D02*
X126523183Y-106819684D01*
X126523183Y-106819684D02*
X126570802Y-106891112D01*
X126570802Y-106891112D02*
X126618421Y-106819684D01*
X126618421Y-106819684D02*
X126570802Y-106748255D01*
X126570802Y-106748255D02*
X126570802Y-106891112D01*
X126570802Y-105962541D02*
X126523183Y-106033969D01*
X126523183Y-106033969D02*
X126570802Y-106105398D01*
X126570802Y-106105398D02*
X126618421Y-106033969D01*
X126618421Y-106033969D02*
X126570802Y-105962541D01*
X126570802Y-105962541D02*
X126570802Y-106105398D01*
X126142231Y-106462541D02*
X125666041Y-106462541D01*
X126237469Y-106891112D02*
X125904136Y-105391112D01*
X125904136Y-105391112D02*
X125570803Y-106891112D01*
X124713660Y-106891112D02*
X125285088Y-106891112D01*
X124999374Y-106891112D02*
X124999374Y-105391112D01*
X124999374Y-105391112D02*
X125094612Y-105605398D01*
X125094612Y-105605398D02*
X125189850Y-105748255D01*
X125189850Y-105748255D02*
X125285088Y-105819684D01*
X124285088Y-106319684D02*
X123523184Y-106319684D01*
X123094612Y-106462541D02*
X122618422Y-106462541D01*
X123189850Y-106891112D02*
X122856517Y-105391112D01*
X122856517Y-105391112D02*
X122523184Y-106891112D01*
X122189850Y-106891112D02*
X122189850Y-105391112D01*
X122189850Y-105391112D02*
X121618422Y-106891112D01*
X121618422Y-106891112D02*
X121618422Y-105391112D01*
X121189850Y-106462541D02*
X120713660Y-106462541D01*
X121285088Y-106891112D02*
X120951755Y-105391112D01*
X120951755Y-105391112D02*
X120618422Y-106891112D01*
X119808898Y-106891112D02*
X120285088Y-106891112D01*
X120285088Y-106891112D02*
X120285088Y-105391112D01*
X119285088Y-105391112D02*
X119094612Y-105391112D01*
X119094612Y-105391112D02*
X118999374Y-105462541D01*
X118999374Y-105462541D02*
X118904136Y-105605398D01*
X118904136Y-105605398D02*
X118856517Y-105891112D01*
X118856517Y-105891112D02*
X118856517Y-106391112D01*
X118856517Y-106391112D02*
X118904136Y-106676826D01*
X118904136Y-106676826D02*
X118999374Y-106819684D01*
X118999374Y-106819684D02*
X119094612Y-106891112D01*
X119094612Y-106891112D02*
X119285088Y-106891112D01*
X119285088Y-106891112D02*
X119380326Y-106819684D01*
X119380326Y-106819684D02*
X119475564Y-106676826D01*
X119475564Y-106676826D02*
X119523183Y-106391112D01*
X119523183Y-106391112D02*
X119523183Y-105891112D01*
X119523183Y-105891112D02*
X119475564Y-105605398D01*
X119475564Y-105605398D02*
X119380326Y-105462541D01*
X119380326Y-105462541D02*
X119285088Y-105391112D01*
X117904136Y-105462541D02*
X117999374Y-105391112D01*
X117999374Y-105391112D02*
X118142231Y-105391112D01*
X118142231Y-105391112D02*
X118285088Y-105462541D01*
X118285088Y-105462541D02*
X118380326Y-105605398D01*
X118380326Y-105605398D02*
X118427945Y-105748255D01*
X118427945Y-105748255D02*
X118475564Y-106033969D01*
X118475564Y-106033969D02*
X118475564Y-106248255D01*
X118475564Y-106248255D02*
X118427945Y-106533969D01*
X118427945Y-106533969D02*
X118380326Y-106676826D01*
X118380326Y-106676826D02*
X118285088Y-106819684D01*
X118285088Y-106819684D02*
X118142231Y-106891112D01*
X118142231Y-106891112D02*
X118046993Y-106891112D01*
X118046993Y-106891112D02*
X117904136Y-106819684D01*
X117904136Y-106819684D02*
X117856517Y-106748255D01*
X117856517Y-106748255D02*
X117856517Y-106248255D01*
X117856517Y-106248255D02*
X118046993Y-106248255D01*
X128427945Y-108877457D02*
X127951755Y-108877457D01*
X128523183Y-109306028D02*
X128189850Y-107806028D01*
X128189850Y-107806028D02*
X127856517Y-109306028D01*
X127570802Y-107948885D02*
X127523183Y-107877457D01*
X127523183Y-107877457D02*
X127427945Y-107806028D01*
X127427945Y-107806028D02*
X127189850Y-107806028D01*
X127189850Y-107806028D02*
X127094612Y-107877457D01*
X127094612Y-107877457D02*
X127046993Y-107948885D01*
X127046993Y-107948885D02*
X126999374Y-108091742D01*
X126999374Y-108091742D02*
X126999374Y-108234600D01*
X126999374Y-108234600D02*
X127046993Y-108448885D01*
X127046993Y-108448885D02*
X127618421Y-109306028D01*
X127618421Y-109306028D02*
X126999374Y-109306028D01*
X126570802Y-109163171D02*
X126523183Y-109234600D01*
X126523183Y-109234600D02*
X126570802Y-109306028D01*
X126570802Y-109306028D02*
X126618421Y-109234600D01*
X126618421Y-109234600D02*
X126570802Y-109163171D01*
X126570802Y-109163171D02*
X126570802Y-109306028D01*
X126570802Y-108377457D02*
X126523183Y-108448885D01*
X126523183Y-108448885D02*
X126570802Y-108520314D01*
X126570802Y-108520314D02*
X126618421Y-108448885D01*
X126618421Y-108448885D02*
X126570802Y-108377457D01*
X126570802Y-108377457D02*
X126570802Y-108520314D01*
X126142231Y-108877457D02*
X125666041Y-108877457D01*
X126237469Y-109306028D02*
X125904136Y-107806028D01*
X125904136Y-107806028D02*
X125570803Y-109306028D01*
X124761279Y-107806028D02*
X125237469Y-107806028D01*
X125237469Y-107806028D02*
X125285088Y-108520314D01*
X125285088Y-108520314D02*
X125237469Y-108448885D01*
X125237469Y-108448885D02*
X125142231Y-108377457D01*
X125142231Y-108377457D02*
X124904136Y-108377457D01*
X124904136Y-108377457D02*
X124808898Y-108448885D01*
X124808898Y-108448885D02*
X124761279Y-108520314D01*
X124761279Y-108520314D02*
X124713660Y-108663171D01*
X124713660Y-108663171D02*
X124713660Y-109020314D01*
X124713660Y-109020314D02*
X124761279Y-109163171D01*
X124761279Y-109163171D02*
X124808898Y-109234600D01*
X124808898Y-109234600D02*
X124904136Y-109306028D01*
X124904136Y-109306028D02*
X125142231Y-109306028D01*
X125142231Y-109306028D02*
X125237469Y-109234600D01*
X125237469Y-109234600D02*
X125285088Y-109163171D01*
X124285088Y-108734600D02*
X123523184Y-108734600D01*
X123189850Y-107806028D02*
X122618422Y-107806028D01*
X122904136Y-109306028D02*
X122904136Y-107806028D01*
X122285088Y-109306028D02*
X122285088Y-107806028D01*
X122285088Y-108520314D02*
X121713660Y-108520314D01*
X121713660Y-109306028D02*
X121713660Y-107806028D01*
X121237469Y-108520314D02*
X120904136Y-108520314D01*
X120761279Y-109306028D02*
X121237469Y-109306028D01*
X121237469Y-109306028D02*
X121237469Y-107806028D01*
X121237469Y-107806028D02*
X120761279Y-107806028D01*
X119761279Y-109306028D02*
X120094612Y-108591742D01*
X120332707Y-109306028D02*
X120332707Y-107806028D01*
X120332707Y-107806028D02*
X119951755Y-107806028D01*
X119951755Y-107806028D02*
X119856517Y-107877457D01*
X119856517Y-107877457D02*
X119808898Y-107948885D01*
X119808898Y-107948885D02*
X119761279Y-108091742D01*
X119761279Y-108091742D02*
X119761279Y-108306028D01*
X119761279Y-108306028D02*
X119808898Y-108448885D01*
X119808898Y-108448885D02*
X119856517Y-108520314D01*
X119856517Y-108520314D02*
X119951755Y-108591742D01*
X119951755Y-108591742D02*
X120332707Y-108591742D01*
X119332707Y-109306028D02*
X119332707Y-107806028D01*
X119332707Y-107806028D02*
X118999374Y-108877457D01*
X118999374Y-108877457D02*
X118666041Y-107806028D01*
X118666041Y-107806028D02*
X118666041Y-109306028D01*
D11*
X81660072Y-87054510D02*
X81660072Y-88197368D01*
X81660072Y-88911653D02*
X81660072Y-90054511D01*
X81660072Y-90768796D02*
X81660072Y-91911654D01*
X81660072Y-92625939D02*
X81660072Y-93768797D01*
X81660072Y-94483082D02*
X81660072Y-95625940D01*
X81660072Y-96340225D02*
X81660072Y-97483083D01*
X81660072Y-98197368D02*
X81660072Y-99340226D01*
X81660072Y-100054511D02*
X81660072Y-101197369D01*
X81660072Y-101911654D02*
X81660072Y-103054512D01*
X81660072Y-103768797D02*
X81660072Y-104911655D01*
X81660072Y-105625940D02*
X81660072Y-106768798D01*
X81660072Y-107483083D02*
X81660072Y-108625941D01*
X81660072Y-109340226D02*
X81660072Y-110483084D01*
X81660072Y-111197369D02*
X81660072Y-112340227D01*
X84574988Y-86983082D02*
X84646416Y-87197368D01*
X84646416Y-87197368D02*
X84646416Y-87554510D01*
X84646416Y-87554510D02*
X84574988Y-87697368D01*
X84574988Y-87697368D02*
X84503559Y-87768796D01*
X84503559Y-87768796D02*
X84360702Y-87840225D01*
X84360702Y-87840225D02*
X84217845Y-87840225D01*
X84217845Y-87840225D02*
X84074988Y-87768796D01*
X84074988Y-87768796D02*
X84003559Y-87697368D01*
X84003559Y-87697368D02*
X83932130Y-87554510D01*
X83932130Y-87554510D02*
X83860702Y-87268796D01*
X83860702Y-87268796D02*
X83789273Y-87125939D01*
X83789273Y-87125939D02*
X83717845Y-87054510D01*
X83717845Y-87054510D02*
X83574988Y-86983082D01*
X83574988Y-86983082D02*
X83432130Y-86983082D01*
X83432130Y-86983082D02*
X83289273Y-87054510D01*
X83289273Y-87054510D02*
X83217845Y-87125939D01*
X83217845Y-87125939D02*
X83146416Y-87268796D01*
X83146416Y-87268796D02*
X83146416Y-87625939D01*
X83146416Y-87625939D02*
X83217845Y-87840225D01*
X84217845Y-88411653D02*
X84217845Y-89125939D01*
X84646416Y-88268796D02*
X83146416Y-88768796D01*
X83146416Y-88768796D02*
X84646416Y-89268796D01*
X84646416Y-89768795D02*
X83146416Y-89768795D01*
X83146416Y-89768795D02*
X84646416Y-90625938D01*
X84646416Y-90625938D02*
X83146416Y-90625938D01*
X83932130Y-91625939D02*
X84646416Y-91625939D01*
X83146416Y-91125939D02*
X83932130Y-91625939D01*
X83932130Y-91625939D02*
X83146416Y-92125939D01*
X83146416Y-92625938D02*
X84360702Y-92625938D01*
X84360702Y-92625938D02*
X84503559Y-92697367D01*
X84503559Y-92697367D02*
X84574988Y-92768796D01*
X84574988Y-92768796D02*
X84646416Y-92911653D01*
X84646416Y-92911653D02*
X84646416Y-93197367D01*
X84646416Y-93197367D02*
X84574988Y-93340224D01*
X84574988Y-93340224D02*
X84503559Y-93411653D01*
X84503559Y-93411653D02*
X84360702Y-93483081D01*
X84360702Y-93483081D02*
X83146416Y-93483081D01*
X84646416Y-94197367D02*
X83146416Y-94197367D01*
X84646416Y-95054510D02*
X83789273Y-94411653D01*
X83146416Y-95054510D02*
X84003559Y-94197367D01*
X83146416Y-95483082D02*
X83146416Y-96340225D01*
X84646416Y-95911653D02*
X83146416Y-95911653D01*
X84217845Y-96768796D02*
X84217845Y-97483082D01*
X84646416Y-96625939D02*
X83146416Y-97125939D01*
X83146416Y-97125939D02*
X84646416Y-97625939D01*
X84646416Y-99268795D02*
X83146416Y-99268795D01*
X83146416Y-99268795D02*
X83146416Y-99625938D01*
X83146416Y-99625938D02*
X83217845Y-99840224D01*
X83217845Y-99840224D02*
X83360702Y-99983081D01*
X83360702Y-99983081D02*
X83503559Y-100054510D01*
X83503559Y-100054510D02*
X83789273Y-100125938D01*
X83789273Y-100125938D02*
X84003559Y-100125938D01*
X84003559Y-100125938D02*
X84289273Y-100054510D01*
X84289273Y-100054510D02*
X84432130Y-99983081D01*
X84432130Y-99983081D02*
X84574988Y-99840224D01*
X84574988Y-99840224D02*
X84646416Y-99625938D01*
X84646416Y-99625938D02*
X84646416Y-99268795D01*
X83146416Y-100768795D02*
X84360702Y-100768795D01*
X84360702Y-100768795D02*
X84503559Y-100840224D01*
X84503559Y-100840224D02*
X84574988Y-100911653D01*
X84574988Y-100911653D02*
X84646416Y-101054510D01*
X84646416Y-101054510D02*
X84646416Y-101340224D01*
X84646416Y-101340224D02*
X84574988Y-101483081D01*
X84574988Y-101483081D02*
X84503559Y-101554510D01*
X84503559Y-101554510D02*
X84360702Y-101625938D01*
X84360702Y-101625938D02*
X83146416Y-101625938D01*
X83146416Y-102125939D02*
X83146416Y-102983082D01*
X84646416Y-102554510D02*
X83146416Y-102554510D01*
X83146416Y-103268796D02*
X83146416Y-104125939D01*
X84646416Y-103697367D02*
X83146416Y-103697367D01*
X84217845Y-104554510D02*
X84217845Y-105268796D01*
X84646416Y-104411653D02*
X83146416Y-104911653D01*
X83146416Y-104911653D02*
X84646416Y-105411653D01*
X85561332Y-86840225D02*
X85561332Y-87697368D01*
X87061332Y-87268796D02*
X85561332Y-87268796D01*
X86275618Y-88197367D02*
X86275618Y-88697367D01*
X87061332Y-88911653D02*
X87061332Y-88197367D01*
X87061332Y-88197367D02*
X85561332Y-88197367D01*
X85561332Y-88197367D02*
X85561332Y-88911653D01*
X85561332Y-89983082D02*
X86632761Y-89983082D01*
X86632761Y-89983082D02*
X86847046Y-89911653D01*
X86847046Y-89911653D02*
X86989904Y-89768796D01*
X86989904Y-89768796D02*
X87061332Y-89554510D01*
X87061332Y-89554510D02*
X87061332Y-89411653D01*
X86632761Y-90625939D02*
X86632761Y-91340225D01*
X87061332Y-90483082D02*
X85561332Y-90983082D01*
X85561332Y-90983082D02*
X87061332Y-91483082D01*
X86989904Y-91911653D02*
X87061332Y-92125939D01*
X87061332Y-92125939D02*
X87061332Y-92483081D01*
X87061332Y-92483081D02*
X86989904Y-92625939D01*
X86989904Y-92625939D02*
X86918475Y-92697367D01*
X86918475Y-92697367D02*
X86775618Y-92768796D01*
X86775618Y-92768796D02*
X86632761Y-92768796D01*
X86632761Y-92768796D02*
X86489904Y-92697367D01*
X86489904Y-92697367D02*
X86418475Y-92625939D01*
X86418475Y-92625939D02*
X86347046Y-92483081D01*
X86347046Y-92483081D02*
X86275618Y-92197367D01*
X86275618Y-92197367D02*
X86204189Y-92054510D01*
X86204189Y-92054510D02*
X86132761Y-91983081D01*
X86132761Y-91983081D02*
X85989904Y-91911653D01*
X85989904Y-91911653D02*
X85847046Y-91911653D01*
X85847046Y-91911653D02*
X85704189Y-91983081D01*
X85704189Y-91983081D02*
X85632761Y-92054510D01*
X85632761Y-92054510D02*
X85561332Y-92197367D01*
X85561332Y-92197367D02*
X85561332Y-92554510D01*
X85561332Y-92554510D02*
X85632761Y-92768796D01*
X85561332Y-93268795D02*
X87061332Y-93625938D01*
X87061332Y-93625938D02*
X85989904Y-93911652D01*
X85989904Y-93911652D02*
X87061332Y-94197367D01*
X87061332Y-94197367D02*
X85561332Y-94554510D01*
X87061332Y-95125938D02*
X85561332Y-95125938D01*
X87061332Y-95840224D02*
X85561332Y-95840224D01*
X85561332Y-95840224D02*
X87061332Y-96697367D01*
X87061332Y-96697367D02*
X85561332Y-96697367D01*
X86275618Y-97411653D02*
X86275618Y-97911653D01*
X87061332Y-98125939D02*
X87061332Y-97411653D01*
X87061332Y-97411653D02*
X85561332Y-97411653D01*
X85561332Y-97411653D02*
X85561332Y-98125939D01*
X86275618Y-98768796D02*
X86275618Y-99268796D01*
X87061332Y-99483082D02*
X87061332Y-98768796D01*
X87061332Y-98768796D02*
X85561332Y-98768796D01*
X85561332Y-98768796D02*
X85561332Y-99483082D01*
X85632761Y-102054511D02*
X85561332Y-101911654D01*
X85561332Y-101911654D02*
X85561332Y-101697368D01*
X85561332Y-101697368D02*
X85632761Y-101483082D01*
X85632761Y-101483082D02*
X85775618Y-101340225D01*
X85775618Y-101340225D02*
X85918475Y-101268796D01*
X85918475Y-101268796D02*
X86204189Y-101197368D01*
X86204189Y-101197368D02*
X86418475Y-101197368D01*
X86418475Y-101197368D02*
X86704189Y-101268796D01*
X86704189Y-101268796D02*
X86847046Y-101340225D01*
X86847046Y-101340225D02*
X86989904Y-101483082D01*
X86989904Y-101483082D02*
X87061332Y-101697368D01*
X87061332Y-101697368D02*
X87061332Y-101840225D01*
X87061332Y-101840225D02*
X86989904Y-102054511D01*
X86989904Y-102054511D02*
X86918475Y-102125939D01*
X86918475Y-102125939D02*
X86418475Y-102125939D01*
X86418475Y-102125939D02*
X86418475Y-101840225D01*
X85561332Y-102768796D02*
X86775618Y-102768796D01*
X86775618Y-102768796D02*
X86918475Y-102840225D01*
X86918475Y-102840225D02*
X86989904Y-102911654D01*
X86989904Y-102911654D02*
X87061332Y-103054511D01*
X87061332Y-103054511D02*
X87061332Y-103340225D01*
X87061332Y-103340225D02*
X86989904Y-103483082D01*
X86989904Y-103483082D02*
X86918475Y-103554511D01*
X86918475Y-103554511D02*
X86775618Y-103625939D01*
X86775618Y-103625939D02*
X85561332Y-103625939D01*
X87061332Y-104340225D02*
X85561332Y-104340225D01*
X85561332Y-104340225D02*
X87061332Y-105197368D01*
X87061332Y-105197368D02*
X85561332Y-105197368D01*
X85561332Y-106340226D02*
X86632761Y-106340226D01*
X86632761Y-106340226D02*
X86847046Y-106268797D01*
X86847046Y-106268797D02*
X86989904Y-106125940D01*
X86989904Y-106125940D02*
X87061332Y-105911654D01*
X87061332Y-105911654D02*
X87061332Y-105768797D01*
X86632761Y-106983083D02*
X86632761Y-107697369D01*
X87061332Y-106840226D02*
X85561332Y-107340226D01*
X85561332Y-107340226D02*
X87061332Y-107840226D01*
X87061332Y-109054511D02*
X87061332Y-108340225D01*
X87061332Y-108340225D02*
X85561332Y-108340225D01*
X89476248Y-87054510D02*
X87976248Y-87054510D01*
X89476248Y-87911653D02*
X88619105Y-87268796D01*
X87976248Y-87911653D02*
X88833391Y-87054510D01*
X89476248Y-89411653D02*
X88761962Y-88911653D01*
X89476248Y-88554510D02*
X87976248Y-88554510D01*
X87976248Y-88554510D02*
X87976248Y-89125939D01*
X87976248Y-89125939D02*
X88047677Y-89268796D01*
X88047677Y-89268796D02*
X88119105Y-89340225D01*
X88119105Y-89340225D02*
X88261962Y-89411653D01*
X88261962Y-89411653D02*
X88476248Y-89411653D01*
X88476248Y-89411653D02*
X88619105Y-89340225D01*
X88619105Y-89340225D02*
X88690534Y-89268796D01*
X88690534Y-89268796D02*
X88761962Y-89125939D01*
X88761962Y-89125939D02*
X88761962Y-88554510D01*
X89476248Y-90054510D02*
X87976248Y-90054510D01*
X89404820Y-90697368D02*
X89476248Y-90911654D01*
X89476248Y-90911654D02*
X89476248Y-91268796D01*
X89476248Y-91268796D02*
X89404820Y-91411654D01*
X89404820Y-91411654D02*
X89333391Y-91483082D01*
X89333391Y-91483082D02*
X89190534Y-91554511D01*
X89190534Y-91554511D02*
X89047677Y-91554511D01*
X89047677Y-91554511D02*
X88904820Y-91483082D01*
X88904820Y-91483082D02*
X88833391Y-91411654D01*
X88833391Y-91411654D02*
X88761962Y-91268796D01*
X88761962Y-91268796D02*
X88690534Y-90983082D01*
X88690534Y-90983082D02*
X88619105Y-90840225D01*
X88619105Y-90840225D02*
X88547677Y-90768796D01*
X88547677Y-90768796D02*
X88404820Y-90697368D01*
X88404820Y-90697368D02*
X88261962Y-90697368D01*
X88261962Y-90697368D02*
X88119105Y-90768796D01*
X88119105Y-90768796D02*
X88047677Y-90840225D01*
X88047677Y-90840225D02*
X87976248Y-90983082D01*
X87976248Y-90983082D02*
X87976248Y-91340225D01*
X87976248Y-91340225D02*
X88047677Y-91554511D01*
X89476248Y-92197367D02*
X87976248Y-92197367D01*
X88690534Y-92197367D02*
X88690534Y-93054510D01*
X89476248Y-93054510D02*
X87976248Y-93054510D01*
X89476248Y-93768796D02*
X87976248Y-93768796D01*
X87976248Y-93768796D02*
X89476248Y-94625939D01*
X89476248Y-94625939D02*
X87976248Y-94625939D01*
X89047677Y-95268797D02*
X89047677Y-95983083D01*
X89476248Y-95125940D02*
X87976248Y-95625940D01*
X87976248Y-95625940D02*
X89476248Y-96125940D01*
X88047677Y-98554511D02*
X87976248Y-98411654D01*
X87976248Y-98411654D02*
X87976248Y-98197368D01*
X87976248Y-98197368D02*
X88047677Y-97983082D01*
X88047677Y-97983082D02*
X88190534Y-97840225D01*
X88190534Y-97840225D02*
X88333391Y-97768796D01*
X88333391Y-97768796D02*
X88619105Y-97697368D01*
X88619105Y-97697368D02*
X88833391Y-97697368D01*
X88833391Y-97697368D02*
X89119105Y-97768796D01*
X89119105Y-97768796D02*
X89261962Y-97840225D01*
X89261962Y-97840225D02*
X89404820Y-97983082D01*
X89404820Y-97983082D02*
X89476248Y-98197368D01*
X89476248Y-98197368D02*
X89476248Y-98340225D01*
X89476248Y-98340225D02*
X89404820Y-98554511D01*
X89404820Y-98554511D02*
X89333391Y-98625939D01*
X89333391Y-98625939D02*
X88833391Y-98625939D01*
X88833391Y-98625939D02*
X88833391Y-98340225D01*
X87976248Y-99268796D02*
X89190534Y-99268796D01*
X89190534Y-99268796D02*
X89333391Y-99340225D01*
X89333391Y-99340225D02*
X89404820Y-99411654D01*
X89404820Y-99411654D02*
X89476248Y-99554511D01*
X89476248Y-99554511D02*
X89476248Y-99840225D01*
X89476248Y-99840225D02*
X89404820Y-99983082D01*
X89404820Y-99983082D02*
X89333391Y-100054511D01*
X89333391Y-100054511D02*
X89190534Y-100125939D01*
X89190534Y-100125939D02*
X87976248Y-100125939D01*
X89476248Y-100840225D02*
X87976248Y-100840225D01*
X87976248Y-100840225D02*
X89476248Y-101697368D01*
X89476248Y-101697368D02*
X87976248Y-101697368D01*
X89476248Y-102411654D02*
X87976248Y-102411654D01*
X87976248Y-102411654D02*
X87976248Y-102768797D01*
X87976248Y-102768797D02*
X88047677Y-102983083D01*
X88047677Y-102983083D02*
X88190534Y-103125940D01*
X88190534Y-103125940D02*
X88333391Y-103197369D01*
X88333391Y-103197369D02*
X88619105Y-103268797D01*
X88619105Y-103268797D02*
X88833391Y-103268797D01*
X88833391Y-103268797D02*
X89119105Y-103197369D01*
X89119105Y-103197369D02*
X89261962Y-103125940D01*
X89261962Y-103125940D02*
X89404820Y-102983083D01*
X89404820Y-102983083D02*
X89476248Y-102768797D01*
X89476248Y-102768797D02*
X89476248Y-102411654D01*
X91891164Y-87054510D02*
X90391164Y-87054510D01*
X90391164Y-87054510D02*
X91462593Y-87554510D01*
X91462593Y-87554510D02*
X90391164Y-88054510D01*
X90391164Y-88054510D02*
X91891164Y-88054510D01*
X91176878Y-89054511D02*
X91891164Y-89054511D01*
X90391164Y-88554511D02*
X91176878Y-89054511D01*
X91176878Y-89054511D02*
X90391164Y-89554511D01*
X90391164Y-89840225D02*
X90391164Y-90697368D01*
X91891164Y-90268796D02*
X90391164Y-90268796D01*
X91891164Y-92054510D02*
X91176878Y-91554510D01*
X91891164Y-91197367D02*
X90391164Y-91197367D01*
X90391164Y-91197367D02*
X90391164Y-91768796D01*
X90391164Y-91768796D02*
X90462593Y-91911653D01*
X90462593Y-91911653D02*
X90534021Y-91983082D01*
X90534021Y-91983082D02*
X90676878Y-92054510D01*
X90676878Y-92054510D02*
X90891164Y-92054510D01*
X90891164Y-92054510D02*
X91034021Y-91983082D01*
X91034021Y-91983082D02*
X91105450Y-91911653D01*
X91105450Y-91911653D02*
X91176878Y-91768796D01*
X91176878Y-91768796D02*
X91176878Y-91197367D01*
X91105450Y-92697367D02*
X91105450Y-93197367D01*
X91891164Y-93411653D02*
X91891164Y-92697367D01*
X91891164Y-92697367D02*
X90391164Y-92697367D01*
X90391164Y-92697367D02*
X90391164Y-93411653D01*
X91176878Y-94340225D02*
X91891164Y-94340225D01*
X90391164Y-93840225D02*
X91176878Y-94340225D01*
X91176878Y-94340225D02*
X90391164Y-94840225D01*
X91462593Y-95268796D02*
X91462593Y-95983082D01*
X91891164Y-95125939D02*
X90391164Y-95625939D01*
X90391164Y-95625939D02*
X91891164Y-96125939D01*
X91105450Y-98268795D02*
X91176878Y-98483081D01*
X91176878Y-98483081D02*
X91248307Y-98554510D01*
X91248307Y-98554510D02*
X91391164Y-98625938D01*
X91391164Y-98625938D02*
X91605450Y-98625938D01*
X91605450Y-98625938D02*
X91748307Y-98554510D01*
X91748307Y-98554510D02*
X91819736Y-98483081D01*
X91819736Y-98483081D02*
X91891164Y-98340224D01*
X91891164Y-98340224D02*
X91891164Y-97768795D01*
X91891164Y-97768795D02*
X90391164Y-97768795D01*
X90391164Y-97768795D02*
X90391164Y-98268795D01*
X90391164Y-98268795D02*
X90462593Y-98411653D01*
X90462593Y-98411653D02*
X90534021Y-98483081D01*
X90534021Y-98483081D02*
X90676878Y-98554510D01*
X90676878Y-98554510D02*
X90819736Y-98554510D01*
X90819736Y-98554510D02*
X90962593Y-98483081D01*
X90962593Y-98483081D02*
X91034021Y-98411653D01*
X91034021Y-98411653D02*
X91105450Y-98268795D01*
X91105450Y-98268795D02*
X91105450Y-97768795D01*
X91462593Y-99197367D02*
X91462593Y-99911653D01*
X91891164Y-99054510D02*
X90391164Y-99554510D01*
X90391164Y-99554510D02*
X91891164Y-100054510D01*
X91891164Y-100554509D02*
X90391164Y-100554509D01*
X90391164Y-100554509D02*
X90391164Y-100911652D01*
X90391164Y-100911652D02*
X90462593Y-101125938D01*
X90462593Y-101125938D02*
X90605450Y-101268795D01*
X90605450Y-101268795D02*
X90748307Y-101340224D01*
X90748307Y-101340224D02*
X91034021Y-101411652D01*
X91034021Y-101411652D02*
X91248307Y-101411652D01*
X91248307Y-101411652D02*
X91534021Y-101340224D01*
X91534021Y-101340224D02*
X91676878Y-101268795D01*
X91676878Y-101268795D02*
X91819736Y-101125938D01*
X91819736Y-101125938D02*
X91891164Y-100911652D01*
X91891164Y-100911652D02*
X91891164Y-100554509D01*
X91462593Y-101983081D02*
X91462593Y-102697367D01*
X91891164Y-101840224D02*
X90391164Y-102340224D01*
X90391164Y-102340224D02*
X91891164Y-102840224D01*
X91891164Y-103340223D02*
X90391164Y-103340223D01*
X90391164Y-103340223D02*
X91462593Y-103840223D01*
X91462593Y-103840223D02*
X90391164Y-104340223D01*
X90391164Y-104340223D02*
X91891164Y-104340223D01*
X91891164Y-105054509D02*
X90391164Y-105054509D01*
X90391164Y-105054509D02*
X90391164Y-105625938D01*
X90391164Y-105625938D02*
X90462593Y-105768795D01*
X90462593Y-105768795D02*
X90534021Y-105840224D01*
X90534021Y-105840224D02*
X90676878Y-105911652D01*
X90676878Y-105911652D02*
X90891164Y-105911652D01*
X90891164Y-105911652D02*
X91034021Y-105840224D01*
X91034021Y-105840224D02*
X91105450Y-105768795D01*
X91105450Y-105768795D02*
X91176878Y-105625938D01*
X91176878Y-105625938D02*
X91176878Y-105054509D01*
X90391164Y-106554509D02*
X91605450Y-106554509D01*
X91605450Y-106554509D02*
X91748307Y-106625938D01*
X91748307Y-106625938D02*
X91819736Y-106697367D01*
X91819736Y-106697367D02*
X91891164Y-106840224D01*
X91891164Y-106840224D02*
X91891164Y-107125938D01*
X91891164Y-107125938D02*
X91819736Y-107268795D01*
X91819736Y-107268795D02*
X91748307Y-107340224D01*
X91748307Y-107340224D02*
X91605450Y-107411652D01*
X91605450Y-107411652D02*
X90391164Y-107411652D01*
X91891164Y-108125938D02*
X90391164Y-108125938D01*
X90391164Y-108125938D02*
X90391164Y-108483081D01*
X90391164Y-108483081D02*
X90462593Y-108697367D01*
X90462593Y-108697367D02*
X90605450Y-108840224D01*
X90605450Y-108840224D02*
X90748307Y-108911653D01*
X90748307Y-108911653D02*
X91034021Y-108983081D01*
X91034021Y-108983081D02*
X91248307Y-108983081D01*
X91248307Y-108983081D02*
X91534021Y-108911653D01*
X91534021Y-108911653D02*
X91676878Y-108840224D01*
X91676878Y-108840224D02*
X91819736Y-108697367D01*
X91819736Y-108697367D02*
X91891164Y-108483081D01*
X91891164Y-108483081D02*
X91891164Y-108125938D01*
X91891164Y-109625938D02*
X90391164Y-109625938D01*
X93591794Y-87340225D02*
X94306080Y-87340225D01*
X92806080Y-86840225D02*
X93591794Y-87340225D01*
X93591794Y-87340225D02*
X92806080Y-87840225D01*
X93877509Y-88268796D02*
X93877509Y-88983082D01*
X94306080Y-88125939D02*
X92806080Y-88625939D01*
X92806080Y-88625939D02*
X94306080Y-89125939D01*
X94234652Y-89554510D02*
X94306080Y-89768796D01*
X94306080Y-89768796D02*
X94306080Y-90125938D01*
X94306080Y-90125938D02*
X94234652Y-90268796D01*
X94234652Y-90268796D02*
X94163223Y-90340224D01*
X94163223Y-90340224D02*
X94020366Y-90411653D01*
X94020366Y-90411653D02*
X93877509Y-90411653D01*
X93877509Y-90411653D02*
X93734652Y-90340224D01*
X93734652Y-90340224D02*
X93663223Y-90268796D01*
X93663223Y-90268796D02*
X93591794Y-90125938D01*
X93591794Y-90125938D02*
X93520366Y-89840224D01*
X93520366Y-89840224D02*
X93448937Y-89697367D01*
X93448937Y-89697367D02*
X93377509Y-89625938D01*
X93377509Y-89625938D02*
X93234652Y-89554510D01*
X93234652Y-89554510D02*
X93091794Y-89554510D01*
X93091794Y-89554510D02*
X92948937Y-89625938D01*
X92948937Y-89625938D02*
X92877509Y-89697367D01*
X92877509Y-89697367D02*
X92806080Y-89840224D01*
X92806080Y-89840224D02*
X92806080Y-90197367D01*
X92806080Y-90197367D02*
X92877509Y-90411653D01*
X94306080Y-91054509D02*
X92806080Y-91054509D01*
X93520366Y-91054509D02*
X93520366Y-91911652D01*
X94306080Y-91911652D02*
X92806080Y-91911652D01*
X94306080Y-93768795D02*
X92806080Y-93768795D01*
X92806080Y-93768795D02*
X92806080Y-94340224D01*
X92806080Y-94340224D02*
X92877509Y-94483081D01*
X92877509Y-94483081D02*
X92948937Y-94554510D01*
X92948937Y-94554510D02*
X93091794Y-94625938D01*
X93091794Y-94625938D02*
X93306080Y-94625938D01*
X93306080Y-94625938D02*
X93448937Y-94554510D01*
X93448937Y-94554510D02*
X93520366Y-94483081D01*
X93520366Y-94483081D02*
X93591794Y-94340224D01*
X93591794Y-94340224D02*
X93591794Y-93768795D01*
X93877509Y-95197367D02*
X93877509Y-95911653D01*
X94306080Y-95054510D02*
X92806080Y-95554510D01*
X92806080Y-95554510D02*
X94306080Y-96054510D01*
X92806080Y-96340224D02*
X92806080Y-97197367D01*
X94306080Y-96768795D02*
X92806080Y-96768795D01*
X94306080Y-97697366D02*
X92806080Y-97697366D01*
X94306080Y-98411652D02*
X92806080Y-98411652D01*
X92806080Y-98411652D02*
X92806080Y-98768795D01*
X92806080Y-98768795D02*
X92877509Y-98983081D01*
X92877509Y-98983081D02*
X93020366Y-99125938D01*
X93020366Y-99125938D02*
X93163223Y-99197367D01*
X93163223Y-99197367D02*
X93448937Y-99268795D01*
X93448937Y-99268795D02*
X93663223Y-99268795D01*
X93663223Y-99268795D02*
X93948937Y-99197367D01*
X93948937Y-99197367D02*
X94091794Y-99125938D01*
X94091794Y-99125938D02*
X94234652Y-98983081D01*
X94234652Y-98983081D02*
X94306080Y-98768795D01*
X94306080Y-98768795D02*
X94306080Y-98411652D01*
X93877509Y-99840224D02*
X93877509Y-100554510D01*
X94306080Y-99697367D02*
X92806080Y-100197367D01*
X92806080Y-100197367D02*
X94306080Y-100697367D01*
X94306080Y-102054509D02*
X93591794Y-101554509D01*
X94306080Y-101197366D02*
X92806080Y-101197366D01*
X92806080Y-101197366D02*
X92806080Y-101768795D01*
X92806080Y-101768795D02*
X92877509Y-101911652D01*
X92877509Y-101911652D02*
X92948937Y-101983081D01*
X92948937Y-101983081D02*
X93091794Y-102054509D01*
X93091794Y-102054509D02*
X93306080Y-102054509D01*
X93306080Y-102054509D02*
X93448937Y-101983081D01*
X93448937Y-101983081D02*
X93520366Y-101911652D01*
X93520366Y-101911652D02*
X93591794Y-101768795D01*
X93591794Y-101768795D02*
X93591794Y-101197366D01*
X96720996Y-87911653D02*
X96006710Y-87411653D01*
X96720996Y-87054510D02*
X95220996Y-87054510D01*
X95220996Y-87054510D02*
X95220996Y-87625939D01*
X95220996Y-87625939D02*
X95292425Y-87768796D01*
X95292425Y-87768796D02*
X95363853Y-87840225D01*
X95363853Y-87840225D02*
X95506710Y-87911653D01*
X95506710Y-87911653D02*
X95720996Y-87911653D01*
X95720996Y-87911653D02*
X95863853Y-87840225D01*
X95863853Y-87840225D02*
X95935282Y-87768796D01*
X95935282Y-87768796D02*
X96006710Y-87625939D01*
X96006710Y-87625939D02*
X96006710Y-87054510D01*
X96720996Y-88554510D02*
X95220996Y-88554510D01*
X96649568Y-89197368D02*
X96720996Y-89411654D01*
X96720996Y-89411654D02*
X96720996Y-89768796D01*
X96720996Y-89768796D02*
X96649568Y-89911654D01*
X96649568Y-89911654D02*
X96578139Y-89983082D01*
X96578139Y-89983082D02*
X96435282Y-90054511D01*
X96435282Y-90054511D02*
X96292425Y-90054511D01*
X96292425Y-90054511D02*
X96149568Y-89983082D01*
X96149568Y-89983082D02*
X96078139Y-89911654D01*
X96078139Y-89911654D02*
X96006710Y-89768796D01*
X96006710Y-89768796D02*
X95935282Y-89483082D01*
X95935282Y-89483082D02*
X95863853Y-89340225D01*
X95863853Y-89340225D02*
X95792425Y-89268796D01*
X95792425Y-89268796D02*
X95649568Y-89197368D01*
X95649568Y-89197368D02*
X95506710Y-89197368D01*
X95506710Y-89197368D02*
X95363853Y-89268796D01*
X95363853Y-89268796D02*
X95292425Y-89340225D01*
X95292425Y-89340225D02*
X95220996Y-89483082D01*
X95220996Y-89483082D02*
X95220996Y-89840225D01*
X95220996Y-89840225D02*
X95292425Y-90054511D01*
X96720996Y-90697367D02*
X95220996Y-90697367D01*
X95935282Y-90697367D02*
X95935282Y-91554510D01*
X96720996Y-91554510D02*
X95220996Y-91554510D01*
X96720996Y-92268796D02*
X95220996Y-92268796D01*
X95220996Y-92768797D02*
X95220996Y-93625940D01*
X96720996Y-93197368D02*
X95220996Y-93197368D01*
X96720996Y-95268796D02*
X95220996Y-95268796D01*
X96720996Y-96125939D02*
X95863853Y-95483082D01*
X95220996Y-96125939D02*
X96078139Y-95268796D01*
X95220996Y-96768796D02*
X96435282Y-96768796D01*
X96435282Y-96768796D02*
X96578139Y-96840225D01*
X96578139Y-96840225D02*
X96649568Y-96911654D01*
X96649568Y-96911654D02*
X96720996Y-97054511D01*
X96720996Y-97054511D02*
X96720996Y-97340225D01*
X96720996Y-97340225D02*
X96649568Y-97483082D01*
X96649568Y-97483082D02*
X96578139Y-97554511D01*
X96578139Y-97554511D02*
X96435282Y-97625939D01*
X96435282Y-97625939D02*
X95220996Y-97625939D01*
X96720996Y-99054511D02*
X96720996Y-98340225D01*
X96720996Y-98340225D02*
X95220996Y-98340225D01*
X96720996Y-99554511D02*
X95220996Y-99554511D01*
X96720996Y-100411654D02*
X95863853Y-99768797D01*
X95220996Y-100411654D02*
X96078139Y-99554511D01*
X96292425Y-100983083D02*
X96292425Y-101697369D01*
X96720996Y-100840226D02*
X95220996Y-101340226D01*
X95220996Y-101340226D02*
X96720996Y-101840226D01*
X96720996Y-103197368D02*
X96006710Y-102697368D01*
X96720996Y-102340225D02*
X95220996Y-102340225D01*
X95220996Y-102340225D02*
X95220996Y-102911654D01*
X95220996Y-102911654D02*
X95292425Y-103054511D01*
X95292425Y-103054511D02*
X95363853Y-103125940D01*
X95363853Y-103125940D02*
X95506710Y-103197368D01*
X95506710Y-103197368D02*
X95720996Y-103197368D01*
X95720996Y-103197368D02*
X95863853Y-103125940D01*
X95863853Y-103125940D02*
X95935282Y-103054511D01*
X95935282Y-103054511D02*
X96006710Y-102911654D01*
X96006710Y-102911654D02*
X96006710Y-102340225D01*
X96720996Y-103840225D02*
X95220996Y-103840225D01*
X95220996Y-103840225D02*
X96720996Y-104697368D01*
X96720996Y-104697368D02*
X95220996Y-104697368D01*
X96720996Y-105411654D02*
X95220996Y-105411654D01*
X99135912Y-87054510D02*
X97635912Y-87054510D01*
X97635912Y-87054510D02*
X97635912Y-87411653D01*
X97635912Y-87411653D02*
X97707341Y-87625939D01*
X97707341Y-87625939D02*
X97850198Y-87768796D01*
X97850198Y-87768796D02*
X97993055Y-87840225D01*
X97993055Y-87840225D02*
X98278769Y-87911653D01*
X98278769Y-87911653D02*
X98493055Y-87911653D01*
X98493055Y-87911653D02*
X98778769Y-87840225D01*
X98778769Y-87840225D02*
X98921626Y-87768796D01*
X98921626Y-87768796D02*
X99064484Y-87625939D01*
X99064484Y-87625939D02*
X99135912Y-87411653D01*
X99135912Y-87411653D02*
X99135912Y-87054510D01*
X98350198Y-88554510D02*
X98350198Y-89054510D01*
X99135912Y-89268796D02*
X99135912Y-88554510D01*
X99135912Y-88554510D02*
X97635912Y-88554510D01*
X97635912Y-88554510D02*
X97635912Y-89268796D01*
X98350198Y-89911653D02*
X98350198Y-90411653D01*
X99135912Y-90625939D02*
X99135912Y-89911653D01*
X99135912Y-89911653D02*
X97635912Y-89911653D01*
X97635912Y-89911653D02*
X97635912Y-90625939D01*
X99135912Y-91268796D02*
X97635912Y-91268796D01*
X97635912Y-91268796D02*
X97635912Y-91840225D01*
X97635912Y-91840225D02*
X97707341Y-91983082D01*
X97707341Y-91983082D02*
X97778769Y-92054511D01*
X97778769Y-92054511D02*
X97921626Y-92125939D01*
X97921626Y-92125939D02*
X98135912Y-92125939D01*
X98135912Y-92125939D02*
X98278769Y-92054511D01*
X98278769Y-92054511D02*
X98350198Y-91983082D01*
X98350198Y-91983082D02*
X98421626Y-91840225D01*
X98421626Y-91840225D02*
X98421626Y-91268796D01*
X99064484Y-92697368D02*
X99135912Y-92911654D01*
X99135912Y-92911654D02*
X99135912Y-93268796D01*
X99135912Y-93268796D02*
X99064484Y-93411654D01*
X99064484Y-93411654D02*
X98993055Y-93483082D01*
X98993055Y-93483082D02*
X98850198Y-93554511D01*
X98850198Y-93554511D02*
X98707341Y-93554511D01*
X98707341Y-93554511D02*
X98564484Y-93483082D01*
X98564484Y-93483082D02*
X98493055Y-93411654D01*
X98493055Y-93411654D02*
X98421626Y-93268796D01*
X98421626Y-93268796D02*
X98350198Y-92983082D01*
X98350198Y-92983082D02*
X98278769Y-92840225D01*
X98278769Y-92840225D02*
X98207341Y-92768796D01*
X98207341Y-92768796D02*
X98064484Y-92697368D01*
X98064484Y-92697368D02*
X97921626Y-92697368D01*
X97921626Y-92697368D02*
X97778769Y-92768796D01*
X97778769Y-92768796D02*
X97707341Y-92840225D01*
X97707341Y-92840225D02*
X97635912Y-92983082D01*
X97635912Y-92983082D02*
X97635912Y-93340225D01*
X97635912Y-93340225D02*
X97707341Y-93554511D01*
X99135912Y-94197367D02*
X97635912Y-94197367D01*
X98350198Y-94197367D02*
X98350198Y-95054510D01*
X99135912Y-95054510D02*
X97635912Y-95054510D01*
X99135912Y-95768796D02*
X97635912Y-95768796D01*
X99135912Y-96483082D02*
X97635912Y-96483082D01*
X99135912Y-97340225D02*
X98278769Y-96697368D01*
X97635912Y-97340225D02*
X98493055Y-96483082D01*
X99135912Y-97983082D02*
X97635912Y-97983082D01*
X98350198Y-97983082D02*
X98350198Y-98840225D01*
X99135912Y-98840225D02*
X97635912Y-98840225D01*
X98707341Y-99483083D02*
X98707341Y-100197369D01*
X99135912Y-99340226D02*
X97635912Y-99840226D01*
X97635912Y-99840226D02*
X99135912Y-100340226D01*
X99064484Y-101911654D02*
X99135912Y-102125940D01*
X99135912Y-102125940D02*
X99135912Y-102483082D01*
X99135912Y-102483082D02*
X99064484Y-102625940D01*
X99064484Y-102625940D02*
X98993055Y-102697368D01*
X98993055Y-102697368D02*
X98850198Y-102768797D01*
X98850198Y-102768797D02*
X98707341Y-102768797D01*
X98707341Y-102768797D02*
X98564484Y-102697368D01*
X98564484Y-102697368D02*
X98493055Y-102625940D01*
X98493055Y-102625940D02*
X98421626Y-102483082D01*
X98421626Y-102483082D02*
X98350198Y-102197368D01*
X98350198Y-102197368D02*
X98278769Y-102054511D01*
X98278769Y-102054511D02*
X98207341Y-101983082D01*
X98207341Y-101983082D02*
X98064484Y-101911654D01*
X98064484Y-101911654D02*
X97921626Y-101911654D01*
X97921626Y-101911654D02*
X97778769Y-101983082D01*
X97778769Y-101983082D02*
X97707341Y-102054511D01*
X97707341Y-102054511D02*
X97635912Y-102197368D01*
X97635912Y-102197368D02*
X97635912Y-102554511D01*
X97635912Y-102554511D02*
X97707341Y-102768797D01*
X98707341Y-103340225D02*
X98707341Y-104054511D01*
X99135912Y-103197368D02*
X97635912Y-103697368D01*
X97635912Y-103697368D02*
X99135912Y-104197368D01*
X99135912Y-105554510D02*
X98421626Y-105054510D01*
X99135912Y-104697367D02*
X97635912Y-104697367D01*
X97635912Y-104697367D02*
X97635912Y-105268796D01*
X97635912Y-105268796D02*
X97707341Y-105411653D01*
X97707341Y-105411653D02*
X97778769Y-105483082D01*
X97778769Y-105483082D02*
X97921626Y-105554510D01*
X97921626Y-105554510D02*
X98135912Y-105554510D01*
X98135912Y-105554510D02*
X98278769Y-105483082D01*
X98278769Y-105483082D02*
X98350198Y-105411653D01*
X98350198Y-105411653D02*
X98421626Y-105268796D01*
X98421626Y-105268796D02*
X98421626Y-104697367D01*
X98707341Y-106125939D02*
X98707341Y-106840225D01*
X99135912Y-105983082D02*
X97635912Y-106483082D01*
X97635912Y-106483082D02*
X99135912Y-106983082D01*
X99135912Y-107483081D02*
X97635912Y-107483081D01*
X97635912Y-107483081D02*
X99135912Y-108340224D01*
X99135912Y-108340224D02*
X97635912Y-108340224D01*
X97707341Y-109840225D02*
X97635912Y-109697368D01*
X97635912Y-109697368D02*
X97635912Y-109483082D01*
X97635912Y-109483082D02*
X97707341Y-109268796D01*
X97707341Y-109268796D02*
X97850198Y-109125939D01*
X97850198Y-109125939D02*
X97993055Y-109054510D01*
X97993055Y-109054510D02*
X98278769Y-108983082D01*
X98278769Y-108983082D02*
X98493055Y-108983082D01*
X98493055Y-108983082D02*
X98778769Y-109054510D01*
X98778769Y-109054510D02*
X98921626Y-109125939D01*
X98921626Y-109125939D02*
X99064484Y-109268796D01*
X99064484Y-109268796D02*
X99135912Y-109483082D01*
X99135912Y-109483082D02*
X99135912Y-109625939D01*
X99135912Y-109625939D02*
X99064484Y-109840225D01*
X99064484Y-109840225D02*
X98993055Y-109911653D01*
X98993055Y-109911653D02*
X98493055Y-109911653D01*
X98493055Y-109911653D02*
X98493055Y-109625939D01*
X99135912Y-110554510D02*
X97635912Y-110554510D01*
X100979400Y-87054510D02*
X100979400Y-88197368D01*
X100979400Y-88911653D02*
X100979400Y-90054511D01*
X100979400Y-90768796D02*
X100979400Y-91911654D01*
X100979400Y-92625939D02*
X100979400Y-93768797D01*
X100979400Y-94483082D02*
X100979400Y-95625940D01*
X100979400Y-96340225D02*
X100979400Y-97483083D01*
X100979400Y-98197368D02*
X100979400Y-99340226D01*
X100979400Y-100054511D02*
X100979400Y-101197369D01*
X100979400Y-101911654D02*
X100979400Y-103054512D01*
X100979400Y-103768797D02*
X100979400Y-104911655D01*
X100979400Y-105625940D02*
X100979400Y-106768798D01*
X100979400Y-107483083D02*
X100979400Y-108625941D01*
X100979400Y-109340226D02*
X100979400Y-110483084D01*
X100979400Y-111197369D02*
X100979400Y-112340227D01*
M02*
