%TF.GenerationSoftware,KiCad,Pcbnew,9.0.4*%
%TF.CreationDate,2025-10-04T23:37:01+05:30*%
%TF.ProjectId,FireSide,46697265-5369-4646-952e-6b696361645f,rev?*%
%TF.SameCoordinates,Original*%
%TF.FileFunction,Copper,L2,Bot*%
%TF.FilePolarity,Positive*%
%FSLAX46Y46*%
G04 Gerber Fmt 4.6, Leading zero omitted, Abs format (unit mm)*
G04 Created by KiCad (PCBNEW 9.0.4) date 2025-10-04 23:37:01*
%MOMM*%
%LPD*%
G01*
G04 APERTURE LIST*
G04 Aperture macros list*
%AMRoundRect*
0 Rectangle with rounded corners*
0 $1 Rounding radius*
0 $2 $3 $4 $5 $6 $7 $8 $9 X,Y pos of 4 corners*
0 Add a 4 corners polygon primitive as box body*
4,1,4,$2,$3,$4,$5,$6,$7,$8,$9,$2,$3,0*
0 Add four circle primitives for the rounded corners*
1,1,$1+$1,$2,$3*
1,1,$1+$1,$4,$5*
1,1,$1+$1,$6,$7*
1,1,$1+$1,$8,$9*
0 Add four rect primitives between the rounded corners*
20,1,$1+$1,$2,$3,$4,$5,0*
20,1,$1+$1,$4,$5,$6,$7,0*
20,1,$1+$1,$6,$7,$8,$9,0*
20,1,$1+$1,$8,$9,$2,$3,0*%
G04 Aperture macros list end*
%TA.AperFunction,ComponentPad*%
%ADD10C,1.400000*%
%TD*%
%TA.AperFunction,ComponentPad*%
%ADD11RoundRect,0.250000X-0.750000X0.600000X-0.750000X-0.600000X0.750000X-0.600000X0.750000X0.600000X0*%
%TD*%
%TA.AperFunction,ComponentPad*%
%ADD12O,2.000000X1.700000*%
%TD*%
%TA.AperFunction,ComponentPad*%
%ADD13C,7.500000*%
%TD*%
%TA.AperFunction,ComponentPad*%
%ADD14RoundRect,0.250000X0.750000X-0.600000X0.750000X0.600000X-0.750000X0.600000X-0.750000X-0.600000X0*%
%TD*%
%TA.AperFunction,ComponentPad*%
%ADD15C,1.800000*%
%TD*%
%TA.AperFunction,ComponentPad*%
%ADD16RoundRect,0.250000X-0.600000X-0.750000X0.600000X-0.750000X0.600000X0.750000X-0.600000X0.750000X0*%
%TD*%
%TA.AperFunction,ComponentPad*%
%ADD17O,1.700000X2.000000*%
%TD*%
%TA.AperFunction,ComponentPad*%
%ADD18R,1.700000X1.700000*%
%TD*%
%TA.AperFunction,ComponentPad*%
%ADD19C,1.700000*%
%TD*%
%TA.AperFunction,ComponentPad*%
%ADD20C,6.000000*%
%TD*%
%TA.AperFunction,ComponentPad*%
%ADD21R,6.000000X6.000000*%
%TD*%
%TA.AperFunction,ComponentPad*%
%ADD22R,1.524000X1.524000*%
%TD*%
%TA.AperFunction,ComponentPad*%
%ADD23C,1.524000*%
%TD*%
%TA.AperFunction,ComponentPad*%
%ADD24C,3.000000*%
%TD*%
%TA.AperFunction,ComponentPad*%
%ADD25R,3.000000X3.000000*%
%TD*%
%TA.AperFunction,ComponentPad*%
%ADD26O,1.700000X1.700000*%
%TD*%
%TA.AperFunction,ViaPad*%
%ADD27C,0.600000*%
%TD*%
G04 APERTURE END LIST*
D10*
%TO.P,R5,1*%
%TO.N,3.3V_STM*%
X147790000Y-96550000D03*
%TO.P,R5,2*%
%TO.N,A_THERM-2*%
X142710000Y-96550000D03*
%TD*%
%TO.P,R6,1*%
%TO.N,3.3V_STM*%
X147790000Y-83550000D03*
%TO.P,R6,2*%
%TO.N,A_THERM-3*%
X142710000Y-83550000D03*
%TD*%
D11*
%TO.P,J8,1,Pin_1*%
%TO.N,GND*%
X130500000Y-35750000D03*
D12*
%TO.P,J8,2,Pin_2*%
%TO.N,5V*%
X130500000Y-38250000D03*
%TD*%
D13*
%TO.P,H2,1,1*%
%TO.N,GND*%
X76500000Y-145600000D03*
%TD*%
%TO.P,H3,1,1*%
%TO.N,GND*%
X76500000Y-34500000D03*
%TD*%
D14*
%TO.P,J6,1,Pin_1*%
%TO.N,A_THERM-3*%
X142750000Y-78250000D03*
D12*
%TO.P,J6,2,Pin_2*%
%TO.N,GND*%
X142750000Y-75750000D03*
%TD*%
D10*
%TO.P,R7,1*%
%TO.N,3.3V_STM*%
X147825396Y-70550000D03*
%TO.P,R7,2*%
%TO.N,A_THERM-4*%
X142745396Y-70550000D03*
%TD*%
D15*
%TO.P,U6,1,GND*%
%TO.N,GND*%
X104000000Y-122500000D03*
%TO.P,U6,2,PWM*%
%TO.N,PWM_D4184-3*%
X104000000Y-118500000D03*
%TO.P,U6,3,-*%
%TO.N,unconnected-(U6---Pad3)*%
X76500000Y-125500000D03*
%TO.P,U6,4,LOAD*%
%TO.N,unconnected-(U6-LOAD-Pad4)*%
X76500000Y-120500000D03*
%TO.P,U6,5,+*%
%TO.N,unconnected-(U6-+-Pad5)*%
X76500000Y-115500000D03*
%TD*%
D16*
%TO.P,J2,1,Pin_1*%
%TO.N,A1*%
X142250000Y-115250000D03*
D17*
%TO.P,J2,2,Pin_2*%
%TO.N,GND*%
X144750000Y-115250000D03*
%TD*%
D16*
%TO.P,J1,1,Pin_1*%
%TO.N,A0*%
X142250000Y-123500000D03*
D17*
%TO.P,J1,2,Pin_2*%
%TO.N,GND*%
X144750000Y-123500000D03*
%TD*%
D13*
%TO.P,H1,1,1*%
%TO.N,GND*%
X149000000Y-145600000D03*
%TD*%
D15*
%TO.P,U5,1,GND*%
%TO.N,GND*%
X104000000Y-87250000D03*
%TO.P,U5,2,PWM*%
%TO.N,PWM_D4184-1*%
X104000000Y-83250000D03*
%TO.P,U5,3,-*%
%TO.N,unconnected-(U5---Pad3)*%
X76500000Y-90250000D03*
%TO.P,U5,4,LOAD*%
%TO.N,unconnected-(U5-LOAD-Pad4)*%
X76500000Y-85250000D03*
%TO.P,U5,5,+*%
%TO.N,unconnected-(U5-+-Pad5)*%
X76500000Y-80250000D03*
%TD*%
D18*
%TO.P,J3,1,Pin_1*%
%TO.N,3.3V_STM*%
X130580000Y-124500000D03*
D19*
%TO.P,J3,2,Pin_2*%
%TO.N,GND*%
X128040000Y-124500000D03*
%TO.P,J3,3,Pin_3*%
%TO.N,SCK_SD*%
X125500000Y-124500000D03*
%TO.P,J3,4,Pin_4*%
%TO.N,MISO_SD*%
X122960000Y-124500000D03*
%TO.P,J3,5,Pin_5*%
%TO.N,MOSI_SD*%
X120420000Y-124500000D03*
%TO.P,J3,6,Pin_6*%
%TO.N,CS_SD*%
X117880000Y-124500000D03*
%TO.P,J3,7,Pin_7*%
%TO.N,unconnected-(J3-Pin_7-Pad7)*%
X115340000Y-124500000D03*
%TO.P,J3,8,Pin_8*%
%TO.N,unconnected-(J3-Pin_8-Pad8)*%
X112800000Y-124500000D03*
%TD*%
D20*
%TO.P,U8,N,NEG*%
%TO.N,GND*%
X111700000Y-38250000D03*
D21*
%TO.P,U8,P,POS*%
%TO.N,VI*%
X104500000Y-38250000D03*
%TD*%
D22*
%TO.P,U3,CN3_1,PA9/D1*%
%TO.N,RX_RYLR*%
X114750000Y-75500000D03*
D23*
%TO.P,U3,CN3_2,PA10/D0*%
%TO.N,TX_RYLR*%
X114750000Y-78040000D03*
%TO.P,U3,CN3_3,~{RST}_CN3*%
%TO.N,unconnected-(U3-~{RST}_CN3-PadCN3_3)*%
X114750000Y-80580000D03*
%TO.P,U3,CN3_4,GND_CN3*%
%TO.N,GND*%
X114750000Y-83120000D03*
%TO.P,U3,CN3_5,PA12/D2*%
%TO.N,unconnected-(U3-PA12{slash}D2-PadCN3_5)*%
X114750000Y-85660000D03*
%TO.P,U3,CN3_6,PB0/D3*%
%TO.N,PWM_D4184-1*%
X114750000Y-88200000D03*
%TO.P,U3,CN3_7,PB7/D4*%
%TO.N,unconnected-(U3-PB7{slash}D4-PadCN3_7)*%
X114750000Y-90740000D03*
%TO.P,U3,CN3_8,PB6/D5*%
%TO.N,STATUS_PIN*%
X114750000Y-93280000D03*
%TO.P,U3,CN3_9,PB1/D6*%
%TO.N,PWM_D4184-2*%
X114750000Y-95820000D03*
%TO.P,U3,CN3_10,PC14/D7*%
%TO.N,unconnected-(U3-PC14{slash}D7-PadCN3_10)*%
X114750000Y-98360000D03*
%TO.P,U3,CN3_11,PC15/D8*%
%TO.N,unconnected-(U3-PC15{slash}D8-PadCN3_11)*%
X114750000Y-100900000D03*
%TO.P,U3,CN3_12,PA8/D9*%
%TO.N,PWM_D4184-3*%
X114750000Y-103440000D03*
%TO.P,U3,CN3_13,PA11/D10*%
%TO.N,CS_SD*%
X114750000Y-105980000D03*
%TO.P,U3,CN3_14,PB5/D11*%
%TO.N,MOSI_SD*%
X114750000Y-108520000D03*
%TO.P,U3,CN3_15,PB4/D12*%
%TO.N,MISO_SD*%
X114750000Y-111060000D03*
%TO.P,U3,CN4_1,VIN*%
%TO.N,5Vin*%
X129990000Y-75500000D03*
%TO.P,U3,CN4_2,GND_CN4*%
%TO.N,unconnected-(U3-GND_CN4-PadCN4_2)*%
X129990000Y-78040000D03*
%TO.P,U3,CN4_3,~{RST}_CN4*%
%TO.N,unconnected-(U3-~{RST}_CN4-PadCN4_3)*%
X129990000Y-80580000D03*
%TO.P,U3,CN4_4,+5V*%
%TO.N,unconnected-(U3-+5V-PadCN4_4)*%
X129990000Y-83120000D03*
%TO.P,U3,CN4_5,PA2/A7*%
%TO.N,unconnected-(U3-PA2{slash}A7-PadCN4_5)*%
X129990000Y-85660000D03*
%TO.P,U3,CN4_6,PA7/A6*%
%TO.N,unconnected-(U3-PA7{slash}A6-PadCN4_6)*%
X129990000Y-88200000D03*
%TO.P,U3,CN4_7,PA6/A5*%
%TO.N,A_THERM-4*%
X129990000Y-90740000D03*
%TO.P,U3,CN4_8,PA5/A4*%
%TO.N,A_THERM-3*%
X129990000Y-93280000D03*
%TO.P,U3,CN4_9,PA4/A3*%
%TO.N,A_THERM-2*%
X129990000Y-95820000D03*
%TO.P,U3,CN4_10,PA3/A2*%
%TO.N,A_THERM-1*%
X129990000Y-98360000D03*
%TO.P,U3,CN4_11,PA1/A1*%
%TO.N,A1*%
X129990000Y-100900000D03*
%TO.P,U3,CN4_12,PA0/A0*%
%TO.N,A0*%
X129990000Y-103440000D03*
%TO.P,U3,CN4_13,AREF*%
%TO.N,unconnected-(U3-AREF-PadCN4_13)*%
X129990000Y-105980000D03*
%TO.P,U3,CN4_14,+3V3*%
%TO.N,3.3V_STM*%
X129990000Y-108520000D03*
%TO.P,U3,CN4_15,PB3/D13*%
%TO.N,SCK_SD*%
X129990000Y-111060000D03*
%TD*%
D10*
%TO.P,R2,1*%
%TO.N,3.3V_STM*%
X147790000Y-109550000D03*
%TO.P,R2,2*%
%TO.N,A_THERM-1*%
X142710000Y-109550000D03*
%TD*%
D14*
%TO.P,J4,1,Pin_1*%
%TO.N,A_THERM-1*%
X142750000Y-104250000D03*
D12*
%TO.P,J4,2,Pin_2*%
%TO.N,GND*%
X142750000Y-101750000D03*
%TD*%
D11*
%TO.P,J7,1,Pin_1*%
%TO.N,GND*%
X122750000Y-35750000D03*
D12*
%TO.P,J7,2,Pin_2*%
%TO.N,5V*%
X122750000Y-38250000D03*
%TD*%
D11*
%TO.P,J12,1,Pin_1*%
%TO.N,GND*%
X95250000Y-34000000D03*
D12*
%TO.P,J12,2,Pin_2*%
%TO.N,3.3V*%
X95250000Y-36500000D03*
%TD*%
D14*
%TO.P,J14,1,Pin_1*%
%TO.N,A_THERM-4*%
X142750000Y-65250000D03*
D12*
%TO.P,J14,2,Pin_2*%
%TO.N,GND*%
X142750000Y-62750000D03*
%TD*%
D11*
%TO.P,J10,1,Pin_1*%
%TO.N,Net-(J10-Pin_1)*%
X121750000Y-54000000D03*
D12*
%TO.P,J10,2,Pin_2*%
%TO.N,VI*%
X121750000Y-56500000D03*
%TD*%
D24*
%TO.P,TP2,1,1*%
%TO.N,3.3V*%
X95250000Y-42250000D03*
%TD*%
D11*
%TO.P,J11,1,Pin_1*%
%TO.N,GND*%
X85750000Y-34000000D03*
D12*
%TO.P,J11,2,Pin_2*%
%TO.N,3.3V*%
X85750000Y-36500000D03*
%TD*%
D24*
%TO.P,TP1,1,1*%
%TO.N,5V*%
X126500000Y-48500000D03*
%TD*%
D15*
%TO.P,U9,1,GND*%
%TO.N,GND*%
X104000000Y-104750000D03*
%TO.P,U9,2,PWM*%
%TO.N,PWM_D4184-2*%
X104000000Y-100750000D03*
%TO.P,U9,3,-*%
%TO.N,unconnected-(U9---Pad3)*%
X76500000Y-107750000D03*
%TO.P,U9,4,LOAD*%
%TO.N,unconnected-(U9-LOAD-Pad4)*%
X76500000Y-102750000D03*
%TO.P,U9,5,+*%
%TO.N,unconnected-(U9-+-Pad5)*%
X76500000Y-97750000D03*
%TD*%
D14*
%TO.P,J5,1,Pin_1*%
%TO.N,A_THERM-2*%
X142750000Y-91250000D03*
D12*
%TO.P,J5,2,Pin_2*%
%TO.N,GND*%
X142750000Y-88750000D03*
%TD*%
D13*
%TO.P,H4,1,1*%
%TO.N,GND*%
X149000000Y-34500000D03*
%TD*%
D25*
%TO.P,J13,1,Pin_1*%
%TO.N,5Vin*%
X139750000Y-52910000D03*
D24*
%TO.P,J13,2,Pin_2*%
%TO.N,GND*%
X139750000Y-47830000D03*
%TO.P,J13,3,Pin_3*%
%TO.N,5V*%
X139750000Y-42750000D03*
%TD*%
D26*
%TO.P,U2,1,VDD*%
%TO.N,3.3Vin*%
X87849000Y-61670000D03*
%TO.P,U2,2,RST*%
%TO.N,unconnected-(U2-RST-Pad2)*%
X87849000Y-64210000D03*
%TO.P,U2,3,RXD*%
%TO.N,RX_RYLR*%
X87849000Y-66750000D03*
%TO.P,U2,4,TXD*%
%TO.N,TX_RYLR*%
X87849000Y-69290000D03*
D18*
%TO.P,U2,5,GND*%
%TO.N,GND*%
X87849000Y-71830000D03*
%TD*%
D25*
%TO.P,J9,1,Pin_1*%
%TO.N,3.3V*%
X81750000Y-44170000D03*
D24*
%TO.P,J9,2,Pin_2*%
%TO.N,GND*%
X81750000Y-49250000D03*
%TO.P,J9,3,Pin_3*%
%TO.N,3.3Vin*%
X81750000Y-54330000D03*
%TD*%
D27*
%TO.N,GND*%
X131100250Y-59850250D03*
X109539335Y-44460665D03*
X106950000Y-44250000D03*
X88286263Y-50463737D03*
X133250000Y-71000000D03*
X97500000Y-44750000D03*
X100941768Y-54941768D03*
X117367769Y-47700000D03*
X133250000Y-67558421D03*
%TD*%
%TA.AperFunction,Conductor*%
%TO.N,GND*%
G36*
X149802855Y-29750632D02*
G01*
X150181764Y-29768149D01*
X150193154Y-29769205D01*
X150565988Y-29821213D01*
X150577232Y-29823315D01*
X150943677Y-29909502D01*
X150954667Y-29912629D01*
X151311616Y-30032267D01*
X151322270Y-30036395D01*
X151666643Y-30188450D01*
X151676870Y-30193542D01*
X151813325Y-30269547D01*
X152005739Y-30376721D01*
X152015477Y-30382750D01*
X152326033Y-30595486D01*
X152335173Y-30602388D01*
X152624780Y-30842874D01*
X152633244Y-30850591D01*
X152899408Y-31116755D01*
X152907125Y-31125219D01*
X153147611Y-31414826D01*
X153154513Y-31423966D01*
X153367249Y-31734522D01*
X153373278Y-31744260D01*
X153497077Y-31966521D01*
X153548008Y-32057961D01*
X153556450Y-32073116D01*
X153561555Y-32083369D01*
X153713599Y-32427716D01*
X153717737Y-32438396D01*
X153837366Y-32795319D01*
X153840500Y-32806335D01*
X153926682Y-33172759D01*
X153928787Y-33184018D01*
X153980793Y-33556838D01*
X153981850Y-33568242D01*
X153999368Y-33947144D01*
X153999500Y-33952871D01*
X153999500Y-146547128D01*
X153999368Y-146552855D01*
X153981850Y-146931757D01*
X153980793Y-146943161D01*
X153928787Y-147315981D01*
X153926682Y-147327240D01*
X153840500Y-147693664D01*
X153837366Y-147704680D01*
X153717737Y-148061603D01*
X153713599Y-148072283D01*
X153561555Y-148416630D01*
X153556450Y-148426883D01*
X153373278Y-148755739D01*
X153367249Y-148765477D01*
X153154513Y-149076033D01*
X153147611Y-149085173D01*
X152907125Y-149374780D01*
X152899408Y-149383244D01*
X152633244Y-149649408D01*
X152624780Y-149657125D01*
X152335173Y-149897611D01*
X152326033Y-149904513D01*
X152015477Y-150117249D01*
X152005739Y-150123278D01*
X151676883Y-150306450D01*
X151666630Y-150311555D01*
X151322283Y-150463599D01*
X151311603Y-150467737D01*
X150954680Y-150587366D01*
X150943664Y-150590500D01*
X150577240Y-150676682D01*
X150565981Y-150678787D01*
X150193161Y-150730793D01*
X150181757Y-150731850D01*
X149802855Y-150749368D01*
X149797128Y-150749500D01*
X75202872Y-150749500D01*
X75197145Y-150749368D01*
X74818242Y-150731850D01*
X74806838Y-150730793D01*
X74434018Y-150678787D01*
X74422759Y-150676682D01*
X74056335Y-150590500D01*
X74045319Y-150587366D01*
X73688396Y-150467737D01*
X73677716Y-150463599D01*
X73333365Y-150311553D01*
X73323121Y-150306452D01*
X73216521Y-150247077D01*
X72994260Y-150123278D01*
X72984522Y-150117249D01*
X72673966Y-149904513D01*
X72664826Y-149897611D01*
X72375219Y-149657125D01*
X72366755Y-149649408D01*
X72100591Y-149383244D01*
X72092874Y-149374780D01*
X71852388Y-149085173D01*
X71845486Y-149076033D01*
X71632750Y-148765477D01*
X71626721Y-148755739D01*
X71586383Y-148683319D01*
X71443542Y-148426870D01*
X71438450Y-148416643D01*
X71286395Y-148072270D01*
X71282267Y-148061616D01*
X71162629Y-147704667D01*
X71159502Y-147693677D01*
X71073315Y-147327232D01*
X71071212Y-147315981D01*
X71054170Y-147193813D01*
X71019205Y-146943154D01*
X71018149Y-146931757D01*
X71000632Y-146552855D01*
X71000500Y-146547128D01*
X71000500Y-125389778D01*
X75099500Y-125389778D01*
X75099500Y-125610222D01*
X75100300Y-125615270D01*
X75133985Y-125827952D01*
X75202103Y-126037603D01*
X75202104Y-126037606D01*
X75302187Y-126234025D01*
X75431752Y-126412358D01*
X75431756Y-126412363D01*
X75587636Y-126568243D01*
X75587641Y-126568247D01*
X75743192Y-126681260D01*
X75765978Y-126697815D01*
X75894375Y-126763237D01*
X75962393Y-126797895D01*
X75962396Y-126797896D01*
X76067221Y-126831955D01*
X76172049Y-126866015D01*
X76389778Y-126900500D01*
X76389779Y-126900500D01*
X76610221Y-126900500D01*
X76610222Y-126900500D01*
X76827951Y-126866015D01*
X77037606Y-126797895D01*
X77234022Y-126697815D01*
X77412365Y-126568242D01*
X77568242Y-126412365D01*
X77697815Y-126234022D01*
X77797895Y-126037606D01*
X77866015Y-125827951D01*
X77900500Y-125610222D01*
X77900500Y-125389778D01*
X77866015Y-125172049D01*
X77810114Y-125000000D01*
X77797896Y-124962396D01*
X77797895Y-124962393D01*
X77763237Y-124894375D01*
X77697815Y-124765978D01*
X77681260Y-124743192D01*
X77568247Y-124587641D01*
X77568243Y-124587636D01*
X77412363Y-124431756D01*
X77412358Y-124431752D01*
X77360001Y-124393713D01*
X111449500Y-124393713D01*
X111449500Y-124606287D01*
X111482754Y-124816243D01*
X111542622Y-125000498D01*
X111548444Y-125018414D01*
X111644951Y-125207820D01*
X111769890Y-125379786D01*
X111920213Y-125530109D01*
X112092179Y-125655048D01*
X112092181Y-125655049D01*
X112092184Y-125655051D01*
X112281588Y-125751557D01*
X112483757Y-125817246D01*
X112693713Y-125850500D01*
X112693714Y-125850500D01*
X112906286Y-125850500D01*
X112906287Y-125850500D01*
X113116243Y-125817246D01*
X113318412Y-125751557D01*
X113507816Y-125655051D01*
X113594138Y-125592335D01*
X113679786Y-125530109D01*
X113679788Y-125530106D01*
X113679792Y-125530104D01*
X113830104Y-125379792D01*
X113830106Y-125379788D01*
X113830109Y-125379786D01*
X113955048Y-125207820D01*
X113955047Y-125207820D01*
X113955051Y-125207816D01*
X113959514Y-125199054D01*
X114007488Y-125148259D01*
X114075308Y-125131463D01*
X114141444Y-125153999D01*
X114180486Y-125199056D01*
X114184951Y-125207820D01*
X114309890Y-125379786D01*
X114460213Y-125530109D01*
X114632179Y-125655048D01*
X114632181Y-125655049D01*
X114632184Y-125655051D01*
X114821588Y-125751557D01*
X115023757Y-125817246D01*
X115233713Y-125850500D01*
X115233714Y-125850500D01*
X115446286Y-125850500D01*
X115446287Y-125850500D01*
X115656243Y-125817246D01*
X115858412Y-125751557D01*
X116047816Y-125655051D01*
X116134138Y-125592335D01*
X116219786Y-125530109D01*
X116219788Y-125530106D01*
X116219792Y-125530104D01*
X116370104Y-125379792D01*
X116370106Y-125379788D01*
X116370109Y-125379786D01*
X116495048Y-125207820D01*
X116495047Y-125207820D01*
X116495051Y-125207816D01*
X116499514Y-125199054D01*
X116547488Y-125148259D01*
X116615308Y-125131463D01*
X116681444Y-125153999D01*
X116720486Y-125199056D01*
X116724951Y-125207820D01*
X116849890Y-125379786D01*
X117000213Y-125530109D01*
X117172179Y-125655048D01*
X117172181Y-125655049D01*
X117172184Y-125655051D01*
X117361588Y-125751557D01*
X117563757Y-125817246D01*
X117773713Y-125850500D01*
X117773714Y-125850500D01*
X117986286Y-125850500D01*
X117986287Y-125850500D01*
X118196243Y-125817246D01*
X118398412Y-125751557D01*
X118587816Y-125655051D01*
X118674138Y-125592335D01*
X118759786Y-125530109D01*
X118759788Y-125530106D01*
X118759792Y-125530104D01*
X118910104Y-125379792D01*
X118910106Y-125379788D01*
X118910109Y-125379786D01*
X119035048Y-125207820D01*
X119035047Y-125207820D01*
X119035051Y-125207816D01*
X119039514Y-125199054D01*
X119087488Y-125148259D01*
X119155308Y-125131463D01*
X119221444Y-125153999D01*
X119260486Y-125199056D01*
X119264951Y-125207820D01*
X119389890Y-125379786D01*
X119540213Y-125530109D01*
X119712179Y-125655048D01*
X119712181Y-125655049D01*
X119712184Y-125655051D01*
X119901588Y-125751557D01*
X120103757Y-125817246D01*
X120313713Y-125850500D01*
X120313714Y-125850500D01*
X120526286Y-125850500D01*
X120526287Y-125850500D01*
X120736243Y-125817246D01*
X120938412Y-125751557D01*
X121127816Y-125655051D01*
X121214138Y-125592335D01*
X121299786Y-125530109D01*
X121299788Y-125530106D01*
X121299792Y-125530104D01*
X121450104Y-125379792D01*
X121450106Y-125379788D01*
X121450109Y-125379786D01*
X121575048Y-125207820D01*
X121575047Y-125207820D01*
X121575051Y-125207816D01*
X121579514Y-125199054D01*
X121627488Y-125148259D01*
X121695308Y-125131463D01*
X121761444Y-125153999D01*
X121800486Y-125199056D01*
X121804951Y-125207820D01*
X121929890Y-125379786D01*
X122080213Y-125530109D01*
X122252179Y-125655048D01*
X122252181Y-125655049D01*
X122252184Y-125655051D01*
X122441588Y-125751557D01*
X122643757Y-125817246D01*
X122853713Y-125850500D01*
X122853714Y-125850500D01*
X123066286Y-125850500D01*
X123066287Y-125850500D01*
X123276243Y-125817246D01*
X123478412Y-125751557D01*
X123667816Y-125655051D01*
X123754138Y-125592335D01*
X123839786Y-125530109D01*
X123839788Y-125530106D01*
X123839792Y-125530104D01*
X123990104Y-125379792D01*
X123990106Y-125379788D01*
X123990109Y-125379786D01*
X124115048Y-125207820D01*
X124115047Y-125207820D01*
X124115051Y-125207816D01*
X124119514Y-125199054D01*
X124167488Y-125148259D01*
X124235308Y-125131463D01*
X124301444Y-125153999D01*
X124340486Y-125199056D01*
X124344951Y-125207820D01*
X124469890Y-125379786D01*
X124620213Y-125530109D01*
X124792179Y-125655048D01*
X124792181Y-125655049D01*
X124792184Y-125655051D01*
X124981588Y-125751557D01*
X125183757Y-125817246D01*
X125393713Y-125850500D01*
X125393714Y-125850500D01*
X125606286Y-125850500D01*
X125606287Y-125850500D01*
X125816243Y-125817246D01*
X126018412Y-125751557D01*
X126207816Y-125655051D01*
X126294138Y-125592335D01*
X126379786Y-125530109D01*
X126379788Y-125530106D01*
X126379792Y-125530104D01*
X126530104Y-125379792D01*
X126530106Y-125379788D01*
X126530109Y-125379786D01*
X126597515Y-125287007D01*
X126655051Y-125207816D01*
X126659793Y-125198508D01*
X126707763Y-125147711D01*
X126775583Y-125130911D01*
X126841719Y-125153445D01*
X126880763Y-125198500D01*
X126885373Y-125207547D01*
X126924728Y-125261716D01*
X127557037Y-124629408D01*
X127574075Y-124692993D01*
X127639901Y-124807007D01*
X127732993Y-124900099D01*
X127847007Y-124965925D01*
X127910590Y-124982962D01*
X127278282Y-125615269D01*
X127278282Y-125615270D01*
X127332449Y-125654624D01*
X127521782Y-125751095D01*
X127723870Y-125816757D01*
X127933754Y-125850000D01*
X128146246Y-125850000D01*
X128356127Y-125816757D01*
X128356130Y-125816757D01*
X128558217Y-125751095D01*
X128747554Y-125654622D01*
X128801716Y-125615270D01*
X128801717Y-125615270D01*
X128169408Y-124982962D01*
X128232993Y-124965925D01*
X128347007Y-124900099D01*
X128440099Y-124807007D01*
X128505925Y-124692993D01*
X128522962Y-124629409D01*
X129193181Y-125299628D01*
X129226666Y-125360951D01*
X129229500Y-125387300D01*
X129229500Y-125397865D01*
X129229501Y-125397876D01*
X129235908Y-125457483D01*
X129286202Y-125592328D01*
X129286206Y-125592335D01*
X129372452Y-125707544D01*
X129372455Y-125707547D01*
X129487664Y-125793793D01*
X129487671Y-125793797D01*
X129622517Y-125844091D01*
X129622516Y-125844091D01*
X129629444Y-125844835D01*
X129682127Y-125850500D01*
X131477872Y-125850499D01*
X131537483Y-125844091D01*
X131672331Y-125793796D01*
X131787546Y-125707546D01*
X131873796Y-125592331D01*
X131924091Y-125457483D01*
X131930500Y-125397873D01*
X131930499Y-123602128D01*
X131924091Y-123542517D01*
X131873796Y-123407669D01*
X131873795Y-123407668D01*
X131873793Y-123407664D01*
X131787547Y-123292455D01*
X131787544Y-123292452D01*
X131672335Y-123206206D01*
X131672328Y-123206202D01*
X131537482Y-123155908D01*
X131537483Y-123155908D01*
X131477883Y-123149501D01*
X131477881Y-123149500D01*
X131477873Y-123149500D01*
X131477864Y-123149500D01*
X129682129Y-123149500D01*
X129682123Y-123149501D01*
X129622516Y-123155908D01*
X129487671Y-123206202D01*
X129487664Y-123206206D01*
X129372455Y-123292452D01*
X129372452Y-123292455D01*
X129286206Y-123407664D01*
X129286202Y-123407671D01*
X129235908Y-123542517D01*
X129229501Y-123602116D01*
X129229501Y-123602123D01*
X129229500Y-123602135D01*
X129229500Y-123612690D01*
X129209815Y-123679729D01*
X129193181Y-123700371D01*
X128522962Y-124370590D01*
X128505925Y-124307007D01*
X128440099Y-124192993D01*
X128347007Y-124099901D01*
X128232993Y-124034075D01*
X128169409Y-124017037D01*
X128801716Y-123384728D01*
X128747550Y-123345375D01*
X128558217Y-123248904D01*
X128356129Y-123183242D01*
X128146246Y-123150000D01*
X127933754Y-123150000D01*
X127723872Y-123183242D01*
X127723869Y-123183242D01*
X127521782Y-123248904D01*
X127332439Y-123345380D01*
X127278282Y-123384727D01*
X127278282Y-123384728D01*
X127910591Y-124017037D01*
X127847007Y-124034075D01*
X127732993Y-124099901D01*
X127639901Y-124192993D01*
X127574075Y-124307007D01*
X127557037Y-124370591D01*
X126924728Y-123738282D01*
X126924727Y-123738282D01*
X126885380Y-123792440D01*
X126885376Y-123792446D01*
X126880760Y-123801505D01*
X126832781Y-123852297D01*
X126764959Y-123869087D01*
X126698826Y-123846543D01*
X126659794Y-123801493D01*
X126655051Y-123792184D01*
X126655049Y-123792181D01*
X126655048Y-123792179D01*
X126530109Y-123620213D01*
X126379786Y-123469890D01*
X126207820Y-123344951D01*
X126018414Y-123248444D01*
X126018413Y-123248443D01*
X126018412Y-123248443D01*
X125816243Y-123182754D01*
X125816241Y-123182753D01*
X125816240Y-123182753D01*
X125654957Y-123157208D01*
X125606287Y-123149500D01*
X125393713Y-123149500D01*
X125345042Y-123157208D01*
X125183760Y-123182753D01*
X124981585Y-123248444D01*
X124792179Y-123344951D01*
X124620213Y-123469890D01*
X124469890Y-123620213D01*
X124344949Y-123792182D01*
X124340484Y-123800946D01*
X124292509Y-123851742D01*
X124224688Y-123868536D01*
X124158553Y-123845998D01*
X124119516Y-123800946D01*
X124115050Y-123792182D01*
X123990109Y-123620213D01*
X123839786Y-123469890D01*
X123667820Y-123344951D01*
X123478414Y-123248444D01*
X123478413Y-123248443D01*
X123478412Y-123248443D01*
X123276243Y-123182754D01*
X123276241Y-123182753D01*
X123276240Y-123182753D01*
X123114957Y-123157208D01*
X123066287Y-123149500D01*
X122853713Y-123149500D01*
X122805042Y-123157208D01*
X122643760Y-123182753D01*
X122441585Y-123248444D01*
X122252179Y-123344951D01*
X122080213Y-123469890D01*
X121929890Y-123620213D01*
X121804949Y-123792182D01*
X121800484Y-123800946D01*
X121752509Y-123851742D01*
X121684688Y-123868536D01*
X121618553Y-123845998D01*
X121579516Y-123800946D01*
X121575050Y-123792182D01*
X121450109Y-123620213D01*
X121299786Y-123469890D01*
X121127820Y-123344951D01*
X120938414Y-123248444D01*
X120938413Y-123248443D01*
X120938412Y-123248443D01*
X120736243Y-123182754D01*
X120736241Y-123182753D01*
X120736240Y-123182753D01*
X120574957Y-123157208D01*
X120526287Y-123149500D01*
X120313713Y-123149500D01*
X120265042Y-123157208D01*
X120103760Y-123182753D01*
X119901585Y-123248444D01*
X119712179Y-123344951D01*
X119540213Y-123469890D01*
X119389890Y-123620213D01*
X119264949Y-123792182D01*
X119260484Y-123800946D01*
X119212509Y-123851742D01*
X119144688Y-123868536D01*
X119078553Y-123845998D01*
X119039516Y-123800946D01*
X119035050Y-123792182D01*
X118910109Y-123620213D01*
X118759786Y-123469890D01*
X118587820Y-123344951D01*
X118398414Y-123248444D01*
X118398413Y-123248443D01*
X118398412Y-123248443D01*
X118196243Y-123182754D01*
X118196241Y-123182753D01*
X118196240Y-123182753D01*
X118034957Y-123157208D01*
X117986287Y-123149500D01*
X117773713Y-123149500D01*
X117725042Y-123157208D01*
X117563760Y-123182753D01*
X117361585Y-123248444D01*
X117172179Y-123344951D01*
X117000213Y-123469890D01*
X116849890Y-123620213D01*
X116724949Y-123792182D01*
X116720484Y-123800946D01*
X116672509Y-123851742D01*
X116604688Y-123868536D01*
X116538553Y-123845998D01*
X116499516Y-123800946D01*
X116495050Y-123792182D01*
X116370109Y-123620213D01*
X116219786Y-123469890D01*
X116047820Y-123344951D01*
X115858414Y-123248444D01*
X115858413Y-123248443D01*
X115858412Y-123248443D01*
X115656243Y-123182754D01*
X115656241Y-123182753D01*
X115656240Y-123182753D01*
X115494957Y-123157208D01*
X115446287Y-123149500D01*
X115233713Y-123149500D01*
X115185042Y-123157208D01*
X115023760Y-123182753D01*
X114821585Y-123248444D01*
X114632179Y-123344951D01*
X114460213Y-123469890D01*
X114309890Y-123620213D01*
X114184949Y-123792182D01*
X114180484Y-123800946D01*
X114132509Y-123851742D01*
X114064688Y-123868536D01*
X113998553Y-123845998D01*
X113959516Y-123800946D01*
X113955050Y-123792182D01*
X113830109Y-123620213D01*
X113679786Y-123469890D01*
X113507820Y-123344951D01*
X113318414Y-123248444D01*
X113318413Y-123248443D01*
X113318412Y-123248443D01*
X113116243Y-123182754D01*
X113116241Y-123182753D01*
X113116240Y-123182753D01*
X112954957Y-123157208D01*
X112906287Y-123149500D01*
X112693713Y-123149500D01*
X112645042Y-123157208D01*
X112483760Y-123182753D01*
X112281585Y-123248444D01*
X112092179Y-123344951D01*
X111920213Y-123469890D01*
X111769890Y-123620213D01*
X111644951Y-123792179D01*
X111548444Y-123981585D01*
X111482753Y-124183760D01*
X111449500Y-124393713D01*
X77360001Y-124393713D01*
X77234025Y-124302187D01*
X77234024Y-124302186D01*
X77234022Y-124302185D01*
X77171096Y-124270122D01*
X77037606Y-124202104D01*
X77037603Y-124202103D01*
X76827952Y-124133985D01*
X76719086Y-124116742D01*
X76610222Y-124099500D01*
X76389778Y-124099500D01*
X76317201Y-124110995D01*
X76172047Y-124133985D01*
X75962396Y-124202103D01*
X75962393Y-124202104D01*
X75765974Y-124302187D01*
X75587641Y-124431752D01*
X75587636Y-124431756D01*
X75431756Y-124587636D01*
X75431752Y-124587641D01*
X75302187Y-124765974D01*
X75202104Y-124962393D01*
X75202103Y-124962396D01*
X75133985Y-125172047D01*
X75128319Y-125207820D01*
X75099500Y-125389778D01*
X71000500Y-125389778D01*
X71000500Y-122389818D01*
X102600000Y-122389818D01*
X102600000Y-122610181D01*
X102634473Y-122827835D01*
X102702567Y-123037410D01*
X102802611Y-123233756D01*
X102848932Y-123297513D01*
X103557861Y-122588584D01*
X103580667Y-122673694D01*
X103639910Y-122776306D01*
X103723694Y-122860090D01*
X103826306Y-122919333D01*
X103911414Y-122942137D01*
X103202485Y-123651065D01*
X103202485Y-123651066D01*
X103266243Y-123697388D01*
X103462589Y-123797432D01*
X103672164Y-123865526D01*
X103889819Y-123900000D01*
X104110181Y-123900000D01*
X104327835Y-123865526D01*
X104537410Y-123797432D01*
X104733760Y-123697386D01*
X104797513Y-123651066D01*
X104797514Y-123651066D01*
X104088585Y-122942138D01*
X104173694Y-122919333D01*
X104276306Y-122860090D01*
X104360090Y-122776306D01*
X104419333Y-122673694D01*
X104442137Y-122588585D01*
X105151066Y-123297514D01*
X105151066Y-123297513D01*
X105197386Y-123233760D01*
X105297432Y-123037410D01*
X105365526Y-122827835D01*
X105385777Y-122699983D01*
X140899500Y-122699983D01*
X140899500Y-124300001D01*
X140899501Y-124300018D01*
X140910000Y-124402796D01*
X140910001Y-124402799D01*
X140942211Y-124500000D01*
X140965186Y-124569334D01*
X141057288Y-124718656D01*
X141181344Y-124842712D01*
X141330666Y-124934814D01*
X141497203Y-124989999D01*
X141599991Y-125000500D01*
X142900008Y-125000499D01*
X143002797Y-124989999D01*
X143169334Y-124934814D01*
X143318656Y-124842712D01*
X143442712Y-124718656D01*
X143534814Y-124569334D01*
X143534814Y-124569331D01*
X143538448Y-124563441D01*
X143590395Y-124516716D01*
X143659358Y-124505493D01*
X143723440Y-124533336D01*
X143731668Y-124540856D01*
X143870535Y-124679723D01*
X143870540Y-124679727D01*
X144042442Y-124804620D01*
X144231782Y-124901095D01*
X144433871Y-124966757D01*
X144500000Y-124977231D01*
X144500000Y-123933012D01*
X144557007Y-123965925D01*
X144684174Y-124000000D01*
X144815826Y-124000000D01*
X144942993Y-123965925D01*
X145000000Y-123933012D01*
X145000000Y-124977230D01*
X145066126Y-124966757D01*
X145066129Y-124966757D01*
X145268217Y-124901095D01*
X145457557Y-124804620D01*
X145629459Y-124679727D01*
X145629464Y-124679723D01*
X145779723Y-124529464D01*
X145779727Y-124529459D01*
X145904620Y-124357557D01*
X146001095Y-124168217D01*
X146066757Y-123966130D01*
X146066757Y-123966127D01*
X146100000Y-123756246D01*
X146100000Y-123750000D01*
X145183012Y-123750000D01*
X145215925Y-123692993D01*
X145250000Y-123565826D01*
X145250000Y-123434174D01*
X145215925Y-123307007D01*
X145183012Y-123250000D01*
X146100000Y-123250000D01*
X146100000Y-123243753D01*
X146066757Y-123033872D01*
X146066757Y-123033869D01*
X146001095Y-122831782D01*
X145904620Y-122642442D01*
X145779727Y-122470540D01*
X145779723Y-122470535D01*
X145629464Y-122320276D01*
X145629459Y-122320272D01*
X145457557Y-122195379D01*
X145268215Y-122098903D01*
X145066124Y-122033241D01*
X145000000Y-122022768D01*
X145000000Y-123066988D01*
X144942993Y-123034075D01*
X144815826Y-123000000D01*
X144684174Y-123000000D01*
X144557007Y-123034075D01*
X144500000Y-123066988D01*
X144500000Y-122022768D01*
X144499999Y-122022768D01*
X144433875Y-122033241D01*
X144231784Y-122098903D01*
X144042442Y-122195379D01*
X143870541Y-122320271D01*
X143731668Y-122459144D01*
X143670345Y-122492628D01*
X143600653Y-122487644D01*
X143544720Y-122445772D01*
X143538448Y-122436558D01*
X143442712Y-122281344D01*
X143318657Y-122157289D01*
X143318656Y-122157288D01*
X143169334Y-122065186D01*
X143002797Y-122010001D01*
X143002795Y-122010000D01*
X142900010Y-121999500D01*
X141599998Y-121999500D01*
X141599981Y-121999501D01*
X141497203Y-122010000D01*
X141497200Y-122010001D01*
X141330668Y-122065185D01*
X141330663Y-122065187D01*
X141181342Y-122157289D01*
X141057289Y-122281342D01*
X140965187Y-122430663D01*
X140965185Y-122430668D01*
X140961842Y-122440756D01*
X140910001Y-122597203D01*
X140910001Y-122597204D01*
X140910000Y-122597204D01*
X140899500Y-122699983D01*
X105385777Y-122699983D01*
X105389348Y-122677436D01*
X105400000Y-122610181D01*
X105400000Y-122389818D01*
X105365526Y-122172164D01*
X105297432Y-121962589D01*
X105197388Y-121766243D01*
X105151066Y-121702485D01*
X105151065Y-121702485D01*
X104442137Y-122411413D01*
X104419333Y-122326306D01*
X104360090Y-122223694D01*
X104276306Y-122139910D01*
X104173694Y-122080667D01*
X104088583Y-122057861D01*
X104797513Y-121348932D01*
X104733756Y-121302611D01*
X104537410Y-121202567D01*
X104327835Y-121134473D01*
X104110181Y-121100000D01*
X103889819Y-121100000D01*
X103672164Y-121134473D01*
X103462589Y-121202567D01*
X103266233Y-121302616D01*
X103202485Y-121348931D01*
X103202485Y-121348932D01*
X103911414Y-122057861D01*
X103826306Y-122080667D01*
X103723694Y-122139910D01*
X103639910Y-122223694D01*
X103580667Y-122326306D01*
X103557861Y-122411414D01*
X102848932Y-121702485D01*
X102848931Y-121702485D01*
X102802616Y-121766233D01*
X102702567Y-121962589D01*
X102634473Y-122172164D01*
X102600000Y-122389818D01*
X71000500Y-122389818D01*
X71000500Y-120389778D01*
X75099500Y-120389778D01*
X75099500Y-120610221D01*
X75133985Y-120827952D01*
X75202103Y-121037603D01*
X75202104Y-121037606D01*
X75270122Y-121171096D01*
X75302184Y-121234021D01*
X75302187Y-121234025D01*
X75431752Y-121412358D01*
X75431756Y-121412363D01*
X75587636Y-121568243D01*
X75587641Y-121568247D01*
X75743192Y-121681260D01*
X75765978Y-121697815D01*
X75894375Y-121763237D01*
X75962393Y-121797895D01*
X75962396Y-121797896D01*
X76067221Y-121831955D01*
X76172049Y-121866015D01*
X76389778Y-121900500D01*
X76389779Y-121900500D01*
X76610221Y-121900500D01*
X76610222Y-121900500D01*
X76827951Y-121866015D01*
X77037606Y-121797895D01*
X77234022Y-121697815D01*
X77412365Y-121568242D01*
X77568242Y-121412365D01*
X77579324Y-121397111D01*
X77632945Y-121323309D01*
X77632947Y-121323306D01*
X77648828Y-121301446D01*
X77697815Y-121234022D01*
X77797895Y-121037606D01*
X77866015Y-120827951D01*
X77900500Y-120610222D01*
X77900500Y-120389778D01*
X77866015Y-120172049D01*
X77797895Y-119962394D01*
X77797895Y-119962393D01*
X77748786Y-119866014D01*
X77697815Y-119765978D01*
X77648290Y-119697812D01*
X77568247Y-119587641D01*
X77568243Y-119587636D01*
X77412363Y-119431756D01*
X77412358Y-119431752D01*
X77234025Y-119302187D01*
X77234024Y-119302186D01*
X77234022Y-119302185D01*
X77171096Y-119270122D01*
X77037606Y-119202104D01*
X77037603Y-119202103D01*
X76827952Y-119133985D01*
X76719086Y-119116742D01*
X76610222Y-119099500D01*
X76389778Y-119099500D01*
X76317201Y-119110995D01*
X76172047Y-119133985D01*
X75962396Y-119202103D01*
X75962393Y-119202104D01*
X75765974Y-119302187D01*
X75587641Y-119431752D01*
X75587636Y-119431756D01*
X75431756Y-119587636D01*
X75431752Y-119587641D01*
X75302187Y-119765974D01*
X75202104Y-119962393D01*
X75202103Y-119962396D01*
X75133985Y-120172047D01*
X75099500Y-120389778D01*
X71000500Y-120389778D01*
X71000500Y-118389778D01*
X102599500Y-118389778D01*
X102599500Y-118610221D01*
X102633985Y-118827952D01*
X102702103Y-119037603D01*
X102702104Y-119037606D01*
X102751213Y-119133985D01*
X102785922Y-119202105D01*
X102802187Y-119234025D01*
X102931752Y-119412358D01*
X102931756Y-119412363D01*
X103087636Y-119568243D01*
X103087641Y-119568247D01*
X103243192Y-119681260D01*
X103265978Y-119697815D01*
X103394375Y-119763237D01*
X103462393Y-119797895D01*
X103462396Y-119797896D01*
X103567221Y-119831955D01*
X103672049Y-119866015D01*
X103889778Y-119900500D01*
X103889779Y-119900500D01*
X104110221Y-119900500D01*
X104110222Y-119900500D01*
X104327951Y-119866015D01*
X104537606Y-119797895D01*
X104734022Y-119697815D01*
X104912365Y-119568242D01*
X105068242Y-119412365D01*
X105197815Y-119234022D01*
X105297895Y-119037606D01*
X105366015Y-118827951D01*
X105400500Y-118610222D01*
X105400500Y-118389778D01*
X105366015Y-118172049D01*
X105297895Y-117962394D01*
X105297895Y-117962393D01*
X105263237Y-117894375D01*
X105197815Y-117765978D01*
X105181260Y-117743192D01*
X105068247Y-117587641D01*
X105068243Y-117587636D01*
X104912363Y-117431756D01*
X104912358Y-117431752D01*
X104734025Y-117302187D01*
X104734024Y-117302186D01*
X104734022Y-117302185D01*
X104671096Y-117270122D01*
X104537606Y-117202104D01*
X104537603Y-117202103D01*
X104327952Y-117133985D01*
X104219086Y-117116742D01*
X104110222Y-117099500D01*
X103889778Y-117099500D01*
X103817201Y-117110995D01*
X103672047Y-117133985D01*
X103462396Y-117202103D01*
X103462393Y-117202104D01*
X103265974Y-117302187D01*
X103087641Y-117431752D01*
X103087636Y-117431756D01*
X102931756Y-117587636D01*
X102931752Y-117587641D01*
X102802187Y-117765974D01*
X102702104Y-117962393D01*
X102702103Y-117962396D01*
X102633985Y-118172047D01*
X102599500Y-118389778D01*
X71000500Y-118389778D01*
X71000500Y-115389778D01*
X75099500Y-115389778D01*
X75099500Y-115610221D01*
X75133985Y-115827952D01*
X75202103Y-116037603D01*
X75202104Y-116037606D01*
X75302187Y-116234025D01*
X75431752Y-116412358D01*
X75431756Y-116412363D01*
X75587636Y-116568243D01*
X75587641Y-116568247D01*
X75621315Y-116592712D01*
X75765978Y-116697815D01*
X75869373Y-116750498D01*
X75962393Y-116797895D01*
X75962396Y-116797896D01*
X76067221Y-116831955D01*
X76172049Y-116866015D01*
X76389778Y-116900500D01*
X76389779Y-116900500D01*
X76610221Y-116900500D01*
X76610222Y-116900500D01*
X76827951Y-116866015D01*
X77037606Y-116797895D01*
X77234022Y-116697815D01*
X77412365Y-116568242D01*
X77568242Y-116412365D01*
X77697815Y-116234022D01*
X77797895Y-116037606D01*
X77866015Y-115827951D01*
X77900500Y-115610222D01*
X77900500Y-115389778D01*
X77866015Y-115172049D01*
X77797895Y-114962394D01*
X77797895Y-114962393D01*
X77740576Y-114849901D01*
X77697815Y-114765978D01*
X77681260Y-114743192D01*
X77568247Y-114587641D01*
X77568243Y-114587636D01*
X77430590Y-114449983D01*
X140899500Y-114449983D01*
X140899500Y-116050001D01*
X140899501Y-116050018D01*
X140910000Y-116152796D01*
X140910001Y-116152799D01*
X140936916Y-116234022D01*
X140965186Y-116319334D01*
X141057288Y-116468656D01*
X141181344Y-116592712D01*
X141330666Y-116684814D01*
X141497203Y-116739999D01*
X141599991Y-116750500D01*
X142900008Y-116750499D01*
X143002797Y-116739999D01*
X143169334Y-116684814D01*
X143318656Y-116592712D01*
X143442712Y-116468656D01*
X143534814Y-116319334D01*
X143534814Y-116319331D01*
X143538448Y-116313441D01*
X143590395Y-116266716D01*
X143659358Y-116255493D01*
X143723440Y-116283336D01*
X143731668Y-116290856D01*
X143870535Y-116429723D01*
X143870540Y-116429727D01*
X144042442Y-116554620D01*
X144231782Y-116651095D01*
X144433871Y-116716757D01*
X144500000Y-116727231D01*
X144500000Y-115683012D01*
X144557007Y-115715925D01*
X144684174Y-115750000D01*
X144815826Y-115750000D01*
X144942993Y-115715925D01*
X145000000Y-115683012D01*
X145000000Y-116727230D01*
X145066126Y-116716757D01*
X145066129Y-116716757D01*
X145268217Y-116651095D01*
X145457557Y-116554620D01*
X145629459Y-116429727D01*
X145629464Y-116429723D01*
X145779723Y-116279464D01*
X145779727Y-116279459D01*
X145904620Y-116107557D01*
X146001095Y-115918217D01*
X146066757Y-115716130D01*
X146066757Y-115716127D01*
X146100000Y-115506246D01*
X146100000Y-115500000D01*
X145183012Y-115500000D01*
X145215925Y-115442993D01*
X145250000Y-115315826D01*
X145250000Y-115184174D01*
X145215925Y-115057007D01*
X145183012Y-115000000D01*
X146100000Y-115000000D01*
X146100000Y-114993753D01*
X146066757Y-114783872D01*
X146066757Y-114783869D01*
X146001095Y-114581782D01*
X145904620Y-114392442D01*
X145779727Y-114220540D01*
X145779723Y-114220535D01*
X145629464Y-114070276D01*
X145629459Y-114070272D01*
X145457557Y-113945379D01*
X145268215Y-113848903D01*
X145066124Y-113783241D01*
X145000000Y-113772768D01*
X145000000Y-114816988D01*
X144942993Y-114784075D01*
X144815826Y-114750000D01*
X144684174Y-114750000D01*
X144557007Y-114784075D01*
X144500000Y-114816988D01*
X144500000Y-113772768D01*
X144499999Y-113772768D01*
X144433875Y-113783241D01*
X144231784Y-113848903D01*
X144042442Y-113945379D01*
X143870541Y-114070271D01*
X143731668Y-114209144D01*
X143670345Y-114242628D01*
X143600653Y-114237644D01*
X143544720Y-114195772D01*
X143538448Y-114186558D01*
X143442712Y-114031344D01*
X143318657Y-113907289D01*
X143318656Y-113907288D01*
X143169334Y-113815186D01*
X143002797Y-113760001D01*
X143002795Y-113760000D01*
X142900010Y-113749500D01*
X141599998Y-113749500D01*
X141599981Y-113749501D01*
X141497203Y-113760000D01*
X141497200Y-113760001D01*
X141330668Y-113815185D01*
X141330663Y-113815187D01*
X141181342Y-113907289D01*
X141057289Y-114031342D01*
X140965187Y-114180663D01*
X140965185Y-114180668D01*
X140960180Y-114195772D01*
X140910001Y-114347203D01*
X140910001Y-114347204D01*
X140910000Y-114347204D01*
X140899500Y-114449983D01*
X77430590Y-114449983D01*
X77412363Y-114431756D01*
X77412358Y-114431752D01*
X77234025Y-114302187D01*
X77234024Y-114302186D01*
X77234022Y-114302185D01*
X77171096Y-114270122D01*
X77037606Y-114202104D01*
X77037603Y-114202103D01*
X76827952Y-114133985D01*
X76719086Y-114116742D01*
X76610222Y-114099500D01*
X76389778Y-114099500D01*
X76317201Y-114110995D01*
X76172047Y-114133985D01*
X75962396Y-114202103D01*
X75962393Y-114202104D01*
X75765974Y-114302187D01*
X75587641Y-114431752D01*
X75587636Y-114431756D01*
X75431756Y-114587636D01*
X75431752Y-114587641D01*
X75302187Y-114765974D01*
X75202104Y-114962393D01*
X75202103Y-114962396D01*
X75133985Y-115172047D01*
X75099500Y-115389778D01*
X71000500Y-115389778D01*
X71000500Y-107639778D01*
X75099500Y-107639778D01*
X75099500Y-107860221D01*
X75133985Y-108077952D01*
X75202103Y-108287603D01*
X75202104Y-108287606D01*
X75302187Y-108484025D01*
X75431752Y-108662358D01*
X75431756Y-108662363D01*
X75587636Y-108818243D01*
X75587641Y-108818247D01*
X75728795Y-108920800D01*
X75765978Y-108947815D01*
X75894375Y-109013237D01*
X75962393Y-109047895D01*
X75962396Y-109047896D01*
X76067221Y-109081955D01*
X76172049Y-109116015D01*
X76389778Y-109150500D01*
X76389779Y-109150500D01*
X76610221Y-109150500D01*
X76610222Y-109150500D01*
X76827951Y-109116015D01*
X77037606Y-109047895D01*
X77234022Y-108947815D01*
X77412365Y-108818242D01*
X77568242Y-108662365D01*
X77697815Y-108484022D01*
X77797895Y-108287606D01*
X77866015Y-108077951D01*
X77900500Y-107860222D01*
X77900500Y-107639778D01*
X77866015Y-107422049D01*
X77812551Y-107257500D01*
X77797896Y-107212396D01*
X77797895Y-107212393D01*
X77760761Y-107139515D01*
X77697815Y-107015978D01*
X77644778Y-106942978D01*
X77568247Y-106837641D01*
X77568243Y-106837636D01*
X77412363Y-106681756D01*
X77412358Y-106681752D01*
X77234025Y-106552187D01*
X77234024Y-106552186D01*
X77234022Y-106552185D01*
X77171096Y-106520122D01*
X77037606Y-106452104D01*
X77037603Y-106452103D01*
X76827952Y-106383985D01*
X76719086Y-106366742D01*
X76610222Y-106349500D01*
X76389778Y-106349500D01*
X76317201Y-106360995D01*
X76172047Y-106383985D01*
X75962396Y-106452103D01*
X75962393Y-106452104D01*
X75765974Y-106552187D01*
X75587641Y-106681752D01*
X75587636Y-106681756D01*
X75431756Y-106837636D01*
X75431752Y-106837641D01*
X75302187Y-107015974D01*
X75202104Y-107212393D01*
X75202103Y-107212396D01*
X75133985Y-107422047D01*
X75099500Y-107639778D01*
X71000500Y-107639778D01*
X71000500Y-104639818D01*
X102600000Y-104639818D01*
X102600000Y-104860181D01*
X102634473Y-105077835D01*
X102702567Y-105287410D01*
X102802611Y-105483756D01*
X102848932Y-105547513D01*
X103557861Y-104838584D01*
X103580667Y-104923694D01*
X103639910Y-105026306D01*
X103723694Y-105110090D01*
X103826306Y-105169333D01*
X103911414Y-105192137D01*
X103202485Y-105901065D01*
X103202485Y-105901066D01*
X103266243Y-105947388D01*
X103462589Y-106047432D01*
X103672164Y-106115526D01*
X103889819Y-106150000D01*
X104110181Y-106150000D01*
X104327835Y-106115526D01*
X104537410Y-106047432D01*
X104733760Y-105947386D01*
X104797513Y-105901066D01*
X104797514Y-105901066D01*
X104088585Y-105192138D01*
X104173694Y-105169333D01*
X104276306Y-105110090D01*
X104360090Y-105026306D01*
X104419333Y-104923694D01*
X104442137Y-104838585D01*
X105151066Y-105547514D01*
X105151066Y-105547513D01*
X105197386Y-105483760D01*
X105297432Y-105287410D01*
X105365526Y-105077835D01*
X105400000Y-104860181D01*
X105400000Y-104639818D01*
X105365526Y-104422164D01*
X105297432Y-104212589D01*
X105197388Y-104016243D01*
X105151066Y-103952485D01*
X105151065Y-103952485D01*
X104442137Y-104661413D01*
X104419333Y-104576306D01*
X104360090Y-104473694D01*
X104276306Y-104389910D01*
X104173694Y-104330667D01*
X104088583Y-104307861D01*
X104797513Y-103598932D01*
X104733756Y-103552611D01*
X104537410Y-103452567D01*
X104327835Y-103384473D01*
X104110181Y-103350000D01*
X103889819Y-103350000D01*
X103672164Y-103384473D01*
X103462589Y-103452567D01*
X103266233Y-103552616D01*
X103202485Y-103598931D01*
X103202485Y-103598932D01*
X103911414Y-104307861D01*
X103826306Y-104330667D01*
X103723694Y-104389910D01*
X103639910Y-104473694D01*
X103580667Y-104576306D01*
X103557861Y-104661414D01*
X102848932Y-103952485D01*
X102848931Y-103952485D01*
X102802616Y-104016233D01*
X102702567Y-104212589D01*
X102634473Y-104422164D01*
X102600000Y-104639818D01*
X71000500Y-104639818D01*
X71000500Y-102639778D01*
X75099500Y-102639778D01*
X75099500Y-102860221D01*
X75133985Y-103077952D01*
X75202103Y-103287603D01*
X75202104Y-103287606D01*
X75270122Y-103421096D01*
X75302184Y-103484021D01*
X75302187Y-103484025D01*
X75431752Y-103662358D01*
X75431756Y-103662363D01*
X75587636Y-103818243D01*
X75587641Y-103818247D01*
X75734065Y-103924629D01*
X75765978Y-103947815D01*
X75894375Y-104013237D01*
X75962393Y-104047895D01*
X75962396Y-104047896D01*
X76067221Y-104081955D01*
X76172049Y-104116015D01*
X76389778Y-104150500D01*
X76389779Y-104150500D01*
X76610221Y-104150500D01*
X76610222Y-104150500D01*
X76827951Y-104116015D01*
X77037606Y-104047895D01*
X77234022Y-103947815D01*
X77412365Y-103818242D01*
X77568242Y-103662365D01*
X77613554Y-103599998D01*
X77632945Y-103573309D01*
X77632947Y-103573306D01*
X77657611Y-103539358D01*
X77697815Y-103484022D01*
X77797895Y-103287606D01*
X77866015Y-103077951D01*
X77900500Y-102860222D01*
X77900500Y-102639778D01*
X77866015Y-102422049D01*
X77820019Y-102280485D01*
X77797896Y-102212396D01*
X77797895Y-102212393D01*
X77723368Y-102066129D01*
X77697815Y-102015978D01*
X77586655Y-101862978D01*
X77568247Y-101837641D01*
X77568243Y-101837636D01*
X77412363Y-101681756D01*
X77412358Y-101681752D01*
X77234025Y-101552187D01*
X77234024Y-101552186D01*
X77234022Y-101552185D01*
X77171096Y-101520122D01*
X77037606Y-101452104D01*
X77037603Y-101452103D01*
X76827952Y-101383985D01*
X76719086Y-101366742D01*
X76610222Y-101349500D01*
X76389778Y-101349500D01*
X76317201Y-101360995D01*
X76172047Y-101383985D01*
X75962396Y-101452103D01*
X75962393Y-101452104D01*
X75765974Y-101552187D01*
X75587641Y-101681752D01*
X75587636Y-101681756D01*
X75431756Y-101837636D01*
X75431752Y-101837641D01*
X75302187Y-102015974D01*
X75202104Y-102212393D01*
X75202103Y-102212396D01*
X75133985Y-102422047D01*
X75099500Y-102639778D01*
X71000500Y-102639778D01*
X71000500Y-100639778D01*
X102599500Y-100639778D01*
X102599500Y-100860222D01*
X102601134Y-100870540D01*
X102633985Y-101077952D01*
X102702103Y-101287603D01*
X102702104Y-101287606D01*
X102770122Y-101421096D01*
X102785922Y-101452105D01*
X102802187Y-101484025D01*
X102931752Y-101662358D01*
X102931756Y-101662363D01*
X103087636Y-101818243D01*
X103087641Y-101818247D01*
X103149209Y-101862978D01*
X103265978Y-101947815D01*
X103368396Y-102000000D01*
X103462393Y-102047895D01*
X103462396Y-102047896D01*
X103567221Y-102081955D01*
X103672049Y-102116015D01*
X103889778Y-102150500D01*
X103889779Y-102150500D01*
X104110221Y-102150500D01*
X104110222Y-102150500D01*
X104327951Y-102116015D01*
X104537606Y-102047895D01*
X104734022Y-101947815D01*
X104912365Y-101818242D01*
X105068242Y-101662365D01*
X105197815Y-101484022D01*
X105297895Y-101287606D01*
X105366015Y-101077951D01*
X105400500Y-100860222D01*
X105400500Y-100639778D01*
X105366015Y-100422049D01*
X105297895Y-100212394D01*
X105297895Y-100212393D01*
X105263237Y-100144375D01*
X105197815Y-100015978D01*
X105140450Y-99937021D01*
X105068247Y-99837641D01*
X105068243Y-99837636D01*
X104912363Y-99681756D01*
X104912358Y-99681752D01*
X104734025Y-99552187D01*
X104734024Y-99552186D01*
X104734022Y-99552185D01*
X104669904Y-99519515D01*
X104537606Y-99452104D01*
X104537603Y-99452103D01*
X104327952Y-99383985D01*
X104219086Y-99366742D01*
X104110222Y-99349500D01*
X103889778Y-99349500D01*
X103817201Y-99360995D01*
X103672047Y-99383985D01*
X103462396Y-99452103D01*
X103462393Y-99452104D01*
X103265974Y-99552187D01*
X103087641Y-99681752D01*
X103087636Y-99681756D01*
X102931756Y-99837636D01*
X102931752Y-99837641D01*
X102802187Y-100015974D01*
X102702104Y-100212393D01*
X102702103Y-100212396D01*
X102633985Y-100422047D01*
X102633985Y-100422049D01*
X102599500Y-100639778D01*
X71000500Y-100639778D01*
X71000500Y-97639778D01*
X75099500Y-97639778D01*
X75099500Y-97860221D01*
X75133985Y-98077952D01*
X75202103Y-98287603D01*
X75202104Y-98287606D01*
X75270122Y-98421096D01*
X75289619Y-98459361D01*
X75302187Y-98484025D01*
X75431752Y-98662358D01*
X75431756Y-98662363D01*
X75587636Y-98818243D01*
X75587641Y-98818247D01*
X75743192Y-98931260D01*
X75765978Y-98947815D01*
X75894375Y-99013237D01*
X75962393Y-99047895D01*
X75962396Y-99047896D01*
X76067221Y-99081955D01*
X76172049Y-99116015D01*
X76389778Y-99150500D01*
X76389779Y-99150500D01*
X76610221Y-99150500D01*
X76610222Y-99150500D01*
X76827951Y-99116015D01*
X77037606Y-99047895D01*
X77234022Y-98947815D01*
X77412365Y-98818242D01*
X77568242Y-98662365D01*
X77697815Y-98484022D01*
X77797895Y-98287606D01*
X77866015Y-98077951D01*
X77900500Y-97860222D01*
X77900500Y-97639778D01*
X77866015Y-97422049D01*
X77831955Y-97317221D01*
X77797896Y-97212396D01*
X77797895Y-97212393D01*
X77739353Y-97097500D01*
X77697815Y-97015978D01*
X77613397Y-96899786D01*
X77568247Y-96837641D01*
X77568243Y-96837636D01*
X77412363Y-96681756D01*
X77412358Y-96681752D01*
X77234025Y-96552187D01*
X77234024Y-96552186D01*
X77234022Y-96552185D01*
X77171096Y-96520122D01*
X77037606Y-96452104D01*
X77037603Y-96452103D01*
X76827952Y-96383985D01*
X76719086Y-96366742D01*
X76610222Y-96349500D01*
X76389778Y-96349500D01*
X76317201Y-96360995D01*
X76172047Y-96383985D01*
X75962396Y-96452103D01*
X75962393Y-96452104D01*
X75765974Y-96552187D01*
X75587641Y-96681752D01*
X75587636Y-96681756D01*
X75431756Y-96837636D01*
X75431752Y-96837641D01*
X75302187Y-97015974D01*
X75202104Y-97212393D01*
X75202103Y-97212396D01*
X75133985Y-97422047D01*
X75099500Y-97639778D01*
X71000500Y-97639778D01*
X71000500Y-90139778D01*
X75099500Y-90139778D01*
X75099500Y-90360221D01*
X75133985Y-90577952D01*
X75202103Y-90787603D01*
X75202104Y-90787606D01*
X75302187Y-90984025D01*
X75431752Y-91162358D01*
X75431756Y-91162363D01*
X75587636Y-91318243D01*
X75587641Y-91318247D01*
X75743192Y-91431260D01*
X75765978Y-91447815D01*
X75894375Y-91513237D01*
X75962393Y-91547895D01*
X75962396Y-91547896D01*
X76067221Y-91581955D01*
X76172049Y-91616015D01*
X76389778Y-91650500D01*
X76389779Y-91650500D01*
X76610221Y-91650500D01*
X76610222Y-91650500D01*
X76827951Y-91616015D01*
X77037606Y-91547895D01*
X77234022Y-91447815D01*
X77412365Y-91318242D01*
X77568242Y-91162365D01*
X77697815Y-90984022D01*
X77797895Y-90787606D01*
X77866015Y-90577951D01*
X77900500Y-90360222D01*
X77900500Y-90139778D01*
X77866015Y-89922049D01*
X77816070Y-89768331D01*
X77797896Y-89712396D01*
X77797895Y-89712393D01*
X77763237Y-89644375D01*
X77697815Y-89515978D01*
X77655370Y-89457557D01*
X77568247Y-89337641D01*
X77568243Y-89337636D01*
X77412363Y-89181756D01*
X77412358Y-89181752D01*
X77234025Y-89052187D01*
X77234024Y-89052186D01*
X77234022Y-89052185D01*
X77171096Y-89020122D01*
X77037606Y-88952104D01*
X77037603Y-88952103D01*
X76827952Y-88883985D01*
X76719086Y-88866742D01*
X76610222Y-88849500D01*
X76389778Y-88849500D01*
X76317201Y-88860995D01*
X76172047Y-88883985D01*
X75962396Y-88952103D01*
X75962393Y-88952104D01*
X75765974Y-89052187D01*
X75587641Y-89181752D01*
X75587636Y-89181756D01*
X75431756Y-89337636D01*
X75431752Y-89337641D01*
X75302187Y-89515974D01*
X75202104Y-89712393D01*
X75202103Y-89712396D01*
X75133985Y-89922047D01*
X75099500Y-90139778D01*
X71000500Y-90139778D01*
X71000500Y-87139818D01*
X102600000Y-87139818D01*
X102600000Y-87360181D01*
X102634473Y-87577835D01*
X102702567Y-87787410D01*
X102802611Y-87983756D01*
X102848932Y-88047513D01*
X103557861Y-87338584D01*
X103580667Y-87423694D01*
X103639910Y-87526306D01*
X103723694Y-87610090D01*
X103826306Y-87669333D01*
X103911414Y-87692137D01*
X103202485Y-88401065D01*
X103202485Y-88401066D01*
X103266243Y-88447388D01*
X103462589Y-88547432D01*
X103672164Y-88615526D01*
X103889819Y-88650000D01*
X104110181Y-88650000D01*
X104327835Y-88615526D01*
X104537410Y-88547432D01*
X104733760Y-88447386D01*
X104797513Y-88401066D01*
X104797514Y-88401066D01*
X104088585Y-87692138D01*
X104173694Y-87669333D01*
X104276306Y-87610090D01*
X104360090Y-87526306D01*
X104419333Y-87423694D01*
X104442137Y-87338585D01*
X105151066Y-88047514D01*
X105151066Y-88047513D01*
X105197386Y-87983760D01*
X105297432Y-87787410D01*
X105365526Y-87577835D01*
X105400000Y-87360181D01*
X105400000Y-87139818D01*
X105365526Y-86922164D01*
X105297432Y-86712589D01*
X105197388Y-86516243D01*
X105151066Y-86452485D01*
X105151065Y-86452485D01*
X104442137Y-87161413D01*
X104419333Y-87076306D01*
X104360090Y-86973694D01*
X104276306Y-86889910D01*
X104173694Y-86830667D01*
X104088583Y-86807861D01*
X104797513Y-86098932D01*
X104733756Y-86052611D01*
X104537410Y-85952567D01*
X104327835Y-85884473D01*
X104110181Y-85850000D01*
X103889819Y-85850000D01*
X103672164Y-85884473D01*
X103462589Y-85952567D01*
X103266233Y-86052616D01*
X103202485Y-86098931D01*
X103202485Y-86098932D01*
X103911414Y-86807861D01*
X103826306Y-86830667D01*
X103723694Y-86889910D01*
X103639910Y-86973694D01*
X103580667Y-87076306D01*
X103557861Y-87161414D01*
X102848932Y-86452485D01*
X102848931Y-86452485D01*
X102802616Y-86516233D01*
X102702567Y-86712589D01*
X102634473Y-86922164D01*
X102600000Y-87139818D01*
X71000500Y-87139818D01*
X71000500Y-85139778D01*
X75099500Y-85139778D01*
X75099500Y-85360221D01*
X75133985Y-85577952D01*
X75202103Y-85787603D01*
X75202104Y-85787606D01*
X75270122Y-85921096D01*
X75302184Y-85984021D01*
X75302187Y-85984025D01*
X75431752Y-86162358D01*
X75431756Y-86162363D01*
X75587636Y-86318243D01*
X75587641Y-86318247D01*
X75743192Y-86431260D01*
X75765978Y-86447815D01*
X75894375Y-86513237D01*
X75962393Y-86547895D01*
X75962396Y-86547896D01*
X76067221Y-86581955D01*
X76172049Y-86616015D01*
X76389778Y-86650500D01*
X76389779Y-86650500D01*
X76610221Y-86650500D01*
X76610222Y-86650500D01*
X76827951Y-86616015D01*
X77037606Y-86547895D01*
X77234022Y-86447815D01*
X77412365Y-86318242D01*
X77568242Y-86162365D01*
X77581128Y-86144629D01*
X77632945Y-86073309D01*
X77632947Y-86073306D01*
X77648828Y-86051446D01*
X77697815Y-85984022D01*
X77797895Y-85787606D01*
X77866015Y-85577951D01*
X77900500Y-85360222D01*
X77900500Y-85139778D01*
X77866015Y-84922049D01*
X77797895Y-84712394D01*
X77797895Y-84712393D01*
X77748786Y-84616014D01*
X77697815Y-84515978D01*
X77661277Y-84465687D01*
X77568247Y-84337641D01*
X77568243Y-84337636D01*
X77412363Y-84181756D01*
X77412358Y-84181752D01*
X77234025Y-84052187D01*
X77234024Y-84052186D01*
X77234022Y-84052185D01*
X77152863Y-84010832D01*
X77037606Y-83952104D01*
X77037603Y-83952103D01*
X76827952Y-83883985D01*
X76719086Y-83866742D01*
X76610222Y-83849500D01*
X76389778Y-83849500D01*
X76317201Y-83860995D01*
X76172047Y-83883985D01*
X75962396Y-83952103D01*
X75962393Y-83952104D01*
X75765974Y-84052187D01*
X75587641Y-84181752D01*
X75587636Y-84181756D01*
X75431756Y-84337636D01*
X75431752Y-84337641D01*
X75302187Y-84515974D01*
X75202104Y-84712393D01*
X75202103Y-84712396D01*
X75133985Y-84922047D01*
X75099500Y-85139778D01*
X71000500Y-85139778D01*
X71000500Y-83139778D01*
X102599500Y-83139778D01*
X102599500Y-83360221D01*
X102633985Y-83577952D01*
X102702103Y-83787603D01*
X102702104Y-83787606D01*
X102751213Y-83883985D01*
X102785922Y-83952105D01*
X102802187Y-83984025D01*
X102931752Y-84162358D01*
X102931756Y-84162363D01*
X103087636Y-84318243D01*
X103087641Y-84318247D01*
X103133291Y-84351413D01*
X103265978Y-84447815D01*
X103368796Y-84500204D01*
X103462393Y-84547895D01*
X103462396Y-84547896D01*
X103551233Y-84576760D01*
X103672049Y-84616015D01*
X103889778Y-84650500D01*
X103889779Y-84650500D01*
X104110221Y-84650500D01*
X104110222Y-84650500D01*
X104327951Y-84616015D01*
X104537606Y-84547895D01*
X104734022Y-84447815D01*
X104912365Y-84318242D01*
X105068242Y-84162365D01*
X105197815Y-83984022D01*
X105297895Y-83787606D01*
X105366015Y-83577951D01*
X105400500Y-83360222D01*
X105400500Y-83139778D01*
X105366015Y-82922049D01*
X105328985Y-82808080D01*
X105297896Y-82712396D01*
X105297895Y-82712393D01*
X105246741Y-82612000D01*
X105197815Y-82515978D01*
X105155914Y-82458306D01*
X105068247Y-82337641D01*
X105068243Y-82337636D01*
X104912363Y-82181756D01*
X104912358Y-82181752D01*
X104734025Y-82052187D01*
X104734024Y-82052186D01*
X104734022Y-82052185D01*
X104671096Y-82020122D01*
X104537606Y-81952104D01*
X104537603Y-81952103D01*
X104327952Y-81883985D01*
X104219086Y-81866742D01*
X104110222Y-81849500D01*
X103889778Y-81849500D01*
X103839268Y-81857500D01*
X103672047Y-81883985D01*
X103462396Y-81952103D01*
X103462393Y-81952104D01*
X103265974Y-82052187D01*
X103087641Y-82181752D01*
X103087636Y-82181756D01*
X102931756Y-82337636D01*
X102931752Y-82337641D01*
X102802187Y-82515974D01*
X102702104Y-82712393D01*
X102702103Y-82712396D01*
X102633985Y-82922047D01*
X102599500Y-83139778D01*
X71000500Y-83139778D01*
X71000500Y-80139778D01*
X75099500Y-80139778D01*
X75099500Y-80360221D01*
X75133985Y-80577952D01*
X75202103Y-80787603D01*
X75202104Y-80787606D01*
X75302187Y-80984025D01*
X75431752Y-81162358D01*
X75431756Y-81162363D01*
X75587636Y-81318243D01*
X75587641Y-81318247D01*
X75703557Y-81402464D01*
X75765978Y-81447815D01*
X75894375Y-81513237D01*
X75962393Y-81547895D01*
X75962396Y-81547896D01*
X76067221Y-81581955D01*
X76172049Y-81616015D01*
X76389778Y-81650500D01*
X76389779Y-81650500D01*
X76610221Y-81650500D01*
X76610222Y-81650500D01*
X76827951Y-81616015D01*
X77037606Y-81547895D01*
X77234022Y-81447815D01*
X77412365Y-81318242D01*
X77568242Y-81162365D01*
X77697815Y-80984022D01*
X77797895Y-80787606D01*
X77866015Y-80577951D01*
X77900500Y-80360222D01*
X77900500Y-80139778D01*
X77866015Y-79922049D01*
X77831955Y-79817221D01*
X77797896Y-79712396D01*
X77797895Y-79712393D01*
X77763237Y-79644375D01*
X77697815Y-79515978D01*
X77681260Y-79493192D01*
X77568247Y-79337641D01*
X77568243Y-79337636D01*
X77412363Y-79181756D01*
X77412358Y-79181752D01*
X77234025Y-79052187D01*
X77234024Y-79052186D01*
X77234022Y-79052185D01*
X77137090Y-79002795D01*
X77037606Y-78952104D01*
X77037603Y-78952103D01*
X76827952Y-78883985D01*
X76692073Y-78862464D01*
X76610222Y-78849500D01*
X76389778Y-78849500D01*
X76317201Y-78860995D01*
X76172047Y-78883985D01*
X75962396Y-78952103D01*
X75962393Y-78952104D01*
X75765974Y-79052187D01*
X75587641Y-79181752D01*
X75587636Y-79181756D01*
X75431756Y-79337636D01*
X75431752Y-79337641D01*
X75302187Y-79515974D01*
X75202104Y-79712393D01*
X75202103Y-79712396D01*
X75133985Y-79922047D01*
X75099500Y-80139778D01*
X71000500Y-80139778D01*
X71000500Y-74690135D01*
X113487500Y-74690135D01*
X113487500Y-76309870D01*
X113487501Y-76309876D01*
X113493908Y-76369483D01*
X113544202Y-76504328D01*
X113544206Y-76504335D01*
X113630452Y-76619544D01*
X113630455Y-76619547D01*
X113745664Y-76705793D01*
X113745671Y-76705797D01*
X113880517Y-76756091D01*
X113880516Y-76756091D01*
X113887444Y-76756835D01*
X113940127Y-76762500D01*
X113978801Y-76762499D01*
X114045838Y-76782182D01*
X114091594Y-76834985D01*
X114101539Y-76904143D01*
X114072516Y-76967699D01*
X114051687Y-76986816D01*
X113927542Y-77077014D01*
X113927533Y-77077021D01*
X113787021Y-77217533D01*
X113670213Y-77378305D01*
X113579994Y-77555367D01*
X113579993Y-77555370D01*
X113518587Y-77744362D01*
X113487500Y-77940639D01*
X113487500Y-78139360D01*
X113518587Y-78335637D01*
X113579993Y-78524629D01*
X113579994Y-78524632D01*
X113670213Y-78701694D01*
X113787019Y-78862464D01*
X113927536Y-79002981D01*
X114088306Y-79119787D01*
X114185541Y-79169331D01*
X114244780Y-79199515D01*
X114295576Y-79247490D01*
X114312371Y-79315311D01*
X114289833Y-79381446D01*
X114244780Y-79420485D01*
X114088305Y-79500213D01*
X113927533Y-79617021D01*
X113787021Y-79757533D01*
X113670213Y-79918305D01*
X113579994Y-80095367D01*
X113579993Y-80095370D01*
X113518587Y-80284362D01*
X113487500Y-80480639D01*
X113487500Y-80679360D01*
X113518587Y-80875637D01*
X113579993Y-81064629D01*
X113579994Y-81064632D01*
X113670213Y-81241694D01*
X113787019Y-81402464D01*
X113927536Y-81542981D01*
X114088306Y-81659787D01*
X114245332Y-81739796D01*
X114296127Y-81787769D01*
X114312922Y-81855590D01*
X114290385Y-81921725D01*
X114245332Y-81960764D01*
X114088566Y-82040641D01*
X114051283Y-82067729D01*
X114051282Y-82067730D01*
X114614058Y-82630504D01*
X114553919Y-82646619D01*
X114438080Y-82713498D01*
X114343498Y-82808080D01*
X114276619Y-82923919D01*
X114260504Y-82984057D01*
X113697730Y-82421282D01*
X113697729Y-82421283D01*
X113670643Y-82458564D01*
X113580457Y-82635562D01*
X113519075Y-82824476D01*
X113519075Y-82824479D01*
X113488000Y-83020678D01*
X113488000Y-83219321D01*
X113519075Y-83415520D01*
X113519075Y-83415523D01*
X113580457Y-83604437D01*
X113670641Y-83781432D01*
X113697730Y-83818715D01*
X113697731Y-83818716D01*
X114260504Y-83255942D01*
X114276619Y-83316081D01*
X114343498Y-83431920D01*
X114438080Y-83526502D01*
X114553919Y-83593381D01*
X114614057Y-83609494D01*
X114051283Y-84172268D01*
X114051283Y-84172269D01*
X114088567Y-84199358D01*
X114245331Y-84279234D01*
X114296127Y-84327209D01*
X114312922Y-84395030D01*
X114290384Y-84461165D01*
X114245331Y-84500204D01*
X114088305Y-84580213D01*
X113927533Y-84697021D01*
X113787021Y-84837533D01*
X113670213Y-84998305D01*
X113579994Y-85175367D01*
X113579993Y-85175370D01*
X113518587Y-85364362D01*
X113487500Y-85560639D01*
X113487500Y-85759360D01*
X113518587Y-85955637D01*
X113579993Y-86144629D01*
X113579994Y-86144632D01*
X113589029Y-86162363D01*
X113670213Y-86321694D01*
X113787019Y-86482464D01*
X113927536Y-86622981D01*
X114088306Y-86739787D01*
X114206480Y-86800000D01*
X114244780Y-86819515D01*
X114295576Y-86867490D01*
X114312371Y-86935311D01*
X114289833Y-87001446D01*
X114244780Y-87040485D01*
X114088305Y-87120213D01*
X113927533Y-87237021D01*
X113787021Y-87377533D01*
X113670213Y-87538305D01*
X113579994Y-87715367D01*
X113579993Y-87715370D01*
X113518587Y-87904362D01*
X113487500Y-88100639D01*
X113487500Y-88299360D01*
X113518587Y-88495637D01*
X113579993Y-88684629D01*
X113579994Y-88684632D01*
X113646842Y-88815826D01*
X113670213Y-88861694D01*
X113787019Y-89022464D01*
X113927536Y-89162981D01*
X114088306Y-89279787D01*
X114201839Y-89337635D01*
X114244780Y-89359515D01*
X114295576Y-89407490D01*
X114312371Y-89475311D01*
X114289833Y-89541446D01*
X114244780Y-89580485D01*
X114088305Y-89660213D01*
X113927533Y-89777021D01*
X113787021Y-89917533D01*
X113670213Y-90078305D01*
X113579994Y-90255367D01*
X113579993Y-90255370D01*
X113518587Y-90444362D01*
X113487500Y-90640639D01*
X113487500Y-90839360D01*
X113518587Y-91035637D01*
X113579993Y-91224629D01*
X113579994Y-91224632D01*
X113627692Y-91318243D01*
X113670213Y-91401694D01*
X113787019Y-91562464D01*
X113927536Y-91702981D01*
X114088306Y-91819787D01*
X114206832Y-91880179D01*
X114244780Y-91899515D01*
X114295576Y-91947490D01*
X114312371Y-92015311D01*
X114289833Y-92081446D01*
X114244780Y-92120485D01*
X114088305Y-92200213D01*
X113927533Y-92317021D01*
X113787021Y-92457533D01*
X113670213Y-92618305D01*
X113579994Y-92795367D01*
X113579993Y-92795370D01*
X113518587Y-92984362D01*
X113487500Y-93180639D01*
X113487500Y-93379360D01*
X113518587Y-93575637D01*
X113579993Y-93764629D01*
X113579994Y-93764632D01*
X113670213Y-93941694D01*
X113787019Y-94102464D01*
X113927536Y-94242981D01*
X114088306Y-94359787D01*
X114206832Y-94420179D01*
X114244780Y-94439515D01*
X114295576Y-94487490D01*
X114312371Y-94555311D01*
X114289833Y-94621446D01*
X114244780Y-94660485D01*
X114088305Y-94740213D01*
X113927533Y-94857021D01*
X113787021Y-94997533D01*
X113670213Y-95158305D01*
X113579994Y-95335367D01*
X113579993Y-95335370D01*
X113518587Y-95524362D01*
X113487500Y-95720639D01*
X113487500Y-95919360D01*
X113518587Y-96115637D01*
X113579993Y-96304629D01*
X113579994Y-96304632D01*
X113656873Y-96455513D01*
X113670213Y-96481694D01*
X113787019Y-96642464D01*
X113927536Y-96782981D01*
X114088306Y-96899787D01*
X114206832Y-96960179D01*
X114244780Y-96979515D01*
X114295576Y-97027490D01*
X114312371Y-97095311D01*
X114289833Y-97161446D01*
X114244780Y-97200485D01*
X114088305Y-97280213D01*
X113927533Y-97397021D01*
X113787021Y-97537533D01*
X113670213Y-97698305D01*
X113579994Y-97875367D01*
X113579993Y-97875370D01*
X113518587Y-98064362D01*
X113518587Y-98064364D01*
X113487500Y-98260639D01*
X113487500Y-98459361D01*
X113503043Y-98557498D01*
X113518587Y-98655637D01*
X113579993Y-98844629D01*
X113579994Y-98844632D01*
X113670213Y-99021694D01*
X113787019Y-99182464D01*
X113927536Y-99322981D01*
X114088306Y-99439787D01*
X114206832Y-99500179D01*
X114244780Y-99519515D01*
X114295576Y-99567490D01*
X114312371Y-99635311D01*
X114289833Y-99701446D01*
X114244780Y-99740485D01*
X114088305Y-99820213D01*
X113927533Y-99937021D01*
X113787021Y-100077533D01*
X113670213Y-100238305D01*
X113579994Y-100415367D01*
X113579993Y-100415370D01*
X113518587Y-100604362D01*
X113518587Y-100604364D01*
X113487500Y-100800639D01*
X113487500Y-100999361D01*
X113499948Y-101077952D01*
X113518587Y-101195637D01*
X113579993Y-101384629D01*
X113579994Y-101384632D01*
X113614374Y-101452105D01*
X113670213Y-101561694D01*
X113787019Y-101722464D01*
X113927536Y-101862981D01*
X114088306Y-101979787D01*
X114159327Y-102015974D01*
X114244780Y-102059515D01*
X114295576Y-102107490D01*
X114312371Y-102175311D01*
X114289833Y-102241446D01*
X114244780Y-102280485D01*
X114088305Y-102360213D01*
X113927533Y-102477021D01*
X113787021Y-102617533D01*
X113670213Y-102778305D01*
X113579994Y-102955367D01*
X113579993Y-102955370D01*
X113518587Y-103144362D01*
X113518587Y-103144364D01*
X113487500Y-103340639D01*
X113487500Y-103539361D01*
X113492876Y-103573306D01*
X113518587Y-103735637D01*
X113579993Y-103924629D01*
X113579994Y-103924632D01*
X113626668Y-104016233D01*
X113670213Y-104101694D01*
X113787019Y-104262464D01*
X113927536Y-104402981D01*
X114088306Y-104519787D01*
X114199230Y-104576306D01*
X114244780Y-104599515D01*
X114295576Y-104647490D01*
X114312371Y-104715311D01*
X114289833Y-104781446D01*
X114244780Y-104820485D01*
X114088305Y-104900213D01*
X113927533Y-105017021D01*
X113787021Y-105157533D01*
X113670213Y-105318305D01*
X113579994Y-105495367D01*
X113579993Y-105495370D01*
X113518587Y-105684362D01*
X113487500Y-105880639D01*
X113487500Y-106079360D01*
X113518587Y-106275637D01*
X113579993Y-106464629D01*
X113579994Y-106464632D01*
X113670213Y-106641694D01*
X113787019Y-106802464D01*
X113927536Y-106942981D01*
X114088306Y-107059787D01*
X114206832Y-107120179D01*
X114244780Y-107139515D01*
X114295576Y-107187490D01*
X114312371Y-107255311D01*
X114289833Y-107321446D01*
X114244780Y-107360485D01*
X114088305Y-107440213D01*
X113927533Y-107557021D01*
X113787021Y-107697533D01*
X113670213Y-107858305D01*
X113579994Y-108035367D01*
X113579993Y-108035370D01*
X113518587Y-108224362D01*
X113487500Y-108420639D01*
X113487500Y-108619360D01*
X113518587Y-108815637D01*
X113579993Y-109004629D01*
X113579994Y-109004632D01*
X113654319Y-109150500D01*
X113670213Y-109181694D01*
X113787019Y-109342464D01*
X113927536Y-109482981D01*
X114088306Y-109599787D01*
X114206832Y-109660179D01*
X114244780Y-109679515D01*
X114295576Y-109727490D01*
X114312371Y-109795311D01*
X114289833Y-109861446D01*
X114244780Y-109900485D01*
X114088305Y-109980213D01*
X113927533Y-110097021D01*
X113787021Y-110237533D01*
X113670213Y-110398305D01*
X113579994Y-110575367D01*
X113579993Y-110575370D01*
X113518587Y-110764362D01*
X113487500Y-110960639D01*
X113487500Y-111159360D01*
X113518587Y-111355637D01*
X113579993Y-111544629D01*
X113579994Y-111544632D01*
X113670213Y-111721694D01*
X113787019Y-111882464D01*
X113927536Y-112022981D01*
X114088306Y-112139787D01*
X114175149Y-112184035D01*
X114265367Y-112230005D01*
X114265370Y-112230006D01*
X114359866Y-112260709D01*
X114454364Y-112291413D01*
X114650639Y-112322500D01*
X114650640Y-112322500D01*
X114849360Y-112322500D01*
X114849361Y-112322500D01*
X115045636Y-112291413D01*
X115234632Y-112230005D01*
X115411694Y-112139787D01*
X115572464Y-112022981D01*
X115712981Y-111882464D01*
X115829787Y-111721694D01*
X115920005Y-111544632D01*
X115981413Y-111355636D01*
X116012500Y-111159361D01*
X116012500Y-110960639D01*
X115981413Y-110764364D01*
X115948330Y-110662545D01*
X115920006Y-110575370D01*
X115920005Y-110575367D01*
X115829786Y-110398305D01*
X115781667Y-110332075D01*
X115712981Y-110237536D01*
X115572464Y-110097019D01*
X115411694Y-109980213D01*
X115255218Y-109900484D01*
X115204423Y-109852510D01*
X115187628Y-109784689D01*
X115210165Y-109718554D01*
X115255218Y-109679515D01*
X115411694Y-109599787D01*
X115572464Y-109482981D01*
X115712981Y-109342464D01*
X115829787Y-109181694D01*
X115920005Y-109004632D01*
X115981413Y-108815636D01*
X116012500Y-108619361D01*
X116012500Y-108420639D01*
X115981413Y-108224364D01*
X115920005Y-108035368D01*
X115920005Y-108035367D01*
X115830763Y-107860222D01*
X115829787Y-107858306D01*
X115712981Y-107697536D01*
X115572464Y-107557019D01*
X115411694Y-107440213D01*
X115255218Y-107360484D01*
X115204423Y-107312510D01*
X115187628Y-107244689D01*
X115210165Y-107178554D01*
X115255218Y-107139515D01*
X115411694Y-107059787D01*
X115572464Y-106942981D01*
X115712981Y-106802464D01*
X115829787Y-106641694D01*
X115920005Y-106464632D01*
X115981413Y-106275636D01*
X116012500Y-106079361D01*
X116012500Y-105880639D01*
X115981413Y-105684364D01*
X115920005Y-105495368D01*
X115920005Y-105495367D01*
X115874035Y-105405149D01*
X115829787Y-105318306D01*
X115712981Y-105157536D01*
X115572464Y-105017019D01*
X115411694Y-104900213D01*
X115255218Y-104820484D01*
X115204423Y-104772510D01*
X115187628Y-104704689D01*
X115210165Y-104638554D01*
X115255218Y-104599515D01*
X115411694Y-104519787D01*
X115572464Y-104402981D01*
X115712981Y-104262464D01*
X115829787Y-104101694D01*
X115920005Y-103924632D01*
X115981413Y-103735636D01*
X116012500Y-103539361D01*
X116012500Y-103340639D01*
X115981413Y-103144364D01*
X115920005Y-102955368D01*
X115920005Y-102955367D01*
X115829786Y-102778305D01*
X115828517Y-102776558D01*
X115712981Y-102617536D01*
X115572464Y-102477019D01*
X115411694Y-102360213D01*
X115255218Y-102280484D01*
X115204423Y-102232510D01*
X115187628Y-102164689D01*
X115210165Y-102098554D01*
X115255218Y-102059515D01*
X115411694Y-101979787D01*
X115572464Y-101862981D01*
X115712981Y-101722464D01*
X115829787Y-101561694D01*
X115920005Y-101384632D01*
X115981413Y-101195636D01*
X116012500Y-100999361D01*
X116012500Y-100800639D01*
X115981413Y-100604364D01*
X115920005Y-100415368D01*
X115920005Y-100415367D01*
X115829786Y-100238305D01*
X115810960Y-100212393D01*
X115712981Y-100077536D01*
X115572464Y-99937019D01*
X115411694Y-99820213D01*
X115255218Y-99740484D01*
X115204423Y-99692510D01*
X115187628Y-99624689D01*
X115210165Y-99558554D01*
X115255218Y-99519515D01*
X115411694Y-99439787D01*
X115572464Y-99322981D01*
X115712981Y-99182464D01*
X115829787Y-99021694D01*
X115920005Y-98844632D01*
X115981413Y-98655636D01*
X116012500Y-98459361D01*
X116012500Y-98260639D01*
X115981413Y-98064364D01*
X115920005Y-97875368D01*
X115920005Y-97875367D01*
X115856381Y-97750500D01*
X115829787Y-97698306D01*
X115712981Y-97537536D01*
X115572464Y-97397019D01*
X115411694Y-97280213D01*
X115255218Y-97200484D01*
X115204423Y-97152510D01*
X115187628Y-97084689D01*
X115210165Y-97018554D01*
X115255218Y-96979515D01*
X115411694Y-96899787D01*
X115572464Y-96782981D01*
X115712981Y-96642464D01*
X115829787Y-96481694D01*
X115920005Y-96304632D01*
X115981413Y-96115636D01*
X116012500Y-95919361D01*
X116012500Y-95720639D01*
X115981413Y-95524364D01*
X115920005Y-95335368D01*
X115920005Y-95335367D01*
X115829786Y-95158305D01*
X115712981Y-94997536D01*
X115572464Y-94857019D01*
X115411694Y-94740213D01*
X115255218Y-94660484D01*
X115204423Y-94612510D01*
X115187628Y-94544689D01*
X115210165Y-94478554D01*
X115255218Y-94439515D01*
X115411694Y-94359787D01*
X115572464Y-94242981D01*
X115712981Y-94102464D01*
X115829787Y-93941694D01*
X115920005Y-93764632D01*
X115981413Y-93575636D01*
X116012500Y-93379361D01*
X116012500Y-93180639D01*
X115981413Y-92984364D01*
X115920005Y-92795368D01*
X115920005Y-92795367D01*
X115829786Y-92618305D01*
X115816849Y-92600499D01*
X115712981Y-92457536D01*
X115572464Y-92317019D01*
X115411694Y-92200213D01*
X115255218Y-92120484D01*
X115204423Y-92072510D01*
X115187628Y-92004689D01*
X115210165Y-91938554D01*
X115255218Y-91899515D01*
X115411694Y-91819787D01*
X115572464Y-91702981D01*
X115712981Y-91562464D01*
X115829787Y-91401694D01*
X115920005Y-91224632D01*
X115981413Y-91035636D01*
X116012500Y-90839361D01*
X116012500Y-90640639D01*
X115981413Y-90444364D01*
X115920005Y-90255368D01*
X115920005Y-90255367D01*
X115829786Y-90078305D01*
X115814517Y-90057289D01*
X115712981Y-89917536D01*
X115572464Y-89777019D01*
X115411694Y-89660213D01*
X115255218Y-89580484D01*
X115204423Y-89532510D01*
X115187628Y-89464689D01*
X115210165Y-89398554D01*
X115255218Y-89359515D01*
X115411694Y-89279787D01*
X115572464Y-89162981D01*
X115712981Y-89022464D01*
X115829787Y-88861694D01*
X115920005Y-88684632D01*
X115981413Y-88495636D01*
X116012500Y-88299361D01*
X116012500Y-88100639D01*
X115981413Y-87904364D01*
X115921600Y-87720276D01*
X115920006Y-87715370D01*
X115920005Y-87715367D01*
X115829786Y-87538305D01*
X115712981Y-87377536D01*
X115572464Y-87237019D01*
X115411694Y-87120213D01*
X115255218Y-87040484D01*
X115204423Y-86992510D01*
X115187628Y-86924689D01*
X115210165Y-86858554D01*
X115255218Y-86819515D01*
X115411694Y-86739787D01*
X115572464Y-86622981D01*
X115712981Y-86482464D01*
X115829787Y-86321694D01*
X115920005Y-86144632D01*
X115981413Y-85955636D01*
X116012500Y-85759361D01*
X116012500Y-85560639D01*
X115981413Y-85364364D01*
X115920005Y-85175368D01*
X115920005Y-85175367D01*
X115829786Y-84998305D01*
X115774383Y-84922049D01*
X115712981Y-84837536D01*
X115572464Y-84697019D01*
X115411694Y-84580213D01*
X115254667Y-84500203D01*
X115203872Y-84452229D01*
X115187077Y-84384408D01*
X115209614Y-84318273D01*
X115254669Y-84279234D01*
X115411422Y-84199364D01*
X115448716Y-84172268D01*
X114885942Y-83609494D01*
X114946081Y-83593381D01*
X115061920Y-83526502D01*
X115156502Y-83431920D01*
X115223381Y-83316081D01*
X115239495Y-83255942D01*
X115802268Y-83818715D01*
X115829362Y-83781425D01*
X115919542Y-83604437D01*
X115980924Y-83415523D01*
X115980924Y-83415520D01*
X116012000Y-83219321D01*
X116012000Y-83020678D01*
X115980924Y-82824479D01*
X115980924Y-82824476D01*
X115919542Y-82635562D01*
X115829358Y-82458567D01*
X115802268Y-82421283D01*
X115239494Y-82984057D01*
X115223381Y-82923919D01*
X115156502Y-82808080D01*
X115061920Y-82713498D01*
X114946081Y-82646619D01*
X114885942Y-82630504D01*
X115448716Y-82067731D01*
X115448715Y-82067730D01*
X115411432Y-82040641D01*
X115254668Y-81960765D01*
X115203872Y-81912790D01*
X115187077Y-81844969D01*
X115209615Y-81778834D01*
X115254667Y-81739796D01*
X115411694Y-81659787D01*
X115572464Y-81542981D01*
X115712981Y-81402464D01*
X115829787Y-81241694D01*
X115920005Y-81064632D01*
X115981413Y-80875636D01*
X116012500Y-80679361D01*
X116012500Y-80480639D01*
X115981413Y-80284364D01*
X115920005Y-80095368D01*
X115920005Y-80095367D01*
X115829786Y-79918305D01*
X115712981Y-79757536D01*
X115572464Y-79617019D01*
X115411694Y-79500213D01*
X115255218Y-79420484D01*
X115204423Y-79372510D01*
X115187628Y-79304689D01*
X115210165Y-79238554D01*
X115255218Y-79199515D01*
X115411694Y-79119787D01*
X115572464Y-79002981D01*
X115712981Y-78862464D01*
X115829787Y-78701694D01*
X115920005Y-78524632D01*
X115981413Y-78335636D01*
X116012500Y-78139361D01*
X116012500Y-77940639D01*
X115981413Y-77744364D01*
X115920005Y-77555368D01*
X115920005Y-77555367D01*
X115829786Y-77378305D01*
X115795176Y-77330668D01*
X115712981Y-77217536D01*
X115572464Y-77077019D01*
X115448310Y-76986816D01*
X115405646Y-76931487D01*
X115399667Y-76861874D01*
X115432273Y-76800079D01*
X115493112Y-76765721D01*
X115521196Y-76762499D01*
X115559872Y-76762499D01*
X115619483Y-76756091D01*
X115754331Y-76705796D01*
X115869546Y-76619546D01*
X115955796Y-76504331D01*
X116006091Y-76369483D01*
X116012500Y-76309873D01*
X116012499Y-75400639D01*
X128727500Y-75400639D01*
X128727500Y-75599360D01*
X128758587Y-75795637D01*
X128819993Y-75984629D01*
X128819994Y-75984632D01*
X128904305Y-76150099D01*
X128910213Y-76161694D01*
X129027019Y-76322464D01*
X129167536Y-76462981D01*
X129328306Y-76579787D01*
X129425802Y-76629464D01*
X129484780Y-76659515D01*
X129535576Y-76707490D01*
X129552371Y-76775311D01*
X129529833Y-76841446D01*
X129484780Y-76880485D01*
X129328305Y-76960213D01*
X129167533Y-77077021D01*
X129027021Y-77217533D01*
X128910213Y-77378305D01*
X128819994Y-77555367D01*
X128819993Y-77555370D01*
X128758587Y-77744362D01*
X128727500Y-77940639D01*
X128727500Y-78139360D01*
X128758587Y-78335637D01*
X128819993Y-78524629D01*
X128819994Y-78524632D01*
X128910213Y-78701694D01*
X129027019Y-78862464D01*
X129167536Y-79002981D01*
X129328306Y-79119787D01*
X129425541Y-79169331D01*
X129484780Y-79199515D01*
X129535576Y-79247490D01*
X129552371Y-79315311D01*
X129529833Y-79381446D01*
X129484780Y-79420485D01*
X129328305Y-79500213D01*
X129167533Y-79617021D01*
X129027021Y-79757533D01*
X128910213Y-79918305D01*
X128819994Y-80095367D01*
X128819993Y-80095370D01*
X128758587Y-80284362D01*
X128727500Y-80480639D01*
X128727500Y-80679360D01*
X128758587Y-80875637D01*
X128819993Y-81064629D01*
X128819994Y-81064632D01*
X128910213Y-81241694D01*
X129027019Y-81402464D01*
X129167536Y-81542981D01*
X129328306Y-81659787D01*
X129446832Y-81720179D01*
X129484780Y-81739515D01*
X129535576Y-81787490D01*
X129552371Y-81855311D01*
X129529833Y-81921446D01*
X129484780Y-81960485D01*
X129328305Y-82040213D01*
X129167533Y-82157021D01*
X129027021Y-82297533D01*
X128910213Y-82458305D01*
X128819994Y-82635367D01*
X128819993Y-82635370D01*
X128758587Y-82824362D01*
X128727500Y-83020639D01*
X128727500Y-83219360D01*
X128758587Y-83415637D01*
X128819993Y-83604629D01*
X128819994Y-83604632D01*
X128910076Y-83781425D01*
X128910213Y-83781694D01*
X129027019Y-83942464D01*
X129167536Y-84082981D01*
X129328306Y-84199787D01*
X129446832Y-84260179D01*
X129484780Y-84279515D01*
X129535576Y-84327490D01*
X129552371Y-84395311D01*
X129529833Y-84461446D01*
X129484780Y-84500485D01*
X129328305Y-84580213D01*
X129167533Y-84697021D01*
X129027021Y-84837533D01*
X128910213Y-84998305D01*
X128819994Y-85175367D01*
X128819993Y-85175370D01*
X128758587Y-85364362D01*
X128727500Y-85560639D01*
X128727500Y-85759360D01*
X128758587Y-85955637D01*
X128819993Y-86144629D01*
X128819994Y-86144632D01*
X128829029Y-86162363D01*
X128910213Y-86321694D01*
X129027019Y-86482464D01*
X129167536Y-86622981D01*
X129328306Y-86739787D01*
X129446480Y-86800000D01*
X129484780Y-86819515D01*
X129535576Y-86867490D01*
X129552371Y-86935311D01*
X129529833Y-87001446D01*
X129484780Y-87040485D01*
X129328305Y-87120213D01*
X129167533Y-87237021D01*
X129027021Y-87377533D01*
X128910213Y-87538305D01*
X128819994Y-87715367D01*
X128819993Y-87715370D01*
X128758587Y-87904362D01*
X128727500Y-88100639D01*
X128727500Y-88299360D01*
X128758587Y-88495637D01*
X128819993Y-88684629D01*
X128819994Y-88684632D01*
X128886842Y-88815826D01*
X128910213Y-88861694D01*
X129027019Y-89022464D01*
X129167536Y-89162981D01*
X129328306Y-89279787D01*
X129441839Y-89337635D01*
X129484780Y-89359515D01*
X129535576Y-89407490D01*
X129552371Y-89475311D01*
X129529833Y-89541446D01*
X129484780Y-89580485D01*
X129328305Y-89660213D01*
X129167533Y-89777021D01*
X129027021Y-89917533D01*
X128910213Y-90078305D01*
X128819994Y-90255367D01*
X128819993Y-90255370D01*
X128758587Y-90444362D01*
X128727500Y-90640639D01*
X128727500Y-90839360D01*
X128758587Y-91035637D01*
X128819993Y-91224629D01*
X128819994Y-91224632D01*
X128867692Y-91318243D01*
X128910213Y-91401694D01*
X129027019Y-91562464D01*
X129167536Y-91702981D01*
X129328306Y-91819787D01*
X129446832Y-91880179D01*
X129484780Y-91899515D01*
X129535576Y-91947490D01*
X129552371Y-92015311D01*
X129529833Y-92081446D01*
X129484780Y-92120485D01*
X129328305Y-92200213D01*
X129167533Y-92317021D01*
X129027021Y-92457533D01*
X128910213Y-92618305D01*
X128819994Y-92795367D01*
X128819993Y-92795370D01*
X128758587Y-92984362D01*
X128727500Y-93180639D01*
X128727500Y-93379360D01*
X128758587Y-93575637D01*
X128819993Y-93764629D01*
X128819994Y-93764632D01*
X128910213Y-93941694D01*
X129027019Y-94102464D01*
X129167536Y-94242981D01*
X129328306Y-94359787D01*
X129446832Y-94420179D01*
X129484780Y-94439515D01*
X129535576Y-94487490D01*
X129552371Y-94555311D01*
X129529833Y-94621446D01*
X129484780Y-94660485D01*
X129328305Y-94740213D01*
X129167533Y-94857021D01*
X129027021Y-94997533D01*
X128910213Y-95158305D01*
X128819994Y-95335367D01*
X128819993Y-95335370D01*
X128758587Y-95524362D01*
X128727500Y-95720639D01*
X128727500Y-95919360D01*
X128758587Y-96115637D01*
X128819993Y-96304629D01*
X128819994Y-96304632D01*
X128896873Y-96455513D01*
X128910213Y-96481694D01*
X129027019Y-96642464D01*
X129167536Y-96782981D01*
X129328306Y-96899787D01*
X129446832Y-96960179D01*
X129484780Y-96979515D01*
X129535576Y-97027490D01*
X129552371Y-97095311D01*
X129529833Y-97161446D01*
X129484780Y-97200485D01*
X129328305Y-97280213D01*
X129167533Y-97397021D01*
X129027021Y-97537533D01*
X128910213Y-97698305D01*
X128819994Y-97875367D01*
X128819993Y-97875370D01*
X128758587Y-98064362D01*
X128758587Y-98064364D01*
X128727500Y-98260639D01*
X128727500Y-98459361D01*
X128743043Y-98557498D01*
X128758587Y-98655637D01*
X128819993Y-98844629D01*
X128819994Y-98844632D01*
X128910213Y-99021694D01*
X129027019Y-99182464D01*
X129167536Y-99322981D01*
X129328306Y-99439787D01*
X129446832Y-99500179D01*
X129484780Y-99519515D01*
X129535576Y-99567490D01*
X129552371Y-99635311D01*
X129529833Y-99701446D01*
X129484780Y-99740485D01*
X129328305Y-99820213D01*
X129167533Y-99937021D01*
X129027021Y-100077533D01*
X128910213Y-100238305D01*
X128819994Y-100415367D01*
X128819993Y-100415370D01*
X128758587Y-100604362D01*
X128758587Y-100604364D01*
X128727500Y-100800639D01*
X128727500Y-100999361D01*
X128739948Y-101077952D01*
X128758587Y-101195637D01*
X128819993Y-101384629D01*
X128819994Y-101384632D01*
X128854374Y-101452105D01*
X128910213Y-101561694D01*
X129027019Y-101722464D01*
X129167536Y-101862981D01*
X129328306Y-101979787D01*
X129399327Y-102015974D01*
X129484780Y-102059515D01*
X129535576Y-102107490D01*
X129552371Y-102175311D01*
X129529833Y-102241446D01*
X129484780Y-102280485D01*
X129328305Y-102360213D01*
X129167533Y-102477021D01*
X129027021Y-102617533D01*
X128910213Y-102778305D01*
X128819994Y-102955367D01*
X128819993Y-102955370D01*
X128758587Y-103144362D01*
X128758587Y-103144364D01*
X128727500Y-103340639D01*
X128727500Y-103539361D01*
X128732876Y-103573306D01*
X128758587Y-103735637D01*
X128819993Y-103924629D01*
X128819994Y-103924632D01*
X128866668Y-104016233D01*
X128910213Y-104101694D01*
X129027019Y-104262464D01*
X129167536Y-104402981D01*
X129328306Y-104519787D01*
X129439230Y-104576306D01*
X129484780Y-104599515D01*
X129535576Y-104647490D01*
X129552371Y-104715311D01*
X129529833Y-104781446D01*
X129484780Y-104820485D01*
X129328305Y-104900213D01*
X129167533Y-105017021D01*
X129027021Y-105157533D01*
X128910213Y-105318305D01*
X128819994Y-105495367D01*
X128819993Y-105495370D01*
X128758587Y-105684362D01*
X128727500Y-105880639D01*
X128727500Y-106079360D01*
X128758587Y-106275637D01*
X128819993Y-106464629D01*
X128819994Y-106464632D01*
X128910213Y-106641694D01*
X129027019Y-106802464D01*
X129167536Y-106942981D01*
X129328306Y-107059787D01*
X129446832Y-107120179D01*
X129484780Y-107139515D01*
X129535576Y-107187490D01*
X129552371Y-107255311D01*
X129529833Y-107321446D01*
X129484780Y-107360485D01*
X129328305Y-107440213D01*
X129167533Y-107557021D01*
X129027021Y-107697533D01*
X128910213Y-107858305D01*
X128819994Y-108035367D01*
X128819993Y-108035370D01*
X128758587Y-108224362D01*
X128727500Y-108420639D01*
X128727500Y-108619360D01*
X128758587Y-108815637D01*
X128819993Y-109004629D01*
X128819994Y-109004632D01*
X128894319Y-109150500D01*
X128910213Y-109181694D01*
X129027019Y-109342464D01*
X129167536Y-109482981D01*
X129328306Y-109599787D01*
X129446832Y-109660179D01*
X129484780Y-109679515D01*
X129535576Y-109727490D01*
X129552371Y-109795311D01*
X129529833Y-109861446D01*
X129484780Y-109900485D01*
X129328305Y-109980213D01*
X129167533Y-110097021D01*
X129027021Y-110237533D01*
X128910213Y-110398305D01*
X128819994Y-110575367D01*
X128819993Y-110575370D01*
X128758587Y-110764362D01*
X128727500Y-110960639D01*
X128727500Y-111159360D01*
X128758587Y-111355637D01*
X128819993Y-111544629D01*
X128819994Y-111544632D01*
X128910213Y-111721694D01*
X129027019Y-111882464D01*
X129167536Y-112022981D01*
X129328306Y-112139787D01*
X129415149Y-112184035D01*
X129505367Y-112230005D01*
X129505370Y-112230006D01*
X129599866Y-112260709D01*
X129694364Y-112291413D01*
X129890639Y-112322500D01*
X129890640Y-112322500D01*
X130089360Y-112322500D01*
X130089361Y-112322500D01*
X130285636Y-112291413D01*
X130474632Y-112230005D01*
X130651694Y-112139787D01*
X130812464Y-112022981D01*
X130952981Y-111882464D01*
X131069787Y-111721694D01*
X131160005Y-111544632D01*
X131221413Y-111355636D01*
X131252500Y-111159361D01*
X131252500Y-110960639D01*
X131221413Y-110764364D01*
X131188330Y-110662545D01*
X131160006Y-110575370D01*
X131160005Y-110575367D01*
X131069786Y-110398305D01*
X131021667Y-110332075D01*
X130952981Y-110237536D01*
X130812464Y-110097019D01*
X130651694Y-109980213D01*
X130495218Y-109900484D01*
X130444423Y-109852510D01*
X130427628Y-109784689D01*
X130450165Y-109718554D01*
X130495218Y-109679515D01*
X130651694Y-109599787D01*
X130812464Y-109482981D01*
X130839932Y-109455513D01*
X141509500Y-109455513D01*
X141509500Y-109644486D01*
X141539059Y-109831118D01*
X141597454Y-110010836D01*
X141641367Y-110097019D01*
X141683240Y-110179199D01*
X141794310Y-110332073D01*
X141927927Y-110465690D01*
X142080801Y-110576760D01*
X142160347Y-110617290D01*
X142249163Y-110662545D01*
X142249165Y-110662545D01*
X142249168Y-110662547D01*
X142345497Y-110693846D01*
X142428881Y-110720940D01*
X142615514Y-110750500D01*
X142615519Y-110750500D01*
X142804486Y-110750500D01*
X142991118Y-110720940D01*
X143170832Y-110662547D01*
X143339199Y-110576760D01*
X143492073Y-110465690D01*
X143625690Y-110332073D01*
X143736760Y-110179199D01*
X143822547Y-110010832D01*
X143880940Y-109831118D01*
X143881341Y-109828587D01*
X143910500Y-109644486D01*
X143910500Y-109455513D01*
X146589500Y-109455513D01*
X146589500Y-109644486D01*
X146619059Y-109831118D01*
X146677454Y-110010836D01*
X146721367Y-110097019D01*
X146763240Y-110179199D01*
X146874310Y-110332073D01*
X147007927Y-110465690D01*
X147160801Y-110576760D01*
X147240347Y-110617290D01*
X147329163Y-110662545D01*
X147329165Y-110662545D01*
X147329168Y-110662547D01*
X147425497Y-110693846D01*
X147508881Y-110720940D01*
X147695514Y-110750500D01*
X147695519Y-110750500D01*
X147884486Y-110750500D01*
X148071118Y-110720940D01*
X148250832Y-110662547D01*
X148419199Y-110576760D01*
X148572073Y-110465690D01*
X148705690Y-110332073D01*
X148816760Y-110179199D01*
X148902547Y-110010832D01*
X148960940Y-109831118D01*
X148961341Y-109828587D01*
X148990500Y-109644486D01*
X148990500Y-109455513D01*
X148960940Y-109268881D01*
X148902545Y-109089163D01*
X148830524Y-108947815D01*
X148816760Y-108920801D01*
X148705690Y-108767927D01*
X148572073Y-108634310D01*
X148419199Y-108523240D01*
X148250836Y-108437454D01*
X148071118Y-108379059D01*
X147884486Y-108349500D01*
X147884481Y-108349500D01*
X147695519Y-108349500D01*
X147695514Y-108349500D01*
X147508881Y-108379059D01*
X147329163Y-108437454D01*
X147160800Y-108523240D01*
X147073579Y-108586610D01*
X147007927Y-108634310D01*
X147007925Y-108634312D01*
X147007924Y-108634312D01*
X146874312Y-108767924D01*
X146874312Y-108767925D01*
X146874310Y-108767927D01*
X146837754Y-108818242D01*
X146763240Y-108920800D01*
X146677454Y-109089163D01*
X146619059Y-109268881D01*
X146589500Y-109455513D01*
X143910500Y-109455513D01*
X143880940Y-109268881D01*
X143822545Y-109089163D01*
X143750524Y-108947815D01*
X143736760Y-108920801D01*
X143625690Y-108767927D01*
X143492073Y-108634310D01*
X143339199Y-108523240D01*
X143170836Y-108437454D01*
X142991118Y-108379059D01*
X142804486Y-108349500D01*
X142804481Y-108349500D01*
X142615519Y-108349500D01*
X142615514Y-108349500D01*
X142428881Y-108379059D01*
X142249163Y-108437454D01*
X142080800Y-108523240D01*
X141993579Y-108586610D01*
X141927927Y-108634310D01*
X141927925Y-108634312D01*
X141927924Y-108634312D01*
X141794312Y-108767924D01*
X141794312Y-108767925D01*
X141794310Y-108767927D01*
X141757754Y-108818242D01*
X141683240Y-108920800D01*
X141597454Y-109089163D01*
X141539059Y-109268881D01*
X141509500Y-109455513D01*
X130839932Y-109455513D01*
X130952981Y-109342464D01*
X131069787Y-109181694D01*
X131160005Y-109004632D01*
X131221413Y-108815636D01*
X131252500Y-108619361D01*
X131252500Y-108420639D01*
X131221413Y-108224364D01*
X131160005Y-108035368D01*
X131160005Y-108035367D01*
X131070763Y-107860222D01*
X131069787Y-107858306D01*
X130952981Y-107697536D01*
X130812464Y-107557019D01*
X130651694Y-107440213D01*
X130495218Y-107360484D01*
X130444423Y-107312510D01*
X130427628Y-107244689D01*
X130450165Y-107178554D01*
X130495218Y-107139515D01*
X130651694Y-107059787D01*
X130812464Y-106942981D01*
X130952981Y-106802464D01*
X131069787Y-106641694D01*
X131160005Y-106464632D01*
X131221413Y-106275636D01*
X131252500Y-106079361D01*
X131252500Y-105880639D01*
X131221413Y-105684364D01*
X131160005Y-105495368D01*
X131160005Y-105495367D01*
X131114035Y-105405149D01*
X131069787Y-105318306D01*
X130952981Y-105157536D01*
X130812464Y-105017019D01*
X130651694Y-104900213D01*
X130495218Y-104820484D01*
X130444423Y-104772510D01*
X130427628Y-104704689D01*
X130450165Y-104638554D01*
X130495218Y-104599515D01*
X130651694Y-104519787D01*
X130812464Y-104402981D01*
X130952981Y-104262464D01*
X131069787Y-104101694D01*
X131160005Y-103924632D01*
X131221413Y-103735636D01*
X131242898Y-103599983D01*
X141249500Y-103599983D01*
X141249500Y-104900001D01*
X141249501Y-104900018D01*
X141260000Y-105002796D01*
X141260001Y-105002799D01*
X141315185Y-105169331D01*
X141315186Y-105169334D01*
X141407288Y-105318656D01*
X141531344Y-105442712D01*
X141680666Y-105534814D01*
X141847203Y-105589999D01*
X141949991Y-105600500D01*
X143550008Y-105600499D01*
X143652797Y-105589999D01*
X143819334Y-105534814D01*
X143968656Y-105442712D01*
X144092712Y-105318656D01*
X144184814Y-105169334D01*
X144239999Y-105002797D01*
X144250500Y-104900009D01*
X144250499Y-103599992D01*
X144245659Y-103552616D01*
X144239999Y-103497203D01*
X144239998Y-103497200D01*
X144225208Y-103452567D01*
X144184814Y-103330666D01*
X144092712Y-103181344D01*
X143968656Y-103057288D01*
X143819334Y-102965186D01*
X143819332Y-102965185D01*
X143813440Y-102961551D01*
X143766716Y-102909603D01*
X143755493Y-102840641D01*
X143783337Y-102776558D01*
X143790856Y-102768330D01*
X143929728Y-102629458D01*
X144054620Y-102457557D01*
X144151095Y-102268217D01*
X144216757Y-102066129D01*
X144216757Y-102066126D01*
X144227231Y-102000000D01*
X143183012Y-102000000D01*
X143215925Y-101942993D01*
X143250000Y-101815826D01*
X143250000Y-101684174D01*
X143215925Y-101557007D01*
X143183012Y-101500000D01*
X144227231Y-101500000D01*
X144216757Y-101433873D01*
X144216757Y-101433870D01*
X144151095Y-101231782D01*
X144054620Y-101042442D01*
X143929727Y-100870540D01*
X143929723Y-100870535D01*
X143779464Y-100720276D01*
X143779459Y-100720272D01*
X143607557Y-100595379D01*
X143418217Y-100498904D01*
X143216129Y-100433242D01*
X143006246Y-100400000D01*
X143000000Y-100400000D01*
X143000000Y-101316988D01*
X142942993Y-101284075D01*
X142815826Y-101250000D01*
X142684174Y-101250000D01*
X142557007Y-101284075D01*
X142500000Y-101316988D01*
X142500000Y-100400000D01*
X142493754Y-100400000D01*
X142283872Y-100433242D01*
X142283869Y-100433242D01*
X142081782Y-100498904D01*
X141892442Y-100595379D01*
X141720540Y-100720272D01*
X141720535Y-100720276D01*
X141570276Y-100870535D01*
X141570272Y-100870540D01*
X141445379Y-101042442D01*
X141348904Y-101231782D01*
X141283242Y-101433870D01*
X141283242Y-101433873D01*
X141272769Y-101500000D01*
X142316988Y-101500000D01*
X142284075Y-101557007D01*
X142250000Y-101684174D01*
X142250000Y-101815826D01*
X142284075Y-101942993D01*
X142316988Y-102000000D01*
X141272769Y-102000000D01*
X141283242Y-102066126D01*
X141283242Y-102066129D01*
X141348904Y-102268217D01*
X141445379Y-102457557D01*
X141570272Y-102629459D01*
X141570276Y-102629464D01*
X141709143Y-102768331D01*
X141742628Y-102829654D01*
X141737644Y-102899346D01*
X141695772Y-102955279D01*
X141686559Y-102961551D01*
X141531342Y-103057289D01*
X141407289Y-103181342D01*
X141315187Y-103330663D01*
X141315186Y-103330666D01*
X141260001Y-103497203D01*
X141260001Y-103497204D01*
X141260000Y-103497204D01*
X141249500Y-103599983D01*
X131242898Y-103599983D01*
X131252500Y-103539361D01*
X131252500Y-103340639D01*
X131221413Y-103144364D01*
X131160005Y-102955368D01*
X131160005Y-102955367D01*
X131069786Y-102778305D01*
X131068517Y-102776558D01*
X130952981Y-102617536D01*
X130812464Y-102477019D01*
X130651694Y-102360213D01*
X130495218Y-102280484D01*
X130444423Y-102232510D01*
X130427628Y-102164689D01*
X130450165Y-102098554D01*
X130495218Y-102059515D01*
X130651694Y-101979787D01*
X130812464Y-101862981D01*
X130952981Y-101722464D01*
X131069787Y-101561694D01*
X131074632Y-101552185D01*
X131111022Y-101480768D01*
X131134993Y-101433720D01*
X131160005Y-101384632D01*
X131221413Y-101195636D01*
X131252500Y-100999361D01*
X131252500Y-100800639D01*
X131221413Y-100604364D01*
X131160005Y-100415368D01*
X131160005Y-100415367D01*
X131069786Y-100238305D01*
X131050960Y-100212393D01*
X130952981Y-100077536D01*
X130812464Y-99937019D01*
X130651694Y-99820213D01*
X130495218Y-99740484D01*
X130444423Y-99692510D01*
X130427628Y-99624689D01*
X130450165Y-99558554D01*
X130495218Y-99519515D01*
X130651694Y-99439787D01*
X130812464Y-99322981D01*
X130952981Y-99182464D01*
X131069787Y-99021694D01*
X131160005Y-98844632D01*
X131221413Y-98655636D01*
X131252500Y-98459361D01*
X131252500Y-98260639D01*
X131221413Y-98064364D01*
X131160005Y-97875368D01*
X131160005Y-97875367D01*
X131096381Y-97750500D01*
X131069787Y-97698306D01*
X130952981Y-97537536D01*
X130812464Y-97397019D01*
X130651694Y-97280213D01*
X130495218Y-97200484D01*
X130444423Y-97152510D01*
X130427628Y-97084689D01*
X130450165Y-97018554D01*
X130495218Y-96979515D01*
X130651694Y-96899787D01*
X130812464Y-96782981D01*
X130952981Y-96642464D01*
X131069787Y-96481694D01*
X131083127Y-96455513D01*
X141509500Y-96455513D01*
X141509500Y-96644486D01*
X141539059Y-96831118D01*
X141597454Y-97010836D01*
X141640497Y-97095311D01*
X141683240Y-97179199D01*
X141794310Y-97332073D01*
X141927927Y-97465690D01*
X142080801Y-97576760D01*
X142160347Y-97617290D01*
X142249163Y-97662545D01*
X142249165Y-97662545D01*
X142249168Y-97662547D01*
X142345497Y-97693846D01*
X142428881Y-97720940D01*
X142615514Y-97750500D01*
X142615519Y-97750500D01*
X142804486Y-97750500D01*
X142991118Y-97720940D01*
X143170832Y-97662547D01*
X143339199Y-97576760D01*
X143492073Y-97465690D01*
X143625690Y-97332073D01*
X143736760Y-97179199D01*
X143822547Y-97010832D01*
X143880940Y-96831118D01*
X143888565Y-96782978D01*
X143910500Y-96644486D01*
X143910500Y-96455513D01*
X146589500Y-96455513D01*
X146589500Y-96644486D01*
X146619059Y-96831118D01*
X146677454Y-97010836D01*
X146720497Y-97095311D01*
X146763240Y-97179199D01*
X146874310Y-97332073D01*
X147007927Y-97465690D01*
X147160801Y-97576760D01*
X147240347Y-97617290D01*
X147329163Y-97662545D01*
X147329165Y-97662545D01*
X147329168Y-97662547D01*
X147425497Y-97693846D01*
X147508881Y-97720940D01*
X147695514Y-97750500D01*
X147695519Y-97750500D01*
X147884486Y-97750500D01*
X148071118Y-97720940D01*
X148250832Y-97662547D01*
X148419199Y-97576760D01*
X148572073Y-97465690D01*
X148705690Y-97332073D01*
X148816760Y-97179199D01*
X148902547Y-97010832D01*
X148960940Y-96831118D01*
X148968565Y-96782978D01*
X148990500Y-96644486D01*
X148990500Y-96455513D01*
X148960940Y-96268881D01*
X148902545Y-96089163D01*
X148816759Y-95920800D01*
X148705690Y-95767927D01*
X148572073Y-95634310D01*
X148419199Y-95523240D01*
X148250836Y-95437454D01*
X148071118Y-95379059D01*
X147884486Y-95349500D01*
X147884481Y-95349500D01*
X147695519Y-95349500D01*
X147695514Y-95349500D01*
X147508881Y-95379059D01*
X147329163Y-95437454D01*
X147160800Y-95523240D01*
X147073579Y-95586610D01*
X147007927Y-95634310D01*
X147007925Y-95634312D01*
X147007924Y-95634312D01*
X146874312Y-95767924D01*
X146874312Y-95767925D01*
X146874310Y-95767927D01*
X146826610Y-95833579D01*
X146763240Y-95920800D01*
X146677454Y-96089163D01*
X146619059Y-96268881D01*
X146589500Y-96455513D01*
X143910500Y-96455513D01*
X143880940Y-96268881D01*
X143822545Y-96089163D01*
X143736759Y-95920800D01*
X143625690Y-95767927D01*
X143492073Y-95634310D01*
X143339199Y-95523240D01*
X143170836Y-95437454D01*
X142991118Y-95379059D01*
X142804486Y-95349500D01*
X142804481Y-95349500D01*
X142615519Y-95349500D01*
X142615514Y-95349500D01*
X142428881Y-95379059D01*
X142249163Y-95437454D01*
X142080800Y-95523240D01*
X141993579Y-95586610D01*
X141927927Y-95634310D01*
X141927925Y-95634312D01*
X141927924Y-95634312D01*
X141794312Y-95767924D01*
X141794312Y-95767925D01*
X141794310Y-95767927D01*
X141746610Y-95833579D01*
X141683240Y-95920800D01*
X141597454Y-96089163D01*
X141539059Y-96268881D01*
X141509500Y-96455513D01*
X131083127Y-96455513D01*
X131160005Y-96304632D01*
X131221413Y-96115636D01*
X131252500Y-95919361D01*
X131252500Y-95720639D01*
X131221413Y-95524364D01*
X131160005Y-95335368D01*
X131160005Y-95335367D01*
X131069786Y-95158305D01*
X130952981Y-94997536D01*
X130812464Y-94857019D01*
X130651694Y-94740213D01*
X130495218Y-94660484D01*
X130444423Y-94612510D01*
X130427628Y-94544689D01*
X130450165Y-94478554D01*
X130495218Y-94439515D01*
X130651694Y-94359787D01*
X130812464Y-94242981D01*
X130952981Y-94102464D01*
X131069787Y-93941694D01*
X131160005Y-93764632D01*
X131221413Y-93575636D01*
X131252500Y-93379361D01*
X131252500Y-93180639D01*
X131221413Y-92984364D01*
X131160005Y-92795368D01*
X131160005Y-92795367D01*
X131069786Y-92618305D01*
X131056849Y-92600499D01*
X130952981Y-92457536D01*
X130812464Y-92317019D01*
X130651694Y-92200213D01*
X130495218Y-92120484D01*
X130444423Y-92072510D01*
X130427628Y-92004689D01*
X130450165Y-91938554D01*
X130495218Y-91899515D01*
X130651694Y-91819787D01*
X130812464Y-91702981D01*
X130952981Y-91562464D01*
X131069787Y-91401694D01*
X131160005Y-91224632D01*
X131221413Y-91035636D01*
X131252500Y-90839361D01*
X131252500Y-90640639D01*
X131246061Y-90599983D01*
X141249500Y-90599983D01*
X141249500Y-91900001D01*
X141249501Y-91900018D01*
X141260000Y-92002796D01*
X141260001Y-92002799D01*
X141295523Y-92109995D01*
X141315186Y-92169334D01*
X141407288Y-92318656D01*
X141531344Y-92442712D01*
X141680666Y-92534814D01*
X141847203Y-92589999D01*
X141949991Y-92600500D01*
X143550008Y-92600499D01*
X143652797Y-92589999D01*
X143819334Y-92534814D01*
X143968656Y-92442712D01*
X144092712Y-92318656D01*
X144184814Y-92169334D01*
X144239999Y-92002797D01*
X144250500Y-91900009D01*
X144250499Y-90599992D01*
X144248247Y-90577951D01*
X144239999Y-90497203D01*
X144239998Y-90497200D01*
X144222489Y-90444362D01*
X144184814Y-90330666D01*
X144092712Y-90181344D01*
X143968656Y-90057288D01*
X143819334Y-89965186D01*
X143819332Y-89965185D01*
X143813440Y-89961551D01*
X143766716Y-89909603D01*
X143755493Y-89840641D01*
X143783337Y-89776558D01*
X143790856Y-89768330D01*
X143929728Y-89629458D01*
X144054620Y-89457557D01*
X144151095Y-89268217D01*
X144216757Y-89066129D01*
X144216757Y-89066126D01*
X144227231Y-89000000D01*
X143183012Y-89000000D01*
X143215925Y-88942993D01*
X143250000Y-88815826D01*
X143250000Y-88684174D01*
X143215925Y-88557007D01*
X143183012Y-88500000D01*
X144227231Y-88500000D01*
X144216757Y-88433873D01*
X144216757Y-88433870D01*
X144151095Y-88231782D01*
X144054620Y-88042442D01*
X143929727Y-87870540D01*
X143929723Y-87870535D01*
X143779464Y-87720276D01*
X143779459Y-87720272D01*
X143607557Y-87595379D01*
X143418217Y-87498904D01*
X143216129Y-87433242D01*
X143006246Y-87400000D01*
X143000000Y-87400000D01*
X143000000Y-88316988D01*
X142942993Y-88284075D01*
X142815826Y-88250000D01*
X142684174Y-88250000D01*
X142557007Y-88284075D01*
X142500000Y-88316988D01*
X142500000Y-87400000D01*
X142493754Y-87400000D01*
X142283872Y-87433242D01*
X142283869Y-87433242D01*
X142081782Y-87498904D01*
X141892442Y-87595379D01*
X141720540Y-87720272D01*
X141720535Y-87720276D01*
X141570276Y-87870535D01*
X141570272Y-87870540D01*
X141445379Y-88042442D01*
X141348904Y-88231782D01*
X141283242Y-88433870D01*
X141283242Y-88433873D01*
X141272769Y-88500000D01*
X142316988Y-88500000D01*
X142284075Y-88557007D01*
X142250000Y-88684174D01*
X142250000Y-88815826D01*
X142284075Y-88942993D01*
X142316988Y-89000000D01*
X141272769Y-89000000D01*
X141283242Y-89066126D01*
X141283242Y-89066129D01*
X141348904Y-89268217D01*
X141445379Y-89457557D01*
X141570272Y-89629459D01*
X141570276Y-89629464D01*
X141709143Y-89768331D01*
X141742628Y-89829654D01*
X141737644Y-89899346D01*
X141695772Y-89955279D01*
X141686559Y-89961551D01*
X141531342Y-90057289D01*
X141407289Y-90181342D01*
X141315187Y-90330663D01*
X141315186Y-90330666D01*
X141260001Y-90497203D01*
X141260001Y-90497204D01*
X141260000Y-90497204D01*
X141249500Y-90599983D01*
X131246061Y-90599983D01*
X131221413Y-90444364D01*
X131160005Y-90255368D01*
X131160005Y-90255367D01*
X131069786Y-90078305D01*
X131054517Y-90057289D01*
X130952981Y-89917536D01*
X130812464Y-89777019D01*
X130651694Y-89660213D01*
X130495218Y-89580484D01*
X130444423Y-89532510D01*
X130427628Y-89464689D01*
X130450165Y-89398554D01*
X130495218Y-89359515D01*
X130651694Y-89279787D01*
X130812464Y-89162981D01*
X130952981Y-89022464D01*
X131069787Y-88861694D01*
X131160005Y-88684632D01*
X131204584Y-88547432D01*
X131220403Y-88498746D01*
X131221011Y-88496872D01*
X131221413Y-88495636D01*
X131252500Y-88299361D01*
X131252500Y-88100639D01*
X131221413Y-87904364D01*
X131161600Y-87720276D01*
X131160006Y-87715370D01*
X131160005Y-87715367D01*
X131069786Y-87538305D01*
X130952981Y-87377536D01*
X130812464Y-87237019D01*
X130651694Y-87120213D01*
X130495218Y-87040484D01*
X130444423Y-86992510D01*
X130427628Y-86924689D01*
X130450165Y-86858554D01*
X130495218Y-86819515D01*
X130651694Y-86739787D01*
X130812464Y-86622981D01*
X130952981Y-86482464D01*
X131069787Y-86321694D01*
X131160005Y-86144632D01*
X131221413Y-85955636D01*
X131252500Y-85759361D01*
X131252500Y-85560639D01*
X131221413Y-85364364D01*
X131160005Y-85175368D01*
X131160005Y-85175367D01*
X131069786Y-84998305D01*
X131014383Y-84922049D01*
X130952981Y-84837536D01*
X130812464Y-84697019D01*
X130651694Y-84580213D01*
X130495218Y-84500484D01*
X130444423Y-84452510D01*
X130427628Y-84384689D01*
X130450165Y-84318554D01*
X130495218Y-84279515D01*
X130651694Y-84199787D01*
X130812464Y-84082981D01*
X130952981Y-83942464D01*
X131069787Y-83781694D01*
X131160005Y-83604632D01*
X131208456Y-83455513D01*
X141509500Y-83455513D01*
X141509500Y-83644486D01*
X141539059Y-83831118D01*
X141597454Y-84010836D01*
X141674659Y-84162358D01*
X141683240Y-84179199D01*
X141794310Y-84332073D01*
X141927927Y-84465690D01*
X142080801Y-84576760D01*
X142157842Y-84616014D01*
X142249163Y-84662545D01*
X142249165Y-84662545D01*
X142249168Y-84662547D01*
X142345497Y-84693846D01*
X142428881Y-84720940D01*
X142615514Y-84750500D01*
X142615519Y-84750500D01*
X142804486Y-84750500D01*
X142991118Y-84720940D01*
X143170832Y-84662547D01*
X143339199Y-84576760D01*
X143492073Y-84465690D01*
X143625690Y-84332073D01*
X143736760Y-84179199D01*
X143822547Y-84010832D01*
X143880940Y-83831118D01*
X143888768Y-83781694D01*
X143910500Y-83644486D01*
X143910500Y-83455513D01*
X146589500Y-83455513D01*
X146589500Y-83644486D01*
X146619059Y-83831118D01*
X146677454Y-84010836D01*
X146754659Y-84162358D01*
X146763240Y-84179199D01*
X146874310Y-84332073D01*
X147007927Y-84465690D01*
X147160801Y-84576760D01*
X147237842Y-84616014D01*
X147329163Y-84662545D01*
X147329165Y-84662545D01*
X147329168Y-84662547D01*
X147425497Y-84693846D01*
X147508881Y-84720940D01*
X147695514Y-84750500D01*
X147695519Y-84750500D01*
X147884486Y-84750500D01*
X148071118Y-84720940D01*
X148250832Y-84662547D01*
X148419199Y-84576760D01*
X148572073Y-84465690D01*
X148705690Y-84332073D01*
X148816760Y-84179199D01*
X148902547Y-84010832D01*
X148960940Y-83831118D01*
X148968768Y-83781694D01*
X148990500Y-83644486D01*
X148990500Y-83455513D01*
X148960940Y-83268881D01*
X148912565Y-83120000D01*
X148902547Y-83089168D01*
X148902545Y-83089165D01*
X148902545Y-83089163D01*
X148857290Y-83000347D01*
X148816760Y-82920801D01*
X148705690Y-82767927D01*
X148572073Y-82634310D01*
X148419199Y-82523240D01*
X148250836Y-82437454D01*
X148071118Y-82379059D01*
X147884486Y-82349500D01*
X147884481Y-82349500D01*
X147695519Y-82349500D01*
X147695514Y-82349500D01*
X147508881Y-82379059D01*
X147329163Y-82437454D01*
X147160800Y-82523240D01*
X147073579Y-82586610D01*
X147007927Y-82634310D01*
X147007925Y-82634312D01*
X147007924Y-82634312D01*
X146874312Y-82767924D01*
X146874312Y-82767925D01*
X146874310Y-82767927D01*
X146845137Y-82808080D01*
X146763240Y-82920800D01*
X146677454Y-83089163D01*
X146619059Y-83268881D01*
X146589500Y-83455513D01*
X143910500Y-83455513D01*
X143880940Y-83268881D01*
X143832565Y-83120000D01*
X143822547Y-83089168D01*
X143822545Y-83089165D01*
X143822545Y-83089163D01*
X143777290Y-83000347D01*
X143736760Y-82920801D01*
X143625690Y-82767927D01*
X143492073Y-82634310D01*
X143339199Y-82523240D01*
X143170836Y-82437454D01*
X142991118Y-82379059D01*
X142804486Y-82349500D01*
X142804481Y-82349500D01*
X142615519Y-82349500D01*
X142615514Y-82349500D01*
X142428881Y-82379059D01*
X142249163Y-82437454D01*
X142080800Y-82523240D01*
X141993579Y-82586610D01*
X141927927Y-82634310D01*
X141927925Y-82634312D01*
X141927924Y-82634312D01*
X141794312Y-82767924D01*
X141794312Y-82767925D01*
X141794310Y-82767927D01*
X141765137Y-82808080D01*
X141683240Y-82920800D01*
X141597454Y-83089163D01*
X141539059Y-83268881D01*
X141509500Y-83455513D01*
X131208456Y-83455513D01*
X131221413Y-83415636D01*
X131252500Y-83219361D01*
X131252500Y-83020639D01*
X131221413Y-82824364D01*
X131160005Y-82635368D01*
X131160005Y-82635367D01*
X131099170Y-82515974D01*
X131069787Y-82458306D01*
X130952981Y-82297536D01*
X130812464Y-82157019D01*
X130651694Y-82040213D01*
X130495218Y-81960484D01*
X130444423Y-81912510D01*
X130427628Y-81844689D01*
X130450165Y-81778554D01*
X130495218Y-81739515D01*
X130651694Y-81659787D01*
X130812464Y-81542981D01*
X130952981Y-81402464D01*
X131069787Y-81241694D01*
X131160005Y-81064632D01*
X131221413Y-80875636D01*
X131252500Y-80679361D01*
X131252500Y-80480639D01*
X131221413Y-80284364D01*
X131160005Y-80095368D01*
X131160005Y-80095367D01*
X131069786Y-79918305D01*
X130952981Y-79757536D01*
X130812464Y-79617019D01*
X130651694Y-79500213D01*
X130495218Y-79420484D01*
X130444423Y-79372510D01*
X130427628Y-79304689D01*
X130450165Y-79238554D01*
X130495218Y-79199515D01*
X130651694Y-79119787D01*
X130812464Y-79002981D01*
X130952981Y-78862464D01*
X131069787Y-78701694D01*
X131160005Y-78524632D01*
X131221413Y-78335636D01*
X131252500Y-78139361D01*
X131252500Y-77940639D01*
X131221413Y-77744364D01*
X131221412Y-77744360D01*
X131185929Y-77635151D01*
X131174502Y-77599983D01*
X141249500Y-77599983D01*
X141249500Y-78900001D01*
X141249501Y-78900018D01*
X141260000Y-79002796D01*
X141260001Y-79002799D01*
X141276367Y-79052187D01*
X141315186Y-79169334D01*
X141407288Y-79318656D01*
X141531344Y-79442712D01*
X141680666Y-79534814D01*
X141847203Y-79589999D01*
X141949991Y-79600500D01*
X143550008Y-79600499D01*
X143652797Y-79589999D01*
X143819334Y-79534814D01*
X143968656Y-79442712D01*
X144092712Y-79318656D01*
X144184814Y-79169334D01*
X144239999Y-79002797D01*
X144250500Y-78900009D01*
X144250499Y-77599992D01*
X144239999Y-77497203D01*
X144184814Y-77330666D01*
X144092712Y-77181344D01*
X143968656Y-77057288D01*
X143819334Y-76965186D01*
X143819332Y-76965185D01*
X143813440Y-76961551D01*
X143766716Y-76909603D01*
X143755493Y-76840641D01*
X143783337Y-76776558D01*
X143790856Y-76768330D01*
X143929728Y-76629458D01*
X144054620Y-76457557D01*
X144151095Y-76268217D01*
X144216757Y-76066129D01*
X144216757Y-76066126D01*
X144227231Y-76000000D01*
X143183012Y-76000000D01*
X143215925Y-75942993D01*
X143250000Y-75815826D01*
X143250000Y-75684174D01*
X143215925Y-75557007D01*
X143183012Y-75500000D01*
X144227231Y-75500000D01*
X144216757Y-75433873D01*
X144216757Y-75433870D01*
X144151095Y-75231782D01*
X144054620Y-75042442D01*
X143929727Y-74870540D01*
X143929723Y-74870535D01*
X143779464Y-74720276D01*
X143779459Y-74720272D01*
X143607557Y-74595379D01*
X143418217Y-74498904D01*
X143216129Y-74433242D01*
X143006246Y-74400000D01*
X143000000Y-74400000D01*
X143000000Y-75316988D01*
X142942993Y-75284075D01*
X142815826Y-75250000D01*
X142684174Y-75250000D01*
X142557007Y-75284075D01*
X142500000Y-75316988D01*
X142500000Y-74400000D01*
X142493754Y-74400000D01*
X142283872Y-74433242D01*
X142283869Y-74433242D01*
X142081782Y-74498904D01*
X141892442Y-74595379D01*
X141720540Y-74720272D01*
X141720535Y-74720276D01*
X141570276Y-74870535D01*
X141570272Y-74870540D01*
X141445379Y-75042442D01*
X141348904Y-75231782D01*
X141283242Y-75433870D01*
X141283242Y-75433873D01*
X141272769Y-75500000D01*
X142316988Y-75500000D01*
X142284075Y-75557007D01*
X142250000Y-75684174D01*
X142250000Y-75815826D01*
X142284075Y-75942993D01*
X142316988Y-76000000D01*
X141272769Y-76000000D01*
X141283242Y-76066126D01*
X141283242Y-76066129D01*
X141348904Y-76268217D01*
X141445379Y-76457557D01*
X141570272Y-76629459D01*
X141570276Y-76629464D01*
X141709143Y-76768331D01*
X141742628Y-76829654D01*
X141737644Y-76899346D01*
X141695772Y-76955279D01*
X141686559Y-76961551D01*
X141531342Y-77057289D01*
X141407289Y-77181342D01*
X141315187Y-77330663D01*
X141315185Y-77330668D01*
X141287349Y-77414670D01*
X141260001Y-77497203D01*
X141260001Y-77497204D01*
X141260000Y-77497204D01*
X141249500Y-77599983D01*
X131174502Y-77599983D01*
X131160006Y-77555370D01*
X131160005Y-77555367D01*
X131069786Y-77378305D01*
X131035176Y-77330668D01*
X130952981Y-77217536D01*
X130812464Y-77077019D01*
X130651694Y-76960213D01*
X130495218Y-76880484D01*
X130444423Y-76832510D01*
X130427628Y-76764689D01*
X130450165Y-76698554D01*
X130495218Y-76659515D01*
X130651694Y-76579787D01*
X130812464Y-76462981D01*
X130952981Y-76322464D01*
X131069787Y-76161694D01*
X131160005Y-75984632D01*
X131221413Y-75795636D01*
X131252500Y-75599361D01*
X131252500Y-75400639D01*
X131221413Y-75204364D01*
X131160005Y-75015368D01*
X131160005Y-75015367D01*
X131086211Y-74870540D01*
X131069787Y-74838306D01*
X130952981Y-74677536D01*
X130812464Y-74537019D01*
X130651694Y-74420213D01*
X130612024Y-74400000D01*
X130474632Y-74329994D01*
X130474629Y-74329993D01*
X130285637Y-74268587D01*
X130187498Y-74253043D01*
X130089361Y-74237500D01*
X129890639Y-74237500D01*
X129825214Y-74247862D01*
X129694362Y-74268587D01*
X129505370Y-74329993D01*
X129505367Y-74329994D01*
X129328305Y-74420213D01*
X129167533Y-74537021D01*
X129027021Y-74677533D01*
X128910213Y-74838305D01*
X128819994Y-75015367D01*
X128819993Y-75015370D01*
X128758587Y-75204362D01*
X128727500Y-75400639D01*
X116012499Y-75400639D01*
X116012499Y-74690128D01*
X116006091Y-74630517D01*
X115992985Y-74595379D01*
X115955797Y-74495671D01*
X115955793Y-74495664D01*
X115869547Y-74380455D01*
X115869544Y-74380452D01*
X115754335Y-74294206D01*
X115754328Y-74294202D01*
X115619482Y-74243908D01*
X115619483Y-74243908D01*
X115559883Y-74237501D01*
X115559881Y-74237500D01*
X115559873Y-74237500D01*
X115559864Y-74237500D01*
X113940129Y-74237500D01*
X113940123Y-74237501D01*
X113880516Y-74243908D01*
X113745671Y-74294202D01*
X113745664Y-74294206D01*
X113630455Y-74380452D01*
X113630452Y-74380455D01*
X113544206Y-74495664D01*
X113544202Y-74495671D01*
X113493908Y-74630517D01*
X113487501Y-74690116D01*
X113487501Y-74690123D01*
X113487500Y-74690135D01*
X71000500Y-74690135D01*
X71000500Y-61563713D01*
X86498500Y-61563713D01*
X86498500Y-61776286D01*
X86513427Y-61870535D01*
X86531754Y-61986243D01*
X86550014Y-62042442D01*
X86597444Y-62188414D01*
X86693951Y-62377820D01*
X86818890Y-62549786D01*
X86969213Y-62700109D01*
X87141182Y-62825050D01*
X87149946Y-62829516D01*
X87200742Y-62877491D01*
X87217536Y-62945312D01*
X87194998Y-63011447D01*
X87149946Y-63050484D01*
X87141182Y-63054949D01*
X86969213Y-63179890D01*
X86818890Y-63330213D01*
X86693951Y-63502179D01*
X86597444Y-63691585D01*
X86531753Y-63893760D01*
X86505853Y-64057288D01*
X86498500Y-64103713D01*
X86498500Y-64316287D01*
X86500778Y-64330668D01*
X86531752Y-64526235D01*
X86531754Y-64526243D01*
X86555716Y-64599991D01*
X86597444Y-64728414D01*
X86693951Y-64917820D01*
X86818890Y-65089786D01*
X86969213Y-65240109D01*
X87141182Y-65365050D01*
X87149946Y-65369516D01*
X87200742Y-65417491D01*
X87217536Y-65485312D01*
X87194998Y-65551447D01*
X87149946Y-65590484D01*
X87141182Y-65594949D01*
X86969213Y-65719890D01*
X86818890Y-65870213D01*
X86693951Y-66042179D01*
X86597444Y-66231585D01*
X86531753Y-66433760D01*
X86498500Y-66643713D01*
X86498500Y-66856286D01*
X86531753Y-67066239D01*
X86597444Y-67268414D01*
X86693951Y-67457820D01*
X86818890Y-67629786D01*
X86969213Y-67780109D01*
X87141182Y-67905050D01*
X87149946Y-67909516D01*
X87200742Y-67957491D01*
X87217536Y-68025312D01*
X87194998Y-68091447D01*
X87149946Y-68130484D01*
X87141182Y-68134949D01*
X86969213Y-68259890D01*
X86818890Y-68410213D01*
X86693951Y-68582179D01*
X86597444Y-68771585D01*
X86531753Y-68973760D01*
X86498500Y-69183713D01*
X86498500Y-69396286D01*
X86518607Y-69523240D01*
X86531754Y-69606243D01*
X86540874Y-69634312D01*
X86597444Y-69808414D01*
X86693951Y-69997820D01*
X86818890Y-70169786D01*
X86932818Y-70283714D01*
X86966303Y-70345037D01*
X86961319Y-70414729D01*
X86919447Y-70470662D01*
X86888471Y-70487577D01*
X86756912Y-70536646D01*
X86756906Y-70536649D01*
X86641812Y-70622809D01*
X86641809Y-70622812D01*
X86555649Y-70737906D01*
X86555645Y-70737913D01*
X86505403Y-70872620D01*
X86505401Y-70872627D01*
X86499000Y-70932155D01*
X86499000Y-71580000D01*
X87415988Y-71580000D01*
X87383075Y-71637007D01*
X87349000Y-71764174D01*
X87349000Y-71895826D01*
X87383075Y-72022993D01*
X87415988Y-72080000D01*
X86499000Y-72080000D01*
X86499000Y-72727844D01*
X86505401Y-72787372D01*
X86505403Y-72787379D01*
X86555645Y-72922086D01*
X86555649Y-72922093D01*
X86641809Y-73037187D01*
X86641812Y-73037190D01*
X86756906Y-73123350D01*
X86756913Y-73123354D01*
X86891620Y-73173596D01*
X86891627Y-73173598D01*
X86951155Y-73179999D01*
X86951172Y-73180000D01*
X87599000Y-73180000D01*
X87599000Y-72263012D01*
X87656007Y-72295925D01*
X87783174Y-72330000D01*
X87914826Y-72330000D01*
X88041993Y-72295925D01*
X88099000Y-72263012D01*
X88099000Y-73180000D01*
X88746828Y-73180000D01*
X88746844Y-73179999D01*
X88806372Y-73173598D01*
X88806379Y-73173596D01*
X88941086Y-73123354D01*
X88941093Y-73123350D01*
X89056187Y-73037190D01*
X89056190Y-73037187D01*
X89142350Y-72922093D01*
X89142354Y-72922086D01*
X89192596Y-72787379D01*
X89192598Y-72787372D01*
X89198999Y-72727844D01*
X89199000Y-72727827D01*
X89199000Y-72080000D01*
X88282012Y-72080000D01*
X88314925Y-72022993D01*
X88349000Y-71895826D01*
X88349000Y-71764174D01*
X88314925Y-71637007D01*
X88282012Y-71580000D01*
X89199000Y-71580000D01*
X89199000Y-70932172D01*
X89198999Y-70932155D01*
X89192598Y-70872627D01*
X89192596Y-70872620D01*
X89142354Y-70737913D01*
X89142350Y-70737906D01*
X89056190Y-70622812D01*
X89056187Y-70622809D01*
X88970200Y-70558438D01*
X88802955Y-70484909D01*
X88778832Y-70464598D01*
X88766696Y-70455513D01*
X141544896Y-70455513D01*
X141544896Y-70644486D01*
X141574455Y-70831118D01*
X141632850Y-71010836D01*
X141718636Y-71179199D01*
X141829706Y-71332073D01*
X141963323Y-71465690D01*
X142116197Y-71576760D01*
X142195743Y-71617290D01*
X142284559Y-71662545D01*
X142284561Y-71662545D01*
X142284564Y-71662547D01*
X142380893Y-71693846D01*
X142464277Y-71720940D01*
X142650910Y-71750500D01*
X142650915Y-71750500D01*
X142839882Y-71750500D01*
X143026514Y-71720940D01*
X143206228Y-71662547D01*
X143374595Y-71576760D01*
X143527469Y-71465690D01*
X143661086Y-71332073D01*
X143772156Y-71179199D01*
X143857943Y-71010832D01*
X143916336Y-70831118D01*
X143931098Y-70737913D01*
X143945896Y-70644486D01*
X143945896Y-70455513D01*
X146624896Y-70455513D01*
X146624896Y-70644486D01*
X146654455Y-70831118D01*
X146712850Y-71010836D01*
X146798636Y-71179199D01*
X146909706Y-71332073D01*
X147043323Y-71465690D01*
X147196197Y-71576760D01*
X147275743Y-71617290D01*
X147364559Y-71662545D01*
X147364561Y-71662545D01*
X147364564Y-71662547D01*
X147460893Y-71693846D01*
X147544277Y-71720940D01*
X147730910Y-71750500D01*
X147730915Y-71750500D01*
X147919882Y-71750500D01*
X148106514Y-71720940D01*
X148286228Y-71662547D01*
X148454595Y-71576760D01*
X148607469Y-71465690D01*
X148741086Y-71332073D01*
X148852156Y-71179199D01*
X148937943Y-71010832D01*
X148996336Y-70831118D01*
X149011098Y-70737913D01*
X149025896Y-70644486D01*
X149025896Y-70455513D01*
X148996336Y-70268881D01*
X148964139Y-70169792D01*
X148937943Y-70089168D01*
X148937941Y-70089165D01*
X148937941Y-70089163D01*
X148852155Y-69920800D01*
X148741086Y-69767927D01*
X148607469Y-69634310D01*
X148454595Y-69523240D01*
X148286232Y-69437454D01*
X148106514Y-69379059D01*
X147919882Y-69349500D01*
X147919877Y-69349500D01*
X147730915Y-69349500D01*
X147730910Y-69349500D01*
X147544277Y-69379059D01*
X147364559Y-69437454D01*
X147196196Y-69523240D01*
X147108975Y-69586610D01*
X147043323Y-69634310D01*
X147043321Y-69634312D01*
X147043320Y-69634312D01*
X146909708Y-69767924D01*
X146909708Y-69767925D01*
X146909706Y-69767927D01*
X146862006Y-69833579D01*
X146798636Y-69920800D01*
X146712850Y-70089163D01*
X146654455Y-70268881D01*
X146624896Y-70455513D01*
X143945896Y-70455513D01*
X143916336Y-70268881D01*
X143884139Y-70169792D01*
X143857943Y-70089168D01*
X143857941Y-70089165D01*
X143857941Y-70089163D01*
X143772155Y-69920800D01*
X143661086Y-69767927D01*
X143527469Y-69634310D01*
X143374595Y-69523240D01*
X143206232Y-69437454D01*
X143026514Y-69379059D01*
X142839882Y-69349500D01*
X142839877Y-69349500D01*
X142650915Y-69349500D01*
X142650910Y-69349500D01*
X142464277Y-69379059D01*
X142284559Y-69437454D01*
X142116196Y-69523240D01*
X142028975Y-69586610D01*
X141963323Y-69634310D01*
X141963321Y-69634312D01*
X141963320Y-69634312D01*
X141829708Y-69767924D01*
X141829708Y-69767925D01*
X141829706Y-69767927D01*
X141782006Y-69833579D01*
X141718636Y-69920800D01*
X141632850Y-70089163D01*
X141574455Y-70268881D01*
X141544896Y-70455513D01*
X88766696Y-70455513D01*
X88753595Y-70445705D01*
X88752313Y-70442269D01*
X88749508Y-70439907D01*
X88740194Y-70409778D01*
X88729178Y-70380241D01*
X88729957Y-70376658D01*
X88728874Y-70373154D01*
X88737329Y-70342771D01*
X88744030Y-70311968D01*
X88747008Y-70307989D01*
X88747606Y-70305842D01*
X88750642Y-70303134D01*
X88765175Y-70283720D01*
X88879104Y-70169792D01*
X89004051Y-69997816D01*
X89100557Y-69808412D01*
X89166246Y-69606243D01*
X89199500Y-69396287D01*
X89199500Y-69183713D01*
X89166246Y-68973757D01*
X89100557Y-68771588D01*
X89004051Y-68582184D01*
X89004049Y-68582181D01*
X89004048Y-68582179D01*
X88879109Y-68410213D01*
X88728786Y-68259890D01*
X88556820Y-68134951D01*
X88556115Y-68134591D01*
X88548054Y-68130485D01*
X88497259Y-68082512D01*
X88480463Y-68014692D01*
X88502999Y-67948556D01*
X88548054Y-67909515D01*
X88556816Y-67905051D01*
X88578789Y-67889086D01*
X88728786Y-67780109D01*
X88728788Y-67780106D01*
X88728792Y-67780104D01*
X88879104Y-67629792D01*
X88879106Y-67629788D01*
X88879109Y-67629786D01*
X89004048Y-67457820D01*
X89004047Y-67457820D01*
X89004051Y-67457816D01*
X89100557Y-67268412D01*
X89166246Y-67066243D01*
X89199500Y-66856287D01*
X89199500Y-66643713D01*
X89166246Y-66433757D01*
X89100557Y-66231588D01*
X89004051Y-66042184D01*
X89004049Y-66042181D01*
X89004048Y-66042179D01*
X88879109Y-65870213D01*
X88728786Y-65719890D01*
X88556820Y-65594951D01*
X88556115Y-65594591D01*
X88548054Y-65590485D01*
X88497259Y-65542512D01*
X88480463Y-65474692D01*
X88502999Y-65408556D01*
X88548054Y-65369515D01*
X88556816Y-65365051D01*
X88578789Y-65349086D01*
X88728786Y-65240109D01*
X88728788Y-65240106D01*
X88728792Y-65240104D01*
X88879104Y-65089792D01*
X88879106Y-65089788D01*
X88879109Y-65089786D01*
X89004048Y-64917820D01*
X89004047Y-64917820D01*
X89004051Y-64917816D01*
X89100557Y-64728412D01*
X89142286Y-64599983D01*
X141249500Y-64599983D01*
X141249500Y-65900001D01*
X141249501Y-65900018D01*
X141260000Y-66002796D01*
X141260001Y-66002799D01*
X141315185Y-66169331D01*
X141315186Y-66169334D01*
X141407288Y-66318656D01*
X141531344Y-66442712D01*
X141680666Y-66534814D01*
X141847203Y-66589999D01*
X141949991Y-66600500D01*
X143550008Y-66600499D01*
X143652797Y-66589999D01*
X143819334Y-66534814D01*
X143968656Y-66442712D01*
X144092712Y-66318656D01*
X144184814Y-66169334D01*
X144239999Y-66002797D01*
X144250500Y-65900009D01*
X144250499Y-64599992D01*
X144242965Y-64526243D01*
X144239999Y-64497203D01*
X144239998Y-64497200D01*
X144184814Y-64330666D01*
X144092712Y-64181344D01*
X143968656Y-64057288D01*
X143819334Y-63965186D01*
X143819332Y-63965185D01*
X143813440Y-63961551D01*
X143766716Y-63909603D01*
X143755493Y-63840641D01*
X143783337Y-63776558D01*
X143790856Y-63768330D01*
X143929728Y-63629458D01*
X144054620Y-63457557D01*
X144151095Y-63268217D01*
X144216757Y-63066129D01*
X144216757Y-63066126D01*
X144227231Y-63000000D01*
X143183012Y-63000000D01*
X143215925Y-62942993D01*
X143250000Y-62815826D01*
X143250000Y-62684174D01*
X143215925Y-62557007D01*
X143183012Y-62500000D01*
X144227231Y-62500000D01*
X144216757Y-62433873D01*
X144216757Y-62433870D01*
X144151095Y-62231782D01*
X144054620Y-62042442D01*
X143929727Y-61870540D01*
X143929723Y-61870535D01*
X143779464Y-61720276D01*
X143779459Y-61720272D01*
X143607557Y-61595379D01*
X143418217Y-61498904D01*
X143216129Y-61433242D01*
X143006246Y-61400000D01*
X143000000Y-61400000D01*
X143000000Y-62316988D01*
X142942993Y-62284075D01*
X142815826Y-62250000D01*
X142684174Y-62250000D01*
X142557007Y-62284075D01*
X142500000Y-62316988D01*
X142500000Y-61400000D01*
X142493754Y-61400000D01*
X142283872Y-61433242D01*
X142283869Y-61433242D01*
X142081782Y-61498904D01*
X141892442Y-61595379D01*
X141720540Y-61720272D01*
X141720535Y-61720276D01*
X141570276Y-61870535D01*
X141570272Y-61870540D01*
X141445379Y-62042442D01*
X141348904Y-62231782D01*
X141283242Y-62433870D01*
X141283242Y-62433873D01*
X141272769Y-62500000D01*
X142316988Y-62500000D01*
X142284075Y-62557007D01*
X142250000Y-62684174D01*
X142250000Y-62815826D01*
X142284075Y-62942993D01*
X142316988Y-63000000D01*
X141272769Y-63000000D01*
X141283242Y-63066126D01*
X141283242Y-63066129D01*
X141348904Y-63268217D01*
X141445379Y-63457557D01*
X141570272Y-63629459D01*
X141570276Y-63629464D01*
X141709143Y-63768331D01*
X141742628Y-63829654D01*
X141737644Y-63899346D01*
X141695772Y-63955279D01*
X141686559Y-63961551D01*
X141531342Y-64057289D01*
X141407289Y-64181342D01*
X141315187Y-64330663D01*
X141315186Y-64330666D01*
X141260001Y-64497203D01*
X141260001Y-64497204D01*
X141260000Y-64497204D01*
X141249500Y-64599983D01*
X89142286Y-64599983D01*
X89166246Y-64526243D01*
X89199500Y-64316287D01*
X89199500Y-64103713D01*
X89166246Y-63893757D01*
X89100557Y-63691588D01*
X89004051Y-63502184D01*
X89004049Y-63502181D01*
X89004048Y-63502179D01*
X88879109Y-63330213D01*
X88728786Y-63179890D01*
X88556820Y-63054951D01*
X88556115Y-63054591D01*
X88548054Y-63050485D01*
X88497259Y-63002512D01*
X88480463Y-62934692D01*
X88502999Y-62868556D01*
X88548054Y-62829515D01*
X88556816Y-62825051D01*
X88578789Y-62809086D01*
X88728786Y-62700109D01*
X88728788Y-62700106D01*
X88728792Y-62700104D01*
X88879104Y-62549792D01*
X88915280Y-62500000D01*
X88941306Y-62464179D01*
X89004048Y-62377820D01*
X89004047Y-62377820D01*
X89004051Y-62377816D01*
X89100557Y-62188412D01*
X89166246Y-61986243D01*
X89199500Y-61776287D01*
X89199500Y-61563713D01*
X89166246Y-61353757D01*
X89100557Y-61151588D01*
X89004051Y-60962184D01*
X89004049Y-60962181D01*
X89004048Y-60962179D01*
X88879109Y-60790213D01*
X88728786Y-60639890D01*
X88556820Y-60514951D01*
X88367414Y-60418444D01*
X88367413Y-60418443D01*
X88367412Y-60418443D01*
X88165243Y-60352754D01*
X88165241Y-60352753D01*
X88165240Y-60352753D01*
X88003957Y-60327208D01*
X87955287Y-60319500D01*
X87742713Y-60319500D01*
X87694042Y-60327208D01*
X87532760Y-60352753D01*
X87330585Y-60418444D01*
X87141179Y-60514951D01*
X86969213Y-60639890D01*
X86818890Y-60790213D01*
X86693951Y-60962179D01*
X86597444Y-61151585D01*
X86531753Y-61353760D01*
X86498500Y-61563713D01*
X71000500Y-61563713D01*
X71000500Y-54198872D01*
X79749500Y-54198872D01*
X79749500Y-54461127D01*
X79774674Y-54652328D01*
X79783730Y-54721116D01*
X79836842Y-54919334D01*
X79851602Y-54974418D01*
X79851605Y-54974428D01*
X79951953Y-55216690D01*
X79951958Y-55216700D01*
X80083075Y-55443803D01*
X80242718Y-55651851D01*
X80242726Y-55651860D01*
X80428140Y-55837274D01*
X80428148Y-55837281D01*
X80636196Y-55996924D01*
X80863299Y-56128041D01*
X80863309Y-56128046D01*
X81105571Y-56228394D01*
X81105581Y-56228398D01*
X81358884Y-56296270D01*
X81618880Y-56330500D01*
X81618887Y-56330500D01*
X81881113Y-56330500D01*
X81881120Y-56330500D01*
X82141116Y-56296270D01*
X82394419Y-56228398D01*
X82636697Y-56128043D01*
X82863803Y-55996924D01*
X83071851Y-55837282D01*
X83071855Y-55837277D01*
X83071860Y-55837274D01*
X83257274Y-55651860D01*
X83257277Y-55651855D01*
X83257282Y-55651851D01*
X83416924Y-55443803D01*
X83548043Y-55216697D01*
X83648398Y-54974419D01*
X83716270Y-54721116D01*
X83750500Y-54461120D01*
X83750500Y-54198880D01*
X83716270Y-53938884D01*
X83648398Y-53685581D01*
X83648394Y-53685571D01*
X83548046Y-53443309D01*
X83548043Y-53443304D01*
X83548043Y-53443303D01*
X83494174Y-53349998D01*
X83494165Y-53349983D01*
X120249500Y-53349983D01*
X120249500Y-54650001D01*
X120249501Y-54650018D01*
X120260000Y-54752796D01*
X120260001Y-54752799D01*
X120315185Y-54919331D01*
X120315187Y-54919336D01*
X120407289Y-55068657D01*
X120531344Y-55192712D01*
X120686120Y-55288178D01*
X120732845Y-55340126D01*
X120744068Y-55409088D01*
X120716224Y-55473171D01*
X120708706Y-55481398D01*
X120569889Y-55620215D01*
X120444951Y-55792179D01*
X120348444Y-55981585D01*
X120282753Y-56183760D01*
X120249500Y-56393713D01*
X120249500Y-56606286D01*
X120282753Y-56816239D01*
X120348444Y-57018414D01*
X120444951Y-57207820D01*
X120569890Y-57379786D01*
X120720213Y-57530109D01*
X120892179Y-57655048D01*
X120892181Y-57655049D01*
X120892184Y-57655051D01*
X121081588Y-57751557D01*
X121283757Y-57817246D01*
X121493713Y-57850500D01*
X121493714Y-57850500D01*
X122006286Y-57850500D01*
X122006287Y-57850500D01*
X122216243Y-57817246D01*
X122418412Y-57751557D01*
X122607816Y-57655051D01*
X122629789Y-57639086D01*
X122779786Y-57530109D01*
X122779788Y-57530106D01*
X122779792Y-57530104D01*
X122930104Y-57379792D01*
X122930106Y-57379788D01*
X122930109Y-57379786D01*
X123055048Y-57207820D01*
X123055047Y-57207820D01*
X123055051Y-57207816D01*
X123151557Y-57018412D01*
X123217246Y-56816243D01*
X123250500Y-56606287D01*
X123250500Y-56393713D01*
X123217246Y-56183757D01*
X123151557Y-55981588D01*
X123055051Y-55792184D01*
X123055049Y-55792181D01*
X123055048Y-55792179D01*
X122930109Y-55620213D01*
X122791294Y-55481398D01*
X122757809Y-55420075D01*
X122762793Y-55350383D01*
X122804665Y-55294450D01*
X122813879Y-55288178D01*
X122819331Y-55284814D01*
X122819334Y-55284814D01*
X122968656Y-55192712D01*
X123092712Y-55068656D01*
X123184814Y-54919334D01*
X123239999Y-54752797D01*
X123250500Y-54650009D01*
X123250499Y-53349992D01*
X123239999Y-53247203D01*
X123184814Y-53080666D01*
X123092712Y-52931344D01*
X122968656Y-52807288D01*
X122819334Y-52715186D01*
X122652797Y-52660001D01*
X122652795Y-52660000D01*
X122550010Y-52649500D01*
X120949998Y-52649500D01*
X120949981Y-52649501D01*
X120847203Y-52660000D01*
X120847200Y-52660001D01*
X120680668Y-52715185D01*
X120680663Y-52715187D01*
X120531342Y-52807289D01*
X120407289Y-52931342D01*
X120315187Y-53080663D01*
X120315186Y-53080666D01*
X120260001Y-53247203D01*
X120260001Y-53247204D01*
X120260000Y-53247204D01*
X120249500Y-53349983D01*
X83494165Y-53349983D01*
X83416924Y-53216196D01*
X83257281Y-53008148D01*
X83257274Y-53008140D01*
X83071860Y-52822726D01*
X83071851Y-52822718D01*
X82863803Y-52663075D01*
X82636700Y-52531958D01*
X82636690Y-52531953D01*
X82394428Y-52431605D01*
X82394421Y-52431603D01*
X82394419Y-52431602D01*
X82141116Y-52363730D01*
X82083339Y-52356123D01*
X81881127Y-52329500D01*
X81881120Y-52329500D01*
X81618880Y-52329500D01*
X81618872Y-52329500D01*
X81387772Y-52359926D01*
X81358884Y-52363730D01*
X81105581Y-52431602D01*
X81105571Y-52431605D01*
X80863309Y-52531953D01*
X80863299Y-52531958D01*
X80636196Y-52663075D01*
X80428148Y-52822718D01*
X80242718Y-53008148D01*
X80083075Y-53216196D01*
X79951958Y-53443299D01*
X79951953Y-53443309D01*
X79851605Y-53685571D01*
X79851602Y-53685581D01*
X79783730Y-53938885D01*
X79749500Y-54198872D01*
X71000500Y-54198872D01*
X71000500Y-51362135D01*
X137749500Y-51362135D01*
X137749500Y-54457870D01*
X137749501Y-54457876D01*
X137755908Y-54517483D01*
X137806202Y-54652328D01*
X137806206Y-54652335D01*
X137892452Y-54767544D01*
X137892455Y-54767547D01*
X138007664Y-54853793D01*
X138007671Y-54853797D01*
X138142517Y-54904091D01*
X138142516Y-54904091D01*
X138149444Y-54904835D01*
X138202127Y-54910500D01*
X141297872Y-54910499D01*
X141357483Y-54904091D01*
X141492331Y-54853796D01*
X141607546Y-54767546D01*
X141693796Y-54652331D01*
X141744091Y-54517483D01*
X141750500Y-54457873D01*
X141750499Y-51362128D01*
X141744091Y-51302517D01*
X141724503Y-51250000D01*
X141693797Y-51167671D01*
X141693793Y-51167664D01*
X141607547Y-51052455D01*
X141607544Y-51052452D01*
X141492335Y-50966206D01*
X141492328Y-50966202D01*
X141357482Y-50915908D01*
X141357483Y-50915908D01*
X141297883Y-50909501D01*
X141297881Y-50909500D01*
X141297873Y-50909500D01*
X141297864Y-50909500D01*
X138202129Y-50909500D01*
X138202123Y-50909501D01*
X138142516Y-50915908D01*
X138007671Y-50966202D01*
X138007664Y-50966206D01*
X137892455Y-51052452D01*
X137892452Y-51052455D01*
X137806206Y-51167664D01*
X137806202Y-51167671D01*
X137755908Y-51302517D01*
X137749501Y-51362116D01*
X137749501Y-51362123D01*
X137749500Y-51362135D01*
X71000500Y-51362135D01*
X71000500Y-49118905D01*
X79750000Y-49118905D01*
X79750000Y-49381094D01*
X79784220Y-49641009D01*
X79784222Y-49641020D01*
X79852075Y-49894255D01*
X79952404Y-50136471D01*
X79952409Y-50136482D01*
X80083488Y-50363516D01*
X80083494Y-50363524D01*
X80170080Y-50476365D01*
X81064767Y-49581677D01*
X81076497Y-49609995D01*
X81159670Y-49734472D01*
X81265528Y-49840330D01*
X81390005Y-49923503D01*
X81418320Y-49935231D01*
X80523633Y-50829917D01*
X80523633Y-50829918D01*
X80636475Y-50916505D01*
X80636483Y-50916511D01*
X80863517Y-51047590D01*
X80863528Y-51047595D01*
X81105744Y-51147924D01*
X81358979Y-51215777D01*
X81358990Y-51215779D01*
X81618905Y-51249999D01*
X81618920Y-51250000D01*
X81881080Y-51250000D01*
X81881094Y-51249999D01*
X81988436Y-51235867D01*
X82141009Y-51215779D01*
X82141020Y-51215777D01*
X82394255Y-51147924D01*
X82636471Y-51047595D01*
X82636482Y-51047590D01*
X82863516Y-50916511D01*
X82863534Y-50916499D01*
X82976365Y-50829919D01*
X82976365Y-50829917D01*
X82081679Y-49935231D01*
X82109995Y-49923503D01*
X82234472Y-49840330D01*
X82340330Y-49734472D01*
X82423503Y-49609995D01*
X82435231Y-49581679D01*
X83329917Y-50476365D01*
X83329919Y-50476365D01*
X83416499Y-50363534D01*
X83416511Y-50363516D01*
X83547590Y-50136482D01*
X83547595Y-50136471D01*
X83647924Y-49894255D01*
X83715777Y-49641020D01*
X83715779Y-49641009D01*
X83749999Y-49381094D01*
X83750000Y-49381080D01*
X83750000Y-49118919D01*
X83749999Y-49118905D01*
X83715779Y-48858990D01*
X83715777Y-48858979D01*
X83647923Y-48605741D01*
X83567787Y-48412273D01*
X83549809Y-48368872D01*
X124499500Y-48368872D01*
X124499500Y-48631127D01*
X124526123Y-48833339D01*
X124533730Y-48891116D01*
X124601602Y-49144418D01*
X124601605Y-49144428D01*
X124701953Y-49386690D01*
X124701958Y-49386700D01*
X124833075Y-49613803D01*
X124992718Y-49821851D01*
X124992726Y-49821860D01*
X125178140Y-50007274D01*
X125178148Y-50007281D01*
X125386196Y-50166924D01*
X125613299Y-50298041D01*
X125613309Y-50298046D01*
X125855571Y-50398394D01*
X125855581Y-50398398D01*
X126108884Y-50466270D01*
X126368880Y-50500500D01*
X126368887Y-50500500D01*
X126631113Y-50500500D01*
X126631120Y-50500500D01*
X126891116Y-50466270D01*
X127144419Y-50398398D01*
X127386697Y-50298043D01*
X127613803Y-50166924D01*
X127821851Y-50007282D01*
X127821855Y-50007277D01*
X127821860Y-50007274D01*
X128007274Y-49821860D01*
X128007277Y-49821855D01*
X128007282Y-49821851D01*
X128166924Y-49613803D01*
X128298043Y-49386697D01*
X128398398Y-49144419D01*
X128466270Y-48891116D01*
X128500500Y-48631120D01*
X128500500Y-48368880D01*
X128466270Y-48108884D01*
X128398398Y-47855581D01*
X128398393Y-47855571D01*
X128398392Y-47855565D01*
X128351479Y-47742306D01*
X128333501Y-47698905D01*
X137750000Y-47698905D01*
X137750000Y-47961094D01*
X137784220Y-48221009D01*
X137784222Y-48221020D01*
X137852075Y-48474255D01*
X137952404Y-48716471D01*
X137952409Y-48716482D01*
X138083488Y-48943516D01*
X138083494Y-48943524D01*
X138170080Y-49056365D01*
X139064767Y-48161677D01*
X139076497Y-48189995D01*
X139159670Y-48314472D01*
X139265528Y-48420330D01*
X139390005Y-48503503D01*
X139418320Y-48515231D01*
X138523633Y-49409917D01*
X138523633Y-49409918D01*
X138636475Y-49496505D01*
X138636483Y-49496511D01*
X138863517Y-49627590D01*
X138863528Y-49627595D01*
X139105744Y-49727924D01*
X139358979Y-49795777D01*
X139358990Y-49795779D01*
X139618905Y-49829999D01*
X139618920Y-49830000D01*
X139881080Y-49830000D01*
X139881094Y-49829999D01*
X140141009Y-49795779D01*
X140141020Y-49795777D01*
X140394255Y-49727924D01*
X140636471Y-49627595D01*
X140636482Y-49627590D01*
X140863516Y-49496511D01*
X140863534Y-49496499D01*
X140976365Y-49409919D01*
X140976365Y-49409917D01*
X140081679Y-48515231D01*
X140109995Y-48503503D01*
X140234472Y-48420330D01*
X140340330Y-48314472D01*
X140423503Y-48189995D01*
X140435231Y-48161679D01*
X141329917Y-49056365D01*
X141329919Y-49056365D01*
X141416499Y-48943534D01*
X141416511Y-48943516D01*
X141547590Y-48716482D01*
X141547595Y-48716471D01*
X141647924Y-48474255D01*
X141715777Y-48221020D01*
X141715779Y-48221009D01*
X141749999Y-47961094D01*
X141750000Y-47961080D01*
X141750000Y-47698919D01*
X141749999Y-47698905D01*
X141715779Y-47438990D01*
X141715777Y-47438979D01*
X141647924Y-47185744D01*
X141547595Y-46943528D01*
X141547590Y-46943517D01*
X141416511Y-46716483D01*
X141416505Y-46716475D01*
X141329918Y-46603633D01*
X141329917Y-46603633D01*
X140435231Y-47498320D01*
X140423503Y-47470005D01*
X140340330Y-47345528D01*
X140234472Y-47239670D01*
X140109995Y-47156497D01*
X140081677Y-47144767D01*
X140976365Y-46250080D01*
X140863524Y-46163494D01*
X140863516Y-46163488D01*
X140636482Y-46032409D01*
X140636471Y-46032404D01*
X140394255Y-45932075D01*
X140141020Y-45864222D01*
X140141009Y-45864220D01*
X139881094Y-45830000D01*
X139618905Y-45830000D01*
X139358990Y-45864220D01*
X139358979Y-45864222D01*
X139105744Y-45932075D01*
X138863528Y-46032404D01*
X138863517Y-46032409D01*
X138636471Y-46163496D01*
X138523633Y-46250079D01*
X138523633Y-46250080D01*
X139418321Y-47144768D01*
X139390005Y-47156497D01*
X139265528Y-47239670D01*
X139159670Y-47345528D01*
X139076497Y-47470005D01*
X139064768Y-47498321D01*
X138170080Y-46603633D01*
X138170079Y-46603633D01*
X138083496Y-46716471D01*
X137952409Y-46943517D01*
X137952404Y-46943528D01*
X137852075Y-47185744D01*
X137784222Y-47438979D01*
X137784220Y-47438990D01*
X137750000Y-47698905D01*
X128333501Y-47698905D01*
X128298046Y-47613309D01*
X128298041Y-47613299D01*
X128166924Y-47386196D01*
X128007281Y-47178148D01*
X128007274Y-47178140D01*
X127821860Y-46992726D01*
X127821851Y-46992718D01*
X127613803Y-46833075D01*
X127386700Y-46701958D01*
X127386690Y-46701953D01*
X127144428Y-46601605D01*
X127144421Y-46601603D01*
X127144419Y-46601602D01*
X126891116Y-46533730D01*
X126833339Y-46526123D01*
X126631127Y-46499500D01*
X126631120Y-46499500D01*
X126368880Y-46499500D01*
X126368872Y-46499500D01*
X126137772Y-46529926D01*
X126108884Y-46533730D01*
X125855581Y-46601602D01*
X125855571Y-46601605D01*
X125613309Y-46701953D01*
X125613299Y-46701958D01*
X125386196Y-46833075D01*
X125178148Y-46992718D01*
X124992718Y-47178148D01*
X124833075Y-47386196D01*
X124701958Y-47613299D01*
X124701953Y-47613309D01*
X124601605Y-47855571D01*
X124601602Y-47855581D01*
X124533730Y-48108885D01*
X124499500Y-48368872D01*
X83549809Y-48368872D01*
X83547596Y-48363529D01*
X83547590Y-48363517D01*
X83416511Y-48136483D01*
X83416505Y-48136475D01*
X83329918Y-48023633D01*
X83329917Y-48023633D01*
X82435231Y-48918320D01*
X82423503Y-48890005D01*
X82340330Y-48765528D01*
X82234472Y-48659670D01*
X82109995Y-48576497D01*
X82081677Y-48564767D01*
X82976365Y-47670080D01*
X82863524Y-47583494D01*
X82863516Y-47583488D01*
X82636482Y-47452409D01*
X82636471Y-47452404D01*
X82394255Y-47352075D01*
X82141020Y-47284222D01*
X82141009Y-47284220D01*
X81881094Y-47250000D01*
X81618905Y-47250000D01*
X81358990Y-47284220D01*
X81358979Y-47284222D01*
X81105744Y-47352075D01*
X80863528Y-47452404D01*
X80863517Y-47452409D01*
X80636471Y-47583496D01*
X80523633Y-47670079D01*
X80523633Y-47670080D01*
X81418321Y-48564768D01*
X81390005Y-48576497D01*
X81265528Y-48659670D01*
X81159670Y-48765528D01*
X81076497Y-48890005D01*
X81064768Y-48918321D01*
X80170080Y-48023633D01*
X80170079Y-48023633D01*
X80083496Y-48136471D01*
X79952409Y-48363517D01*
X79952404Y-48363528D01*
X79852075Y-48605744D01*
X79784222Y-48858979D01*
X79784220Y-48858990D01*
X79750000Y-49118905D01*
X71000500Y-49118905D01*
X71000500Y-42622135D01*
X79749500Y-42622135D01*
X79749500Y-45717870D01*
X79749501Y-45717876D01*
X79755908Y-45777483D01*
X79806202Y-45912328D01*
X79806206Y-45912335D01*
X79892452Y-46027544D01*
X79892455Y-46027547D01*
X80007664Y-46113793D01*
X80007671Y-46113797D01*
X80142517Y-46164091D01*
X80142516Y-46164091D01*
X80149444Y-46164835D01*
X80202127Y-46170500D01*
X83297872Y-46170499D01*
X83357483Y-46164091D01*
X83492331Y-46113796D01*
X83607546Y-46027546D01*
X83693796Y-45912331D01*
X83744091Y-45777483D01*
X83750500Y-45717873D01*
X83750499Y-42622128D01*
X83744091Y-42562517D01*
X83693796Y-42427669D01*
X83693795Y-42427668D01*
X83693793Y-42427664D01*
X83607547Y-42312455D01*
X83607544Y-42312452D01*
X83492333Y-42226204D01*
X83492331Y-42226203D01*
X83357482Y-42175908D01*
X83357483Y-42175908D01*
X83297883Y-42169501D01*
X83297881Y-42169500D01*
X83297873Y-42169500D01*
X83297864Y-42169500D01*
X80202129Y-42169500D01*
X80202123Y-42169501D01*
X80142516Y-42175908D01*
X80007671Y-42226202D01*
X80007664Y-42226206D01*
X79892455Y-42312452D01*
X79892452Y-42312455D01*
X79806206Y-42427664D01*
X79806202Y-42427671D01*
X79755908Y-42562517D01*
X79749850Y-42618872D01*
X79749501Y-42622123D01*
X79749500Y-42622135D01*
X71000500Y-42622135D01*
X71000500Y-42118872D01*
X93249500Y-42118872D01*
X93249500Y-42381127D01*
X93273382Y-42562516D01*
X93283730Y-42641116D01*
X93351602Y-42894418D01*
X93351605Y-42894428D01*
X93451953Y-43136690D01*
X93451958Y-43136700D01*
X93583075Y-43363803D01*
X93742718Y-43571851D01*
X93742726Y-43571860D01*
X93928140Y-43757274D01*
X93928148Y-43757281D01*
X94136196Y-43916924D01*
X94363299Y-44048041D01*
X94363309Y-44048046D01*
X94605571Y-44148394D01*
X94605581Y-44148398D01*
X94858884Y-44216270D01*
X95118880Y-44250500D01*
X95118887Y-44250500D01*
X95381113Y-44250500D01*
X95381120Y-44250500D01*
X95641116Y-44216270D01*
X95894419Y-44148398D01*
X96079198Y-44071860D01*
X96136690Y-44048046D01*
X96136691Y-44048045D01*
X96136697Y-44048043D01*
X96363803Y-43916924D01*
X96571851Y-43757282D01*
X96571855Y-43757277D01*
X96571860Y-43757274D01*
X96757274Y-43571860D01*
X96757277Y-43571855D01*
X96757282Y-43571851D01*
X96916924Y-43363803D01*
X97048043Y-43136697D01*
X97148398Y-42894419D01*
X97216270Y-42641116D01*
X97219199Y-42618872D01*
X137749500Y-42618872D01*
X137749500Y-42881127D01*
X137776123Y-43083339D01*
X137783730Y-43141116D01*
X137843399Y-43363803D01*
X137851602Y-43394418D01*
X137851605Y-43394428D01*
X137951953Y-43636690D01*
X137951958Y-43636700D01*
X138083075Y-43863803D01*
X138242718Y-44071851D01*
X138242726Y-44071860D01*
X138428140Y-44257274D01*
X138428148Y-44257281D01*
X138636196Y-44416924D01*
X138863299Y-44548041D01*
X138863309Y-44548046D01*
X139105571Y-44648394D01*
X139105581Y-44648398D01*
X139358884Y-44716270D01*
X139618880Y-44750500D01*
X139618887Y-44750500D01*
X139881113Y-44750500D01*
X139881120Y-44750500D01*
X140141116Y-44716270D01*
X140394419Y-44648398D01*
X140636697Y-44548043D01*
X140863803Y-44416924D01*
X141071851Y-44257282D01*
X141071855Y-44257277D01*
X141071860Y-44257274D01*
X141257274Y-44071860D01*
X141257277Y-44071855D01*
X141257282Y-44071851D01*
X141416924Y-43863803D01*
X141548043Y-43636697D01*
X141648398Y-43394419D01*
X141716270Y-43141116D01*
X141750500Y-42881120D01*
X141750500Y-42618880D01*
X141716270Y-42358884D01*
X141648398Y-42105581D01*
X141648394Y-42105571D01*
X141548046Y-41863309D01*
X141548041Y-41863299D01*
X141416924Y-41636196D01*
X141257281Y-41428148D01*
X141257274Y-41428140D01*
X141071860Y-41242726D01*
X141071851Y-41242718D01*
X140863803Y-41083075D01*
X140636700Y-40951958D01*
X140636690Y-40951953D01*
X140394428Y-40851605D01*
X140394421Y-40851603D01*
X140394419Y-40851602D01*
X140141116Y-40783730D01*
X140083339Y-40776123D01*
X139881127Y-40749500D01*
X139881120Y-40749500D01*
X139618880Y-40749500D01*
X139618872Y-40749500D01*
X139387772Y-40779926D01*
X139358884Y-40783730D01*
X139121271Y-40847398D01*
X139105581Y-40851602D01*
X139105571Y-40851605D01*
X138863309Y-40951953D01*
X138863299Y-40951958D01*
X138636196Y-41083075D01*
X138428148Y-41242718D01*
X138242718Y-41428148D01*
X138083075Y-41636196D01*
X137951958Y-41863299D01*
X137951953Y-41863309D01*
X137851605Y-42105571D01*
X137851602Y-42105581D01*
X137796172Y-42312452D01*
X137783730Y-42358885D01*
X137749500Y-42618872D01*
X97219199Y-42618872D01*
X97250500Y-42381120D01*
X97250500Y-42118880D01*
X97216270Y-41858884D01*
X97148398Y-41605581D01*
X97101490Y-41492335D01*
X97048046Y-41363309D01*
X97048041Y-41363299D01*
X96916924Y-41136196D01*
X96775551Y-40951957D01*
X96757282Y-40928149D01*
X96757281Y-40928148D01*
X96757274Y-40928140D01*
X96571860Y-40742726D01*
X96571851Y-40742718D01*
X96363803Y-40583075D01*
X96136700Y-40451958D01*
X96136690Y-40451953D01*
X95894428Y-40351605D01*
X95894421Y-40351603D01*
X95894419Y-40351602D01*
X95641116Y-40283730D01*
X95583339Y-40276123D01*
X95381127Y-40249500D01*
X95381120Y-40249500D01*
X95118880Y-40249500D01*
X95118872Y-40249500D01*
X94887772Y-40279926D01*
X94858884Y-40283730D01*
X94658386Y-40337453D01*
X94605581Y-40351602D01*
X94605571Y-40351605D01*
X94363309Y-40451953D01*
X94363299Y-40451958D01*
X94136196Y-40583075D01*
X93928148Y-40742718D01*
X93742718Y-40928148D01*
X93583075Y-41136196D01*
X93451958Y-41363299D01*
X93451953Y-41363309D01*
X93351605Y-41605571D01*
X93351602Y-41605581D01*
X93283730Y-41858884D01*
X93279926Y-41887772D01*
X93249500Y-42118872D01*
X71000500Y-42118872D01*
X71000500Y-36393713D01*
X84249500Y-36393713D01*
X84249500Y-36606286D01*
X84272540Y-36751758D01*
X84282754Y-36816243D01*
X84323717Y-36942315D01*
X84348444Y-37018414D01*
X84444951Y-37207820D01*
X84569890Y-37379786D01*
X84720213Y-37530109D01*
X84892179Y-37655048D01*
X84892181Y-37655049D01*
X84892184Y-37655051D01*
X85081588Y-37751557D01*
X85283757Y-37817246D01*
X85493713Y-37850500D01*
X85493714Y-37850500D01*
X86006286Y-37850500D01*
X86006287Y-37850500D01*
X86216243Y-37817246D01*
X86418412Y-37751557D01*
X86607816Y-37655051D01*
X86629789Y-37639086D01*
X86779786Y-37530109D01*
X86779788Y-37530106D01*
X86779792Y-37530104D01*
X86930104Y-37379792D01*
X86930106Y-37379788D01*
X86930109Y-37379786D01*
X87055048Y-37207820D01*
X87055047Y-37207820D01*
X87055051Y-37207816D01*
X87151557Y-37018412D01*
X87217246Y-36816243D01*
X87250500Y-36606287D01*
X87250500Y-36393713D01*
X93749500Y-36393713D01*
X93749500Y-36606286D01*
X93772540Y-36751758D01*
X93782754Y-36816243D01*
X93823717Y-36942315D01*
X93848444Y-37018414D01*
X93944951Y-37207820D01*
X94069890Y-37379786D01*
X94220213Y-37530109D01*
X94392179Y-37655048D01*
X94392181Y-37655049D01*
X94392184Y-37655051D01*
X94581588Y-37751557D01*
X94783757Y-37817246D01*
X94993713Y-37850500D01*
X94993714Y-37850500D01*
X95506286Y-37850500D01*
X95506287Y-37850500D01*
X95716243Y-37817246D01*
X95918412Y-37751557D01*
X96107816Y-37655051D01*
X96129789Y-37639086D01*
X96279786Y-37530109D01*
X96279788Y-37530106D01*
X96279792Y-37530104D01*
X96430104Y-37379792D01*
X96430106Y-37379788D01*
X96430109Y-37379786D01*
X96555048Y-37207820D01*
X96555047Y-37207820D01*
X96555051Y-37207816D01*
X96651557Y-37018412D01*
X96717246Y-36816243D01*
X96750500Y-36606287D01*
X96750500Y-36393713D01*
X96717246Y-36183757D01*
X96651557Y-35981588D01*
X96555051Y-35792184D01*
X96555049Y-35792181D01*
X96555048Y-35792179D01*
X96430109Y-35620213D01*
X96290931Y-35481035D01*
X96257446Y-35419712D01*
X96262430Y-35350020D01*
X96304302Y-35294087D01*
X96313516Y-35287815D01*
X96452425Y-35202135D01*
X100999500Y-35202135D01*
X100999500Y-41297870D01*
X100999501Y-41297876D01*
X101005908Y-41357483D01*
X101056202Y-41492328D01*
X101056206Y-41492335D01*
X101142452Y-41607544D01*
X101142455Y-41607547D01*
X101257664Y-41693793D01*
X101257671Y-41693797D01*
X101392517Y-41744091D01*
X101392516Y-41744091D01*
X101399444Y-41744835D01*
X101452127Y-41750500D01*
X107547872Y-41750499D01*
X107607483Y-41744091D01*
X107742331Y-41693796D01*
X107857546Y-41607546D01*
X107943796Y-41492331D01*
X107994091Y-41357483D01*
X108000500Y-41297873D01*
X108000499Y-38850753D01*
X108020184Y-38783717D01*
X108072987Y-38737962D01*
X108142146Y-38728018D01*
X108205702Y-38757043D01*
X108243476Y-38815821D01*
X108246116Y-38826565D01*
X108300791Y-39101437D01*
X108300792Y-39101443D01*
X108400623Y-39430540D01*
X108532219Y-39748241D01*
X108532226Y-39748255D01*
X108694322Y-40051518D01*
X108694333Y-40051536D01*
X108885377Y-40337453D01*
X108885387Y-40337467D01*
X109053785Y-40542659D01*
X109053786Y-40542660D01*
X109923947Y-39672498D01*
X109985895Y-39753230D01*
X110196770Y-39964105D01*
X110277499Y-40026051D01*
X109407338Y-40896212D01*
X109407339Y-40896213D01*
X109612533Y-41064612D01*
X109612546Y-41064622D01*
X109898463Y-41255666D01*
X109898481Y-41255677D01*
X110201744Y-41417773D01*
X110201758Y-41417780D01*
X110519459Y-41549376D01*
X110848556Y-41649207D01*
X110848562Y-41649208D01*
X111185817Y-41716291D01*
X111185834Y-41716294D01*
X111528059Y-41750000D01*
X111871941Y-41750000D01*
X112214165Y-41716294D01*
X112214182Y-41716291D01*
X112551437Y-41649208D01*
X112551443Y-41649207D01*
X112880540Y-41549376D01*
X113198241Y-41417780D01*
X113198255Y-41417773D01*
X113501518Y-41255677D01*
X113501536Y-41255666D01*
X113787453Y-41064622D01*
X113787466Y-41064612D01*
X113992659Y-40896213D01*
X113992659Y-40896212D01*
X113122499Y-40026052D01*
X113203230Y-39964105D01*
X113414105Y-39753230D01*
X113476052Y-39672499D01*
X114346212Y-40542659D01*
X114346213Y-40542659D01*
X114514612Y-40337466D01*
X114514622Y-40337453D01*
X114705666Y-40051536D01*
X114705677Y-40051518D01*
X114867773Y-39748255D01*
X114867780Y-39748241D01*
X114999376Y-39430540D01*
X115099207Y-39101443D01*
X115099208Y-39101437D01*
X115166291Y-38764182D01*
X115166294Y-38764165D01*
X115200000Y-38421940D01*
X115200000Y-38143713D01*
X121249500Y-38143713D01*
X121249500Y-38356287D01*
X121282754Y-38566243D01*
X121324519Y-38694783D01*
X121348444Y-38768414D01*
X121444951Y-38957820D01*
X121569890Y-39129786D01*
X121720213Y-39280109D01*
X121892179Y-39405048D01*
X121892181Y-39405049D01*
X121892184Y-39405051D01*
X122081588Y-39501557D01*
X122283757Y-39567246D01*
X122493713Y-39600500D01*
X122493714Y-39600500D01*
X123006286Y-39600500D01*
X123006287Y-39600500D01*
X123216243Y-39567246D01*
X123418412Y-39501557D01*
X123607816Y-39405051D01*
X123629789Y-39389086D01*
X123779786Y-39280109D01*
X123779788Y-39280106D01*
X123779792Y-39280104D01*
X123930104Y-39129792D01*
X123930106Y-39129788D01*
X123930109Y-39129786D01*
X124055048Y-38957820D01*
X124055047Y-38957820D01*
X124055051Y-38957816D01*
X124151557Y-38768412D01*
X124217246Y-38566243D01*
X124250500Y-38356287D01*
X124250500Y-38143713D01*
X128999500Y-38143713D01*
X128999500Y-38356287D01*
X129032754Y-38566243D01*
X129074519Y-38694783D01*
X129098444Y-38768414D01*
X129194951Y-38957820D01*
X129319890Y-39129786D01*
X129470213Y-39280109D01*
X129642179Y-39405048D01*
X129642181Y-39405049D01*
X129642184Y-39405051D01*
X129831588Y-39501557D01*
X130033757Y-39567246D01*
X130243713Y-39600500D01*
X130243714Y-39600500D01*
X130756286Y-39600500D01*
X130756287Y-39600500D01*
X130966243Y-39567246D01*
X131168412Y-39501557D01*
X131357816Y-39405051D01*
X131379789Y-39389086D01*
X131529786Y-39280109D01*
X131529788Y-39280106D01*
X131529792Y-39280104D01*
X131680104Y-39129792D01*
X131680106Y-39129788D01*
X131680109Y-39129786D01*
X131805048Y-38957820D01*
X131805047Y-38957820D01*
X131805051Y-38957816D01*
X131901557Y-38768412D01*
X131967246Y-38566243D01*
X132000500Y-38356287D01*
X132000500Y-38143713D01*
X131967246Y-37933757D01*
X131901557Y-37731588D01*
X131805051Y-37542184D01*
X131805049Y-37542181D01*
X131805048Y-37542179D01*
X131680109Y-37370213D01*
X131540931Y-37231035D01*
X131507446Y-37169712D01*
X131512430Y-37100020D01*
X131554302Y-37044087D01*
X131563516Y-37037815D01*
X131718343Y-36942317D01*
X131842315Y-36818345D01*
X131934356Y-36669124D01*
X131934358Y-36669119D01*
X131989505Y-36502697D01*
X131989506Y-36502690D01*
X131999999Y-36399986D01*
X132000000Y-36399973D01*
X132000000Y-36000000D01*
X130933012Y-36000000D01*
X130965925Y-35942993D01*
X131000000Y-35815826D01*
X131000000Y-35684174D01*
X130965925Y-35557007D01*
X130933012Y-35500000D01*
X131999999Y-35500000D01*
X131999999Y-35100028D01*
X131999998Y-35100013D01*
X131989505Y-34997302D01*
X131934358Y-34830880D01*
X131934356Y-34830875D01*
X131842315Y-34681654D01*
X131718345Y-34557684D01*
X131569124Y-34465643D01*
X131569119Y-34465641D01*
X131402697Y-34410494D01*
X131402690Y-34410493D01*
X131299986Y-34400000D01*
X130750000Y-34400000D01*
X130750000Y-35316988D01*
X130692993Y-35284075D01*
X130565826Y-35250000D01*
X130434174Y-35250000D01*
X130307007Y-35284075D01*
X130250000Y-35316988D01*
X130250000Y-34400000D01*
X129700028Y-34400000D01*
X129700012Y-34400001D01*
X129597302Y-34410494D01*
X129430880Y-34465641D01*
X129430875Y-34465643D01*
X129281654Y-34557684D01*
X129157684Y-34681654D01*
X129065643Y-34830875D01*
X129065641Y-34830880D01*
X129010494Y-34997302D01*
X129010493Y-34997309D01*
X129000000Y-35100013D01*
X129000000Y-35500000D01*
X130066988Y-35500000D01*
X130034075Y-35557007D01*
X130000000Y-35684174D01*
X130000000Y-35815826D01*
X130034075Y-35942993D01*
X130066988Y-36000000D01*
X129000001Y-36000000D01*
X129000001Y-36399986D01*
X129010494Y-36502697D01*
X129065641Y-36669119D01*
X129065643Y-36669124D01*
X129157684Y-36818345D01*
X129281654Y-36942315D01*
X129436484Y-37037815D01*
X129483208Y-37089763D01*
X129494431Y-37158726D01*
X129466587Y-37222808D01*
X129459069Y-37231035D01*
X129319889Y-37370215D01*
X129194951Y-37542179D01*
X129098444Y-37731585D01*
X129032753Y-37933760D01*
X129006283Y-38100889D01*
X128999500Y-38143713D01*
X124250500Y-38143713D01*
X124217246Y-37933757D01*
X124151557Y-37731588D01*
X124055051Y-37542184D01*
X124055049Y-37542181D01*
X124055048Y-37542179D01*
X123930109Y-37370213D01*
X123790931Y-37231035D01*
X123757446Y-37169712D01*
X123762430Y-37100020D01*
X123804302Y-37044087D01*
X123813516Y-37037815D01*
X123968343Y-36942317D01*
X124092315Y-36818345D01*
X124184356Y-36669124D01*
X124184358Y-36669119D01*
X124239505Y-36502697D01*
X124239506Y-36502690D01*
X124249999Y-36399986D01*
X124250000Y-36399973D01*
X124250000Y-36000000D01*
X123183012Y-36000000D01*
X123215925Y-35942993D01*
X123250000Y-35815826D01*
X123250000Y-35684174D01*
X123215925Y-35557007D01*
X123183012Y-35500000D01*
X124249999Y-35500000D01*
X124249999Y-35100029D01*
X124249998Y-35100012D01*
X124239505Y-34997302D01*
X124184358Y-34830880D01*
X124184356Y-34830875D01*
X124092315Y-34681654D01*
X123968345Y-34557684D01*
X123819124Y-34465643D01*
X123819119Y-34465641D01*
X123652697Y-34410494D01*
X123652690Y-34410493D01*
X123549986Y-34400000D01*
X123000000Y-34400000D01*
X123000000Y-35316988D01*
X122942993Y-35284075D01*
X122815826Y-35250000D01*
X122684174Y-35250000D01*
X122557007Y-35284075D01*
X122500000Y-35316988D01*
X122500000Y-34400000D01*
X121950028Y-34400000D01*
X121950012Y-34400001D01*
X121847302Y-34410494D01*
X121680880Y-34465641D01*
X121680875Y-34465643D01*
X121531654Y-34557684D01*
X121407684Y-34681654D01*
X121315643Y-34830875D01*
X121315641Y-34830880D01*
X121260494Y-34997302D01*
X121260493Y-34997309D01*
X121250000Y-35100013D01*
X121250000Y-35500000D01*
X122316988Y-35500000D01*
X122284075Y-35557007D01*
X122250000Y-35684174D01*
X122250000Y-35815826D01*
X122284075Y-35942993D01*
X122316988Y-36000000D01*
X121250001Y-36000000D01*
X121250001Y-36399986D01*
X121260494Y-36502697D01*
X121315641Y-36669119D01*
X121315643Y-36669124D01*
X121407684Y-36818345D01*
X121531654Y-36942315D01*
X121686484Y-37037815D01*
X121733208Y-37089763D01*
X121744431Y-37158726D01*
X121716587Y-37222808D01*
X121709069Y-37231035D01*
X121569889Y-37370215D01*
X121444951Y-37542179D01*
X121348444Y-37731585D01*
X121282753Y-37933760D01*
X121256283Y-38100889D01*
X121249500Y-38143713D01*
X115200000Y-38143713D01*
X115200000Y-38078059D01*
X115166294Y-37735834D01*
X115166291Y-37735817D01*
X115099208Y-37398562D01*
X115099207Y-37398556D01*
X114999376Y-37069459D01*
X114867780Y-36751758D01*
X114867773Y-36751744D01*
X114705677Y-36448481D01*
X114705666Y-36448463D01*
X114514622Y-36162546D01*
X114514612Y-36162533D01*
X114346213Y-35957339D01*
X114346212Y-35957338D01*
X113476051Y-36827499D01*
X113414105Y-36746770D01*
X113203230Y-36535895D01*
X113122498Y-36473947D01*
X113992660Y-35603786D01*
X113992659Y-35603785D01*
X113787467Y-35435387D01*
X113787453Y-35435377D01*
X113501536Y-35244333D01*
X113501518Y-35244322D01*
X113430237Y-35206222D01*
X113198255Y-35082226D01*
X113198241Y-35082219D01*
X112880540Y-34950623D01*
X112551443Y-34850792D01*
X112551437Y-34850791D01*
X112214182Y-34783708D01*
X112214165Y-34783705D01*
X111871941Y-34750000D01*
X111528059Y-34750000D01*
X111185834Y-34783705D01*
X111185817Y-34783708D01*
X110848562Y-34850791D01*
X110848556Y-34850792D01*
X110519459Y-34950623D01*
X110201758Y-35082219D01*
X110201744Y-35082226D01*
X109898481Y-35244322D01*
X109898463Y-35244333D01*
X109612546Y-35435377D01*
X109612532Y-35435387D01*
X109407338Y-35603786D01*
X110277500Y-36473948D01*
X110196770Y-36535895D01*
X109985895Y-36746770D01*
X109923948Y-36827500D01*
X109053786Y-35957338D01*
X108885387Y-36162532D01*
X108885377Y-36162546D01*
X108694333Y-36448463D01*
X108694322Y-36448481D01*
X108532226Y-36751744D01*
X108532219Y-36751758D01*
X108400623Y-37069459D01*
X108300792Y-37398556D01*
X108300791Y-37398562D01*
X108246116Y-37673435D01*
X108213731Y-37735346D01*
X108153016Y-37769920D01*
X108083246Y-37766181D01*
X108026574Y-37725314D01*
X108000993Y-37660296D01*
X108000499Y-37649244D01*
X108000499Y-35202129D01*
X108000498Y-35202123D01*
X108000497Y-35202116D01*
X107994091Y-35142517D01*
X107971601Y-35082219D01*
X107943797Y-35007671D01*
X107943793Y-35007664D01*
X107857547Y-34892455D01*
X107857544Y-34892452D01*
X107742335Y-34806206D01*
X107742328Y-34806202D01*
X107607482Y-34755908D01*
X107607483Y-34755908D01*
X107547883Y-34749501D01*
X107547881Y-34749500D01*
X107547873Y-34749500D01*
X107547864Y-34749500D01*
X101452129Y-34749500D01*
X101452123Y-34749501D01*
X101392516Y-34755908D01*
X101257671Y-34806202D01*
X101257664Y-34806206D01*
X101142455Y-34892452D01*
X101142452Y-34892455D01*
X101056206Y-35007664D01*
X101056202Y-35007671D01*
X101005908Y-35142517D01*
X100999501Y-35202116D01*
X100999501Y-35202123D01*
X100999500Y-35202135D01*
X96452425Y-35202135D01*
X96468343Y-35192317D01*
X96468344Y-35192316D01*
X96549536Y-35111125D01*
X96592315Y-35068345D01*
X96684356Y-34919124D01*
X96684358Y-34919119D01*
X96739505Y-34752697D01*
X96739506Y-34752690D01*
X96749999Y-34649986D01*
X96750000Y-34649973D01*
X96750000Y-34250000D01*
X95683012Y-34250000D01*
X95715925Y-34192993D01*
X95750000Y-34065826D01*
X95750000Y-33934174D01*
X95715925Y-33807007D01*
X95683012Y-33750000D01*
X96749999Y-33750000D01*
X96749999Y-33350028D01*
X96749998Y-33350013D01*
X96739505Y-33247302D01*
X96684358Y-33080880D01*
X96684356Y-33080875D01*
X96592315Y-32931654D01*
X96468345Y-32807684D01*
X96319124Y-32715643D01*
X96319119Y-32715641D01*
X96152697Y-32660494D01*
X96152690Y-32660493D01*
X96049986Y-32650000D01*
X95500000Y-32650000D01*
X95500000Y-33566988D01*
X95442993Y-33534075D01*
X95315826Y-33500000D01*
X95184174Y-33500000D01*
X95057007Y-33534075D01*
X95000000Y-33566988D01*
X95000000Y-32650000D01*
X94450028Y-32650000D01*
X94450012Y-32650001D01*
X94347302Y-32660494D01*
X94180880Y-32715641D01*
X94180875Y-32715643D01*
X94031654Y-32807684D01*
X93907684Y-32931654D01*
X93815643Y-33080875D01*
X93815641Y-33080880D01*
X93760494Y-33247302D01*
X93760493Y-33247309D01*
X93750000Y-33350013D01*
X93750000Y-33750000D01*
X94816988Y-33750000D01*
X94784075Y-33807007D01*
X94750000Y-33934174D01*
X94750000Y-34065826D01*
X94784075Y-34192993D01*
X94816988Y-34250000D01*
X93750001Y-34250000D01*
X93750001Y-34649986D01*
X93760494Y-34752697D01*
X93815641Y-34919119D01*
X93815643Y-34919124D01*
X93907684Y-35068345D01*
X94031654Y-35192315D01*
X94186484Y-35287815D01*
X94233208Y-35339763D01*
X94244431Y-35408726D01*
X94216587Y-35472808D01*
X94209069Y-35481035D01*
X94069889Y-35620215D01*
X93944951Y-35792179D01*
X93848444Y-35981585D01*
X93782753Y-36183760D01*
X93749500Y-36393713D01*
X87250500Y-36393713D01*
X87217246Y-36183757D01*
X87151557Y-35981588D01*
X87055051Y-35792184D01*
X87055049Y-35792181D01*
X87055048Y-35792179D01*
X86930109Y-35620213D01*
X86790931Y-35481035D01*
X86757446Y-35419712D01*
X86762430Y-35350020D01*
X86804302Y-35294087D01*
X86813516Y-35287815D01*
X86968343Y-35192317D01*
X87092315Y-35068345D01*
X87184356Y-34919124D01*
X87184358Y-34919119D01*
X87239505Y-34752697D01*
X87239506Y-34752690D01*
X87249999Y-34649986D01*
X87250000Y-34649973D01*
X87250000Y-34250000D01*
X86183012Y-34250000D01*
X86215925Y-34192993D01*
X86250000Y-34065826D01*
X86250000Y-33934174D01*
X86215925Y-33807007D01*
X86183012Y-33750000D01*
X87249999Y-33750000D01*
X87249999Y-33350029D01*
X87249998Y-33350012D01*
X87239505Y-33247302D01*
X87184358Y-33080880D01*
X87184356Y-33080875D01*
X87092315Y-32931654D01*
X86968345Y-32807684D01*
X86819124Y-32715643D01*
X86819119Y-32715641D01*
X86652697Y-32660494D01*
X86652690Y-32660493D01*
X86549986Y-32650000D01*
X86000000Y-32650000D01*
X86000000Y-33566988D01*
X85942993Y-33534075D01*
X85815826Y-33500000D01*
X85684174Y-33500000D01*
X85557007Y-33534075D01*
X85500000Y-33566988D01*
X85500000Y-32650000D01*
X84950028Y-32650000D01*
X84950012Y-32650001D01*
X84847302Y-32660494D01*
X84680880Y-32715641D01*
X84680875Y-32715643D01*
X84531654Y-32807684D01*
X84407684Y-32931654D01*
X84315643Y-33080875D01*
X84315641Y-33080880D01*
X84260494Y-33247302D01*
X84260493Y-33247309D01*
X84250000Y-33350013D01*
X84250000Y-33750000D01*
X85316988Y-33750000D01*
X85284075Y-33807007D01*
X85250000Y-33934174D01*
X85250000Y-34065826D01*
X85284075Y-34192993D01*
X85316988Y-34250000D01*
X84250001Y-34250000D01*
X84250001Y-34649986D01*
X84260494Y-34752697D01*
X84315641Y-34919119D01*
X84315643Y-34919124D01*
X84407684Y-35068345D01*
X84531654Y-35192315D01*
X84686484Y-35287815D01*
X84733208Y-35339763D01*
X84744431Y-35408726D01*
X84716587Y-35472808D01*
X84709069Y-35481035D01*
X84569889Y-35620215D01*
X84444951Y-35792179D01*
X84348444Y-35981585D01*
X84282753Y-36183760D01*
X84249500Y-36393713D01*
X71000500Y-36393713D01*
X71000500Y-33952871D01*
X71000632Y-33947144D01*
X71012382Y-33692993D01*
X71018149Y-33568233D01*
X71019206Y-33556838D01*
X71022382Y-33534075D01*
X71071214Y-33184007D01*
X71073314Y-33172771D01*
X71159504Y-32806316D01*
X71162627Y-32795338D01*
X71282269Y-32438376D01*
X71286392Y-32427736D01*
X71438454Y-32083347D01*
X71443537Y-32073138D01*
X71626724Y-31744254D01*
X71632750Y-31734522D01*
X71845495Y-31423953D01*
X71852377Y-31414839D01*
X72092884Y-31125207D01*
X72100580Y-31116766D01*
X72366766Y-30850580D01*
X72375207Y-30842884D01*
X72664839Y-30602377D01*
X72673953Y-30595495D01*
X72984527Y-30382746D01*
X72994254Y-30376724D01*
X73323138Y-30193537D01*
X73333347Y-30188454D01*
X73677736Y-30036392D01*
X73688376Y-30032269D01*
X74045338Y-29912627D01*
X74056316Y-29909504D01*
X74422771Y-29823314D01*
X74434007Y-29821214D01*
X74806847Y-29769205D01*
X74818233Y-29768149D01*
X75197145Y-29750632D01*
X75202872Y-29750500D01*
X75265892Y-29750500D01*
X149734108Y-29750500D01*
X149797128Y-29750500D01*
X149802855Y-29750632D01*
G37*
%TD.AperFunction*%
%TD*%
M02*
