%TF.GenerationSoftware,KiCad,Pcbnew,9.0.7*%
%TF.CreationDate,2026-03-28T12:56:33+00:00*%
%TF.ProjectId,FireSide,46697265-5369-4646-952e-6b696361645f,rev?*%
%TF.SameCoordinates,Original*%
%TF.FileFunction,Soldermask,Top*%
%TF.FilePolarity,Negative*%
%FSLAX46Y46*%
G04 Gerber Fmt 4.6, Leading zero omitted, Abs format (unit mm)*
G04 Created by KiCad (PCBNEW 9.0.7) date 2026-03-28 12:56:33*
%MOMM*%
%LPD*%
G01*
G04 APERTURE LIST*
G04 Aperture macros list*
%AMRoundRect*
0 Rectangle with rounded corners*
0 $1 Rounding radius*
0 $2 $3 $4 $5 $6 $7 $8 $9 X,Y pos of 4 corners*
0 Add a 4 corners polygon primitive as box body*
4,1,4,$2,$3,$4,$5,$6,$7,$8,$9,$2,$3,0*
0 Add four circle primitives for the rounded corners*
1,1,$1+$1,$2,$3*
1,1,$1+$1,$4,$5*
1,1,$1+$1,$6,$7*
1,1,$1+$1,$8,$9*
0 Add four rect primitives between the rounded corners*
20,1,$1+$1,$2,$3,$4,$5,0*
20,1,$1+$1,$4,$5,$6,$7,0*
20,1,$1+$1,$6,$7,$8,$9,0*
20,1,$1+$1,$8,$9,$2,$3,0*%
G04 Aperture macros list end*
%ADD10RoundRect,0.250000X-0.250000X-0.475000X0.250000X-0.475000X0.250000X0.475000X-0.250000X0.475000X0*%
%ADD11RoundRect,0.250000X0.262500X0.450000X-0.262500X0.450000X-0.262500X-0.450000X0.262500X-0.450000X0*%
%ADD12RoundRect,0.250000X-0.750000X0.600000X-0.750000X-0.600000X0.750000X-0.600000X0.750000X0.600000X0*%
%ADD13O,2.000000X1.700000*%
%ADD14C,7.500000*%
%ADD15RoundRect,0.250000X0.250000X0.475000X-0.250000X0.475000X-0.250000X-0.475000X0.250000X-0.475000X0*%
%ADD16RoundRect,0.250000X0.750000X-0.600000X0.750000X0.600000X-0.750000X0.600000X-0.750000X-0.600000X0*%
%ADD17C,1.800000*%
%ADD18C,1.400000*%
%ADD19O,1.400000X1.400000*%
%ADD20RoundRect,0.375000X-0.625000X-0.375000X0.625000X-0.375000X0.625000X0.375000X-0.625000X0.375000X0*%
%ADD21RoundRect,0.500000X-0.500000X-1.400000X0.500000X-1.400000X0.500000X1.400000X-0.500000X1.400000X0*%
%ADD22R,1.700000X1.700000*%
%ADD23C,1.700000*%
%ADD24C,6.204000*%
%ADD25RoundRect,0.102000X-3.000000X-3.000000X3.000000X-3.000000X3.000000X3.000000X-3.000000X3.000000X0*%
%ADD26RoundRect,0.102000X-0.762000X-0.762000X0.762000X-0.762000X0.762000X0.762000X-0.762000X0.762000X0*%
%ADD27C,1.728000*%
%ADD28RoundRect,0.375000X-0.375000X0.625000X-0.375000X-0.625000X0.375000X-0.625000X0.375000X0.625000X0*%
%ADD29RoundRect,0.500000X-1.400000X0.500000X-1.400000X-0.500000X1.400000X-0.500000X1.400000X0.500000X0*%
%ADD30C,3.000000*%
%ADD31RoundRect,0.250001X1.149999X-1.149999X1.149999X1.149999X-1.149999X1.149999X-1.149999X-1.149999X0*%
%ADD32C,2.800000*%
%ADD33O,1.700000X1.700000*%
%ADD34RoundRect,0.250001X-1.149999X1.149999X-1.149999X-1.149999X1.149999X-1.149999X1.149999X1.149999X0*%
%ADD35RoundRect,0.150000X0.150000X-0.587500X0.150000X0.587500X-0.150000X0.587500X-0.150000X-0.587500X0*%
G04 APERTURE END LIST*
D10*
%TO.C,C3*%
X107050000Y-44500000D03*
X108950000Y-44500000D03*
%TD*%
D11*
%TO.C,R5*%
X148702500Y-96550000D03*
X146877500Y-96550000D03*
%TD*%
%TO.C,R6*%
X148702500Y-83550000D03*
X146877500Y-83550000D03*
%TD*%
D12*
%TO.C,J8*%
X130500000Y-35750000D03*
D13*
X130500000Y-38250000D03*
%TD*%
D14*
%TO.C,H2*%
X76500000Y-145600000D03*
%TD*%
%TO.C,H3*%
X76500000Y-34500000D03*
%TD*%
D15*
%TO.C,C7*%
X100800000Y-44750000D03*
X98900000Y-44750000D03*
%TD*%
D16*
%TO.C,J6*%
X142750000Y-78250000D03*
D13*
X142750000Y-75750000D03*
%TD*%
D11*
%TO.C,R7*%
X148737896Y-70550000D03*
X146912896Y-70550000D03*
%TD*%
D17*
%TO.C,U6*%
X104000000Y-123500000D03*
X104000000Y-119500000D03*
X76500000Y-126500000D03*
X76500000Y-121500000D03*
X76500000Y-116500000D03*
%TD*%
D16*
%TO.C,J2*%
X142100000Y-117200000D03*
D13*
X142100000Y-114700000D03*
%TD*%
D16*
%TO.C,J1*%
X142025000Y-127900000D03*
D13*
X142025000Y-125400000D03*
%TD*%
D18*
%TO.C,R1*%
X148250000Y-125410000D03*
D19*
X148250000Y-130490000D03*
%TD*%
D10*
%TO.C,C6*%
X133096029Y-64429415D03*
X134996029Y-64429415D03*
%TD*%
D11*
%TO.C,R4*%
X129075000Y-54000000D03*
X127250000Y-54000000D03*
%TD*%
D15*
%TO.C,C4*%
X91791212Y-50463737D03*
X89891212Y-50463737D03*
%TD*%
D20*
%TO.C,U1*%
X109987500Y-47750000D03*
X109987500Y-50050000D03*
D21*
X116287500Y-50050000D03*
D20*
X109987500Y-52350000D03*
%TD*%
D14*
%TO.C,H1*%
X149000000Y-145600000D03*
%TD*%
D17*
%TO.C,U5*%
X104000000Y-87500000D03*
X104000000Y-83500000D03*
X76500000Y-90500000D03*
X76500000Y-85500000D03*
X76500000Y-80500000D03*
%TD*%
D22*
%TO.C,J3*%
X130580000Y-124500000D03*
D23*
X128040000Y-124500000D03*
X125500000Y-124500000D03*
X122960000Y-124500000D03*
X120420000Y-124500000D03*
X117880000Y-124500000D03*
X115340000Y-124500000D03*
X112800000Y-124500000D03*
%TD*%
D24*
%TO.C,U8*%
X111700000Y-38250000D03*
D25*
X104500000Y-38250000D03*
%TD*%
D26*
%TO.C,U3*%
X114750000Y-75500000D03*
D27*
X114750000Y-78040000D03*
X114750000Y-80580000D03*
X114750000Y-83120000D03*
X114750000Y-85660000D03*
X114750000Y-88200000D03*
X114750000Y-90740000D03*
X114750000Y-93280000D03*
X114750000Y-95820000D03*
X114750000Y-98360000D03*
X114750000Y-100900000D03*
X114750000Y-103440000D03*
X114750000Y-105980000D03*
X114750000Y-108520000D03*
X114750000Y-111060000D03*
X129990000Y-75500000D03*
X129990000Y-78040000D03*
X129990000Y-80580000D03*
X129990000Y-83120000D03*
X129990000Y-85660000D03*
X129990000Y-88200000D03*
X129990000Y-90740000D03*
X129990000Y-93280000D03*
X129990000Y-95820000D03*
X129990000Y-98360000D03*
X129990000Y-100900000D03*
X129990000Y-103440000D03*
X129990000Y-105980000D03*
X129990000Y-108520000D03*
X129990000Y-111060000D03*
%TD*%
D11*
%TO.C,R2*%
X148702500Y-109550000D03*
X146877500Y-109550000D03*
%TD*%
D16*
%TO.C,J4*%
X142750000Y-104250000D03*
D13*
X142750000Y-101750000D03*
%TD*%
D12*
%TO.C,J7*%
X122750000Y-35750000D03*
D13*
X122750000Y-38250000D03*
%TD*%
D12*
%TO.C,J12*%
X95250000Y-34000000D03*
D13*
X95250000Y-36500000D03*
%TD*%
D18*
%TO.C,R3*%
X148150000Y-114710000D03*
D19*
X148150000Y-119790000D03*
%TD*%
D16*
%TO.C,J14*%
X142750000Y-65250000D03*
D13*
X142750000Y-62750000D03*
%TD*%
D10*
%TO.C,C5*%
X133100000Y-61000000D03*
X135000000Y-61000000D03*
%TD*%
D28*
%TO.C,U7*%
X100100000Y-50500000D03*
X97800000Y-50500000D03*
D29*
X97800000Y-56800000D03*
D28*
X95500000Y-50500000D03*
%TD*%
D10*
%TO.C,C8*%
X120550000Y-48500000D03*
X122450000Y-48500000D03*
%TD*%
D12*
%TO.C,J10*%
X123025000Y-54000000D03*
D13*
X123025000Y-56500000D03*
%TD*%
D30*
%TO.C,TP2*%
X95250000Y-42250000D03*
%TD*%
D12*
%TO.C,J11*%
X85750000Y-34000000D03*
D13*
X85750000Y-36500000D03*
%TD*%
D30*
%TO.C,TP1*%
X126500000Y-48500000D03*
%TD*%
D17*
%TO.C,U9*%
X104000000Y-105500000D03*
X104000000Y-101500000D03*
X76500000Y-108500000D03*
X76500000Y-103500000D03*
X76500000Y-98500000D03*
%TD*%
D16*
%TO.C,J5*%
X142750000Y-91250000D03*
D13*
X142750000Y-88750000D03*
%TD*%
D14*
%TO.C,H4*%
X149000000Y-34500000D03*
%TD*%
D31*
%TO.C,J13*%
X139750000Y-52910000D03*
D32*
X139750000Y-47910000D03*
X139750000Y-42910000D03*
%TD*%
D33*
%TO.C,U2*%
X87895000Y-61670000D03*
X87895000Y-64210000D03*
X87895000Y-66750000D03*
X87895000Y-69290000D03*
D22*
X87895000Y-71830000D03*
%TD*%
D34*
%TO.C,J9*%
X81750000Y-44170000D03*
D32*
X81750000Y-49170000D03*
X81750000Y-54170000D03*
%TD*%
D35*
%TO.C,Q1*%
X128134612Y-59850250D03*
X130034612Y-59850250D03*
X129084612Y-57975250D03*
%TD*%
M02*
