M48
; DRILL file {KiCad 9.0.7} date 2026-03-28T12:56:35+0000
; FORMAT={-:-/ absolute / metric / decimal}
; #@! TF.CreationDate,2026-03-28T12:56:35+00:00
; #@! TF.GenerationSoftware,Kicad,Pcbnew,9.0.7
; #@! TF.FileFunction,Plated,1,2,PTH
FMAT,2
METRIC
; #@! TA.AperFunction,Plated,PTH,ViaDrill
T1C0.300
; #@! TA.AperFunction,Plated,PTH,ComponentDrill
T2C0.700
; #@! TA.AperFunction,Plated,PTH,ComponentDrill
T3C0.900
; #@! TA.AperFunction,Plated,PTH,ComponentDrill
T4C1.000
; #@! TA.AperFunction,Plated,PTH,ComponentDrill
T5C1.016
; #@! TA.AperFunction,Plated,PTH,ComponentDrill
T6C1.300
; #@! TA.AperFunction,Plated,PTH,ComponentDrill
T7C1.600
; #@! TA.AperFunction,Plated,PTH,ComponentDrill
T8C4.300
; #@! TA.AperFunction,Plated,PTH,ComponentDrill
T9C4.550
%
G90
G05
T1
X110.0Y-77.0
X120.0Y-120.0
T2
X148.15Y-114.71
X148.15Y-119.79
X148.25Y-125.41
X148.25Y-130.49
T3
X76.5Y-80.5
X76.5Y-85.5
X76.5Y-90.5
X76.5Y-98.5
X76.5Y-103.5
X76.5Y-108.5
X76.5Y-116.5
X76.5Y-121.5
X76.5Y-126.5
X104.0Y-83.5
X104.0Y-87.5
X104.0Y-101.5
X104.0Y-105.5
X104.0Y-119.5
X104.0Y-123.5
T4
X85.75Y-34.0
X85.75Y-36.5
X87.895Y-61.67
X87.895Y-64.21
X87.895Y-66.75
X87.895Y-69.29
X87.895Y-71.83
X95.25Y-34.0
X95.25Y-36.5
X112.8Y-124.5
X115.34Y-124.5
X117.88Y-124.5
X120.42Y-124.5
X122.75Y-35.75
X122.75Y-38.25
X122.96Y-124.5
X123.025Y-54.0
X123.025Y-56.5
X125.5Y-124.5
X128.04Y-124.5
X130.5Y-35.75
X130.5Y-38.25
X130.58Y-124.5
X142.025Y-125.4
X142.025Y-127.9
X142.1Y-114.7
X142.1Y-117.2
X142.75Y-62.75
X142.75Y-65.25
X142.75Y-75.75
X142.75Y-78.25
X142.75Y-88.75
X142.75Y-91.25
X142.75Y-101.75
X142.75Y-104.25
T5
X114.75Y-75.5
X114.75Y-78.04
X114.75Y-80.58
X114.75Y-83.12
X114.75Y-85.66
X114.75Y-88.2
X114.75Y-90.74
X114.75Y-93.28
X114.75Y-95.82
X114.75Y-98.36
X114.75Y-100.9
X114.75Y-103.44
X114.75Y-105.98
X114.75Y-108.52
X114.75Y-111.06
X129.99Y-75.5
X129.99Y-78.04
X129.99Y-80.58
X129.99Y-83.12
X129.99Y-85.66
X129.99Y-88.2
X129.99Y-90.74
X129.99Y-93.28
X129.99Y-95.82
X129.99Y-98.36
X129.99Y-100.9
X129.99Y-103.44
X129.99Y-105.98
X129.99Y-108.52
X129.99Y-111.06
T6
X81.75Y-44.17
X81.75Y-49.17
X81.75Y-54.17
X139.75Y-42.91
X139.75Y-47.91
X139.75Y-52.91
T7
X95.25Y-42.25
X126.5Y-48.5
T8
X76.5Y-34.5
X76.5Y-145.6
X149.0Y-34.5
X149.0Y-145.6
T9
X104.5Y-38.25
X111.7Y-38.25
M30
