%TF.GenerationSoftware,KiCad,Pcbnew,9.0.4*%
%TF.CreationDate,2025-10-04T23:37:01+05:30*%
%TF.ProjectId,FireSide,46697265-5369-4646-952e-6b696361645f,rev?*%
%TF.SameCoordinates,Original*%
%TF.FileFunction,Soldermask,Bot*%
%TF.FilePolarity,Negative*%
%FSLAX46Y46*%
G04 Gerber Fmt 4.6, Leading zero omitted, Abs format (unit mm)*
G04 Created by KiCad (PCBNEW 9.0.4) date 2025-10-04 23:37:01*
%MOMM*%
%LPD*%
G01*
G04 APERTURE LIST*
G04 Aperture macros list*
%AMRoundRect*
0 Rectangle with rounded corners*
0 $1 Rounding radius*
0 $2 $3 $4 $5 $6 $7 $8 $9 X,Y pos of 4 corners*
0 Add a 4 corners polygon primitive as box body*
4,1,4,$2,$3,$4,$5,$6,$7,$8,$9,$2,$3,0*
0 Add four circle primitives for the rounded corners*
1,1,$1+$1,$2,$3*
1,1,$1+$1,$4,$5*
1,1,$1+$1,$6,$7*
1,1,$1+$1,$8,$9*
0 Add four rect primitives between the rounded corners*
20,1,$1+$1,$2,$3,$4,$5,0*
20,1,$1+$1,$4,$5,$6,$7,0*
20,1,$1+$1,$6,$7,$8,$9,0*
20,1,$1+$1,$8,$9,$2,$3,0*%
G04 Aperture macros list end*
%ADD10C,1.400000*%
%ADD11RoundRect,0.250000X-0.750000X0.600000X-0.750000X-0.600000X0.750000X-0.600000X0.750000X0.600000X0*%
%ADD12O,2.000000X1.700000*%
%ADD13C,7.500000*%
%ADD14RoundRect,0.250000X0.750000X-0.600000X0.750000X0.600000X-0.750000X0.600000X-0.750000X-0.600000X0*%
%ADD15C,1.800000*%
%ADD16RoundRect,0.250000X-0.600000X-0.750000X0.600000X-0.750000X0.600000X0.750000X-0.600000X0.750000X0*%
%ADD17O,1.700000X2.000000*%
%ADD18R,1.700000X1.700000*%
%ADD19C,1.700000*%
%ADD20C,6.204000*%
%ADD21RoundRect,0.102000X-3.000000X-3.000000X3.000000X-3.000000X3.000000X3.000000X-3.000000X3.000000X0*%
%ADD22RoundRect,0.102000X-0.762000X-0.762000X0.762000X-0.762000X0.762000X0.762000X-0.762000X0.762000X0*%
%ADD23C,1.728000*%
%ADD24C,3.000000*%
%ADD25R,3.000000X3.000000*%
%ADD26O,1.700000X1.700000*%
G04 APERTURE END LIST*
D10*
%TO.C,R5*%
X147790000Y-96550000D03*
X142710000Y-96550000D03*
%TD*%
%TO.C,R6*%
X147790000Y-83550000D03*
X142710000Y-83550000D03*
%TD*%
D11*
%TO.C,J8*%
X130500000Y-35750000D03*
D12*
X130500000Y-38250000D03*
%TD*%
D13*
%TO.C,H2*%
X76500000Y-145600000D03*
%TD*%
%TO.C,H3*%
X76500000Y-34500000D03*
%TD*%
D14*
%TO.C,J6*%
X142750000Y-78250000D03*
D12*
X142750000Y-75750000D03*
%TD*%
D10*
%TO.C,R7*%
X147825396Y-70550000D03*
X142745396Y-70550000D03*
%TD*%
D15*
%TO.C,U6*%
X104000000Y-122500000D03*
X104000000Y-118500000D03*
X76500000Y-125500000D03*
X76500000Y-120500000D03*
X76500000Y-115500000D03*
%TD*%
D16*
%TO.C,J2*%
X142250000Y-115250000D03*
D17*
X144750000Y-115250000D03*
%TD*%
D16*
%TO.C,J1*%
X142250000Y-123500000D03*
D17*
X144750000Y-123500000D03*
%TD*%
D13*
%TO.C,H1*%
X149000000Y-145600000D03*
%TD*%
D15*
%TO.C,U5*%
X104000000Y-87250000D03*
X104000000Y-83250000D03*
X76500000Y-90250000D03*
X76500000Y-85250000D03*
X76500000Y-80250000D03*
%TD*%
D18*
%TO.C,J3*%
X130580000Y-124500000D03*
D19*
X128040000Y-124500000D03*
X125500000Y-124500000D03*
X122960000Y-124500000D03*
X120420000Y-124500000D03*
X117880000Y-124500000D03*
X115340000Y-124500000D03*
X112800000Y-124500000D03*
%TD*%
D20*
%TO.C,U8*%
X111700000Y-38250000D03*
D21*
X104500000Y-38250000D03*
%TD*%
D22*
%TO.C,U3*%
X114750000Y-75500000D03*
D23*
X114750000Y-78040000D03*
X114750000Y-80580000D03*
X114750000Y-83120000D03*
X114750000Y-85660000D03*
X114750000Y-88200000D03*
X114750000Y-90740000D03*
X114750000Y-93280000D03*
X114750000Y-95820000D03*
X114750000Y-98360000D03*
X114750000Y-100900000D03*
X114750000Y-103440000D03*
X114750000Y-105980000D03*
X114750000Y-108520000D03*
X114750000Y-111060000D03*
X129990000Y-75500000D03*
X129990000Y-78040000D03*
X129990000Y-80580000D03*
X129990000Y-83120000D03*
X129990000Y-85660000D03*
X129990000Y-88200000D03*
X129990000Y-90740000D03*
X129990000Y-93280000D03*
X129990000Y-95820000D03*
X129990000Y-98360000D03*
X129990000Y-100900000D03*
X129990000Y-103440000D03*
X129990000Y-105980000D03*
X129990000Y-108520000D03*
X129990000Y-111060000D03*
%TD*%
D10*
%TO.C,R2*%
X147790000Y-109550000D03*
X142710000Y-109550000D03*
%TD*%
D14*
%TO.C,J4*%
X142750000Y-104250000D03*
D12*
X142750000Y-101750000D03*
%TD*%
D11*
%TO.C,J7*%
X122750000Y-35750000D03*
D12*
X122750000Y-38250000D03*
%TD*%
D11*
%TO.C,J12*%
X95250000Y-34000000D03*
D12*
X95250000Y-36500000D03*
%TD*%
D14*
%TO.C,J14*%
X142750000Y-65250000D03*
D12*
X142750000Y-62750000D03*
%TD*%
D11*
%TO.C,J10*%
X121750000Y-54000000D03*
D12*
X121750000Y-56500000D03*
%TD*%
D24*
%TO.C,TP2*%
X95250000Y-42250000D03*
%TD*%
D11*
%TO.C,J11*%
X85750000Y-34000000D03*
D12*
X85750000Y-36500000D03*
%TD*%
D24*
%TO.C,TP1*%
X126500000Y-48500000D03*
%TD*%
D15*
%TO.C,U9*%
X104000000Y-104750000D03*
X104000000Y-100750000D03*
X76500000Y-107750000D03*
X76500000Y-102750000D03*
X76500000Y-97750000D03*
%TD*%
D14*
%TO.C,J5*%
X142750000Y-91250000D03*
D12*
X142750000Y-88750000D03*
%TD*%
D13*
%TO.C,H4*%
X149000000Y-34500000D03*
%TD*%
D25*
%TO.C,J13*%
X139750000Y-52910000D03*
D24*
X139750000Y-47830000D03*
X139750000Y-42750000D03*
%TD*%
D26*
%TO.C,U2*%
X87849000Y-61670000D03*
X87849000Y-64210000D03*
X87849000Y-66750000D03*
X87849000Y-69290000D03*
D18*
X87849000Y-71830000D03*
%TD*%
D25*
%TO.C,J9*%
X81750000Y-44170000D03*
D24*
X81750000Y-49250000D03*
X81750000Y-54330000D03*
%TD*%
M02*
