%TF.GenerationSoftware,KiCad,Pcbnew,9.0.4*%
%TF.CreationDate,2025-10-04T23:37:01+05:30*%
%TF.ProjectId,FireSide,46697265-5369-4646-952e-6b696361645f,rev?*%
%TF.SameCoordinates,Original*%
%TF.FileFunction,Copper,L1,Top*%
%TF.FilePolarity,Positive*%
%FSLAX46Y46*%
G04 Gerber Fmt 4.6, Leading zero omitted, Abs format (unit mm)*
G04 Created by KiCad (PCBNEW 9.0.4) date 2025-10-04 23:37:01*
%MOMM*%
%LPD*%
G01*
G04 APERTURE LIST*
G04 Aperture macros list*
%AMRoundRect*
0 Rectangle with rounded corners*
0 $1 Rounding radius*
0 $2 $3 $4 $5 $6 $7 $8 $9 X,Y pos of 4 corners*
0 Add a 4 corners polygon primitive as box body*
4,1,4,$2,$3,$4,$5,$6,$7,$8,$9,$2,$3,0*
0 Add four circle primitives for the rounded corners*
1,1,$1+$1,$2,$3*
1,1,$1+$1,$4,$5*
1,1,$1+$1,$6,$7*
1,1,$1+$1,$8,$9*
0 Add four rect primitives between the rounded corners*
20,1,$1+$1,$2,$3,$4,$5,0*
20,1,$1+$1,$4,$5,$6,$7,0*
20,1,$1+$1,$6,$7,$8,$9,0*
20,1,$1+$1,$8,$9,$2,$3,0*%
G04 Aperture macros list end*
%TA.AperFunction,ComponentPad*%
%ADD10C,1.400000*%
%TD*%
%TA.AperFunction,SMDPad,CuDef*%
%ADD11RoundRect,0.250000X0.250000X0.475000X-0.250000X0.475000X-0.250000X-0.475000X0.250000X-0.475000X0*%
%TD*%
%TA.AperFunction,ComponentPad*%
%ADD12RoundRect,0.250000X-0.750000X0.600000X-0.750000X-0.600000X0.750000X-0.600000X0.750000X0.600000X0*%
%TD*%
%TA.AperFunction,ComponentPad*%
%ADD13O,2.000000X1.700000*%
%TD*%
%TA.AperFunction,ComponentPad*%
%ADD14C,7.500000*%
%TD*%
%TA.AperFunction,SMDPad,CuDef*%
%ADD15RoundRect,0.250000X0.475000X-0.250000X0.475000X0.250000X-0.475000X0.250000X-0.475000X-0.250000X0*%
%TD*%
%TA.AperFunction,ComponentPad*%
%ADD16RoundRect,0.250000X0.750000X-0.600000X0.750000X0.600000X-0.750000X0.600000X-0.750000X-0.600000X0*%
%TD*%
%TA.AperFunction,SMDPad,CuDef*%
%ADD17RoundRect,0.375000X-0.375000X0.625000X-0.375000X-0.625000X0.375000X-0.625000X0.375000X0.625000X0*%
%TD*%
%TA.AperFunction,SMDPad,CuDef*%
%ADD18RoundRect,0.500000X-1.400000X0.500000X-1.400000X-0.500000X1.400000X-0.500000X1.400000X0.500000X0*%
%TD*%
%TA.AperFunction,SMDPad,CuDef*%
%ADD19RoundRect,0.375000X0.625000X0.375000X-0.625000X0.375000X-0.625000X-0.375000X0.625000X-0.375000X0*%
%TD*%
%TA.AperFunction,SMDPad,CuDef*%
%ADD20RoundRect,0.500000X0.500000X1.400000X-0.500000X1.400000X-0.500000X-1.400000X0.500000X-1.400000X0*%
%TD*%
%TA.AperFunction,ComponentPad*%
%ADD21C,1.800000*%
%TD*%
%TA.AperFunction,ComponentPad*%
%ADD22RoundRect,0.250000X-0.600000X-0.750000X0.600000X-0.750000X0.600000X0.750000X-0.600000X0.750000X0*%
%TD*%
%TA.AperFunction,ComponentPad*%
%ADD23O,1.700000X2.000000*%
%TD*%
%TA.AperFunction,SMDPad,CuDef*%
%ADD24RoundRect,0.250000X-0.250000X-0.475000X0.250000X-0.475000X0.250000X0.475000X-0.250000X0.475000X0*%
%TD*%
%TA.AperFunction,SMDPad,CuDef*%
%ADD25RoundRect,0.250000X0.262500X0.450000X-0.262500X0.450000X-0.262500X-0.450000X0.262500X-0.450000X0*%
%TD*%
%TA.AperFunction,ComponentPad*%
%ADD26R,1.700000X1.700000*%
%TD*%
%TA.AperFunction,ComponentPad*%
%ADD27C,1.700000*%
%TD*%
%TA.AperFunction,ComponentPad*%
%ADD28C,6.000000*%
%TD*%
%TA.AperFunction,ComponentPad*%
%ADD29R,6.000000X6.000000*%
%TD*%
%TA.AperFunction,ComponentPad*%
%ADD30R,1.524000X1.524000*%
%TD*%
%TA.AperFunction,ComponentPad*%
%ADD31C,1.524000*%
%TD*%
%TA.AperFunction,ComponentPad*%
%ADD32C,3.000000*%
%TD*%
%TA.AperFunction,ComponentPad*%
%ADD33R,3.000000X3.000000*%
%TD*%
%TA.AperFunction,ComponentPad*%
%ADD34O,1.700000X1.700000*%
%TD*%
%TA.AperFunction,SMDPad,CuDef*%
%ADD35RoundRect,0.150000X0.150000X-0.587500X0.150000X0.587500X-0.150000X0.587500X-0.150000X-0.587500X0*%
%TD*%
%TA.AperFunction,ViaPad*%
%ADD36C,0.600000*%
%TD*%
%TA.AperFunction,Conductor*%
%ADD37C,0.800000*%
%TD*%
%TA.AperFunction,Conductor*%
%ADD38C,0.200000*%
%TD*%
G04 APERTURE END LIST*
D10*
%TO.P,R5,1*%
%TO.N,3.3V_STM*%
X147790000Y-96550000D03*
%TO.P,R5,2*%
%TO.N,A_THERM-2*%
X142710000Y-96550000D03*
%TD*%
D11*
%TO.P,C2,1*%
%TO.N,VI*%
X100950000Y-44750000D03*
%TO.P,C2,2*%
%TO.N,GND*%
X99050000Y-44750000D03*
%TD*%
D10*
%TO.P,R6,1*%
%TO.N,3.3V_STM*%
X147790000Y-83550000D03*
%TO.P,R6,2*%
%TO.N,A_THERM-3*%
X142710000Y-83550000D03*
%TD*%
D12*
%TO.P,J8,1,Pin_1*%
%TO.N,GND*%
X130500000Y-35750000D03*
D13*
%TO.P,J8,2,Pin_2*%
%TO.N,5V*%
X130500000Y-38250000D03*
%TD*%
D14*
%TO.P,H2,1,1*%
%TO.N,GND*%
X76500000Y-145600000D03*
%TD*%
%TO.P,H3,1,1*%
%TO.N,GND*%
X76500000Y-34500000D03*
%TD*%
D15*
%TO.P,C3,1*%
%TO.N,VI*%
X106950000Y-47700000D03*
%TO.P,C3,2*%
%TO.N,GND*%
X106950000Y-45800000D03*
%TD*%
D16*
%TO.P,J6,1,Pin_1*%
%TO.N,A_THERM-3*%
X142750000Y-78250000D03*
D13*
%TO.P,J6,2,Pin_2*%
%TO.N,GND*%
X142750000Y-75750000D03*
%TD*%
D17*
%TO.P,U4,1,GND*%
%TO.N,GND*%
X115350000Y-47700000D03*
%TO.P,U4,2,VO*%
%TO.N,5V*%
X113050000Y-47700000D03*
D18*
X113050000Y-54000000D03*
D17*
%TO.P,U4,3,VI*%
%TO.N,VI*%
X110750000Y-47700000D03*
%TD*%
D10*
%TO.P,R7,1*%
%TO.N,3.3V_STM*%
X147825396Y-70550000D03*
%TO.P,R7,2*%
%TO.N,A_THERM-4*%
X142745396Y-70550000D03*
%TD*%
D19*
%TO.P,U1,1,GND*%
%TO.N,GND*%
X100941768Y-52760400D03*
%TO.P,U1,2,VO*%
%TO.N,3.3V*%
X100941768Y-50460400D03*
D20*
X94641768Y-50460400D03*
D19*
%TO.P,U1,3,VI*%
%TO.N,VI*%
X100941768Y-48160400D03*
%TD*%
D21*
%TO.P,U6,1,GND*%
%TO.N,GND*%
X104000000Y-122500000D03*
%TO.P,U6,2,PWM*%
%TO.N,PWM_D4184-3*%
X104000000Y-118500000D03*
%TO.P,U6,3,-*%
%TO.N,unconnected-(U6---Pad3)*%
X76500000Y-125500000D03*
%TO.P,U6,4,LOAD*%
%TO.N,unconnected-(U6-LOAD-Pad4)*%
X76500000Y-120500000D03*
%TO.P,U6,5,+*%
%TO.N,unconnected-(U6-+-Pad5)*%
X76500000Y-115500000D03*
%TD*%
D22*
%TO.P,J2,1,Pin_1*%
%TO.N,A1*%
X142250000Y-115250000D03*
D23*
%TO.P,J2,2,Pin_2*%
%TO.N,GND*%
X144750000Y-115250000D03*
%TD*%
D22*
%TO.P,J1,1,Pin_1*%
%TO.N,A0*%
X142250000Y-123500000D03*
D23*
%TO.P,J1,2,Pin_2*%
%TO.N,GND*%
X144750000Y-123500000D03*
%TD*%
D24*
%TO.P,C6,1*%
%TO.N,5Vin*%
X129989181Y-70987836D03*
%TO.P,C6,2*%
%TO.N,GND*%
X131889181Y-70987836D03*
%TD*%
D25*
%TO.P,R4,1*%
%TO.N,Net-(Q1-C)*%
X129075000Y-54000000D03*
%TO.P,R4,2*%
%TO.N,Net-(J10-Pin_1)*%
X127250000Y-54000000D03*
%TD*%
D11*
%TO.P,C4,1*%
%TO.N,3.3V*%
X91791212Y-50463737D03*
%TO.P,C4,2*%
%TO.N,GND*%
X89891212Y-50463737D03*
%TD*%
D14*
%TO.P,H1,1,1*%
%TO.N,GND*%
X149000000Y-145600000D03*
%TD*%
D21*
%TO.P,U5,1,GND*%
%TO.N,GND*%
X104000000Y-87250000D03*
%TO.P,U5,2,PWM*%
%TO.N,PWM_D4184-1*%
X104000000Y-83250000D03*
%TO.P,U5,3,-*%
%TO.N,unconnected-(U5---Pad3)*%
X76500000Y-90250000D03*
%TO.P,U5,4,LOAD*%
%TO.N,unconnected-(U5-LOAD-Pad4)*%
X76500000Y-85250000D03*
%TO.P,U5,5,+*%
%TO.N,unconnected-(U5-+-Pad5)*%
X76500000Y-80250000D03*
%TD*%
D26*
%TO.P,J3,1,Pin_1*%
%TO.N,3.3V_STM*%
X130580000Y-124500000D03*
D27*
%TO.P,J3,2,Pin_2*%
%TO.N,GND*%
X128040000Y-124500000D03*
%TO.P,J3,3,Pin_3*%
%TO.N,SCK_SD*%
X125500000Y-124500000D03*
%TO.P,J3,4,Pin_4*%
%TO.N,MISO_SD*%
X122960000Y-124500000D03*
%TO.P,J3,5,Pin_5*%
%TO.N,MOSI_SD*%
X120420000Y-124500000D03*
%TO.P,J3,6,Pin_6*%
%TO.N,CS_SD*%
X117880000Y-124500000D03*
%TO.P,J3,7,Pin_7*%
%TO.N,unconnected-(J3-Pin_7-Pad7)*%
X115340000Y-124500000D03*
%TO.P,J3,8,Pin_8*%
%TO.N,unconnected-(J3-Pin_8-Pad8)*%
X112800000Y-124500000D03*
%TD*%
D28*
%TO.P,U8,N,NEG*%
%TO.N,GND*%
X111700000Y-38250000D03*
D29*
%TO.P,U8,P,POS*%
%TO.N,VI*%
X104500000Y-38250000D03*
%TD*%
D30*
%TO.P,U3,CN3_1,PA9/D1*%
%TO.N,RX_RYLR*%
X114750000Y-75500000D03*
D31*
%TO.P,U3,CN3_2,PA10/D0*%
%TO.N,TX_RYLR*%
X114750000Y-78040000D03*
%TO.P,U3,CN3_3,~{RST}_CN3*%
%TO.N,unconnected-(U3-~{RST}_CN3-PadCN3_3)*%
X114750000Y-80580000D03*
%TO.P,U3,CN3_4,GND_CN3*%
%TO.N,GND*%
X114750000Y-83120000D03*
%TO.P,U3,CN3_5,PA12/D2*%
%TO.N,unconnected-(U3-PA12{slash}D2-PadCN3_5)*%
X114750000Y-85660000D03*
%TO.P,U3,CN3_6,PB0/D3*%
%TO.N,PWM_D4184-1*%
X114750000Y-88200000D03*
%TO.P,U3,CN3_7,PB7/D4*%
%TO.N,unconnected-(U3-PB7{slash}D4-PadCN3_7)*%
X114750000Y-90740000D03*
%TO.P,U3,CN3_8,PB6/D5*%
%TO.N,STATUS_PIN*%
X114750000Y-93280000D03*
%TO.P,U3,CN3_9,PB1/D6*%
%TO.N,PWM_D4184-2*%
X114750000Y-95820000D03*
%TO.P,U3,CN3_10,PC14/D7*%
%TO.N,unconnected-(U3-PC14{slash}D7-PadCN3_10)*%
X114750000Y-98360000D03*
%TO.P,U3,CN3_11,PC15/D8*%
%TO.N,unconnected-(U3-PC15{slash}D8-PadCN3_11)*%
X114750000Y-100900000D03*
%TO.P,U3,CN3_12,PA8/D9*%
%TO.N,PWM_D4184-3*%
X114750000Y-103440000D03*
%TO.P,U3,CN3_13,PA11/D10*%
%TO.N,CS_SD*%
X114750000Y-105980000D03*
%TO.P,U3,CN3_14,PB5/D11*%
%TO.N,MOSI_SD*%
X114750000Y-108520000D03*
%TO.P,U3,CN3_15,PB4/D12*%
%TO.N,MISO_SD*%
X114750000Y-111060000D03*
%TO.P,U3,CN4_1,VIN*%
%TO.N,5Vin*%
X129990000Y-75500000D03*
%TO.P,U3,CN4_2,GND_CN4*%
%TO.N,unconnected-(U3-GND_CN4-PadCN4_2)*%
X129990000Y-78040000D03*
%TO.P,U3,CN4_3,~{RST}_CN4*%
%TO.N,unconnected-(U3-~{RST}_CN4-PadCN4_3)*%
X129990000Y-80580000D03*
%TO.P,U3,CN4_4,+5V*%
%TO.N,unconnected-(U3-+5V-PadCN4_4)*%
X129990000Y-83120000D03*
%TO.P,U3,CN4_5,PA2/A7*%
%TO.N,unconnected-(U3-PA2{slash}A7-PadCN4_5)*%
X129990000Y-85660000D03*
%TO.P,U3,CN4_6,PA7/A6*%
%TO.N,unconnected-(U3-PA7{slash}A6-PadCN4_6)*%
X129990000Y-88200000D03*
%TO.P,U3,CN4_7,PA6/A5*%
%TO.N,A_THERM-4*%
X129990000Y-90740000D03*
%TO.P,U3,CN4_8,PA5/A4*%
%TO.N,A_THERM-3*%
X129990000Y-93280000D03*
%TO.P,U3,CN4_9,PA4/A3*%
%TO.N,A_THERM-2*%
X129990000Y-95820000D03*
%TO.P,U3,CN4_10,PA3/A2*%
%TO.N,A_THERM-1*%
X129990000Y-98360000D03*
%TO.P,U3,CN4_11,PA1/A1*%
%TO.N,A1*%
X129990000Y-100900000D03*
%TO.P,U3,CN4_12,PA0/A0*%
%TO.N,A0*%
X129990000Y-103440000D03*
%TO.P,U3,CN4_13,AREF*%
%TO.N,unconnected-(U3-AREF-PadCN4_13)*%
X129990000Y-105980000D03*
%TO.P,U3,CN4_14,+3V3*%
%TO.N,3.3V_STM*%
X129990000Y-108520000D03*
%TO.P,U3,CN4_15,PB3/D13*%
%TO.N,SCK_SD*%
X129990000Y-111060000D03*
%TD*%
D10*
%TO.P,R2,1*%
%TO.N,3.3V_STM*%
X147790000Y-109550000D03*
%TO.P,R2,2*%
%TO.N,A_THERM-1*%
X142710000Y-109550000D03*
%TD*%
D11*
%TO.P,C1,1*%
%TO.N,5V*%
X113046508Y-44460665D03*
%TO.P,C1,2*%
%TO.N,GND*%
X111146508Y-44460665D03*
%TD*%
D16*
%TO.P,J4,1,Pin_1*%
%TO.N,A_THERM-1*%
X142750000Y-104250000D03*
D13*
%TO.P,J4,2,Pin_2*%
%TO.N,GND*%
X142750000Y-101750000D03*
%TD*%
D12*
%TO.P,J7,1,Pin_1*%
%TO.N,GND*%
X122750000Y-35750000D03*
D13*
%TO.P,J7,2,Pin_2*%
%TO.N,5V*%
X122750000Y-38250000D03*
%TD*%
D12*
%TO.P,J12,1,Pin_1*%
%TO.N,GND*%
X95250000Y-34000000D03*
D13*
%TO.P,J12,2,Pin_2*%
%TO.N,3.3V*%
X95250000Y-36500000D03*
%TD*%
D16*
%TO.P,J14,1,Pin_1*%
%TO.N,A_THERM-4*%
X142750000Y-65250000D03*
D13*
%TO.P,J14,2,Pin_2*%
%TO.N,GND*%
X142750000Y-62750000D03*
%TD*%
D24*
%TO.P,C5,1*%
%TO.N,5Vin*%
X129993152Y-67558421D03*
%TO.P,C5,2*%
%TO.N,GND*%
X131893152Y-67558421D03*
%TD*%
D12*
%TO.P,J10,1,Pin_1*%
%TO.N,Net-(J10-Pin_1)*%
X121750000Y-54000000D03*
D13*
%TO.P,J10,2,Pin_2*%
%TO.N,VI*%
X121750000Y-56500000D03*
%TD*%
D32*
%TO.P,TP2,1,1*%
%TO.N,3.3V*%
X95250000Y-42250000D03*
%TD*%
D12*
%TO.P,J11,1,Pin_1*%
%TO.N,GND*%
X85750000Y-34000000D03*
D13*
%TO.P,J11,2,Pin_2*%
%TO.N,3.3V*%
X85750000Y-36500000D03*
%TD*%
D32*
%TO.P,TP1,1,1*%
%TO.N,5V*%
X126500000Y-48500000D03*
%TD*%
D21*
%TO.P,U9,1,GND*%
%TO.N,GND*%
X104000000Y-104750000D03*
%TO.P,U9,2,PWM*%
%TO.N,PWM_D4184-2*%
X104000000Y-100750000D03*
%TO.P,U9,3,-*%
%TO.N,unconnected-(U9---Pad3)*%
X76500000Y-107750000D03*
%TO.P,U9,4,LOAD*%
%TO.N,unconnected-(U9-LOAD-Pad4)*%
X76500000Y-102750000D03*
%TO.P,U9,5,+*%
%TO.N,unconnected-(U9-+-Pad5)*%
X76500000Y-97750000D03*
%TD*%
D16*
%TO.P,J5,1,Pin_1*%
%TO.N,A_THERM-2*%
X142750000Y-91250000D03*
D13*
%TO.P,J5,2,Pin_2*%
%TO.N,GND*%
X142750000Y-88750000D03*
%TD*%
D14*
%TO.P,H4,1,1*%
%TO.N,GND*%
X149000000Y-34500000D03*
%TD*%
D33*
%TO.P,J13,1,Pin_1*%
%TO.N,5Vin*%
X139750000Y-52910000D03*
D32*
%TO.P,J13,2,Pin_2*%
%TO.N,GND*%
X139750000Y-47830000D03*
%TO.P,J13,3,Pin_3*%
%TO.N,5V*%
X139750000Y-42750000D03*
%TD*%
D34*
%TO.P,U2,1,VDD*%
%TO.N,3.3Vin*%
X87849000Y-61670000D03*
%TO.P,U2,2,RST*%
%TO.N,unconnected-(U2-RST-Pad2)*%
X87849000Y-64210000D03*
%TO.P,U2,3,RXD*%
%TO.N,RX_RYLR*%
X87849000Y-66750000D03*
%TO.P,U2,4,TXD*%
%TO.N,TX_RYLR*%
X87849000Y-69290000D03*
D26*
%TO.P,U2,5,GND*%
%TO.N,GND*%
X87849000Y-71830000D03*
%TD*%
D33*
%TO.P,J9,1,Pin_1*%
%TO.N,3.3V*%
X81750000Y-44170000D03*
D32*
%TO.P,J9,2,Pin_2*%
%TO.N,GND*%
X81750000Y-49250000D03*
%TO.P,J9,3,Pin_3*%
%TO.N,3.3Vin*%
X81750000Y-54330000D03*
%TD*%
D35*
%TO.P,Q1,1,B*%
%TO.N,STATUS_PIN*%
X128134612Y-59850250D03*
%TO.P,Q1,2,E*%
%TO.N,GND*%
X130034612Y-59850250D03*
%TO.P,Q1,3,C*%
%TO.N,Net-(Q1-C)*%
X129084612Y-57975250D03*
%TD*%
D36*
%TO.N,GND*%
X131100250Y-59850250D03*
X109539335Y-44460665D03*
X106950000Y-44250000D03*
X88286263Y-50463737D03*
X133250000Y-71000000D03*
X97500000Y-44750000D03*
X100941768Y-54941768D03*
X117367769Y-47700000D03*
X133250000Y-67558421D03*
%TD*%
D37*
%TO.N,GND*%
X115350000Y-47700000D02*
X117367769Y-47700000D01*
X89891212Y-50463737D02*
X88286263Y-50463737D01*
X106950000Y-45800000D02*
X106950000Y-44250000D01*
X130034612Y-59850250D02*
X131100250Y-59850250D01*
X131893152Y-67558421D02*
X133250000Y-67558421D01*
X99050000Y-44750000D02*
X97500000Y-44750000D01*
X111146508Y-44460665D02*
X109539335Y-44460665D01*
X131889181Y-70987836D02*
X133237836Y-70987836D01*
X100941768Y-52760400D02*
X100941768Y-54941768D01*
%TO.N,5V*%
X130500000Y-38250000D02*
X130500000Y-44210665D01*
X122750000Y-43500000D02*
X122750000Y-44460665D01*
X113050000Y-44464157D02*
X113046508Y-44460665D01*
X122250000Y-44460665D02*
X113046508Y-44460665D01*
X127039335Y-44460665D02*
X126500000Y-45000000D01*
X122750000Y-44460665D02*
X122250000Y-44460665D01*
X122750000Y-43960665D02*
X122250000Y-44460665D01*
X122750000Y-44460665D02*
X125960665Y-44460665D01*
X122750000Y-43500000D02*
X122750000Y-43960665D01*
X113050000Y-47700000D02*
X113050000Y-44464157D01*
X127250000Y-44460665D02*
X130250000Y-44460665D01*
X127250000Y-44460665D02*
X127039335Y-44460665D01*
X139750000Y-42750000D02*
X136000000Y-42750000D01*
X123250000Y-44460665D02*
X127250000Y-44460665D01*
X122750000Y-43960665D02*
X123250000Y-44460665D01*
X122750000Y-38250000D02*
X122750000Y-43500000D01*
X130500000Y-44210665D02*
X130250000Y-44460665D01*
X134289335Y-44460665D02*
X130250000Y-44460665D01*
X125960665Y-44460665D02*
X126500000Y-45000000D01*
X136000000Y-42750000D02*
X134289335Y-44460665D01*
X126500000Y-45000000D02*
X126500000Y-48500000D01*
%TO.N,VI*%
X104500000Y-47200000D02*
X105000000Y-47700000D01*
X104500000Y-44250000D02*
X104500000Y-44750000D01*
X104000000Y-44750000D02*
X104500000Y-44750000D01*
X104500000Y-47000000D02*
X104500000Y-48250000D01*
X105000000Y-47750000D02*
X104500000Y-48250000D01*
X104500000Y-44750000D02*
X104500000Y-38250000D01*
X106950000Y-47700000D02*
X105000000Y-47700000D01*
X100950000Y-48152168D02*
X100941768Y-48160400D01*
X100950000Y-44750000D02*
X100950000Y-48152168D01*
X104000000Y-44750000D02*
X104500000Y-45250000D01*
X100950000Y-44750000D02*
X104000000Y-44750000D01*
X104500000Y-44250000D02*
X104000000Y-44750000D01*
X107000000Y-56500000D02*
X121750000Y-56500000D01*
X104500000Y-48250000D02*
X104500000Y-54000000D01*
X105000000Y-47700000D02*
X104500000Y-47700000D01*
X104500000Y-47000000D02*
X104500000Y-47200000D01*
X104500000Y-45250000D02*
X104500000Y-47000000D01*
X104500000Y-54000000D02*
X107000000Y-56500000D01*
X105000000Y-47700000D02*
X105000000Y-47750000D01*
X106950000Y-47700000D02*
X110750000Y-47700000D01*
X104500000Y-44750000D02*
X104500000Y-45250000D01*
D38*
%TO.N,A_THERM-1*%
X139750000Y-104250000D02*
X133860000Y-98360000D01*
X133860000Y-98360000D02*
X129990000Y-98360000D01*
X142750000Y-104250000D02*
X139750000Y-104250000D01*
X142750000Y-104250000D02*
X142750000Y-109510000D01*
X142750000Y-109510000D02*
X142710000Y-109550000D01*
%TO.N,A_THERM-2*%
X138750000Y-91250000D02*
X134180000Y-95820000D01*
X134180000Y-95820000D02*
X129990000Y-95820000D01*
X142750000Y-91250000D02*
X142750000Y-96510000D01*
X142750000Y-96510000D02*
X142710000Y-96550000D01*
X142750000Y-91250000D02*
X138750000Y-91250000D01*
%TO.N,A_THERM-3*%
X133720000Y-93280000D02*
X129990000Y-93280000D01*
X142750000Y-83510000D02*
X142710000Y-83550000D01*
X139250000Y-78250000D02*
X137250000Y-80250000D01*
X137250000Y-89750000D02*
X133720000Y-93280000D01*
X142750000Y-78250000D02*
X139250000Y-78250000D01*
X137250000Y-80250000D02*
X137250000Y-89750000D01*
X142750000Y-78250000D02*
X142750000Y-83510000D01*
D37*
%TO.N,3.3V*%
X92000000Y-36500000D02*
X95250000Y-36500000D01*
X91291212Y-36500000D02*
X91791212Y-37000000D01*
X91000000Y-36500000D02*
X91291212Y-36500000D01*
X92291212Y-42250000D02*
X91791212Y-42750000D01*
X91000000Y-36500000D02*
X92000000Y-36500000D01*
X92291212Y-36500000D02*
X91791212Y-37000000D01*
X95250000Y-42250000D02*
X92291212Y-42250000D01*
X91791212Y-50463737D02*
X94638431Y-50463737D01*
X91791212Y-36708788D02*
X92000000Y-36500000D01*
X91791212Y-45000000D02*
X91791212Y-44250000D01*
X90750000Y-44170000D02*
X91121212Y-44170000D01*
X91000000Y-36500000D02*
X85750000Y-36500000D01*
X91791212Y-42750000D02*
X91791212Y-41750000D01*
X91791212Y-41750000D02*
X91791212Y-37000000D01*
X92291212Y-42250000D02*
X91791212Y-41750000D01*
X92000000Y-36500000D02*
X92500000Y-36500000D01*
X91121212Y-44170000D02*
X91791212Y-43500000D01*
X91791212Y-43500000D02*
X91791212Y-42750000D01*
X81750000Y-44170000D02*
X90750000Y-44170000D01*
X91711212Y-44170000D02*
X91791212Y-44250000D01*
X90750000Y-44170000D02*
X90961212Y-44170000D01*
X91791212Y-50463737D02*
X91791212Y-45000000D01*
X90750000Y-44170000D02*
X91711212Y-44170000D01*
X91791212Y-37000000D02*
X91791212Y-36708788D01*
X90961212Y-44170000D02*
X91791212Y-45000000D01*
X94638431Y-50463737D02*
X94641768Y-50460400D01*
X92500000Y-36500000D02*
X92291212Y-36500000D01*
X91791212Y-44250000D02*
X91791212Y-43500000D01*
D38*
%TO.N,CS_SD*%
X112750000Y-106000000D02*
X113000000Y-106000000D01*
X110200000Y-108550000D02*
X112750000Y-106000000D01*
X113000000Y-106000000D02*
X113020000Y-105980000D01*
X117880000Y-122080000D02*
X110200000Y-114400000D01*
X117880000Y-124500000D02*
X117880000Y-122080000D01*
X113020000Y-105980000D02*
X114750000Y-105980000D01*
X110200000Y-114400000D02*
X110200000Y-108550000D01*
%TO.N,PWM_D4184-2*%
X114750000Y-95820000D02*
X105430000Y-95820000D01*
X104000000Y-97250000D02*
X104000000Y-100750000D01*
X104016540Y-100733460D02*
X104000000Y-100750000D01*
X105430000Y-95820000D02*
X104000000Y-97250000D01*
%TO.N,RX_RYLR*%
X114750000Y-75500000D02*
X102250000Y-75500000D01*
X102250000Y-75500000D02*
X93500000Y-66750000D01*
X93500000Y-66750000D02*
X87749000Y-66750000D01*
%TO.N,TX_RYLR*%
X102540000Y-78040000D02*
X114750000Y-78040000D01*
X93790000Y-69290000D02*
X102540000Y-78040000D01*
X87849000Y-69290000D02*
X93790000Y-69290000D01*
%TO.N,MOSI_SD*%
X120420000Y-122018274D02*
X120420000Y-124500000D01*
X112000000Y-109200000D02*
X112000000Y-113598274D01*
X112680000Y-108520000D02*
X112000000Y-109200000D01*
X112000000Y-113598274D02*
X120420000Y-122018274D01*
X114750000Y-108520000D02*
X112680000Y-108520000D01*
%TO.N,SCK_SD*%
X125500000Y-112000000D02*
X125500000Y-124500000D01*
X126440000Y-111060000D02*
X125500000Y-112000000D01*
X129990000Y-111060000D02*
X126440000Y-111060000D01*
%TO.N,MISO_SD*%
X121810000Y-111060000D02*
X122960000Y-112210000D01*
X114750000Y-111060000D02*
X121810000Y-111060000D01*
X122960000Y-112210000D02*
X122960000Y-124500000D01*
%TO.N,PWM_D4184-1*%
X104070000Y-83180000D02*
X104000000Y-83250000D01*
X111450000Y-88200000D02*
X106500000Y-83250000D01*
X106500000Y-83250000D02*
X104000000Y-83250000D01*
X114750000Y-88200000D02*
X111450000Y-88200000D01*
%TO.N,PWM_D4184-3*%
X114750000Y-103440000D02*
X111060000Y-103440000D01*
X111060000Y-103440000D02*
X104000000Y-110500000D01*
X104000000Y-110500000D02*
X104000000Y-118500000D01*
D37*
%TO.N,5Vin*%
X134840000Y-52910000D02*
X139750000Y-52910000D01*
X129993152Y-70983865D02*
X129989181Y-70987836D01*
X129993152Y-63756848D02*
X133000000Y-60750000D01*
X129993152Y-67558421D02*
X129993152Y-63756848D01*
X129993152Y-67558421D02*
X129993152Y-70983865D01*
X129989181Y-75499181D02*
X129990000Y-75500000D01*
X133000000Y-60750000D02*
X133000000Y-54750000D01*
X129989181Y-70987836D02*
X129989181Y-75499181D01*
X133000000Y-54750000D02*
X134840000Y-52910000D01*
D38*
%TO.N,A_THERM-4*%
X135000000Y-88750000D02*
X133010000Y-90740000D01*
X142750000Y-70545396D02*
X142745396Y-70550000D01*
X142750000Y-65250000D02*
X137250000Y-65250000D01*
X137250000Y-65250000D02*
X135000000Y-67500000D01*
X142750000Y-65250000D02*
X142750000Y-70545396D01*
X133010000Y-90740000D02*
X129990000Y-90740000D01*
X135000000Y-67500000D02*
X135000000Y-88750000D01*
D37*
%TO.N,Net-(J10-Pin_1)*%
X121750000Y-54000000D02*
X127250000Y-54000000D01*
%TO.N,3.3V_STM*%
X150750000Y-96750000D02*
X150750000Y-95750000D01*
X134500000Y-129250000D02*
X136750000Y-131500000D01*
X150750000Y-129750000D02*
X150750000Y-110250000D01*
X150000000Y-96550000D02*
X150550000Y-96550000D01*
X150750000Y-83750000D02*
X150750000Y-82750000D01*
X150000000Y-96550000D02*
X150000000Y-96500000D01*
X150750000Y-95750000D02*
X150750000Y-84500000D01*
X150550000Y-96550000D02*
X150750000Y-96750000D01*
X147790000Y-109550000D02*
X150000000Y-109550000D01*
X150750000Y-71750000D02*
X149550000Y-70550000D01*
X129990000Y-108520000D02*
X133020000Y-108520000D01*
X150750000Y-109500000D02*
X150750000Y-108750000D01*
X134500000Y-110000000D02*
X134500000Y-123800000D01*
X150000000Y-109550000D02*
X150700000Y-109550000D01*
X150000000Y-83550000D02*
X150000000Y-83750000D01*
X147790000Y-83550000D02*
X150000000Y-83550000D01*
X150750000Y-110250000D02*
X150750000Y-109500000D01*
X147790000Y-96550000D02*
X150000000Y-96550000D01*
X149550000Y-70550000D02*
X147825396Y-70550000D01*
X150000000Y-96550000D02*
X150000000Y-96750000D01*
X150700000Y-109550000D02*
X150750000Y-109500000D01*
X150750000Y-82800000D02*
X150000000Y-83550000D01*
X150750000Y-84500000D02*
X150750000Y-83750000D01*
X150000000Y-96750000D02*
X150750000Y-97500000D01*
X149000000Y-131500000D02*
X150750000Y-129750000D01*
X150750000Y-108800000D02*
X150000000Y-109550000D01*
X150050000Y-109550000D02*
X150750000Y-110250000D01*
X150750000Y-108750000D02*
X150750000Y-108800000D01*
X150000000Y-109550000D02*
X150050000Y-109550000D01*
X150750000Y-82750000D02*
X150750000Y-71750000D01*
X150000000Y-96500000D02*
X150750000Y-95750000D01*
X133800000Y-124500000D02*
X134500000Y-125200000D01*
X150000000Y-83550000D02*
X150550000Y-83550000D01*
X150750000Y-108750000D02*
X150750000Y-97500000D01*
X134500000Y-125200000D02*
X134500000Y-129250000D01*
X134500000Y-123800000D02*
X134500000Y-124400000D01*
X150550000Y-83550000D02*
X150750000Y-83750000D01*
X150750000Y-97500000D02*
X150750000Y-96750000D01*
X134500000Y-124400000D02*
X134500000Y-125200000D01*
X150000000Y-83750000D02*
X150750000Y-84500000D01*
X133020000Y-108520000D02*
X134500000Y-110000000D01*
X134400000Y-124500000D02*
X134500000Y-124400000D01*
X150750000Y-82750000D02*
X150750000Y-82800000D01*
X133800000Y-124500000D02*
X134400000Y-124500000D01*
X130580000Y-124500000D02*
X133800000Y-124500000D01*
X134500000Y-123800000D02*
X133800000Y-124500000D01*
X136750000Y-131500000D02*
X149000000Y-131500000D01*
%TO.N,3.3Vin*%
X85170000Y-61670000D02*
X87749000Y-61670000D01*
X81750000Y-58250000D02*
X85170000Y-61670000D01*
X81750000Y-54330000D02*
X81750000Y-58250000D01*
%TO.N,Net-(Q1-C)*%
X129075000Y-57965638D02*
X129084612Y-57975250D01*
X129075000Y-54000000D02*
X129075000Y-57965638D01*
D38*
%TO.N,STATUS_PIN*%
X128134612Y-65115388D02*
X126000000Y-67250000D01*
X128134612Y-59850250D02*
X128134612Y-65115388D01*
X117220000Y-93280000D02*
X114750000Y-93280000D01*
X126000000Y-67250000D02*
X126000000Y-84500000D01*
X126000000Y-84500000D02*
X117220000Y-93280000D01*
%TO.N,A1*%
X140500000Y-115250000D02*
X138250000Y-113000000D01*
X138250000Y-106000000D02*
X133150000Y-100900000D01*
X142250000Y-115250000D02*
X140500000Y-115250000D01*
X133150000Y-100900000D02*
X129990000Y-100900000D01*
X138250000Y-113000000D02*
X138250000Y-106000000D01*
%TO.N,A0*%
X132690000Y-103440000D02*
X129990000Y-103440000D01*
X142250000Y-123500000D02*
X139250000Y-123500000D01*
X139250000Y-123500000D02*
X136250000Y-120500000D01*
X136250000Y-120500000D02*
X136250000Y-107000000D01*
X136250000Y-107000000D02*
X132690000Y-103440000D01*
%TD*%
%TA.AperFunction,Conductor*%
%TO.N,5V*%
G36*
X138652417Y-41755062D02*
G01*
X139741424Y-42741328D01*
X139745256Y-42749421D01*
X139742242Y-42757854D01*
X139741424Y-42758672D01*
X138652417Y-43744937D01*
X138643984Y-43747951D01*
X138639909Y-43747000D01*
X137269879Y-43153054D01*
X137263652Y-43146619D01*
X137262833Y-43142319D01*
X137262833Y-42357680D01*
X137266260Y-42349407D01*
X137269877Y-42346946D01*
X138639910Y-41752998D01*
X138648863Y-41752853D01*
X138652417Y-41755062D01*
G37*
%TD.AperFunction*%
%TD*%
%TA.AperFunction,Conductor*%
%TO.N,A_THERM-4*%
G36*
X141830254Y-64479110D02*
G01*
X142740285Y-65241029D01*
X142744428Y-65248968D01*
X142741745Y-65257511D01*
X142740285Y-65258971D01*
X141830254Y-66020889D01*
X141821711Y-66023572D01*
X141815826Y-66021354D01*
X140904783Y-65353506D01*
X140900136Y-65345851D01*
X140900000Y-65344070D01*
X140900000Y-65155929D01*
X140903427Y-65147656D01*
X140904776Y-65146498D01*
X141815826Y-64478644D01*
X141824524Y-64476517D01*
X141830254Y-64479110D01*
G37*
%TD.AperFunction*%
%TD*%
%TA.AperFunction,Conductor*%
%TO.N,3.3V_STM*%
G36*
X147938255Y-82866130D02*
G01*
X149167464Y-83147917D01*
X149174763Y-83153106D01*
X149176550Y-83159321D01*
X149176550Y-83940678D01*
X149173123Y-83948951D01*
X149167464Y-83952082D01*
X147938286Y-84233862D01*
X147929457Y-84232371D01*
X147924268Y-84225072D01*
X147924200Y-84224757D01*
X147789460Y-83552295D01*
X147789460Y-83547704D01*
X147924200Y-82875241D01*
X147929185Y-82867804D01*
X147937971Y-82866069D01*
X147938255Y-82866130D01*
G37*
%TD.AperFunction*%
%TD*%
%TA.AperFunction,Conductor*%
%TO.N,STATUS_PIN*%
G36*
X115182527Y-92650931D02*
G01*
X116252817Y-93176786D01*
X116258732Y-93183510D01*
X116259358Y-93187287D01*
X116259358Y-93372712D01*
X116255931Y-93380985D01*
X116252817Y-93383213D01*
X115182530Y-93909067D01*
X115173594Y-93909640D01*
X115167650Y-93905077D01*
X114753359Y-93286509D01*
X114751603Y-93277730D01*
X114753358Y-93273492D01*
X115167651Y-92654921D01*
X115175101Y-92649955D01*
X115182527Y-92650931D01*
G37*
%TD.AperFunction*%
%TD*%
%TA.AperFunction,Conductor*%
%TO.N,PWM_D4184-2*%
G36*
X104101077Y-98970720D02*
G01*
X104103246Y-98973715D01*
X104743652Y-100240747D01*
X104744326Y-100249677D01*
X104739719Y-100255747D01*
X104006509Y-100746642D01*
X103997728Y-100748397D01*
X103993491Y-100746642D01*
X103260280Y-100255747D01*
X103255312Y-100248297D01*
X103256347Y-100240747D01*
X103896754Y-98973715D01*
X103903544Y-98967877D01*
X103907196Y-98967293D01*
X104092804Y-98967293D01*
X104101077Y-98970720D01*
G37*
%TD.AperFunction*%
%TD*%
%TA.AperFunction,Conductor*%
%TO.N,5V*%
G36*
X130505748Y-38252246D02*
G01*
X131341332Y-38724089D01*
X131346851Y-38731141D01*
X131346557Y-38738323D01*
X130902821Y-39942346D01*
X130896745Y-39948924D01*
X130891843Y-39950000D01*
X130108157Y-39950000D01*
X130099884Y-39946573D01*
X130097179Y-39942346D01*
X129653442Y-38738323D01*
X129653796Y-38729375D01*
X129658665Y-38724090D01*
X130494248Y-38252247D01*
X130503136Y-38251164D01*
X130505748Y-38252246D01*
G37*
%TD.AperFunction*%
%TD*%
%TA.AperFunction,Conductor*%
%TO.N,RX_RYLR*%
G36*
X88330457Y-66047869D02*
G01*
X89526207Y-66646764D01*
X89532069Y-66653533D01*
X89532667Y-66657225D01*
X89532667Y-66842774D01*
X89529240Y-66851047D01*
X89526207Y-66853235D01*
X88330458Y-67452129D01*
X88321526Y-67452770D01*
X88315496Y-67448178D01*
X87852359Y-66756510D01*
X87850604Y-66747729D01*
X87852359Y-66743490D01*
X88315497Y-66051820D01*
X88322947Y-66046854D01*
X88330457Y-66047869D01*
G37*
%TD.AperFunction*%
%TD*%
%TA.AperFunction,Conductor*%
%TO.N,PWM_D4184-3*%
G36*
X104101077Y-116720720D02*
G01*
X104103246Y-116723715D01*
X104743652Y-117990747D01*
X104744326Y-117999677D01*
X104739719Y-118005747D01*
X104006509Y-118496642D01*
X103997728Y-118498397D01*
X103993491Y-118496642D01*
X103260280Y-118005747D01*
X103255312Y-117998297D01*
X103256347Y-117990747D01*
X103896754Y-116723715D01*
X103903544Y-116717877D01*
X103907196Y-116717293D01*
X104092804Y-116717293D01*
X104101077Y-116720720D01*
G37*
%TD.AperFunction*%
%TD*%
%TA.AperFunction,Conductor*%
%TO.N,PWM_D4184-2*%
G36*
X114332349Y-95194922D02*
G01*
X114746639Y-95813489D01*
X114748396Y-95822270D01*
X114746639Y-95826511D01*
X114332349Y-96445077D01*
X114324898Y-96450044D01*
X114317469Y-96449067D01*
X114029853Y-96307755D01*
X113247183Y-95923213D01*
X113241268Y-95916489D01*
X113240642Y-95912712D01*
X113240642Y-95727287D01*
X113244069Y-95719014D01*
X113247181Y-95716786D01*
X114317471Y-95190931D01*
X114326405Y-95190359D01*
X114332349Y-95194922D01*
G37*
%TD.AperFunction*%
%TD*%
%TA.AperFunction,Conductor*%
%TO.N,A_THERM-3*%
G36*
X142758167Y-78256966D02*
G01*
X143592132Y-79070403D01*
X143595662Y-79078632D01*
X143592833Y-79086408D01*
X142853501Y-79945930D01*
X142845508Y-79949967D01*
X142844631Y-79950000D01*
X142655369Y-79950000D01*
X142647096Y-79946573D01*
X142646499Y-79945930D01*
X141907166Y-79086408D01*
X141904369Y-79077901D01*
X141907865Y-79070405D01*
X142741832Y-78256966D01*
X142750146Y-78253644D01*
X142758167Y-78256966D01*
G37*
%TD.AperFunction*%
%TD*%
%TA.AperFunction,Conductor*%
%TO.N,VI*%
G36*
X104510464Y-38280777D02*
G01*
X104511100Y-38282311D01*
X105498298Y-41244894D01*
X105497662Y-41253826D01*
X105497231Y-41254613D01*
X104903408Y-42244320D01*
X104896213Y-42249651D01*
X104893375Y-42250000D01*
X104106625Y-42250000D01*
X104098352Y-42246573D01*
X104096592Y-42244320D01*
X103502768Y-41254613D01*
X103501450Y-41245755D01*
X103501701Y-41244894D01*
X104488900Y-38282311D01*
X104494767Y-38275546D01*
X104503699Y-38274910D01*
X104510464Y-38280777D01*
G37*
%TD.AperFunction*%
%TD*%
%TA.AperFunction,Conductor*%
%TO.N,3.3Vin*%
G36*
X81757854Y-54337757D02*
G01*
X81758672Y-54338575D01*
X82744937Y-55427582D01*
X82747951Y-55436015D01*
X82747000Y-55440090D01*
X82153055Y-56810121D01*
X82146620Y-56816348D01*
X82142320Y-56817167D01*
X81357680Y-56817167D01*
X81349407Y-56813740D01*
X81346945Y-56810121D01*
X80752999Y-55440090D01*
X80752853Y-55431136D01*
X80755060Y-55427584D01*
X81741328Y-54338574D01*
X81749421Y-54334743D01*
X81757854Y-54337757D01*
G37*
%TD.AperFunction*%
%TD*%
%TA.AperFunction,Conductor*%
%TO.N,3.3V_STM*%
G36*
X130150592Y-107775688D02*
G01*
X131490552Y-108117752D01*
X131497720Y-108123118D01*
X131499358Y-108129088D01*
X131499358Y-108910911D01*
X131495931Y-108919184D01*
X131490552Y-108922247D01*
X130150604Y-109264308D01*
X130141740Y-109263034D01*
X130136374Y-109255866D01*
X130136238Y-109255269D01*
X130069100Y-108920000D01*
X129989459Y-108522292D01*
X129989459Y-108517707D01*
X130136238Y-107784729D01*
X130141222Y-107777290D01*
X130150007Y-107775555D01*
X130150592Y-107775688D01*
G37*
%TD.AperFunction*%
%TD*%
%TA.AperFunction,Conductor*%
%TO.N,3.3V*%
G36*
X83256346Y-43173808D02*
G01*
X84244320Y-43766592D01*
X84249651Y-43773787D01*
X84250000Y-43776625D01*
X84250000Y-44563375D01*
X84246573Y-44571648D01*
X84244320Y-44573408D01*
X83256346Y-45166191D01*
X83247488Y-45167509D01*
X83243839Y-45165895D01*
X81763615Y-44179737D01*
X81758630Y-44172298D01*
X81760365Y-44163513D01*
X81763615Y-44160263D01*
X83243840Y-43174103D01*
X83252624Y-43172369D01*
X83256346Y-43173808D01*
G37*
%TD.AperFunction*%
%TD*%
%TA.AperFunction,Conductor*%
%TO.N,A_THERM-3*%
G36*
X142850660Y-82166877D02*
G01*
X142853084Y-82170410D01*
X143288046Y-83152112D01*
X143288264Y-83161065D01*
X143283861Y-83166572D01*
X142716512Y-83546637D01*
X142707731Y-83548395D01*
X142703488Y-83546637D01*
X142136692Y-83166943D01*
X142131726Y-83159492D01*
X142132836Y-83151802D01*
X142646716Y-82169725D01*
X142653588Y-82163984D01*
X142657083Y-82163450D01*
X142842387Y-82163450D01*
X142850660Y-82166877D01*
G37*
%TD.AperFunction*%
%TD*%
%TA.AperFunction,Conductor*%
%TO.N,MISO_SD*%
G36*
X115182527Y-110430931D02*
G01*
X116252817Y-110956786D01*
X116258732Y-110963510D01*
X116259358Y-110967287D01*
X116259358Y-111152712D01*
X116255931Y-111160985D01*
X116252817Y-111163213D01*
X115182530Y-111689067D01*
X115173594Y-111689640D01*
X115167650Y-111685077D01*
X114753359Y-111066509D01*
X114751603Y-111057730D01*
X114753358Y-111053492D01*
X115167651Y-110434921D01*
X115175101Y-110429955D01*
X115182527Y-110430931D01*
G37*
%TD.AperFunction*%
%TD*%
%TA.AperFunction,Conductor*%
%TO.N,PWM_D4184-1*%
G36*
X114332349Y-87574922D02*
G01*
X114746639Y-88193489D01*
X114748396Y-88202270D01*
X114746639Y-88206511D01*
X114332349Y-88825077D01*
X114324898Y-88830044D01*
X114317469Y-88829067D01*
X114029853Y-88687755D01*
X113247183Y-88303213D01*
X113241268Y-88296489D01*
X113240642Y-88292712D01*
X113240642Y-88107287D01*
X113244069Y-88099014D01*
X113247181Y-88096786D01*
X114317471Y-87570931D01*
X114326405Y-87570359D01*
X114332349Y-87574922D01*
G37*
%TD.AperFunction*%
%TD*%
%TA.AperFunction,Conductor*%
%TO.N,A0*%
G36*
X130422527Y-102810931D02*
G01*
X131492817Y-103336786D01*
X131498732Y-103343510D01*
X131499358Y-103347287D01*
X131499358Y-103532712D01*
X131495931Y-103540985D01*
X131492817Y-103543213D01*
X130422530Y-104069067D01*
X130413594Y-104069640D01*
X130407650Y-104065077D01*
X129993359Y-103446509D01*
X129991603Y-103437730D01*
X129993358Y-103433492D01*
X130407651Y-102814921D01*
X130415101Y-102809955D01*
X130422527Y-102810931D01*
G37*
%TD.AperFunction*%
%TD*%
%TA.AperFunction,Conductor*%
%TO.N,A_THERM-1*%
G36*
X142850660Y-108166877D02*
G01*
X142853084Y-108170410D01*
X143288046Y-109152112D01*
X143288264Y-109161065D01*
X143283861Y-109166572D01*
X142716512Y-109546637D01*
X142707731Y-109548395D01*
X142703488Y-109546637D01*
X142136692Y-109166943D01*
X142131726Y-109159492D01*
X142132836Y-109151802D01*
X142646716Y-108169725D01*
X142653588Y-108163984D01*
X142657083Y-108163450D01*
X142842387Y-108163450D01*
X142850660Y-108166877D01*
G37*
%TD.AperFunction*%
%TD*%
%TA.AperFunction,Conductor*%
%TO.N,A_THERM-2*%
G36*
X141830254Y-90479110D02*
G01*
X142740285Y-91241029D01*
X142744428Y-91248968D01*
X142741745Y-91257511D01*
X142740285Y-91258971D01*
X141830254Y-92020889D01*
X141821711Y-92023572D01*
X141815826Y-92021354D01*
X140904783Y-91353506D01*
X140900136Y-91345851D01*
X140900000Y-91344070D01*
X140900000Y-91155929D01*
X140903427Y-91147656D01*
X140904776Y-91146498D01*
X141815826Y-90478644D01*
X141824524Y-90476517D01*
X141830254Y-90479110D01*
G37*
%TD.AperFunction*%
%TD*%
%TA.AperFunction,Conductor*%
%TO.N,3.3V_STM*%
G36*
X147938255Y-95866130D02*
G01*
X149167464Y-96147917D01*
X149174763Y-96153106D01*
X149176550Y-96159321D01*
X149176550Y-96940678D01*
X149173123Y-96948951D01*
X149167464Y-96952082D01*
X147938286Y-97233862D01*
X147929457Y-97232371D01*
X147924268Y-97225072D01*
X147924200Y-97224757D01*
X147789460Y-96552295D01*
X147789460Y-96547704D01*
X147924200Y-95875241D01*
X147929185Y-95867804D01*
X147937971Y-95866069D01*
X147938255Y-95866130D01*
G37*
%TD.AperFunction*%
%TD*%
%TA.AperFunction,Conductor*%
%TO.N,RX_RYLR*%
G36*
X113995710Y-74745700D02*
G01*
X114644571Y-75393710D01*
X114742710Y-75491721D01*
X114746142Y-75499992D01*
X114742721Y-75508268D01*
X114742710Y-75508279D01*
X113995712Y-76254298D01*
X113987436Y-76257719D01*
X113979771Y-76254851D01*
X113979134Y-76254298D01*
X113881551Y-76169520D01*
X113230027Y-75603498D01*
X113226029Y-75595486D01*
X113226000Y-75594666D01*
X113226000Y-75405333D01*
X113229427Y-75397060D01*
X113230019Y-75396508D01*
X113979773Y-74745147D01*
X113988264Y-74742309D01*
X113995710Y-74745700D01*
G37*
%TD.AperFunction*%
%TD*%
%TA.AperFunction,Conductor*%
%TO.N,A_THERM-1*%
G36*
X142758167Y-104256966D02*
G01*
X143592132Y-105070403D01*
X143595662Y-105078632D01*
X143592833Y-105086408D01*
X142853501Y-105945930D01*
X142845508Y-105949967D01*
X142844631Y-105950000D01*
X142655369Y-105950000D01*
X142647096Y-105946573D01*
X142646499Y-105945930D01*
X141907166Y-105086408D01*
X141904369Y-105077901D01*
X141907865Y-105070405D01*
X142741832Y-104256966D01*
X142750146Y-104253644D01*
X142758167Y-104256966D01*
G37*
%TD.AperFunction*%
%TD*%
%TA.AperFunction,Conductor*%
%TO.N,A_THERM-2*%
G36*
X142850660Y-95166877D02*
G01*
X142853084Y-95170410D01*
X143288046Y-96152112D01*
X143288264Y-96161065D01*
X143283861Y-96166572D01*
X142716512Y-96546637D01*
X142707731Y-96548395D01*
X142703488Y-96546637D01*
X142136692Y-96166943D01*
X142131726Y-96159492D01*
X142132836Y-96151802D01*
X142646716Y-95169725D01*
X142653588Y-95163984D01*
X142657083Y-95163450D01*
X142842387Y-95163450D01*
X142850660Y-95166877D01*
G37*
%TD.AperFunction*%
%TD*%
%TA.AperFunction,Conductor*%
%TO.N,A_THERM-4*%
G36*
X142758167Y-65256966D02*
G01*
X143592132Y-66070403D01*
X143595662Y-66078632D01*
X143592833Y-66086408D01*
X142853501Y-66945930D01*
X142845508Y-66949967D01*
X142844631Y-66950000D01*
X142655369Y-66950000D01*
X142647096Y-66946573D01*
X142646499Y-66945930D01*
X141907166Y-66086408D01*
X141904369Y-66077901D01*
X141907865Y-66070405D01*
X142741832Y-65256966D01*
X142750146Y-65253644D01*
X142758167Y-65256966D01*
G37*
%TD.AperFunction*%
%TD*%
%TA.AperFunction,Conductor*%
%TO.N,5Vin*%
G36*
X138256160Y-51914104D02*
G01*
X139736384Y-52900263D01*
X139741369Y-52907702D01*
X139739634Y-52916487D01*
X139736384Y-52919737D01*
X138256160Y-53905895D01*
X138247375Y-53907630D01*
X138243653Y-53906191D01*
X137255680Y-53313408D01*
X137250349Y-53306213D01*
X137250000Y-53303375D01*
X137250000Y-52516625D01*
X137253427Y-52508352D01*
X137255680Y-52506592D01*
X138243653Y-51913808D01*
X138252511Y-51912490D01*
X138256160Y-51914104D01*
G37*
%TD.AperFunction*%
%TD*%
%TA.AperFunction,Conductor*%
%TO.N,A1*%
G36*
X141429595Y-114407866D02*
G01*
X142150047Y-115146499D01*
X142243032Y-115241831D01*
X142246355Y-115250146D01*
X142243032Y-115258169D01*
X141429597Y-116092132D01*
X141421367Y-116095662D01*
X141413591Y-116092833D01*
X140554070Y-115353500D01*
X140550033Y-115345507D01*
X140550000Y-115344630D01*
X140550000Y-115155369D01*
X140553427Y-115147096D01*
X140554070Y-115146499D01*
X141413592Y-114407165D01*
X141422098Y-114404369D01*
X141429595Y-114407866D01*
G37*
%TD.AperFunction*%
%TD*%
%TA.AperFunction,Conductor*%
%TO.N,A0*%
G36*
X141429595Y-122657866D02*
G01*
X142150047Y-123396499D01*
X142243032Y-123491831D01*
X142246355Y-123500146D01*
X142243032Y-123508169D01*
X141429597Y-124342132D01*
X141421367Y-124345662D01*
X141413591Y-124342833D01*
X140554070Y-123603500D01*
X140550033Y-123595507D01*
X140550000Y-123594630D01*
X140550000Y-123405369D01*
X140553427Y-123397096D01*
X140554070Y-123396499D01*
X141413592Y-122657165D01*
X141422098Y-122654369D01*
X141429595Y-122657866D01*
G37*
%TD.AperFunction*%
%TD*%
%TA.AperFunction,Conductor*%
%TO.N,5Vin*%
G36*
X130388371Y-73994069D02*
G01*
X130391433Y-73999442D01*
X130734300Y-75339391D01*
X130733031Y-75348255D01*
X130725865Y-75353626D01*
X130725262Y-75353763D01*
X129992297Y-75500540D01*
X129987703Y-75500540D01*
X129254723Y-75353760D01*
X129247283Y-75348776D01*
X129245548Y-75339991D01*
X129245673Y-75339439D01*
X129586937Y-73999454D01*
X129592300Y-73992283D01*
X129598275Y-73990642D01*
X130380098Y-73990642D01*
X130388371Y-73994069D01*
G37*
%TD.AperFunction*%
%TD*%
%TA.AperFunction,Conductor*%
%TO.N,PWM_D4184-1*%
G36*
X104509252Y-82506347D02*
G01*
X105776285Y-83146754D01*
X105782123Y-83153544D01*
X105782707Y-83157196D01*
X105782707Y-83342803D01*
X105779280Y-83351076D01*
X105776285Y-83353245D01*
X104509252Y-83993652D01*
X104500322Y-83994326D01*
X104494252Y-83989719D01*
X104003356Y-83256507D01*
X104001602Y-83247728D01*
X104003355Y-83243494D01*
X104494254Y-82510278D01*
X104501702Y-82505312D01*
X104509252Y-82506347D01*
G37*
%TD.AperFunction*%
%TD*%
%TA.AperFunction,Conductor*%
%TO.N,3.3Vin*%
G36*
X87679871Y-60840840D02*
G01*
X87685439Y-60847854D01*
X87685662Y-60848772D01*
X87849540Y-61667704D01*
X87849540Y-61672296D01*
X87685662Y-62491227D01*
X87680678Y-62498667D01*
X87671893Y-62500404D01*
X87670975Y-62500181D01*
X86173819Y-62072424D01*
X86166805Y-62066856D01*
X86165333Y-62061174D01*
X86165333Y-61278825D01*
X86168760Y-61270552D01*
X86173817Y-61267575D01*
X87670975Y-60839818D01*
X87679871Y-60840840D01*
G37*
%TD.AperFunction*%
%TD*%
%TA.AperFunction,Conductor*%
%TO.N,A_THERM-2*%
G36*
X142758167Y-91256966D02*
G01*
X143592132Y-92070403D01*
X143595662Y-92078632D01*
X143592833Y-92086408D01*
X142853501Y-92945930D01*
X142845508Y-92949967D01*
X142844631Y-92950000D01*
X142655369Y-92950000D01*
X142647096Y-92946573D01*
X142646499Y-92945930D01*
X141907166Y-92086408D01*
X141904369Y-92077901D01*
X141907865Y-92070405D01*
X142741832Y-91256966D01*
X142750146Y-91253644D01*
X142758167Y-91256966D01*
G37*
%TD.AperFunction*%
%TD*%
%TA.AperFunction,Conductor*%
%TO.N,A_THERM-1*%
G36*
X130422527Y-97730931D02*
G01*
X131492817Y-98256786D01*
X131498732Y-98263510D01*
X131499358Y-98267287D01*
X131499358Y-98452712D01*
X131495931Y-98460985D01*
X131492817Y-98463213D01*
X130422530Y-98989067D01*
X130413594Y-98989640D01*
X130407650Y-98985077D01*
X129993359Y-98366509D01*
X129991603Y-98357730D01*
X129993358Y-98353492D01*
X130407651Y-97734921D01*
X130415101Y-97729955D01*
X130422527Y-97730931D01*
G37*
%TD.AperFunction*%
%TD*%
%TA.AperFunction,Conductor*%
%TO.N,A1*%
G36*
X130422527Y-100270931D02*
G01*
X131492817Y-100796786D01*
X131498732Y-100803510D01*
X131499358Y-100807287D01*
X131499358Y-100992712D01*
X131495931Y-101000985D01*
X131492817Y-101003213D01*
X130422530Y-101529067D01*
X130413594Y-101529640D01*
X130407650Y-101525077D01*
X129993359Y-100906509D01*
X129991603Y-100897730D01*
X129993358Y-100893492D01*
X130407651Y-100274921D01*
X130415101Y-100269955D01*
X130422527Y-100270931D01*
G37*
%TD.AperFunction*%
%TD*%
%TA.AperFunction,Conductor*%
%TO.N,A_THERM-3*%
G36*
X130422527Y-92650931D02*
G01*
X131492817Y-93176786D01*
X131498732Y-93183510D01*
X131499358Y-93187287D01*
X131499358Y-93372712D01*
X131495931Y-93380985D01*
X131492817Y-93383213D01*
X130422530Y-93909067D01*
X130413594Y-93909640D01*
X130407650Y-93905077D01*
X129993359Y-93286509D01*
X129991603Y-93277730D01*
X129993358Y-93273492D01*
X130407651Y-92654921D01*
X130415101Y-92649955D01*
X130422527Y-92650931D01*
G37*
%TD.AperFunction*%
%TD*%
%TA.AperFunction,Conductor*%
%TO.N,3.3V*%
G36*
X87575181Y-36097575D02*
G01*
X87582195Y-36103143D01*
X87583667Y-36108825D01*
X87583667Y-36891174D01*
X87580240Y-36899447D01*
X87575181Y-36902424D01*
X86076160Y-37330714D01*
X86067264Y-37329692D01*
X86062009Y-37323620D01*
X85750579Y-36504156D01*
X85750579Y-36495844D01*
X85899822Y-36103143D01*
X86062009Y-35676378D01*
X86068152Y-35669862D01*
X86076159Y-35669285D01*
X87575181Y-36097575D01*
G37*
%TD.AperFunction*%
%TD*%
%TA.AperFunction,Conductor*%
%TO.N,TX_RYLR*%
G36*
X88330457Y-68587869D02*
G01*
X89526207Y-69186764D01*
X89532069Y-69193533D01*
X89532667Y-69197225D01*
X89532667Y-69382774D01*
X89529240Y-69391047D01*
X89526207Y-69393235D01*
X88330458Y-69992129D01*
X88321526Y-69992770D01*
X88315496Y-69988178D01*
X87852359Y-69296510D01*
X87850604Y-69287729D01*
X87852359Y-69283490D01*
X88315497Y-68591820D01*
X88322947Y-68586854D01*
X88330457Y-68587869D01*
G37*
%TD.AperFunction*%
%TD*%
%TA.AperFunction,Conductor*%
%TO.N,3.3V*%
G36*
X94152417Y-41255062D02*
G01*
X95241424Y-42241328D01*
X95245256Y-42249421D01*
X95242242Y-42257854D01*
X95241424Y-42258672D01*
X94152417Y-43244937D01*
X94143984Y-43247951D01*
X94139909Y-43247000D01*
X92769879Y-42653054D01*
X92763652Y-42646619D01*
X92762833Y-42642319D01*
X92762833Y-41857680D01*
X92766260Y-41849407D01*
X92769877Y-41846946D01*
X94139910Y-41252998D01*
X94148863Y-41252853D01*
X94152417Y-41255062D01*
G37*
%TD.AperFunction*%
%TD*%
%TA.AperFunction,Conductor*%
%TO.N,A_THERM-4*%
G36*
X130422527Y-90110931D02*
G01*
X131492817Y-90636786D01*
X131498732Y-90643510D01*
X131499358Y-90647287D01*
X131499358Y-90832712D01*
X131495931Y-90840985D01*
X131492817Y-90843213D01*
X130422530Y-91369067D01*
X130413594Y-91369640D01*
X130407650Y-91365077D01*
X129993359Y-90746509D01*
X129991603Y-90737730D01*
X129993358Y-90733492D01*
X130407651Y-90114921D01*
X130415101Y-90109955D01*
X130422527Y-90110931D01*
G37*
%TD.AperFunction*%
%TD*%
%TA.AperFunction,Conductor*%
%TO.N,A_THERM-1*%
G36*
X141830254Y-103479110D02*
G01*
X142740285Y-104241029D01*
X142744428Y-104248968D01*
X142741745Y-104257511D01*
X142740285Y-104258971D01*
X141830254Y-105020889D01*
X141821711Y-105023572D01*
X141815826Y-105021354D01*
X140904783Y-104353506D01*
X140900136Y-104345851D01*
X140900000Y-104344070D01*
X140900000Y-104155929D01*
X140903427Y-104147656D01*
X140904776Y-104146498D01*
X141815826Y-103478644D01*
X141824524Y-103476517D01*
X141830254Y-103479110D01*
G37*
%TD.AperFunction*%
%TD*%
%TA.AperFunction,Conductor*%
%TO.N,A_THERM-4*%
G36*
X142850901Y-69166877D02*
G01*
X142853182Y-69170100D01*
X143323053Y-70151967D01*
X143323533Y-70160908D01*
X143319011Y-70166737D01*
X142751908Y-70546637D01*
X142743127Y-70548395D01*
X142738884Y-70546637D01*
X142171844Y-70166779D01*
X142166878Y-70159328D01*
X142167840Y-70151930D01*
X142646795Y-69170021D01*
X142653502Y-69164087D01*
X142657311Y-69163450D01*
X142842628Y-69163450D01*
X142850901Y-69166877D01*
G37*
%TD.AperFunction*%
%TD*%
%TA.AperFunction,Conductor*%
%TO.N,CS_SD*%
G36*
X114332349Y-105354922D02*
G01*
X114746639Y-105973489D01*
X114748396Y-105982270D01*
X114746639Y-105986511D01*
X114332349Y-106605077D01*
X114324898Y-106610044D01*
X114317469Y-106609067D01*
X114029853Y-106467755D01*
X113247183Y-106083213D01*
X113241268Y-106076489D01*
X113240642Y-106072712D01*
X113240642Y-105887287D01*
X113244069Y-105879014D01*
X113247181Y-105876786D01*
X114317471Y-105350931D01*
X114326405Y-105350359D01*
X114332349Y-105354922D01*
G37*
%TD.AperFunction*%
%TD*%
%TA.AperFunction,Conductor*%
%TO.N,3.3V*%
G36*
X94932735Y-35670307D02*
G01*
X94937990Y-35676379D01*
X95249420Y-36495844D01*
X95249420Y-36504156D01*
X94937990Y-37323620D01*
X94931847Y-37330137D01*
X94923839Y-37330714D01*
X93424819Y-36902424D01*
X93417805Y-36896856D01*
X93416333Y-36891174D01*
X93416333Y-36108825D01*
X93419760Y-36100552D01*
X93424817Y-36097575D01*
X94923840Y-35669285D01*
X94932735Y-35670307D01*
G37*
%TD.AperFunction*%
%TD*%
%TA.AperFunction,Conductor*%
%TO.N,3.3V_STM*%
G36*
X147973651Y-69866130D02*
G01*
X149202860Y-70147917D01*
X149210159Y-70153106D01*
X149211946Y-70159321D01*
X149211946Y-70940678D01*
X149208519Y-70948951D01*
X149202860Y-70952082D01*
X147973682Y-71233862D01*
X147964853Y-71232371D01*
X147959664Y-71225072D01*
X147959596Y-71224757D01*
X147824856Y-70552295D01*
X147824856Y-70547704D01*
X147959596Y-69875241D01*
X147964581Y-69867804D01*
X147973367Y-69866069D01*
X147973651Y-69866130D01*
G37*
%TD.AperFunction*%
%TD*%
%TA.AperFunction,Conductor*%
%TO.N,PWM_D4184-3*%
G36*
X114332349Y-102814922D02*
G01*
X114746639Y-103433489D01*
X114748396Y-103442270D01*
X114746639Y-103446511D01*
X114332349Y-104065077D01*
X114324898Y-104070044D01*
X114317469Y-104069067D01*
X114029853Y-103927755D01*
X113247183Y-103543213D01*
X113241268Y-103536489D01*
X113240642Y-103532712D01*
X113240642Y-103347287D01*
X113244069Y-103339014D01*
X113247181Y-103336786D01*
X114317471Y-102810931D01*
X114326405Y-102810359D01*
X114332349Y-102814922D01*
G37*
%TD.AperFunction*%
%TD*%
%TA.AperFunction,Conductor*%
%TO.N,A_THERM-2*%
G36*
X130422527Y-95190931D02*
G01*
X131492817Y-95716786D01*
X131498732Y-95723510D01*
X131499358Y-95727287D01*
X131499358Y-95912712D01*
X131495931Y-95920985D01*
X131492817Y-95923213D01*
X130422530Y-96449067D01*
X130413594Y-96449640D01*
X130407650Y-96445077D01*
X129993359Y-95826509D01*
X129991603Y-95817730D01*
X129993358Y-95813492D01*
X130407651Y-95194921D01*
X130415101Y-95189955D01*
X130422527Y-95190931D01*
G37*
%TD.AperFunction*%
%TD*%
%TA.AperFunction,Conductor*%
%TO.N,5V*%
G36*
X126900593Y-46016260D02*
G01*
X126903055Y-46019879D01*
X127497000Y-47389909D01*
X127497146Y-47398863D01*
X127494937Y-47402417D01*
X126508672Y-48491424D01*
X126500579Y-48495256D01*
X126492146Y-48492242D01*
X126491328Y-48491424D01*
X125505062Y-47402417D01*
X125502048Y-47393984D01*
X125502998Y-47389911D01*
X126096945Y-46019878D01*
X126103380Y-46013652D01*
X126107680Y-46012833D01*
X126892320Y-46012833D01*
X126900593Y-46016260D01*
G37*
%TD.AperFunction*%
%TD*%
%TA.AperFunction,Conductor*%
%TO.N,TX_RYLR*%
G36*
X114332349Y-77414922D02*
G01*
X114746639Y-78033489D01*
X114748396Y-78042270D01*
X114746639Y-78046511D01*
X114332349Y-78665077D01*
X114324898Y-78670044D01*
X114317469Y-78669067D01*
X114029853Y-78527755D01*
X113247183Y-78143213D01*
X113241268Y-78136489D01*
X113240642Y-78132712D01*
X113240642Y-77947287D01*
X113244069Y-77939014D01*
X113247181Y-77936786D01*
X114317471Y-77410931D01*
X114326405Y-77410359D01*
X114332349Y-77414922D01*
G37*
%TD.AperFunction*%
%TD*%
%TA.AperFunction,Conductor*%
%TO.N,SCK_SD*%
G36*
X129572349Y-110434922D02*
G01*
X129986639Y-111053489D01*
X129988396Y-111062270D01*
X129986639Y-111066511D01*
X129572349Y-111685077D01*
X129564898Y-111690044D01*
X129557469Y-111689067D01*
X129269853Y-111547755D01*
X128487183Y-111163213D01*
X128481268Y-111156489D01*
X128480642Y-111152712D01*
X128480642Y-110967287D01*
X128484069Y-110959014D01*
X128487181Y-110956786D01*
X129557471Y-110430931D01*
X129566405Y-110430359D01*
X129572349Y-110434922D01*
G37*
%TD.AperFunction*%
%TD*%
%TA.AperFunction,Conductor*%
%TO.N,A_THERM-3*%
G36*
X141830254Y-77479110D02*
G01*
X142740285Y-78241029D01*
X142744428Y-78248968D01*
X142741745Y-78257511D01*
X142740285Y-78258971D01*
X141830254Y-79020889D01*
X141821711Y-79023572D01*
X141815826Y-79021354D01*
X140904783Y-78353506D01*
X140900136Y-78345851D01*
X140900000Y-78344070D01*
X140900000Y-78155929D01*
X140903427Y-78147656D01*
X140904776Y-78146498D01*
X141815826Y-77478644D01*
X141824524Y-77476517D01*
X141830254Y-77479110D01*
G37*
%TD.AperFunction*%
%TD*%
%TA.AperFunction,Conductor*%
%TO.N,MOSI_SD*%
G36*
X114332349Y-107894922D02*
G01*
X114746639Y-108513489D01*
X114748396Y-108522270D01*
X114746639Y-108526511D01*
X114332349Y-109145077D01*
X114324898Y-109150044D01*
X114317469Y-109149067D01*
X114029853Y-109007755D01*
X113247183Y-108623213D01*
X113241268Y-108616489D01*
X113240642Y-108612712D01*
X113240642Y-108427287D01*
X113244069Y-108419014D01*
X113247181Y-108416786D01*
X114317471Y-107890931D01*
X114326405Y-107890359D01*
X114332349Y-107894922D01*
G37*
%TD.AperFunction*%
%TD*%
%TA.AperFunction,Conductor*%
%TO.N,3.3V_STM*%
G36*
X147938255Y-108866130D02*
G01*
X149167464Y-109147917D01*
X149174763Y-109153106D01*
X149176550Y-109159321D01*
X149176550Y-109940678D01*
X149173123Y-109948951D01*
X149167464Y-109952082D01*
X147938286Y-110233862D01*
X147929457Y-110232371D01*
X147924268Y-110225072D01*
X147924200Y-110224757D01*
X147789460Y-109552295D01*
X147789460Y-109547704D01*
X147924200Y-108875241D01*
X147929185Y-108867804D01*
X147937971Y-108866069D01*
X147938255Y-108866130D01*
G37*
%TD.AperFunction*%
%TD*%
%TA.AperFunction,Conductor*%
%TO.N,5V*%
G36*
X122755748Y-38252246D02*
G01*
X123591332Y-38724089D01*
X123596851Y-38731141D01*
X123596557Y-38738323D01*
X123152821Y-39942346D01*
X123146745Y-39948924D01*
X123141843Y-39950000D01*
X122358157Y-39950000D01*
X122349884Y-39946573D01*
X122347179Y-39942346D01*
X121903442Y-38738323D01*
X121903796Y-38729375D01*
X121908665Y-38724090D01*
X122744248Y-38252247D01*
X122753136Y-38251164D01*
X122755748Y-38252246D01*
G37*
%TD.AperFunction*%
%TD*%
M02*
